<?xml version="1.0" encoding="UTF-8" standalone="no"?><svg xmlns="http://www.w3.org/2000/svg" xmlns:xlink="http://www.w3.org/1999/xlink" contentScriptType="application/ecmascript" contentStyleType="text/css" height="1269px" preserveAspectRatio="none" style="width:1460px;height:1269px;" version="1.1" viewBox="0 0 1460 1269" width="1460px" zoomAndPan="magnify"><defs><filter height="300%" id="fuv7ntpwz6c6y" width="300%" x="-1" y="-1"><feGaussianBlur result="blurOut" stdDeviation="2.0"/><feColorMatrix in="blurOut" result="blurOut2" type="matrix" values="0 0 0 0 0 0 0 0 0 0 0 0 0 0 0 0 0 0 .4 0"/><feOffset dx="4.0" dy="4.0" in="blurOut2" result="blurOut3"/><feBlend in="SourceGraphic" in2="blurOut3" mode="normal"/></filter></defs><g><text fill="#000000" font-family="sans-serif" font-size="18" lengthAdjust="spacing" textLength="115" x="666.1134" y="18.6855">Domain Model</text><text fill="#000000" font-family="sans-serif" font-size="18" lengthAdjust="spacing" textLength="0" x="726.1134" y="41.3262"/><text fill="#000000" font-family="sans-serif" font-size="18" lengthAdjust="spacing" textLength="111" x="668.1134" y="63.9668">(Alternative 1)</text><text fill="#000000" font-family="sans-serif" font-size="18" lengthAdjust="spacing" textLength="0" x="726.1134" y="86.6074"/><!--MD5=[02e4b9b7573f1156f41e60aa5b4e25a4]
class Company--><rect codeLine="11" fill="#FEFECE" filter="url(#fuv7ntpwz6c6y)" height="53.8359" id="Company" style="stroke:#A80036;stroke-width:1.5;" width="85" x="107.7269" y="441.5625"/><ellipse cx="122.7269" cy="457.5625" fill="#ADD1B2" rx="11" ry="11" style="stroke:#A80036;stroke-width:1.0;"/><path d="M124.7269,454.0625 Q124.93,453.5625 125.1644,453.3125 Q125.3988,453.0625 125.6644,453.0625 Q126.1331,453.0625 126.43,453.3438 Q126.7269,453.625 126.7269,454.2813 L126.7269,455.8438 Q126.7269,456.5 126.4456,456.7813 Q126.1644,457.0625 125.7269,457.0625 Q125.3363,457.0625 125.0863,456.8906 Q124.8363,456.7188 124.7269,456.2656 Q124.68,455.9531 124.5081,455.7813 Q124.1956,455.4531 123.6331,455.2656 Q123.0706,455.0625 122.5081,455.0625 Q121.805,455.0625 121.2113,455.3438 Q120.6331,455.625 120.18,456.25 Q119.7269,456.875 119.7269,457.7344 L119.7269,458.6563 Q119.7269,459.6875 120.5706,460.375 Q121.4144,461.0625 122.9144,461.0625 Q123.805,461.0625 124.43,460.8594 Q124.7894,460.75 125.1956,460.3906 Q125.4613,460.1875 125.6019,460.125 Q125.7425,460.0625 125.9144,460.0625 Q126.2425,460.0625 126.4769,460.3281 Q126.7269,460.5781 126.7269,460.9375 Q126.7269,461.2813 126.3831,461.6875 Q125.8831,462.2813 125.0863,462.6094 Q124.0394,463.0625 122.7581,463.0625 Q121.2581,463.0625 120.055,462.4688 Q119.0863,462 118.3988,460.9844 Q117.7269,459.9688 117.7269,458.7656 L117.7269,457.6719 Q117.7269,456.4219 118.3206,455.3281 Q118.93,454.2344 119.9769,453.6563 Q121.0394,453.0625 122.2269,453.0625 Q122.9456,453.0625 123.5706,453.3125 Q124.1956,453.5625 124.7269,454.0625 Z " fill="#000000"/><text fill="#000000" font-family="sans-serif" font-size="12" lengthAdjust="spacing" textLength="53" x="136.7269" y="462.4727">Company</text><line style="stroke:#A80036;stroke-width:1.5;" x1="108.7269" x2="191.7269" y1="473.5625" y2="473.5625"/><text fill="#000000" font-family="sans-serif" font-size="11" lengthAdjust="spacing" textLength="59" x="113.7269" y="488.9814">-designation</text><!--MD5=[0caf3a413731a0de34fc6162fe213ed9]
class Laboratory--><rect codeLine="15" fill="#FEFECE" filter="url(#fuv7ntpwz6c6y)" height="40" id="Laboratory" style="stroke:#A80036;stroke-width:1.5;" width="90" x="105.2269" y="309.5625"/><ellipse cx="120.2269" cy="325.5625" fill="#ADD1B2" rx="11" ry="11" style="stroke:#A80036;stroke-width:1.0;"/><path d="M122.2269,322.0625 Q122.43,321.5625 122.6644,321.3125 Q122.8988,321.0625 123.1644,321.0625 Q123.6331,321.0625 123.93,321.3438 Q124.2269,321.625 124.2269,322.2813 L124.2269,323.8438 Q124.2269,324.5 123.9456,324.7813 Q123.6644,325.0625 123.2269,325.0625 Q122.8363,325.0625 122.5863,324.8906 Q122.3363,324.7188 122.2269,324.2656 Q122.18,323.9531 122.0081,323.7813 Q121.6956,323.4531 121.1331,323.2656 Q120.5706,323.0625 120.0081,323.0625 Q119.305,323.0625 118.7113,323.3438 Q118.1331,323.625 117.68,324.25 Q117.2269,324.875 117.2269,325.7344 L117.2269,326.6563 Q117.2269,327.6875 118.0706,328.375 Q118.9144,329.0625 120.4144,329.0625 Q121.305,329.0625 121.93,328.8594 Q122.2894,328.75 122.6956,328.3906 Q122.9613,328.1875 123.1019,328.125 Q123.2425,328.0625 123.4144,328.0625 Q123.7425,328.0625 123.9769,328.3281 Q124.2269,328.5781 124.2269,328.9375 Q124.2269,329.2813 123.8831,329.6875 Q123.3831,330.2813 122.5863,330.6094 Q121.5394,331.0625 120.2581,331.0625 Q118.7581,331.0625 117.555,330.4688 Q116.5863,330 115.8988,328.9844 Q115.2269,327.9688 115.2269,326.7656 L115.2269,325.6719 Q115.2269,324.4219 115.8206,323.3281 Q116.43,322.2344 117.4769,321.6563 Q118.5394,321.0625 119.7269,321.0625 Q120.4456,321.0625 121.0706,321.3125 Q121.6956,321.5625 122.2269,322.0625 Z " fill="#000000"/><text fill="#000000" font-family="sans-serif" font-size="12" lengthAdjust="spacing" textLength="58" x="134.2269" y="330.4727">Laboratory</text><line style="stroke:#A80036;stroke-width:1.5;" x1="106.2269" x2="194.2269" y1="341.5625" y2="341.5625"/><!--MD5=[1934a092c0e7d4da7dc7075b6f4b6b03]
class ClinicalAnalysisLaboratory--><rect codeLine="18" fill="#FEFECE" filter="url(#fuv7ntpwz6c6y)" height="40" id="ClinicalAnalysisLaboratory" style="stroke:#A80036;stroke-width:1.5;" width="177" x="235.7269" y="153.0625"/><ellipse cx="250.7269" cy="169.0625" fill="#ADD1B2" rx="11" ry="11" style="stroke:#A80036;stroke-width:1.0;"/><path d="M252.7269,165.5625 Q252.93,165.0625 253.1644,164.8125 Q253.3988,164.5625 253.6644,164.5625 Q254.1331,164.5625 254.43,164.8438 Q254.7269,165.125 254.7269,165.7813 L254.7269,167.3438 Q254.7269,168 254.4456,168.2813 Q254.1644,168.5625 253.7269,168.5625 Q253.3363,168.5625 253.0863,168.3906 Q252.8363,168.2188 252.7269,167.7656 Q252.68,167.4531 252.5081,167.2813 Q252.1956,166.9531 251.6331,166.7656 Q251.0706,166.5625 250.5081,166.5625 Q249.805,166.5625 249.2113,166.8438 Q248.6331,167.125 248.18,167.75 Q247.7269,168.375 247.7269,169.2344 L247.7269,170.1563 Q247.7269,171.1875 248.5706,171.875 Q249.4144,172.5625 250.9144,172.5625 Q251.805,172.5625 252.43,172.3594 Q252.7894,172.25 253.1956,171.8906 Q253.4613,171.6875 253.6019,171.625 Q253.7425,171.5625 253.9144,171.5625 Q254.2425,171.5625 254.4769,171.8281 Q254.7269,172.0781 254.7269,172.4375 Q254.7269,172.7813 254.3831,173.1875 Q253.8831,173.7813 253.0863,174.1094 Q252.0394,174.5625 250.7581,174.5625 Q249.2581,174.5625 248.055,173.9688 Q247.0863,173.5 246.3988,172.4844 Q245.7269,171.4688 245.7269,170.2656 L245.7269,169.1719 Q245.7269,167.9219 246.3206,166.8281 Q246.93,165.7344 247.9769,165.1563 Q249.0394,164.5625 250.2269,164.5625 Q250.9456,164.5625 251.5706,164.8125 Q252.1956,165.0625 252.7269,165.5625 Z " fill="#000000"/><text fill="#000000" font-family="sans-serif" font-size="12" lengthAdjust="spacing" textLength="145" x="264.7269" y="173.9727">ClinicalAnalysisLaboratory</text><line style="stroke:#A80036;stroke-width:1.5;" x1="236.7269" x2="411.7269" y1="185.0625" y2="185.0625"/><!--MD5=[a64badb107d3691f2dc6af242cdbeb21]
class ChemicalLaboratory--><rect codeLine="21" fill="#FEFECE" filter="url(#fuv7ntpwz6c6y)" height="40" id="ChemicalLaboratory" style="stroke:#A80036;stroke-width:1.5;" width="143" x="57.7269" y="153.0625"/><ellipse cx="72.7269" cy="169.0625" fill="#ADD1B2" rx="11" ry="11" style="stroke:#A80036;stroke-width:1.0;"/><path d="M74.7269,165.5625 Q74.93,165.0625 75.1644,164.8125 Q75.3988,164.5625 75.6644,164.5625 Q76.1331,164.5625 76.43,164.8438 Q76.7269,165.125 76.7269,165.7813 L76.7269,167.3438 Q76.7269,168 76.4456,168.2813 Q76.1644,168.5625 75.7269,168.5625 Q75.3363,168.5625 75.0863,168.3906 Q74.8363,168.2188 74.7269,167.7656 Q74.68,167.4531 74.5081,167.2813 Q74.1956,166.9531 73.6331,166.7656 Q73.0706,166.5625 72.5081,166.5625 Q71.805,166.5625 71.2113,166.8438 Q70.6331,167.125 70.18,167.75 Q69.7269,168.375 69.7269,169.2344 L69.7269,170.1563 Q69.7269,171.1875 70.5706,171.875 Q71.4144,172.5625 72.9144,172.5625 Q73.805,172.5625 74.43,172.3594 Q74.7894,172.25 75.1956,171.8906 Q75.4613,171.6875 75.6019,171.625 Q75.7425,171.5625 75.9144,171.5625 Q76.2425,171.5625 76.4769,171.8281 Q76.7269,172.0781 76.7269,172.4375 Q76.7269,172.7813 76.3831,173.1875 Q75.8831,173.7813 75.0863,174.1094 Q74.0394,174.5625 72.7581,174.5625 Q71.2581,174.5625 70.055,173.9688 Q69.0863,173.5 68.3988,172.4844 Q67.7269,171.4688 67.7269,170.2656 L67.7269,169.1719 Q67.7269,167.9219 68.3206,166.8281 Q68.93,165.7344 69.9769,165.1563 Q71.0394,164.5625 72.2269,164.5625 Q72.9456,164.5625 73.5706,164.8125 Q74.1956,165.0625 74.7269,165.5625 Z " fill="#000000"/><text fill="#000000" font-family="sans-serif" font-size="12" lengthAdjust="spacing" textLength="111" x="86.7269" y="173.9727">ChemicalLaboratory</text><line style="stroke:#A80036;stroke-width:1.5;" x1="58.7269" x2="199.7269" y1="185.0625" y2="185.0625"/><!--MD5=[1f6362a5c8f21d8d6a0fce68f3a92a4e]
class Parameter--><rect codeLine="24" fill="#FEFECE" filter="url(#fuv7ntpwz6c6y)" height="53.8359" id="Parameter" style="stroke:#A80036;stroke-width:1.5;" width="90" x="143.2269" y="958.5625"/><ellipse cx="158.2269" cy="974.5625" fill="#ADD1B2" rx="11" ry="11" style="stroke:#A80036;stroke-width:1.0;"/><path d="M160.2269,971.0625 Q160.43,970.5625 160.6644,970.3125 Q160.8988,970.0625 161.1644,970.0625 Q161.6331,970.0625 161.93,970.3438 Q162.2269,970.625 162.2269,971.2813 L162.2269,972.8438 Q162.2269,973.5 161.9456,973.7813 Q161.6644,974.0625 161.2269,974.0625 Q160.8363,974.0625 160.5863,973.8906 Q160.3363,973.7188 160.2269,973.2656 Q160.18,972.9531 160.0081,972.7813 Q159.6956,972.4531 159.1331,972.2656 Q158.5706,972.0625 158.0081,972.0625 Q157.305,972.0625 156.7113,972.3438 Q156.1331,972.625 155.68,973.25 Q155.2269,973.875 155.2269,974.7344 L155.2269,975.6563 Q155.2269,976.6875 156.0706,977.375 Q156.9144,978.0625 158.4144,978.0625 Q159.305,978.0625 159.93,977.8594 Q160.2894,977.75 160.6956,977.3906 Q160.9613,977.1875 161.1019,977.125 Q161.2425,977.0625 161.4144,977.0625 Q161.7425,977.0625 161.9769,977.3281 Q162.2269,977.5781 162.2269,977.9375 Q162.2269,978.2813 161.8831,978.6875 Q161.3831,979.2813 160.5863,979.6094 Q159.5394,980.0625 158.2581,980.0625 Q156.7581,980.0625 155.555,979.4688 Q154.5863,979 153.8988,977.9844 Q153.2269,976.9688 153.2269,975.7656 L153.2269,974.6719 Q153.2269,973.4219 153.8206,972.3281 Q154.43,971.2344 155.4769,970.6563 Q156.5394,970.0625 157.7269,970.0625 Q158.4456,970.0625 159.0706,970.3125 Q159.6956,970.5625 160.2269,971.0625 Z " fill="#000000"/><text fill="#000000" font-family="sans-serif" font-size="12" lengthAdjust="spacing" textLength="58" x="172.2269" y="979.4727">Parameter</text><line style="stroke:#A80036;stroke-width:1.5;" x1="144.2269" x2="232.2269" y1="990.5625" y2="990.5625"/><text fill="#000000" font-family="sans-serif" font-size="11" lengthAdjust="spacing" textLength="59" x="149.2269" y="1005.9814">-designation</text><!--MD5=[36afb6bbd95a8ac778c4537c55a683d5]
class ParameterCategory--><rect codeLine="28" fill="#FEFECE" filter="url(#fuv7ntpwz6c6y)" height="53.8359" id="ParameterCategory" style="stroke:#A80036;stroke-width:1.5;" width="139" x="118.7269" y="735.5625"/><ellipse cx="133.7269" cy="751.5625" fill="#ADD1B2" rx="11" ry="11" style="stroke:#A80036;stroke-width:1.0;"/><path d="M135.7269,748.0625 Q135.93,747.5625 136.1644,747.3125 Q136.3988,747.0625 136.6644,747.0625 Q137.1331,747.0625 137.43,747.3438 Q137.7269,747.625 137.7269,748.2813 L137.7269,749.8438 Q137.7269,750.5 137.4456,750.7813 Q137.1644,751.0625 136.7269,751.0625 Q136.3363,751.0625 136.0863,750.8906 Q135.8363,750.7188 135.7269,750.2656 Q135.68,749.9531 135.5081,749.7813 Q135.1956,749.4531 134.6331,749.2656 Q134.0706,749.0625 133.5081,749.0625 Q132.805,749.0625 132.2113,749.3438 Q131.6331,749.625 131.18,750.25 Q130.7269,750.875 130.7269,751.7344 L130.7269,752.6563 Q130.7269,753.6875 131.5706,754.375 Q132.4144,755.0625 133.9144,755.0625 Q134.805,755.0625 135.43,754.8594 Q135.7894,754.75 136.1956,754.3906 Q136.4613,754.1875 136.6019,754.125 Q136.7425,754.0625 136.9144,754.0625 Q137.2425,754.0625 137.4769,754.3281 Q137.7269,754.5781 137.7269,754.9375 Q137.7269,755.2813 137.3831,755.6875 Q136.8831,756.2813 136.0863,756.6094 Q135.0394,757.0625 133.7581,757.0625 Q132.2581,757.0625 131.055,756.4688 Q130.0863,756 129.3988,754.9844 Q128.7269,753.9688 128.7269,752.7656 L128.7269,751.6719 Q128.7269,750.4219 129.3206,749.3281 Q129.93,748.2344 130.9769,747.6563 Q132.0394,747.0625 133.2269,747.0625 Q133.9456,747.0625 134.5706,747.3125 Q135.1956,747.5625 135.7269,748.0625 Z " fill="#000000"/><text fill="#000000" font-family="sans-serif" font-size="12" lengthAdjust="spacing" textLength="107" x="147.7269" y="756.4727">ParameterCategory</text><line style="stroke:#A80036;stroke-width:1.5;" x1="119.7269" x2="256.7269" y1="767.5625" y2="767.5625"/><text fill="#000000" font-family="sans-serif" font-size="11" lengthAdjust="spacing" textLength="59" x="124.7269" y="782.9814">-designation</text><!--MD5=[df38be88ccee13e832d6fafd6288a4ca]
class Test--><rect codeLine="32" fill="#FEFECE" filter="url(#fuv7ntpwz6c6y)" height="81.5078" id="Test" style="stroke:#A80036;stroke-width:1.5;" width="64" x="633.2269" y="427.5625"/><ellipse cx="651.8269" cy="443.5625" fill="#ADD1B2" rx="11" ry="11" style="stroke:#A80036;stroke-width:1.0;"/><path d="M653.8269,440.0625 Q654.03,439.5625 654.2644,439.3125 Q654.4988,439.0625 654.7644,439.0625 Q655.2331,439.0625 655.53,439.3438 Q655.8269,439.625 655.8269,440.2813 L655.8269,441.8438 Q655.8269,442.5 655.5456,442.7813 Q655.2644,443.0625 654.8269,443.0625 Q654.4363,443.0625 654.1863,442.8906 Q653.9363,442.7188 653.8269,442.2656 Q653.78,441.9531 653.6081,441.7813 Q653.2956,441.4531 652.7331,441.2656 Q652.1706,441.0625 651.6081,441.0625 Q650.905,441.0625 650.3113,441.3438 Q649.7331,441.625 649.28,442.25 Q648.8269,442.875 648.8269,443.7344 L648.8269,444.6563 Q648.8269,445.6875 649.6706,446.375 Q650.5144,447.0625 652.0144,447.0625 Q652.905,447.0625 653.53,446.8594 Q653.8894,446.75 654.2956,446.3906 Q654.5613,446.1875 654.7019,446.125 Q654.8425,446.0625 655.0144,446.0625 Q655.3425,446.0625 655.5769,446.3281 Q655.8269,446.5781 655.8269,446.9375 Q655.8269,447.2813 655.4831,447.6875 Q654.9831,448.2813 654.1863,448.6094 Q653.1394,449.0625 651.8581,449.0625 Q650.3581,449.0625 649.155,448.4688 Q648.1863,448 647.4988,446.9844 Q646.8269,445.9688 646.8269,444.7656 L646.8269,443.6719 Q646.8269,442.4219 647.4206,441.3281 Q648.03,440.2344 649.0769,439.6563 Q650.1394,439.0625 651.3269,439.0625 Q652.0456,439.0625 652.6706,439.3125 Q653.2956,439.5625 653.8269,440.0625 Z " fill="#000000"/><text fill="#000000" font-family="sans-serif" font-size="12" lengthAdjust="spacing" textLength="24" x="666.6269" y="448.4727">Test</text><line style="stroke:#A80036;stroke-width:1.5;" x1="634.2269" x2="696.2269" y1="459.5625" y2="459.5625"/><text fill="#000000" font-family="sans-serif" font-size="11" lengthAdjust="spacing" textLength="28" x="639.2269" y="474.9814">-code</text><text fill="#000000" font-family="sans-serif" font-size="11" lengthAdjust="spacing" textLength="48" x="639.2269" y="488.8174">-NhsCode</text><text fill="#000000" font-family="sans-serif" font-size="11" lengthAdjust="spacing" textLength="52" x="639.2269" y="502.6533">-createdAt</text><!--MD5=[aeb3272166074d8737a70b61b1e71682]
class TestType--><rect codeLine="38" fill="#FEFECE" filter="url(#fuv7ntpwz6c6y)" height="40" id="TestType" style="stroke:#A80036;stroke-width:1.5;" width="82" x="270.2269" y="594.5625"/><ellipse cx="285.2269" cy="610.5625" fill="#ADD1B2" rx="11" ry="11" style="stroke:#A80036;stroke-width:1.0;"/><path d="M287.2269,607.0625 Q287.43,606.5625 287.6644,606.3125 Q287.8988,606.0625 288.1644,606.0625 Q288.6331,606.0625 288.93,606.3438 Q289.2269,606.625 289.2269,607.2813 L289.2269,608.8438 Q289.2269,609.5 288.9456,609.7813 Q288.6644,610.0625 288.2269,610.0625 Q287.8363,610.0625 287.5863,609.8906 Q287.3363,609.7188 287.2269,609.2656 Q287.18,608.9531 287.0081,608.7813 Q286.6956,608.4531 286.1331,608.2656 Q285.5706,608.0625 285.0081,608.0625 Q284.305,608.0625 283.7113,608.3438 Q283.1331,608.625 282.68,609.25 Q282.2269,609.875 282.2269,610.7344 L282.2269,611.6563 Q282.2269,612.6875 283.0706,613.375 Q283.9144,614.0625 285.4144,614.0625 Q286.305,614.0625 286.93,613.8594 Q287.2894,613.75 287.6956,613.3906 Q287.9613,613.1875 288.1019,613.125 Q288.2425,613.0625 288.4144,613.0625 Q288.7425,613.0625 288.9769,613.3281 Q289.2269,613.5781 289.2269,613.9375 Q289.2269,614.2813 288.8831,614.6875 Q288.3831,615.2813 287.5863,615.6094 Q286.5394,616.0625 285.2581,616.0625 Q283.7581,616.0625 282.555,615.4688 Q281.5863,615 280.8988,613.9844 Q280.2269,612.9688 280.2269,611.7656 L280.2269,610.6719 Q280.2269,609.4219 280.8206,608.3281 Q281.43,607.2344 282.4769,606.6563 Q283.5394,606.0625 284.7269,606.0625 Q285.4456,606.0625 286.0706,606.3125 Q286.6956,606.5625 287.2269,607.0625 Z " fill="#000000"/><text fill="#000000" font-family="sans-serif" font-size="12" lengthAdjust="spacing" textLength="50" x="299.2269" y="615.4727">TestType</text><line style="stroke:#A80036;stroke-width:1.5;" x1="271.2269" x2="351.2269" y1="626.5625" y2="626.5625"/><!--MD5=[0f07739f46effee96e095e9c408da841]
class TestParameter--><rect codeLine="41" fill="#FEFECE" filter="url(#fuv7ntpwz6c6y)" height="40" id="TestParameter" style="stroke:#A80036;stroke-width:1.5;" width="114" x="537.2269" y="742.5625"/><ellipse cx="552.2269" cy="758.5625" fill="#ADD1B2" rx="11" ry="11" style="stroke:#A80036;stroke-width:1.0;"/><path d="M554.2269,755.0625 Q554.43,754.5625 554.6644,754.3125 Q554.8988,754.0625 555.1644,754.0625 Q555.6331,754.0625 555.93,754.3438 Q556.2269,754.625 556.2269,755.2813 L556.2269,756.8438 Q556.2269,757.5 555.9456,757.7813 Q555.6644,758.0625 555.2269,758.0625 Q554.8363,758.0625 554.5863,757.8906 Q554.3363,757.7188 554.2269,757.2656 Q554.18,756.9531 554.0081,756.7813 Q553.6956,756.4531 553.1331,756.2656 Q552.5706,756.0625 552.0081,756.0625 Q551.305,756.0625 550.7113,756.3438 Q550.1331,756.625 549.68,757.25 Q549.2269,757.875 549.2269,758.7344 L549.2269,759.6563 Q549.2269,760.6875 550.0706,761.375 Q550.9144,762.0625 552.4144,762.0625 Q553.305,762.0625 553.93,761.8594 Q554.2894,761.75 554.6956,761.3906 Q554.9613,761.1875 555.1019,761.125 Q555.2425,761.0625 555.4144,761.0625 Q555.7425,761.0625 555.9769,761.3281 Q556.2269,761.5781 556.2269,761.9375 Q556.2269,762.2813 555.8831,762.6875 Q555.3831,763.2813 554.5863,763.6094 Q553.5394,764.0625 552.2581,764.0625 Q550.7581,764.0625 549.555,763.4688 Q548.5863,763 547.8988,761.9844 Q547.2269,760.9688 547.2269,759.7656 L547.2269,758.6719 Q547.2269,757.4219 547.8206,756.3281 Q548.43,755.2344 549.4769,754.6563 Q550.5394,754.0625 551.7269,754.0625 Q552.4456,754.0625 553.0706,754.3125 Q553.6956,754.5625 554.2269,755.0625 Z " fill="#000000"/><text fill="#000000" font-family="sans-serif" font-size="12" lengthAdjust="spacing" textLength="82" x="566.2269" y="763.4727">TestParameter</text><line style="stroke:#A80036;stroke-width:1.5;" x1="538.2269" x2="650.2269" y1="774.5625" y2="774.5625"/><!--MD5=[4e608140b854dae633589343bce77383]
class TestParameterResult--><rect codeLine="44" fill="#FEFECE" filter="url(#fuv7ntpwz6c6y)" height="67.6719" id="TestParameterResult" style="stroke:#A80036;stroke-width:1.5;" width="150" x="560.2269" y="951.5625"/><ellipse cx="575.2269" cy="967.5625" fill="#ADD1B2" rx="11" ry="11" style="stroke:#A80036;stroke-width:1.0;"/><path d="M577.2269,964.0625 Q577.43,963.5625 577.6644,963.3125 Q577.8988,963.0625 578.1644,963.0625 Q578.6331,963.0625 578.93,963.3438 Q579.2269,963.625 579.2269,964.2813 L579.2269,965.8438 Q579.2269,966.5 578.9456,966.7813 Q578.6644,967.0625 578.2269,967.0625 Q577.8363,967.0625 577.5863,966.8906 Q577.3363,966.7188 577.2269,966.2656 Q577.18,965.9531 577.0081,965.7813 Q576.6956,965.4531 576.1331,965.2656 Q575.5706,965.0625 575.0081,965.0625 Q574.305,965.0625 573.7113,965.3438 Q573.1331,965.625 572.68,966.25 Q572.2269,966.875 572.2269,967.7344 L572.2269,968.6563 Q572.2269,969.6875 573.0706,970.375 Q573.9144,971.0625 575.4144,971.0625 Q576.305,971.0625 576.93,970.8594 Q577.2894,970.75 577.6956,970.3906 Q577.9613,970.1875 578.1019,970.125 Q578.2425,970.0625 578.4144,970.0625 Q578.7425,970.0625 578.9769,970.3281 Q579.2269,970.5781 579.2269,970.9375 Q579.2269,971.2813 578.8831,971.6875 Q578.3831,972.2813 577.5863,972.6094 Q576.5394,973.0625 575.2581,973.0625 Q573.7581,973.0625 572.555,972.4688 Q571.5863,972 570.8988,970.9844 Q570.2269,969.9688 570.2269,968.7656 L570.2269,967.6719 Q570.2269,966.4219 570.8206,965.3281 Q571.43,964.2344 572.4769,963.6563 Q573.5394,963.0625 574.7269,963.0625 Q575.4456,963.0625 576.0706,963.3125 Q576.6956,963.5625 577.2269,964.0625 Z " fill="#000000"/><text fill="#000000" font-family="sans-serif" font-size="12" lengthAdjust="spacing" textLength="118" x="589.2269" y="972.4727">TestParameterResult</text><line style="stroke:#A80036;stroke-width:1.5;" x1="561.2269" x2="709.2269" y1="983.5625" y2="983.5625"/><text fill="#000000" font-family="sans-serif" font-size="11" lengthAdjust="spacing" textLength="52" x="566.2269" y="998.9814">-createdAt</text><text fill="#000000" font-family="sans-serif" font-size="11" lengthAdjust="spacing" textLength="30" x="566.2269" y="1012.8174">-value</text><!--MD5=[c18fe2235af84d27f50ab7ae87a88372]
class TestValidation--><rect codeLine="49" fill="#FEFECE" filter="url(#fuv7ntpwz6c6y)" height="53.8359" id="TestValidation" style="stroke:#A80036;stroke-width:1.5;" width="110" x="723.2269" y="587.5625"/><ellipse cx="738.2269" cy="603.5625" fill="#ADD1B2" rx="11" ry="11" style="stroke:#A80036;stroke-width:1.0;"/><path d="M740.2269,600.0625 Q740.43,599.5625 740.6644,599.3125 Q740.8988,599.0625 741.1644,599.0625 Q741.6331,599.0625 741.93,599.3438 Q742.2269,599.625 742.2269,600.2813 L742.2269,601.8438 Q742.2269,602.5 741.9456,602.7813 Q741.6644,603.0625 741.2269,603.0625 Q740.8363,603.0625 740.5863,602.8906 Q740.3363,602.7188 740.2269,602.2656 Q740.18,601.9531 740.0081,601.7813 Q739.6956,601.4531 739.1331,601.2656 Q738.5706,601.0625 738.0081,601.0625 Q737.305,601.0625 736.7113,601.3438 Q736.1331,601.625 735.68,602.25 Q735.2269,602.875 735.2269,603.7344 L735.2269,604.6563 Q735.2269,605.6875 736.0706,606.375 Q736.9144,607.0625 738.4144,607.0625 Q739.305,607.0625 739.93,606.8594 Q740.2894,606.75 740.6956,606.3906 Q740.9613,606.1875 741.1019,606.125 Q741.2425,606.0625 741.4144,606.0625 Q741.7425,606.0625 741.9769,606.3281 Q742.2269,606.5781 742.2269,606.9375 Q742.2269,607.2813 741.8831,607.6875 Q741.3831,608.2813 740.5863,608.6094 Q739.5394,609.0625 738.2581,609.0625 Q736.7581,609.0625 735.555,608.4688 Q734.5863,608 733.8988,606.9844 Q733.2269,605.9688 733.2269,604.7656 L733.2269,603.6719 Q733.2269,602.4219 733.8206,601.3281 Q734.43,600.2344 735.4769,599.6563 Q736.5394,599.0625 737.7269,599.0625 Q738.4456,599.0625 739.0706,599.3125 Q739.6956,599.5625 740.2269,600.0625 Z " fill="#000000"/><text fill="#000000" font-family="sans-serif" font-size="12" lengthAdjust="spacing" textLength="78" x="752.2269" y="608.4727">TestValidation</text><line style="stroke:#A80036;stroke-width:1.5;" x1="724.2269" x2="832.2269" y1="619.5625" y2="619.5625"/><text fill="#000000" font-family="sans-serif" font-size="11" lengthAdjust="spacing" textLength="52" x="729.2269" y="634.9814">-createdAt</text><!--MD5=[9681492165142af2a4a3a169d90ee8d4]
class Sample--><rect codeLine="53" fill="#FEFECE" filter="url(#fuv7ntpwz6c6y)" height="53.8359" id="Sample" style="stroke:#A80036;stroke-width:1.5;" width="75" x="948.7269" y="958.5625"/><ellipse cx="963.7269" cy="974.5625" fill="#ADD1B2" rx="11" ry="11" style="stroke:#A80036;stroke-width:1.0;"/><path d="M965.7269,971.0625 Q965.93,970.5625 966.1644,970.3125 Q966.3988,970.0625 966.6644,970.0625 Q967.1331,970.0625 967.43,970.3438 Q967.7269,970.625 967.7269,971.2813 L967.7269,972.8438 Q967.7269,973.5 967.4456,973.7813 Q967.1644,974.0625 966.7269,974.0625 Q966.3363,974.0625 966.0863,973.8906 Q965.8363,973.7188 965.7269,973.2656 Q965.68,972.9531 965.5081,972.7813 Q965.1956,972.4531 964.6331,972.2656 Q964.0706,972.0625 963.5081,972.0625 Q962.805,972.0625 962.2113,972.3438 Q961.6331,972.625 961.18,973.25 Q960.7269,973.875 960.7269,974.7344 L960.7269,975.6563 Q960.7269,976.6875 961.5706,977.375 Q962.4144,978.0625 963.9144,978.0625 Q964.805,978.0625 965.43,977.8594 Q965.7894,977.75 966.1956,977.3906 Q966.4613,977.1875 966.6019,977.125 Q966.7425,977.0625 966.9144,977.0625 Q967.2425,977.0625 967.4769,977.3281 Q967.7269,977.5781 967.7269,977.9375 Q967.7269,978.2813 967.3831,978.6875 Q966.8831,979.2813 966.0863,979.6094 Q965.0394,980.0625 963.7581,980.0625 Q962.2581,980.0625 961.055,979.4688 Q960.0863,979 959.3988,977.9844 Q958.7269,976.9688 958.7269,975.7656 L958.7269,974.6719 Q958.7269,973.4219 959.3206,972.3281 Q959.93,971.2344 960.9769,970.6563 Q962.0394,970.0625 963.2269,970.0625 Q963.9456,970.0625 964.5706,970.3125 Q965.1956,970.5625 965.7269,971.0625 Z " fill="#000000"/><text fill="#000000" font-family="sans-serif" font-size="12" lengthAdjust="spacing" textLength="43" x="977.7269" y="979.4727">Sample</text><line style="stroke:#A80036;stroke-width:1.5;" x1="949.7269" x2="1022.7269" y1="990.5625" y2="990.5625"/><text fill="#000000" font-family="sans-serif" font-size="11" lengthAdjust="spacing" textLength="52" x="954.7269" y="1005.9814">-createdAt</text><!--MD5=[0c27e179cfc1ecadd76b03e464a492e9]
class SampleCollectionMethod--><rect codeLine="57" fill="#FEFECE" filter="url(#fuv7ntpwz6c6y)" height="40" id="SampleCollectionMethod" style="stroke:#A80036;stroke-width:1.5;" width="170" x="293.2269" y="742.5625"/><ellipse cx="308.2269" cy="758.5625" fill="#ADD1B2" rx="11" ry="11" style="stroke:#A80036;stroke-width:1.0;"/><path d="M310.2269,755.0625 Q310.43,754.5625 310.6644,754.3125 Q310.8988,754.0625 311.1644,754.0625 Q311.6331,754.0625 311.93,754.3438 Q312.2269,754.625 312.2269,755.2813 L312.2269,756.8438 Q312.2269,757.5 311.9456,757.7813 Q311.6644,758.0625 311.2269,758.0625 Q310.8363,758.0625 310.5863,757.8906 Q310.3363,757.7188 310.2269,757.2656 Q310.18,756.9531 310.0081,756.7813 Q309.6956,756.4531 309.1331,756.2656 Q308.5706,756.0625 308.0081,756.0625 Q307.305,756.0625 306.7113,756.3438 Q306.1331,756.625 305.68,757.25 Q305.2269,757.875 305.2269,758.7344 L305.2269,759.6563 Q305.2269,760.6875 306.0706,761.375 Q306.9144,762.0625 308.4144,762.0625 Q309.305,762.0625 309.93,761.8594 Q310.2894,761.75 310.6956,761.3906 Q310.9613,761.1875 311.1019,761.125 Q311.2425,761.0625 311.4144,761.0625 Q311.7425,761.0625 311.9769,761.3281 Q312.2269,761.5781 312.2269,761.9375 Q312.2269,762.2813 311.8831,762.6875 Q311.3831,763.2813 310.5863,763.6094 Q309.5394,764.0625 308.2581,764.0625 Q306.7581,764.0625 305.555,763.4688 Q304.5863,763 303.8988,761.9844 Q303.2269,760.9688 303.2269,759.7656 L303.2269,758.6719 Q303.2269,757.4219 303.8206,756.3281 Q304.43,755.2344 305.4769,754.6563 Q306.5394,754.0625 307.7269,754.0625 Q308.4456,754.0625 309.0706,754.3125 Q309.6956,754.5625 310.2269,755.0625 Z " fill="#000000"/><text fill="#000000" font-family="sans-serif" font-size="12" lengthAdjust="spacing" textLength="138" x="322.2269" y="763.4727">SampleCollectionMethod</text><line style="stroke:#A80036;stroke-width:1.5;" x1="294.2269" x2="462.2269" y1="774.5625" y2="774.5625"/><!--MD5=[b374255986abe8788200fa8596627276]
class BarCode--><rect codeLine="60" fill="#FEFECE" filter="url(#fuv7ntpwz6c6y)" height="40" id="BarCode" style="stroke:#A80036;stroke-width:1.5;" width="81" x="1142.7269" y="965.5625"/><ellipse cx="1157.7269" cy="981.5625" fill="#ADD1B2" rx="11" ry="11" style="stroke:#A80036;stroke-width:1.0;"/><path d="M1159.7269,978.0625 Q1159.93,977.5625 1160.1644,977.3125 Q1160.3988,977.0625 1160.6644,977.0625 Q1161.1331,977.0625 1161.43,977.3438 Q1161.7269,977.625 1161.7269,978.2813 L1161.7269,979.8438 Q1161.7269,980.5 1161.4456,980.7813 Q1161.1644,981.0625 1160.7269,981.0625 Q1160.3363,981.0625 1160.0863,980.8906 Q1159.8363,980.7188 1159.7269,980.2656 Q1159.68,979.9531 1159.5081,979.7813 Q1159.1956,979.4531 1158.6331,979.2656 Q1158.0706,979.0625 1157.5081,979.0625 Q1156.805,979.0625 1156.2113,979.3438 Q1155.6331,979.625 1155.18,980.25 Q1154.7269,980.875 1154.7269,981.7344 L1154.7269,982.6563 Q1154.7269,983.6875 1155.5706,984.375 Q1156.4144,985.0625 1157.9144,985.0625 Q1158.805,985.0625 1159.43,984.8594 Q1159.7894,984.75 1160.1956,984.3906 Q1160.4613,984.1875 1160.6019,984.125 Q1160.7425,984.0625 1160.9144,984.0625 Q1161.2425,984.0625 1161.4769,984.3281 Q1161.7269,984.5781 1161.7269,984.9375 Q1161.7269,985.2813 1161.3831,985.6875 Q1160.8831,986.2813 1160.0863,986.6094 Q1159.0394,987.0625 1157.7581,987.0625 Q1156.2581,987.0625 1155.055,986.4688 Q1154.0863,986 1153.3988,984.9844 Q1152.7269,983.9688 1152.7269,982.7656 L1152.7269,981.6719 Q1152.7269,980.4219 1153.3206,979.3281 Q1153.93,978.2344 1154.9769,977.6563 Q1156.0394,977.0625 1157.2269,977.0625 Q1157.9456,977.0625 1158.5706,977.3125 Q1159.1956,977.5625 1159.7269,978.0625 Z " fill="#000000"/><text fill="#000000" font-family="sans-serif" font-size="12" lengthAdjust="spacing" textLength="49" x="1171.7269" y="986.4727">BarCode</text><line style="stroke:#A80036;stroke-width:1.5;" x1="1143.7269" x2="1222.7269" y1="997.5625" y2="997.5625"/><!--MD5=[36a204bd4af8ae270b9eb204523b0143]
class BarCodeApi--><rect codeLine="63" fill="#FEFECE" filter="url(#fuv7ntpwz6c6y)" height="40" id="BarCodeApi" style="stroke:#A80036;stroke-width:1.5;" width="98" x="1348.2269" y="965.5625"/><ellipse cx="1363.2269" cy="981.5625" fill="#ADD1B2" rx="11" ry="11" style="stroke:#A80036;stroke-width:1.0;"/><path d="M1365.2269,978.0625 Q1365.43,977.5625 1365.6644,977.3125 Q1365.8988,977.0625 1366.1644,977.0625 Q1366.6331,977.0625 1366.93,977.3438 Q1367.2269,977.625 1367.2269,978.2813 L1367.2269,979.8438 Q1367.2269,980.5 1366.9456,980.7813 Q1366.6644,981.0625 1366.2269,981.0625 Q1365.8363,981.0625 1365.5863,980.8906 Q1365.3363,980.7188 1365.2269,980.2656 Q1365.18,979.9531 1365.0081,979.7813 Q1364.6956,979.4531 1364.1331,979.2656 Q1363.5706,979.0625 1363.0081,979.0625 Q1362.305,979.0625 1361.7113,979.3438 Q1361.1331,979.625 1360.68,980.25 Q1360.2269,980.875 1360.2269,981.7344 L1360.2269,982.6563 Q1360.2269,983.6875 1361.0706,984.375 Q1361.9144,985.0625 1363.4144,985.0625 Q1364.305,985.0625 1364.93,984.8594 Q1365.2894,984.75 1365.6956,984.3906 Q1365.9613,984.1875 1366.1019,984.125 Q1366.2425,984.0625 1366.4144,984.0625 Q1366.7425,984.0625 1366.9769,984.3281 Q1367.2269,984.5781 1367.2269,984.9375 Q1367.2269,985.2813 1366.8831,985.6875 Q1366.3831,986.2813 1365.5863,986.6094 Q1364.5394,987.0625 1363.2581,987.0625 Q1361.7581,987.0625 1360.555,986.4688 Q1359.5863,986 1358.8988,984.9844 Q1358.2269,983.9688 1358.2269,982.7656 L1358.2269,981.6719 Q1358.2269,980.4219 1358.8206,979.3281 Q1359.43,978.2344 1360.4769,977.6563 Q1361.5394,977.0625 1362.7269,977.0625 Q1363.4456,977.0625 1364.0706,977.3125 Q1364.6956,977.5625 1365.2269,978.0625 Z " fill="#000000"/><text fill="#000000" font-family="sans-serif" font-size="12" lengthAdjust="spacing" textLength="66" x="1377.2269" y="986.4727">BarCodeApi</text><line style="stroke:#A80036;stroke-width:1.5;" x1="1349.2269" x2="1445.2269" y1="997.5625" y2="997.5625"/><!--MD5=[10d06bcee75aaf74ab8f6040820ceef2]
class Diagnosis--><rect codeLine="66" fill="#FEFECE" filter="url(#fuv7ntpwz6c6y)" height="53.8359" id="Diagnosis" style="stroke:#A80036;stroke-width:1.5;" width="89" x="1109.7269" y="441.5625"/><ellipse cx="1124.7269" cy="457.5625" fill="#ADD1B2" rx="11" ry="11" style="stroke:#A80036;stroke-width:1.0;"/><path d="M1126.7269,454.0625 Q1126.93,453.5625 1127.1644,453.3125 Q1127.3988,453.0625 1127.6644,453.0625 Q1128.1331,453.0625 1128.43,453.3438 Q1128.7269,453.625 1128.7269,454.2813 L1128.7269,455.8438 Q1128.7269,456.5 1128.4456,456.7813 Q1128.1644,457.0625 1127.7269,457.0625 Q1127.3363,457.0625 1127.0863,456.8906 Q1126.8363,456.7188 1126.7269,456.2656 Q1126.68,455.9531 1126.5081,455.7813 Q1126.1956,455.4531 1125.6331,455.2656 Q1125.0706,455.0625 1124.5081,455.0625 Q1123.805,455.0625 1123.2113,455.3438 Q1122.6331,455.625 1122.18,456.25 Q1121.7269,456.875 1121.7269,457.7344 L1121.7269,458.6563 Q1121.7269,459.6875 1122.5706,460.375 Q1123.4144,461.0625 1124.9144,461.0625 Q1125.805,461.0625 1126.43,460.8594 Q1126.7894,460.75 1127.1956,460.3906 Q1127.4613,460.1875 1127.6019,460.125 Q1127.7425,460.0625 1127.9144,460.0625 Q1128.2425,460.0625 1128.4769,460.3281 Q1128.7269,460.5781 1128.7269,460.9375 Q1128.7269,461.2813 1128.3831,461.6875 Q1127.8831,462.2813 1127.0863,462.6094 Q1126.0394,463.0625 1124.7581,463.0625 Q1123.2581,463.0625 1122.055,462.4688 Q1121.0863,462 1120.3988,460.9844 Q1119.7269,459.9688 1119.7269,458.7656 L1119.7269,457.6719 Q1119.7269,456.4219 1120.3206,455.3281 Q1120.93,454.2344 1121.9769,453.6563 Q1123.0394,453.0625 1124.2269,453.0625 Q1124.9456,453.0625 1125.5706,453.3125 Q1126.1956,453.5625 1126.7269,454.0625 Z " fill="#000000"/><text fill="#000000" font-family="sans-serif" font-size="12" lengthAdjust="spacing" textLength="57" x="1138.7269" y="462.4727">Diagnosis</text><line style="stroke:#A80036;stroke-width:1.5;" x1="1110.7269" x2="1197.7269" y1="473.5625" y2="473.5625"/><text fill="#000000" font-family="sans-serif" font-size="11" lengthAdjust="spacing" textLength="52" x="1115.7269" y="488.9814">-createdAt</text><!--MD5=[f61f25a4c924aea49782a3614f4b4835]
class DiagnosisReport--><rect codeLine="70" fill="#FEFECE" filter="url(#fuv7ntpwz6c6y)" height="40" id="DiagnosisReport" style="stroke:#A80036;stroke-width:1.5;" width="126" x="1250.2269" y="594.5625"/><ellipse cx="1265.2269" cy="610.5625" fill="#ADD1B2" rx="11" ry="11" style="stroke:#A80036;stroke-width:1.0;"/><path d="M1267.2269,607.0625 Q1267.43,606.5625 1267.6644,606.3125 Q1267.8988,606.0625 1268.1644,606.0625 Q1268.6331,606.0625 1268.93,606.3438 Q1269.2269,606.625 1269.2269,607.2813 L1269.2269,608.8438 Q1269.2269,609.5 1268.9456,609.7813 Q1268.6644,610.0625 1268.2269,610.0625 Q1267.8363,610.0625 1267.5863,609.8906 Q1267.3363,609.7188 1267.2269,609.2656 Q1267.18,608.9531 1267.0081,608.7813 Q1266.6956,608.4531 1266.1331,608.2656 Q1265.5706,608.0625 1265.0081,608.0625 Q1264.305,608.0625 1263.7113,608.3438 Q1263.1331,608.625 1262.68,609.25 Q1262.2269,609.875 1262.2269,610.7344 L1262.2269,611.6563 Q1262.2269,612.6875 1263.0706,613.375 Q1263.9144,614.0625 1265.4144,614.0625 Q1266.305,614.0625 1266.93,613.8594 Q1267.2894,613.75 1267.6956,613.3906 Q1267.9613,613.1875 1268.1019,613.125 Q1268.2425,613.0625 1268.4144,613.0625 Q1268.7425,613.0625 1268.9769,613.3281 Q1269.2269,613.5781 1269.2269,613.9375 Q1269.2269,614.2813 1268.8831,614.6875 Q1268.3831,615.2813 1267.5863,615.6094 Q1266.5394,616.0625 1265.2581,616.0625 Q1263.7581,616.0625 1262.555,615.4688 Q1261.5863,615 1260.8988,613.9844 Q1260.2269,612.9688 1260.2269,611.7656 L1260.2269,610.6719 Q1260.2269,609.4219 1260.8206,608.3281 Q1261.43,607.2344 1262.4769,606.6563 Q1263.5394,606.0625 1264.7269,606.0625 Q1265.4456,606.0625 1266.0706,606.3125 Q1266.6956,606.5625 1267.2269,607.0625 Z " fill="#000000"/><text fill="#000000" font-family="sans-serif" font-size="12" lengthAdjust="spacing" textLength="94" x="1279.2269" y="615.4727">DiagnosisReport</text><line style="stroke:#A80036;stroke-width:1.5;" x1="1251.2269" x2="1375.2269" y1="626.5625" y2="626.5625"/><!--MD5=[aa09e65d8abd8337c9726658262a3ae8]
class ValidationModule--><rect codeLine="73" fill="#FEFECE" filter="url(#fuv7ntpwz6c6y)" height="40" id="ValidationModule" style="stroke:#A80036;stroke-width:1.5;" width="126" x="706.2269" y="1215.5625"/><ellipse cx="721.2269" cy="1231.5625" fill="#ADD1B2" rx="11" ry="11" style="stroke:#A80036;stroke-width:1.0;"/><path d="M723.2269,1228.0625 Q723.43,1227.5625 723.6644,1227.3125 Q723.8988,1227.0625 724.1644,1227.0625 Q724.6331,1227.0625 724.93,1227.3438 Q725.2269,1227.625 725.2269,1228.2813 L725.2269,1229.8438 Q725.2269,1230.5 724.9456,1230.7813 Q724.6644,1231.0625 724.2269,1231.0625 Q723.8363,1231.0625 723.5863,1230.8906 Q723.3363,1230.7188 723.2269,1230.2656 Q723.18,1229.9531 723.0081,1229.7813 Q722.6956,1229.4531 722.1331,1229.2656 Q721.5706,1229.0625 721.0081,1229.0625 Q720.305,1229.0625 719.7113,1229.3438 Q719.1331,1229.625 718.68,1230.25 Q718.2269,1230.875 718.2269,1231.7344 L718.2269,1232.6563 Q718.2269,1233.6875 719.0706,1234.375 Q719.9144,1235.0625 721.4144,1235.0625 Q722.305,1235.0625 722.93,1234.8594 Q723.2894,1234.75 723.6956,1234.3906 Q723.9613,1234.1875 724.1019,1234.125 Q724.2425,1234.0625 724.4144,1234.0625 Q724.7425,1234.0625 724.9769,1234.3281 Q725.2269,1234.5781 725.2269,1234.9375 Q725.2269,1235.2813 724.8831,1235.6875 Q724.3831,1236.2813 723.5863,1236.6094 Q722.5394,1237.0625 721.2581,1237.0625 Q719.7581,1237.0625 718.555,1236.4688 Q717.5863,1236 716.8988,1234.9844 Q716.2269,1233.9688 716.2269,1232.7656 L716.2269,1231.6719 Q716.2269,1230.4219 716.8206,1229.3281 Q717.43,1228.2344 718.4769,1227.6563 Q719.5394,1227.0625 720.7269,1227.0625 Q721.4456,1227.0625 722.0706,1227.3125 Q722.6956,1227.5625 723.2269,1228.0625 Z " fill="#000000"/><text fill="#000000" font-family="sans-serif" font-size="12" lengthAdjust="spacing" textLength="94" x="735.2269" y="1236.4727">ValidationModule</text><line style="stroke:#A80036;stroke-width:1.5;" x1="707.2269" x2="831.2269" y1="1247.5625" y2="1247.5625"/><!--MD5=[76b5e19c9337179d2d7ae334371d68c8]
class Notification--><rect codeLine="76" fill="#FEFECE" filter="url(#fuv7ntpwz6c6y)" height="40" id="Notification" style="stroke:#A80036;stroke-width:1.5;" width="93" x="876.7269" y="742.5625"/><ellipse cx="891.7269" cy="758.5625" fill="#ADD1B2" rx="11" ry="11" style="stroke:#A80036;stroke-width:1.0;"/><path d="M893.7269,755.0625 Q893.93,754.5625 894.1644,754.3125 Q894.3988,754.0625 894.6644,754.0625 Q895.1331,754.0625 895.43,754.3438 Q895.7269,754.625 895.7269,755.2813 L895.7269,756.8438 Q895.7269,757.5 895.4456,757.7813 Q895.1644,758.0625 894.7269,758.0625 Q894.3363,758.0625 894.0863,757.8906 Q893.8363,757.7188 893.7269,757.2656 Q893.68,756.9531 893.5081,756.7813 Q893.1956,756.4531 892.6331,756.2656 Q892.0706,756.0625 891.5081,756.0625 Q890.805,756.0625 890.2113,756.3438 Q889.6331,756.625 889.18,757.25 Q888.7269,757.875 888.7269,758.7344 L888.7269,759.6563 Q888.7269,760.6875 889.5706,761.375 Q890.4144,762.0625 891.9144,762.0625 Q892.805,762.0625 893.43,761.8594 Q893.7894,761.75 894.1956,761.3906 Q894.4613,761.1875 894.6019,761.125 Q894.7425,761.0625 894.9144,761.0625 Q895.2425,761.0625 895.4769,761.3281 Q895.7269,761.5781 895.7269,761.9375 Q895.7269,762.2813 895.3831,762.6875 Q894.8831,763.2813 894.0863,763.6094 Q893.0394,764.0625 891.7581,764.0625 Q890.2581,764.0625 889.055,763.4688 Q888.0863,763 887.3988,761.9844 Q886.7269,760.9688 886.7269,759.7656 L886.7269,758.6719 Q886.7269,757.4219 887.3206,756.3281 Q887.93,755.2344 888.9769,754.6563 Q890.0394,754.0625 891.2269,754.0625 Q891.9456,754.0625 892.5706,754.3125 Q893.1956,754.5625 893.7269,755.0625 Z " fill="#000000"/><text fill="#000000" font-family="sans-serif" font-size="12" lengthAdjust="spacing" textLength="61" x="905.7269" y="763.4727">Notification</text><line style="stroke:#A80036;stroke-width:1.5;" x1="877.7269" x2="968.7269" y1="774.5625" y2="774.5625"/><!--MD5=[1e5eea26d585b9a928e875b443aeda83]
class SmsNotification--><rect codeLine="79" fill="#FEFECE" filter="url(#fuv7ntpwz6c6y)" height="40" id="SmsNotification" style="stroke:#A80036;stroke-width:1.5;" width="119" x="706.7269" y="850.5625"/><ellipse cx="721.7269" cy="866.5625" fill="#ADD1B2" rx="11" ry="11" style="stroke:#A80036;stroke-width:1.0;"/><path d="M723.7269,863.0625 Q723.93,862.5625 724.1644,862.3125 Q724.3988,862.0625 724.6644,862.0625 Q725.1331,862.0625 725.43,862.3438 Q725.7269,862.625 725.7269,863.2813 L725.7269,864.8438 Q725.7269,865.5 725.4456,865.7813 Q725.1644,866.0625 724.7269,866.0625 Q724.3363,866.0625 724.0863,865.8906 Q723.8363,865.7188 723.7269,865.2656 Q723.68,864.9531 723.5081,864.7813 Q723.1956,864.4531 722.6331,864.2656 Q722.0706,864.0625 721.5081,864.0625 Q720.805,864.0625 720.2113,864.3438 Q719.6331,864.625 719.18,865.25 Q718.7269,865.875 718.7269,866.7344 L718.7269,867.6563 Q718.7269,868.6875 719.5706,869.375 Q720.4144,870.0625 721.9144,870.0625 Q722.805,870.0625 723.43,869.8594 Q723.7894,869.75 724.1956,869.3906 Q724.4613,869.1875 724.6019,869.125 Q724.7425,869.0625 724.9144,869.0625 Q725.2425,869.0625 725.4769,869.3281 Q725.7269,869.5781 725.7269,869.9375 Q725.7269,870.2813 725.3831,870.6875 Q724.8831,871.2813 724.0863,871.6094 Q723.0394,872.0625 721.7581,872.0625 Q720.2581,872.0625 719.055,871.4688 Q718.0863,871 717.3988,869.9844 Q716.7269,868.9688 716.7269,867.7656 L716.7269,866.6719 Q716.7269,865.4219 717.3206,864.3281 Q717.93,863.2344 718.9769,862.6563 Q720.0394,862.0625 721.2269,862.0625 Q721.9456,862.0625 722.5706,862.3125 Q723.1956,862.5625 723.7269,863.0625 Z " fill="#000000"/><text fill="#000000" font-family="sans-serif" font-size="12" lengthAdjust="spacing" textLength="87" x="735.7269" y="871.4727">SmsNotification</text><line style="stroke:#A80036;stroke-width:1.5;" x1="707.7269" x2="824.7269" y1="882.5625" y2="882.5625"/><!--MD5=[7e2bc2f128e759c5889ccd6a2666d576]
class EmailNotification--><rect codeLine="82" fill="#FEFECE" filter="url(#fuv7ntpwz6c6y)" height="40" id="EmailNotification" style="stroke:#A80036;stroke-width:1.5;" width="125" x="860.7269" y="850.5625"/><ellipse cx="875.7269" cy="866.5625" fill="#ADD1B2" rx="11" ry="11" style="stroke:#A80036;stroke-width:1.0;"/><path d="M877.7269,863.0625 Q877.93,862.5625 878.1644,862.3125 Q878.3988,862.0625 878.6644,862.0625 Q879.1331,862.0625 879.43,862.3438 Q879.7269,862.625 879.7269,863.2813 L879.7269,864.8438 Q879.7269,865.5 879.4456,865.7813 Q879.1644,866.0625 878.7269,866.0625 Q878.3363,866.0625 878.0863,865.8906 Q877.8363,865.7188 877.7269,865.2656 Q877.68,864.9531 877.5081,864.7813 Q877.1956,864.4531 876.6331,864.2656 Q876.0706,864.0625 875.5081,864.0625 Q874.805,864.0625 874.2113,864.3438 Q873.6331,864.625 873.18,865.25 Q872.7269,865.875 872.7269,866.7344 L872.7269,867.6563 Q872.7269,868.6875 873.5706,869.375 Q874.4144,870.0625 875.9144,870.0625 Q876.805,870.0625 877.43,869.8594 Q877.7894,869.75 878.1956,869.3906 Q878.4613,869.1875 878.6019,869.125 Q878.7425,869.0625 878.9144,869.0625 Q879.2425,869.0625 879.4769,869.3281 Q879.7269,869.5781 879.7269,869.9375 Q879.7269,870.2813 879.3831,870.6875 Q878.8831,871.2813 878.0863,871.6094 Q877.0394,872.0625 875.7581,872.0625 Q874.2581,872.0625 873.055,871.4688 Q872.0863,871 871.3988,869.9844 Q870.7269,868.9688 870.7269,867.7656 L870.7269,866.6719 Q870.7269,865.4219 871.3206,864.3281 Q871.93,863.2344 872.9769,862.6563 Q874.0394,862.0625 875.2269,862.0625 Q875.9456,862.0625 876.5706,862.3125 Q877.1956,862.5625 877.7269,863.0625 Z " fill="#000000"/><text fill="#000000" font-family="sans-serif" font-size="12" lengthAdjust="spacing" textLength="93" x="889.7269" y="871.4727">EmailNotification</text><line style="stroke:#A80036;stroke-width:1.5;" x1="861.7269" x2="984.7269" y1="882.5625" y2="882.5625"/><!--MD5=[ed6624c6556d5e7b1bd23032162d20b7]
class Client--><rect codeLine="85" fill="#FEFECE" filter="url(#fuv7ntpwz6c6y)" height="150.6875" id="Client" style="stroke:#A80036;stroke-width:1.5;" width="122" x="473.2269" y="97.5625"/><ellipse cx="514.3269" cy="113.5625" fill="#ADD1B2" rx="11" ry="11" style="stroke:#A80036;stroke-width:1.0;"/><path d="M516.3269,110.0625 Q516.53,109.5625 516.7644,109.3125 Q516.9988,109.0625 517.2644,109.0625 Q517.7331,109.0625 518.03,109.3438 Q518.3269,109.625 518.3269,110.2813 L518.3269,111.8438 Q518.3269,112.5 518.0456,112.7813 Q517.7644,113.0625 517.3269,113.0625 Q516.9363,113.0625 516.6863,112.8906 Q516.4363,112.7188 516.3269,112.2656 Q516.28,111.9531 516.1081,111.7813 Q515.7956,111.4531 515.2331,111.2656 Q514.6706,111.0625 514.1081,111.0625 Q513.405,111.0625 512.8113,111.3438 Q512.2331,111.625 511.78,112.25 Q511.3269,112.875 511.3269,113.7344 L511.3269,114.6563 Q511.3269,115.6875 512.1706,116.375 Q513.0144,117.0625 514.5144,117.0625 Q515.405,117.0625 516.03,116.8594 Q516.3894,116.75 516.7956,116.3906 Q517.0613,116.1875 517.2019,116.125 Q517.3425,116.0625 517.5144,116.0625 Q517.8425,116.0625 518.0769,116.3281 Q518.3269,116.5781 518.3269,116.9375 Q518.3269,117.2813 517.9831,117.6875 Q517.4831,118.2813 516.6863,118.6094 Q515.6394,119.0625 514.3581,119.0625 Q512.8581,119.0625 511.655,118.4688 Q510.6863,118 509.9988,116.9844 Q509.3269,115.9688 509.3269,114.7656 L509.3269,113.6719 Q509.3269,112.4219 509.9206,111.3281 Q510.53,110.2344 511.5769,109.6563 Q512.6394,109.0625 513.8269,109.0625 Q514.5456,109.0625 515.1706,109.3125 Q515.7956,109.5625 516.3269,110.0625 Z " fill="#000000"/><text fill="#000000" font-family="sans-serif" font-size="12" lengthAdjust="spacing" textLength="32" x="534.1269" y="118.4727">Client</text><line style="stroke:#A80036;stroke-width:1.5;" x1="474.2269" x2="594.2269" y1="129.5625" y2="129.5625"/><text fill="#000000" font-family="sans-serif" font-size="11" lengthAdjust="spacing" textLength="95" x="479.2269" y="144.9814">-citizenCardNumber</text><text fill="#000000" font-family="sans-serif" font-size="11" lengthAdjust="spacing" textLength="30" x="479.2269" y="158.8174">-name</text><text fill="#000000" font-family="sans-serif" font-size="11" lengthAdjust="spacing" textLength="59" x="479.2269" y="172.6533">-nhsNumber</text><text fill="#000000" font-family="sans-serif" font-size="11" lengthAdjust="spacing" textLength="47" x="479.2269" y="186.4893">-birthDate</text><text fill="#000000" font-family="sans-serif" font-size="11" lengthAdjust="spacing" textLength="22" x="479.2269" y="200.3252">-sex</text><text fill="#000000" font-family="sans-serif" font-size="11" lengthAdjust="spacing" textLength="110" x="479.2269" y="214.1611">-taxIdenticationNumber</text><text fill="#000000" font-family="sans-serif" font-size="11" lengthAdjust="spacing" textLength="71" x="479.2269" y="227.9971">-phoneNumber</text><text fill="#000000" font-family="sans-serif" font-size="11" lengthAdjust="spacing" textLength="70" x="479.2269" y="241.833">-emailAddress</text><!--MD5=[a999c1570c205a2156b04a15307bc1ff]
class LabOrder--><rect codeLine="96" fill="#FEFECE" filter="url(#fuv7ntpwz6c6y)" height="40" id="LabOrder" style="stroke:#A80036;stroke-width:1.5;" width="84" x="844.2269" y="309.5625"/><ellipse cx="859.2269" cy="325.5625" fill="#ADD1B2" rx="11" ry="11" style="stroke:#A80036;stroke-width:1.0;"/><path d="M861.2269,322.0625 Q861.43,321.5625 861.6644,321.3125 Q861.8988,321.0625 862.1644,321.0625 Q862.6331,321.0625 862.93,321.3438 Q863.2269,321.625 863.2269,322.2813 L863.2269,323.8438 Q863.2269,324.5 862.9456,324.7813 Q862.6644,325.0625 862.2269,325.0625 Q861.8363,325.0625 861.5863,324.8906 Q861.3363,324.7188 861.2269,324.2656 Q861.18,323.9531 861.0081,323.7813 Q860.6956,323.4531 860.1331,323.2656 Q859.5706,323.0625 859.0081,323.0625 Q858.305,323.0625 857.7113,323.3438 Q857.1331,323.625 856.68,324.25 Q856.2269,324.875 856.2269,325.7344 L856.2269,326.6563 Q856.2269,327.6875 857.0706,328.375 Q857.9144,329.0625 859.4144,329.0625 Q860.305,329.0625 860.93,328.8594 Q861.2894,328.75 861.6956,328.3906 Q861.9613,328.1875 862.1019,328.125 Q862.2425,328.0625 862.4144,328.0625 Q862.7425,328.0625 862.9769,328.3281 Q863.2269,328.5781 863.2269,328.9375 Q863.2269,329.2813 862.8831,329.6875 Q862.3831,330.2813 861.5863,330.6094 Q860.5394,331.0625 859.2581,331.0625 Q857.7581,331.0625 856.555,330.4688 Q855.5863,330 854.8988,328.9844 Q854.2269,327.9688 854.2269,326.7656 L854.2269,325.6719 Q854.2269,324.4219 854.8206,323.3281 Q855.43,322.2344 856.4769,321.6563 Q857.5394,321.0625 858.7269,321.0625 Q859.4456,321.0625 860.0706,321.3125 Q860.6956,321.5625 861.2269,322.0625 Z " fill="#000000"/><text fill="#000000" font-family="sans-serif" font-size="12" lengthAdjust="spacing" textLength="52" x="873.2269" y="330.4727">LabOrder</text><line style="stroke:#A80036;stroke-width:1.5;" x1="845.2269" x2="927.2269" y1="341.5625" y2="341.5625"/><!--MD5=[1c357e7e7fdba398bcadd6e61afe49f5]
class ReferenceValue--><rect codeLine="99" fill="#FEFECE" filter="url(#fuv7ntpwz6c6y)" height="40" id="ReferenceValue" style="stroke:#A80036;stroke-width:1.5;" width="120" x="699.2269" y="1097.5625"/><ellipse cx="714.2269" cy="1113.5625" fill="#ADD1B2" rx="11" ry="11" style="stroke:#A80036;stroke-width:1.0;"/><path d="M716.2269,1110.0625 Q716.43,1109.5625 716.6644,1109.3125 Q716.8988,1109.0625 717.1644,1109.0625 Q717.6331,1109.0625 717.93,1109.3438 Q718.2269,1109.625 718.2269,1110.2813 L718.2269,1111.8438 Q718.2269,1112.5 717.9456,1112.7813 Q717.6644,1113.0625 717.2269,1113.0625 Q716.8363,1113.0625 716.5863,1112.8906 Q716.3363,1112.7188 716.2269,1112.2656 Q716.18,1111.9531 716.0081,1111.7813 Q715.6956,1111.4531 715.1331,1111.2656 Q714.5706,1111.0625 714.0081,1111.0625 Q713.305,1111.0625 712.7113,1111.3438 Q712.1331,1111.625 711.68,1112.25 Q711.2269,1112.875 711.2269,1113.7344 L711.2269,1114.6563 Q711.2269,1115.6875 712.0706,1116.375 Q712.9144,1117.0625 714.4144,1117.0625 Q715.305,1117.0625 715.93,1116.8594 Q716.2894,1116.75 716.6956,1116.3906 Q716.9613,1116.1875 717.1019,1116.125 Q717.2425,1116.0625 717.4144,1116.0625 Q717.7425,1116.0625 717.9769,1116.3281 Q718.2269,1116.5781 718.2269,1116.9375 Q718.2269,1117.2813 717.8831,1117.6875 Q717.3831,1118.2813 716.5863,1118.6094 Q715.5394,1119.0625 714.2581,1119.0625 Q712.7581,1119.0625 711.555,1118.4688 Q710.5863,1118 709.8988,1116.9844 Q709.2269,1115.9688 709.2269,1114.7656 L709.2269,1113.6719 Q709.2269,1112.4219 709.8206,1111.3281 Q710.43,1110.2344 711.4769,1109.6563 Q712.5394,1109.0625 713.7269,1109.0625 Q714.4456,1109.0625 715.0706,1109.3125 Q715.6956,1109.5625 716.2269,1110.0625 Z " fill="#000000"/><text fill="#000000" font-family="sans-serif" font-size="12" lengthAdjust="spacing" textLength="88" x="728.2269" y="1118.4727">ReferenceValue</text><line style="stroke:#A80036;stroke-width:1.5;" x1="700.2269" x2="818.2269" y1="1129.5625" y2="1129.5625"/><!--MD5=[03960189e81aa2c066c762ffabbee709]
class Receptionist--><rect codeLine="102" fill="#FEFECE" filter="url(#fuv7ntpwz6c6y)" height="40" id="Receptionist" style="stroke:#A80036;stroke-width:1.5;" width="101" x="719.7269" y="153.0625"/><ellipse cx="734.7269" cy="169.0625" fill="#ADD1B2" rx="11" ry="11" style="stroke:#A80036;stroke-width:1.0;"/><path d="M736.7269,165.5625 Q736.93,165.0625 737.1644,164.8125 Q737.3988,164.5625 737.6644,164.5625 Q738.1331,164.5625 738.43,164.8438 Q738.7269,165.125 738.7269,165.7813 L738.7269,167.3438 Q738.7269,168 738.4456,168.2813 Q738.1644,168.5625 737.7269,168.5625 Q737.3363,168.5625 737.0863,168.3906 Q736.8363,168.2188 736.7269,167.7656 Q736.68,167.4531 736.5081,167.2813 Q736.1956,166.9531 735.6331,166.7656 Q735.0706,166.5625 734.5081,166.5625 Q733.805,166.5625 733.2113,166.8438 Q732.6331,167.125 732.18,167.75 Q731.7269,168.375 731.7269,169.2344 L731.7269,170.1563 Q731.7269,171.1875 732.5706,171.875 Q733.4144,172.5625 734.9144,172.5625 Q735.805,172.5625 736.43,172.3594 Q736.7894,172.25 737.1956,171.8906 Q737.4613,171.6875 737.6019,171.625 Q737.7425,171.5625 737.9144,171.5625 Q738.2425,171.5625 738.4769,171.8281 Q738.7269,172.0781 738.7269,172.4375 Q738.7269,172.7813 738.3831,173.1875 Q737.8831,173.7813 737.0863,174.1094 Q736.0394,174.5625 734.7581,174.5625 Q733.2581,174.5625 732.055,173.9688 Q731.0863,173.5 730.3988,172.4844 Q729.7269,171.4688 729.7269,170.2656 L729.7269,169.1719 Q729.7269,167.9219 730.3206,166.8281 Q730.93,165.7344 731.9769,165.1563 Q733.0394,164.5625 734.2269,164.5625 Q734.9456,164.5625 735.5706,164.8125 Q736.1956,165.0625 736.7269,165.5625 Z " fill="#000000"/><text fill="#000000" font-family="sans-serif" font-size="12" lengthAdjust="spacing" textLength="69" x="748.7269" y="173.9727">Receptionist</text><line style="stroke:#A80036;stroke-width:1.5;" x1="720.7269" x2="819.7269" y1="185.0625" y2="185.0625"/><!--MD5=[01931d41e78f8996acd44f6f0fd8de28]
class MedicalLabTechnician--><rect codeLine="105" fill="#FEFECE" filter="url(#fuv7ntpwz6c6y)" height="40" id="MedicalLabTechnician" style="stroke:#A80036;stroke-width:1.5;" width="155" x="908.7269" y="1097.5625"/><ellipse cx="923.7269" cy="1113.5625" fill="#ADD1B2" rx="11" ry="11" style="stroke:#A80036;stroke-width:1.0;"/><path d="M925.7269,1110.0625 Q925.93,1109.5625 926.1644,1109.3125 Q926.3988,1109.0625 926.6644,1109.0625 Q927.1331,1109.0625 927.43,1109.3438 Q927.7269,1109.625 927.7269,1110.2813 L927.7269,1111.8438 Q927.7269,1112.5 927.4456,1112.7813 Q927.1644,1113.0625 926.7269,1113.0625 Q926.3363,1113.0625 926.0863,1112.8906 Q925.8363,1112.7188 925.7269,1112.2656 Q925.68,1111.9531 925.5081,1111.7813 Q925.1956,1111.4531 924.6331,1111.2656 Q924.0706,1111.0625 923.5081,1111.0625 Q922.805,1111.0625 922.2113,1111.3438 Q921.6331,1111.625 921.18,1112.25 Q920.7269,1112.875 920.7269,1113.7344 L920.7269,1114.6563 Q920.7269,1115.6875 921.5706,1116.375 Q922.4144,1117.0625 923.9144,1117.0625 Q924.805,1117.0625 925.43,1116.8594 Q925.7894,1116.75 926.1956,1116.3906 Q926.4613,1116.1875 926.6019,1116.125 Q926.7425,1116.0625 926.9144,1116.0625 Q927.2425,1116.0625 927.4769,1116.3281 Q927.7269,1116.5781 927.7269,1116.9375 Q927.7269,1117.2813 927.3831,1117.6875 Q926.8831,1118.2813 926.0863,1118.6094 Q925.0394,1119.0625 923.7581,1119.0625 Q922.2581,1119.0625 921.055,1118.4688 Q920.0863,1118 919.3988,1116.9844 Q918.7269,1115.9688 918.7269,1114.7656 L918.7269,1113.6719 Q918.7269,1112.4219 919.3206,1111.3281 Q919.93,1110.2344 920.9769,1109.6563 Q922.0394,1109.0625 923.2269,1109.0625 Q923.9456,1109.0625 924.5706,1109.3125 Q925.1956,1109.5625 925.7269,1110.0625 Z " fill="#000000"/><text fill="#000000" font-family="sans-serif" font-size="12" lengthAdjust="spacing" textLength="123" x="937.7269" y="1118.4727">MedicalLabTechnician</text><line style="stroke:#A80036;stroke-width:1.5;" x1="909.7269" x2="1062.7269" y1="1129.5625" y2="1129.5625"/><!--MD5=[012ee2a8bf3ae2b319009b06f951c2e5]
class ClinicalChemistryTechnologist--><rect codeLine="108" fill="#FEFECE" filter="url(#fuv7ntpwz6c6y)" height="40" id="ClinicalChemistryTechnologist" style="stroke:#A80036;stroke-width:1.5;" width="200" x="471.2269" y="1215.5625"/><ellipse cx="486.2269" cy="1231.5625" fill="#ADD1B2" rx="11" ry="11" style="stroke:#A80036;stroke-width:1.0;"/><path d="M488.2269,1228.0625 Q488.43,1227.5625 488.6644,1227.3125 Q488.8988,1227.0625 489.1644,1227.0625 Q489.6331,1227.0625 489.93,1227.3438 Q490.2269,1227.625 490.2269,1228.2813 L490.2269,1229.8438 Q490.2269,1230.5 489.9456,1230.7813 Q489.6644,1231.0625 489.2269,1231.0625 Q488.8363,1231.0625 488.5863,1230.8906 Q488.3363,1230.7188 488.2269,1230.2656 Q488.18,1229.9531 488.0081,1229.7813 Q487.6956,1229.4531 487.1331,1229.2656 Q486.5706,1229.0625 486.0081,1229.0625 Q485.305,1229.0625 484.7113,1229.3438 Q484.1331,1229.625 483.68,1230.25 Q483.2269,1230.875 483.2269,1231.7344 L483.2269,1232.6563 Q483.2269,1233.6875 484.0706,1234.375 Q484.9144,1235.0625 486.4144,1235.0625 Q487.305,1235.0625 487.93,1234.8594 Q488.2894,1234.75 488.6956,1234.3906 Q488.9613,1234.1875 489.1019,1234.125 Q489.2425,1234.0625 489.4144,1234.0625 Q489.7425,1234.0625 489.9769,1234.3281 Q490.2269,1234.5781 490.2269,1234.9375 Q490.2269,1235.2813 489.8831,1235.6875 Q489.3831,1236.2813 488.5863,1236.6094 Q487.5394,1237.0625 486.2581,1237.0625 Q484.7581,1237.0625 483.555,1236.4688 Q482.5863,1236 481.8988,1234.9844 Q481.2269,1233.9688 481.2269,1232.7656 L481.2269,1231.6719 Q481.2269,1230.4219 481.8206,1229.3281 Q482.43,1228.2344 483.4769,1227.6563 Q484.5394,1227.0625 485.7269,1227.0625 Q486.4456,1227.0625 487.0706,1227.3125 Q487.6956,1227.5625 488.2269,1228.0625 Z " fill="#000000"/><text fill="#000000" font-family="sans-serif" font-size="12" lengthAdjust="spacing" textLength="168" x="500.2269" y="1236.4727">ClinicalChemistryTechnologist</text><line style="stroke:#A80036;stroke-width:1.5;" x1="472.2269" x2="670.2269" y1="1247.5625" y2="1247.5625"/><!--MD5=[7d96fd15f3014691d2fcaf89c5791e2a]
class SpecialistDoctor--><rect codeLine="111" fill="#FEFECE" filter="url(#fuv7ntpwz6c6y)" height="40" id="SpecialistDoctor" style="stroke:#A80036;stroke-width:1.5;" width="122" x="1093.2269" y="594.5625"/><ellipse cx="1108.2269" cy="610.5625" fill="#ADD1B2" rx="11" ry="11" style="stroke:#A80036;stroke-width:1.0;"/><path d="M1110.2269,607.0625 Q1110.43,606.5625 1110.6644,606.3125 Q1110.8988,606.0625 1111.1644,606.0625 Q1111.6331,606.0625 1111.93,606.3438 Q1112.2269,606.625 1112.2269,607.2813 L1112.2269,608.8438 Q1112.2269,609.5 1111.9456,609.7813 Q1111.6644,610.0625 1111.2269,610.0625 Q1110.8363,610.0625 1110.5863,609.8906 Q1110.3363,609.7188 1110.2269,609.2656 Q1110.18,608.9531 1110.0081,608.7813 Q1109.6956,608.4531 1109.1331,608.2656 Q1108.5706,608.0625 1108.0081,608.0625 Q1107.305,608.0625 1106.7113,608.3438 Q1106.1331,608.625 1105.68,609.25 Q1105.2269,609.875 1105.2269,610.7344 L1105.2269,611.6563 Q1105.2269,612.6875 1106.0706,613.375 Q1106.9144,614.0625 1108.4144,614.0625 Q1109.305,614.0625 1109.93,613.8594 Q1110.2894,613.75 1110.6956,613.3906 Q1110.9613,613.1875 1111.1019,613.125 Q1111.2425,613.0625 1111.4144,613.0625 Q1111.7425,613.0625 1111.9769,613.3281 Q1112.2269,613.5781 1112.2269,613.9375 Q1112.2269,614.2813 1111.8831,614.6875 Q1111.3831,615.2813 1110.5863,615.6094 Q1109.5394,616.0625 1108.2581,616.0625 Q1106.7581,616.0625 1105.555,615.4688 Q1104.5863,615 1103.8988,613.9844 Q1103.2269,612.9688 1103.2269,611.7656 L1103.2269,610.6719 Q1103.2269,609.4219 1103.8206,608.3281 Q1104.43,607.2344 1105.4769,606.6563 Q1106.5394,606.0625 1107.7269,606.0625 Q1108.4456,606.0625 1109.0706,606.3125 Q1109.6956,606.5625 1110.2269,607.0625 Z " fill="#000000"/><text fill="#000000" font-family="sans-serif" font-size="12" lengthAdjust="spacing" textLength="90" x="1122.2269" y="615.4727">SpecialistDoctor</text><line style="stroke:#A80036;stroke-width:1.5;" x1="1094.2269" x2="1214.2269" y1="626.5625" y2="626.5625"/><!--MD5=[052425de1c0eb6cc1c1b48342b0bb88f]
class LaboratoryCoordinator--><rect codeLine="114" fill="#FEFECE" filter="url(#fuv7ntpwz6c6y)" height="40" id="LaboratoryCoordinator" style="stroke:#A80036;stroke-width:1.5;" width="155" x="686.7269" y="742.5625"/><ellipse cx="701.7269" cy="758.5625" fill="#ADD1B2" rx="11" ry="11" style="stroke:#A80036;stroke-width:1.0;"/><path d="M703.7269,755.0625 Q703.93,754.5625 704.1644,754.3125 Q704.3988,754.0625 704.6644,754.0625 Q705.1331,754.0625 705.43,754.3438 Q705.7269,754.625 705.7269,755.2813 L705.7269,756.8438 Q705.7269,757.5 705.4456,757.7813 Q705.1644,758.0625 704.7269,758.0625 Q704.3363,758.0625 704.0863,757.8906 Q703.8363,757.7188 703.7269,757.2656 Q703.68,756.9531 703.5081,756.7813 Q703.1956,756.4531 702.6331,756.2656 Q702.0706,756.0625 701.5081,756.0625 Q700.805,756.0625 700.2113,756.3438 Q699.6331,756.625 699.18,757.25 Q698.7269,757.875 698.7269,758.7344 L698.7269,759.6563 Q698.7269,760.6875 699.5706,761.375 Q700.4144,762.0625 701.9144,762.0625 Q702.805,762.0625 703.43,761.8594 Q703.7894,761.75 704.1956,761.3906 Q704.4613,761.1875 704.6019,761.125 Q704.7425,761.0625 704.9144,761.0625 Q705.2425,761.0625 705.4769,761.3281 Q705.7269,761.5781 705.7269,761.9375 Q705.7269,762.2813 705.3831,762.6875 Q704.8831,763.2813 704.0863,763.6094 Q703.0394,764.0625 701.7581,764.0625 Q700.2581,764.0625 699.055,763.4688 Q698.0863,763 697.3988,761.9844 Q696.7269,760.9688 696.7269,759.7656 L696.7269,758.6719 Q696.7269,757.4219 697.3206,756.3281 Q697.93,755.2344 698.9769,754.6563 Q700.0394,754.0625 701.2269,754.0625 Q701.9456,754.0625 702.5706,754.3125 Q703.1956,754.5625 703.7269,755.0625 Z " fill="#000000"/><text fill="#000000" font-family="sans-serif" font-size="12" lengthAdjust="spacing" textLength="123" x="715.7269" y="763.4727">LaboratoryCoordinator</text><line style="stroke:#A80036;stroke-width:1.5;" x1="687.7269" x2="840.7269" y1="774.5625" y2="774.5625"/><!--MD5=[1e7f750a71b4b33f3f946f8af010cd04]
class Nhs--><rect codeLine="117" fill="#FEFECE" filter="url(#fuv7ntpwz6c6y)" height="40" id="Nhs" style="stroke:#A80036;stroke-width:1.5;" width="55" x="855.7269" y="153.0625"/><ellipse cx="870.7269" cy="169.0625" fill="#ADD1B2" rx="11" ry="11" style="stroke:#A80036;stroke-width:1.0;"/><path d="M872.7269,165.5625 Q872.93,165.0625 873.1644,164.8125 Q873.3988,164.5625 873.6644,164.5625 Q874.1331,164.5625 874.43,164.8438 Q874.7269,165.125 874.7269,165.7813 L874.7269,167.3438 Q874.7269,168 874.4456,168.2813 Q874.1644,168.5625 873.7269,168.5625 Q873.3363,168.5625 873.0863,168.3906 Q872.8363,168.2188 872.7269,167.7656 Q872.68,167.4531 872.5081,167.2813 Q872.1956,166.9531 871.6331,166.7656 Q871.0706,166.5625 870.5081,166.5625 Q869.805,166.5625 869.2113,166.8438 Q868.6331,167.125 868.18,167.75 Q867.7269,168.375 867.7269,169.2344 L867.7269,170.1563 Q867.7269,171.1875 868.5706,171.875 Q869.4144,172.5625 870.9144,172.5625 Q871.805,172.5625 872.43,172.3594 Q872.7894,172.25 873.1956,171.8906 Q873.4613,171.6875 873.6019,171.625 Q873.7425,171.5625 873.9144,171.5625 Q874.2425,171.5625 874.4769,171.8281 Q874.7269,172.0781 874.7269,172.4375 Q874.7269,172.7813 874.3831,173.1875 Q873.8831,173.7813 873.0863,174.1094 Q872.0394,174.5625 870.7581,174.5625 Q869.2581,174.5625 868.055,173.9688 Q867.0863,173.5 866.3988,172.4844 Q865.7269,171.4688 865.7269,170.2656 L865.7269,169.1719 Q865.7269,167.9219 866.3206,166.8281 Q866.93,165.7344 867.9769,165.1563 Q869.0394,164.5625 870.2269,164.5625 Q870.9456,164.5625 871.5706,164.8125 Q872.1956,165.0625 872.7269,165.5625 Z " fill="#000000"/><text fill="#000000" font-family="sans-serif" font-size="12" lengthAdjust="spacing" textLength="23" x="884.7269" y="173.9727">Nhs</text><line style="stroke:#A80036;stroke-width:1.5;" x1="856.7269" x2="909.7269" y1="185.0625" y2="185.0625"/><ellipse cx="500.2269" cy="762.5625" fill="#000000" rx="2" ry="2" style="stroke:none;stroke-width:1.0;"/><!--MD5=[0468c29d471e955935592eb8f20885af]
link Laboratory to Company--><path codeLine="120" d="M150.2269,349.6125 C150.2269,373.4325 150.2269,414.3425 150.2269,441.1725 " fill="none" id="Laboratory-Company" style="stroke:#A80036;stroke-width:1.0;"/><polygon fill="#000000" points="155.2269,383.7383,152.288,392.7834,158.1658,392.7834,155.2269,383.7383" style="stroke:#000000;stroke-width:1.0;"/><text fill="#000000" font-family="sans-serif" font-size="13" lengthAdjust="spacing" textLength="30" x="164.2269" y="394.0576">owns</text><text fill="#000000" font-family="sans-serif" font-size="13" lengthAdjust="spacing" textLength="5" x="144.5238" y="371.0461">*</text><text fill="#000000" font-family="sans-serif" font-size="13" lengthAdjust="spacing" textLength="7" x="142.4175" y="430.5433">1</text><!--MD5=[7e4bc624457760b649895ff2ead938fa]
link Company to Test--><path codeLine="129" d="M192.8069,468.5625 C293.4269,468.5625 544.0769,468.5625 633.1669,468.5625 " fill="none" id="Company-Test" style="stroke:#A80036;stroke-width:1.0;"/><polygon fill="#000000" points="390.4769,456.7383,381.4318,453.7994,381.4318,459.6772,390.4769,456.7383" style="stroke:#000000;stroke-width:1.0;"/><text fill="#000000" font-family="sans-serif" font-size="13" lengthAdjust="spacing" textLength="50" x="394.4769" y="462.0576">performs</text><text fill="#000000" font-family="sans-serif" font-size="13" lengthAdjust="spacing" textLength="7" x="200.7269" y="464.7269">1</text><text fill="#000000" font-family="sans-serif" font-size="13" lengthAdjust="spacing" textLength="5" x="620.1749" y="464.3052">*</text><!--MD5=[742a261f27a3dcd734c626287d811acd]
link Company to TestType--><path codeLine="130" d="M166.1469,495.5725 C178.4969,514.3125 196.8869,539.4025 217.2269,557.5625 C233.5269,572.1125 254.1469,584.8825 271.9269,594.5525 " fill="none" id="Company-TestType" style="stroke:#A80036;stroke-width:1.0;"/><polygon fill="#000000" points="225.8778,552.1545,221.2812,543.8285,217.2652,548.1205,225.8778,552.1545" style="stroke:#000000;stroke-width:1.0;"/><text fill="#000000" font-family="sans-serif" font-size="13" lengthAdjust="spacing" textLength="53" x="231.2269" y="554.0576">conducts</text><text fill="#000000" font-family="sans-serif" font-size="13" lengthAdjust="spacing" textLength="7" x="161.8638" y="516.7825">1</text><text fill="#000000" font-family="sans-serif" font-size="13" lengthAdjust="spacing" textLength="5" x="257.2606" y="585.611">*</text><!--MD5=[93b4f25fb503a8e0e9a46b1d30ff3f44]
link Company to ParameterCategory--><path codeLine="131" d="M153.6369,495.7325 C160.8469,551.1625 177.5969,679.8725 184.8169,735.3425 " fill="none" id="Company-ParameterCategory" style="stroke:#A80036;stroke-width:1.0;"/><polygon fill="#000000" points="178.8721,619.6965,180.6193,610.3478,174.7905,611.1063,178.8721,619.6965" style="stroke:#000000;stroke-width:1.0;"/><text fill="#000000" font-family="sans-serif" font-size="13" lengthAdjust="spacing" textLength="39" x="187.2269" y="620.0576">adopts</text><text fill="#000000" font-family="sans-serif" font-size="13" lengthAdjust="spacing" textLength="7" x="146.6172" y="516.9775">1</text><text fill="#000000" font-family="sans-serif" font-size="13" lengthAdjust="spacing" textLength="5" x="178.4502" y="724.7526">*</text><!--MD5=[12d76240d3c3c66074d4ec2ea8bf469c]
link Company to Parameter--><path codeLine="132" d="M107.6269,491.3825 C67.4169,515.3725 13.2269,558.0025 13.2269,613.5625 C13.2269,613.5625 13.2269,613.5625 13.2269,871.5625 C13.2269,933.4025 91.3069,963.0525 143.1569,975.9125 " fill="none" id="Company-Parameter" style="stroke:#A80036;stroke-width:1.0;"/><text fill="#000000" font-family="sans-serif" font-size="13" lengthAdjust="spacing" textLength="59" x="18.7269" y="760.0576">capable of</text><polygon fill="#000000" points="19.5925,776.0765,21.8621,766.8407,16,767.2705,19.5925,776.0765" style="stroke:#000000;stroke-width:1.0;"/><text fill="#000000" font-family="sans-serif" font-size="13" lengthAdjust="spacing" textLength="55" x="27.2269" y="776.4092">analysing</text><text fill="#000000" font-family="sans-serif" font-size="13" lengthAdjust="spacing" textLength="7" x="92.7034" y="491.4691">1</text><text fill="#000000" font-family="sans-serif" font-size="13" lengthAdjust="spacing" textLength="5" x="130.2781" y="970.527">*</text><!--MD5=[7a9e3e328fb1db48284e23a673c1e60d]
link ParameterCategory to Parameter--><path codeLine="133" d="M188.2269,789.7825 C188.2269,832.3125 188.2269,915.8625 188.2269,958.3725 " fill="none" id="ParameterCategory-Parameter" style="stroke:#A80036;stroke-width:1.0;"/><polygon fill="#000000" points="193.2269,865.7383,190.288,874.7834,196.1658,874.7834,193.2269,865.7383" style="stroke:#000000;stroke-width:1.0;"/><text fill="#000000" font-family="sans-serif" font-size="13" lengthAdjust="spacing" textLength="93" x="202.2269" y="876.0576">presented under</text><text fill="#000000" font-family="sans-serif" font-size="13" lengthAdjust="spacing" textLength="7" x="180.4613" y="811.0384">1</text><text fill="#000000" font-family="sans-serif" font-size="13" lengthAdjust="spacing" textLength="5" x="182.6488" y="947.7895">*</text><!--MD5=[8aaf0efd5e2f3824be7ea3e488dcc283]
link TestType to ParameterCategory--><path codeLine="136" d="M269.8969,631.2425 C250.8069,640.3825 229.3169,653.6725 215.2269,671.5625 C200.6969,690.0125 193.9669,716.1825 190.8669,735.5525 " fill="none" id="TestType-ParameterCategory" style="stroke:#0000FF;stroke-width:1.0;"/><text fill="#000000" font-family="sans-serif" font-size="13" lengthAdjust="spacing" textLength="75" x="235.7269" y="686.0576">can measure</text><polygon fill="#000000" points="218.2074,701.0752,226.0122,695.6404,221.3272,692.0908,218.2074,701.0752" style="stroke:#000000;stroke-width:1.0;"/><text fill="#000000" font-family="sans-serif" font-size="13" lengthAdjust="spacing" textLength="101" x="229.2269" y="702.4092">parameters under</text><text fill="#000000" font-family="sans-serif" font-size="13" lengthAdjust="spacing" textLength="7" x="255.1917" y="630.2597">1</text><text fill="#000000" font-family="sans-serif" font-size="13" lengthAdjust="spacing" textLength="20" x="193.9479" y="724.5768">1..*</text><!--MD5=[b2f584ed44712afd73b1257dcf7f0c09]
link TestType to SampleCollectionMethod--><path codeLine="137" d="M319.9869,634.6525 C332.8269,662.6325 356.6269,714.4825 369.4669,742.4725 " fill="none" id="TestType-SampleCollectionMethod" style="stroke:#0000FF;stroke-width:1.0;"/><polygon fill="#000000" points="358.3123,693.2826,357.2108,683.836,351.8686,686.2876,358.3123,693.2826" style="stroke:#000000;stroke-width:1.0;"/><text fill="#000000" font-family="sans-serif" font-size="13" lengthAdjust="spacing" textLength="36" x="365.2269" y="694.0576">allows</text><text fill="#000000" font-family="sans-serif" font-size="13" lengthAdjust="spacing" textLength="7" x="314.4663" y="656.0974">1</text><text fill="#000000" font-family="sans-serif" font-size="13" lengthAdjust="spacing" textLength="20" x="343.9561" y="731.7678">1..*</text><!--MD5=[7048eb257bae2750d747ca61a113ed73]
link Client to Receptionist--><path codeLine="139" d="M595.3069,173.0625 C633.8269,173.0625 682.9769,173.0625 719.3669,173.0625 " fill="none" id="Client-Receptionist" style="stroke:#A80036;stroke-width:1.0;"/><polygon fill="#000000" points="622.4769,161.2383,613.4318,158.2994,613.4318,164.1772,622.4769,161.2383" style="stroke:#000000;stroke-width:1.0;"/><text fill="#000000" font-family="sans-serif" font-size="13" lengthAdjust="spacing" textLength="75" x="626.4769" y="166.5576">registered by</text><text fill="#000000" font-family="sans-serif" font-size="13" lengthAdjust="spacing" textLength="5" x="603.0557" y="169.6231">*</text><text fill="#000000" font-family="sans-serif" font-size="13" lengthAdjust="spacing" textLength="7" x="704.7225" y="169.4573">1</text><!--MD5=[2eb961b30663a01bbfd8b4b9b8950031]
link ClinicalAnalysisLaboratory to TestType--><path codeLine="140" d="M323.6569,193.2325 C321.5169,265.5925 313.9469,521.7625 311.7969,594.2925 " fill="none" id="ClinicalAnalysisLaboratory-TestType" style="stroke:#A80036;stroke-width:1.0;"/><polygon fill="#000000" points="323.0791,393.7361,326.2841,384.7818,320.4088,384.6081,323.0791,393.7361" style="stroke:#000000;stroke-width:1.0;"/><text fill="#000000" font-family="sans-serif" font-size="13" lengthAdjust="spacing" textLength="53" x="332.2269" y="394.0576">conducts</text><text fill="#000000" font-family="sans-serif" font-size="13" lengthAdjust="spacing" textLength="5" x="317.7934" y="214.6999">*</text><text fill="#000000" font-family="sans-serif" font-size="13" lengthAdjust="spacing" textLength="5" x="306.2299" y="583.5349">*</text><!--MD5=[6d0dfcacb99e5b6ea3de933623cb0bd1]
link ClinicalAnalysisLaboratory to Laboratory--><path codeLine="141" d="M302.5369,193.3225 C273.5969,219.0125 221.9369,264.8925 186.8869,296.0125 " fill="none" id="ClinicalAnalysisLaboratory-to-Laboratory" style="stroke:#A80036;stroke-width:1.0;"/><polygon fill="none" points="191.2469,301.5025,171.6369,309.5525,181.9469,291.0325,191.2469,301.5025" style="stroke:#A80036;stroke-width:1.0;"/><!--MD5=[ca241da2d6b7ba1ad04f00d8baddcc83]
link ChemicalLaboratory to Laboratory--><path codeLine="142" d="M131.8469,193.3225 C135.0969,217.2725 140.7369,258.7625 144.9169,289.4825 " fill="none" id="ChemicalLaboratory-to-Laboratory" style="stroke:#A80036;stroke-width:1.0;"/><polygon fill="none" points="151.8869,288.7925,147.6469,309.5525,138.0169,290.6725,151.8869,288.7925" style="stroke:#A80036;stroke-width:1.0;"/><!--MD5=[e981d4f96c4342412d1e68160b30cf70]
link Test to TestType--><path codeLine="146" d="M632.9069,470.7825 C576.2369,474.2625 456.9969,487.7025 373.2269,539.5625 C351.1369,553.2325 333.0669,577.4825 322.2469,594.4825 " fill="none" id="Test-TestType" style="stroke:#A80036;stroke-width:1.0;"/><polygon fill="#000000" points="373.5816,550.588,383.0722,549.9723,380.8978,544.5114,373.5816,550.588" style="stroke:#000000;stroke-width:1.0;"/><text fill="#000000" font-family="sans-serif" font-size="13" lengthAdjust="spacing" textLength="24" x="387.2269" y="554.0576">is of</text><text fill="#000000" font-family="sans-serif" font-size="13" lengthAdjust="spacing" textLength="5" x="620.29" y="486.6055">*</text><text fill="#000000" font-family="sans-serif" font-size="13" lengthAdjust="spacing" textLength="7" x="317.4559" y="583.7808">1</text><!--MD5=[502b51bc079239060389dab43b7d3470]
link Client to Test--><path codeLine="147" d="M566.1369,248.9825 C579.5569,280.1725 595.4569,316.7025 610.2269,349.5625 C621.9469,375.6425 635.5169,404.7625 646.2469,427.5425 " fill="none" id="Client-Test" style="stroke:#A80036;stroke-width:1.0;"/><polygon fill="#000000" points="613.1802,325.1764,614.2013,334.632,619.5641,332.2259,613.1802,325.1764" style="stroke:#000000;stroke-width:1.0;"/><text fill="#000000" font-family="sans-serif" font-size="13" lengthAdjust="spacing" textLength="75" x="624.2269" y="335.0576">requested by</text><text fill="#000000" font-family="sans-serif" font-size="13" lengthAdjust="spacing" textLength="7" x="561.5784" y="269.718">1</text><text fill="#000000" font-family="sans-serif" font-size="13" lengthAdjust="spacing" textLength="5" x="637.555" y="416.6848">*</text><!--MD5=[d480452e7d21fe720ba0207568bc7434]
link ClinicalAnalysisLaboratory to Test--><path codeLine="148" d="M341.0269,193.0725 C370.9869,226.4825 436.3269,297.1725 498.2269,349.5625 C542.5269,387.0625 598.3669,424.7925 632.9269,447.1625 " fill="none" id="ClinicalAnalysisLaboratory-Test" style="stroke:#A80036;stroke-width:1.0;"/><polygon fill="#000000" points="499.4555,326.4554,504.3484,334.6109,508.2076,330.1774,499.4555,326.4554" style="stroke:#000000;stroke-width:1.0;"/><text fill="#000000" font-family="sans-serif" font-size="13" lengthAdjust="spacing" textLength="72" x="512.2269" y="335.0576">registered at</text><text fill="#000000" font-family="sans-serif" font-size="13" lengthAdjust="spacing" textLength="7" x="337.7675" y="214.4949">1</text><text fill="#000000" font-family="sans-serif" font-size="13" lengthAdjust="spacing" textLength="5" x="620.3144" y="438.3187">*</text><!--MD5=[84a279e28ad6c3248737114c29c49c27]
link LabOrder to Test--><path codeLine="149" d="M855.4969,349.6125 C813.8669,375.4225 739.8969,421.2725 697.4869,447.5625 " fill="none" id="LabOrder-Test" style="stroke:#A80036;stroke-width:1.0;"/><polygon fill="#000000" points="811.4766,386.1039,802.2403,388.3716,805.3372,393.3675,811.4766,386.1039" style="stroke:#000000;stroke-width:1.0;"/><text fill="#000000" font-family="sans-serif" font-size="13" lengthAdjust="spacing" textLength="74" x="816.2269" y="394.0576">prescribed in</text><text fill="#000000" font-family="sans-serif" font-size="13" lengthAdjust="spacing" textLength="7" x="838.8697" y="371.0461">1</text><text fill="#000000" font-family="sans-serif" font-size="13" lengthAdjust="spacing" textLength="7" x="705.3094" y="438.8062">1</text><!--MD5=[e8b34c2e6517a986175307f5599f058a]
link Receptionist to Test--><path codeLine="150" d="M763.3369,193.3225 C746.4069,240.6325 702.4969,363.3725 679.5969,427.3825 " fill="none" id="Receptionist-Test" style="stroke:#A80036;stroke-width:1.0;"/><polygon fill="#000000" points="728.9112,325.0305,723.0971,332.5569,728.6314,334.537,728.9112,325.0305" style="stroke:#000000;stroke-width:1.0;"/><text fill="#000000" font-family="sans-serif" font-size="13" lengthAdjust="spacing" textLength="75" x="736.2269" y="335.0576">registered by</text><text fill="#000000" font-family="sans-serif" font-size="13" lengthAdjust="spacing" textLength="7" x="753.5446" y="214.4597">1</text><text fill="#000000" font-family="sans-serif" font-size="13" lengthAdjust="spacing" textLength="5" x="676.5629" y="416.8021">*</text><!--MD5=[b72ac8ab7fb5921fceb5036a3902baea]
link Test to Sample--><path codeLine="151" d="M697.5269,474.8025 C788.4869,490.4625 1040.2269,540.4225 1040.2269,613.5625 C1040.2269,613.5625 1040.2269,613.5625 1040.2269,871.5625 C1040.2269,903.7425 1022.1769,936.4825 1006.9469,958.3825 " fill="none" id="Test-Sample" style="stroke:#A80036;stroke-width:1.0;"/><polygon fill="#000000" points="1047.9217,766.9499,1045.5223,757.747,1040.5712,760.915,1047.9217,766.9499" style="stroke:#000000;stroke-width:1.0;"/><text fill="#000000" font-family="sans-serif" font-size="13" lengthAdjust="spacing" textLength="45" x="1054.2269" y="768.0576">collects</text><text fill="#000000" font-family="sans-serif" font-size="13" lengthAdjust="spacing" textLength="7" x="705.3581" y="472.0049">1</text><text fill="#000000" font-family="sans-serif" font-size="13" lengthAdjust="spacing" textLength="5" x="1006.1603" y="947.8019">*</text><!--MD5=[5ac14690549d9c3f107119f991d40e68]
link Test to apoint760--><path d="M642.4569,509.8525 C599.3169,586.2025 509.2069,745.6725 500.8469,760.4625 " fill="none" id="Test-apoint760" style="stroke:#A80036;stroke-width:1.0;"/><text fill="#000000" font-family="sans-serif" font-size="13" lengthAdjust="spacing" textLength="50" x="610.7269" y="612.0576">requests</text><polygon fill="#000000" points="600.7671,627.4429,607.7756,621.0139,602.6582,618.1223,600.7671,627.4429" style="stroke:#000000;stroke-width:1.0;"/><text fill="#000000" font-family="sans-serif" font-size="13" lengthAdjust="spacing" textLength="62" x="611.2269" y="628.4092">analysis of</text><text fill="#000000" font-family="sans-serif" font-size="13" lengthAdjust="spacing" textLength="5" x="633.7454" y="530.649">*</text><!--MD5=[2ae35ed8de2b7ae35e6402343335d86a]
link apoint760 to Parameter--><path d="M499.5769,764.6525 C497.2769,768.4225 489.2069,781.1625 480.2269,789.5625 C401.9769,862.7425 293.5469,927.3525 233.2469,960.6625 " fill="none" id="apoint760-Parameter" style="stroke:#A80036;stroke-width:1.0;"/><text fill="#000000" font-family="sans-serif" font-size="13" lengthAdjust="spacing" textLength="20" x="241.3279" y="953.3633">1..*</text><!--MD5=[634395cce3bb6846bfb76bd6dfbdebaa]
link apoint760 to TestParameter--><path d="M502.4269,762.5625 C514.0269,762.5625 525.6169,762.5625 537.2169,762.5625 " fill="none" id="apoint760-TestParameter" style="stroke:#A80036;stroke-width:1.0;stroke-dasharray:7.0,7.0;"/><!--MD5=[0e00e25ac6b8c14659aaff2cf7e5df08]
link TestParameter to TestParameterResult--><path codeLine="155" d="M597.7969,782.7925 C604.7869,820.4925 620.3769,904.5225 629.0669,951.3725 " fill="none" id="TestParameter-TestParameterResult" style="stroke:#A80036;stroke-width:1.0;"/><polygon fill="#000000" points="624.1388,875.6544,625.3788,866.225,619.5995,867.297,624.1388,875.6544" style="stroke:#000000;stroke-width:1.0;"/><text fill="#000000" font-family="sans-serif" font-size="13" lengthAdjust="spacing" textLength="49" x="632.2269" y="876.0576">contains</text><text fill="#000000" font-family="sans-serif" font-size="13" lengthAdjust="spacing" textLength="7" x="590.8157" y="803.9217">1</text><text fill="#000000" font-family="sans-serif" font-size="13" lengthAdjust="spacing" textLength="22" x="603.6885" y="940.6284">0..1</text><!--MD5=[be84f5b74f233620fd35d16ee4b496da]
link TestParameterResult to Sample--><path codeLine="161" d="M710.5269,985.5625 C783.6469,985.5625 891.6669,985.5625 948.3469,985.5625 " fill="none" id="TestParameterResult-Sample" style="stroke:#A80036;stroke-width:1.0;"/><polygon fill="#000000" points="792.9769,973.7383,783.9318,970.7994,783.9318,976.6772,792.9769,973.7383" style="stroke:#000000;stroke-width:1.0;"/><text fill="#000000" font-family="sans-serif" font-size="13" lengthAdjust="spacing" textLength="78" x="796.9769" y="979.0576">obtained from</text><text fill="#000000" font-family="sans-serif" font-size="13" lengthAdjust="spacing" textLength="5" x="718.1853" y="982.3036">*</text><text fill="#000000" font-family="sans-serif" font-size="13" lengthAdjust="spacing" textLength="7" x="933.7174" y="981.6302">1</text><!--MD5=[ae231f2115f9ba798a2f0cf9b31d676f]
link TestParameterResult to ClinicalChemistryTechnologist--><path codeLine="162" d="M622.9369,1019.7425 C615.1369,1041.6325 605.2269,1071.0525 598.2269,1097.5625 C587.2669,1139.0525 578.5569,1188.6625 574.2269,1215.3225 " fill="none" id="TestParameterResult-ClinicalChemistryTechnologist" style="stroke:#A80036;stroke-width:1.0;"/><polygon fill="#000000" points="602.0185,1122.5901,607.0563,1114.5234,601.3527,1113.1028,602.0185,1122.5901" style="stroke:#000000;stroke-width:1.0;"/><text fill="#000000" font-family="sans-serif" font-size="13" lengthAdjust="spacing" textLength="68" x="612.2269" y="1123.0576">recorded by</text><text fill="#000000" font-family="sans-serif" font-size="13" lengthAdjust="spacing" textLength="5" x="615.3024" y="1040.8115">*</text><text fill="#000000" font-family="sans-serif" font-size="13" lengthAdjust="spacing" textLength="7" x="567.08" y="1204.5738">1</text><!--MD5=[52200cc2361fa0ac0481dd6ffcdb824b]
link TestParameterResult to ReferenceValue--><path codeLine="163" d="M666.8369,1019.7025 C690.2269,1044.2225 721.2869,1076.7925 740.7669,1097.2125 " fill="none" id="TestParameterResult-ReferenceValue" style="stroke:#A80036;stroke-width:1.0;"/><polygon fill="#000000" points="720.6779,1062.3564,716.5616,1053.7827,712.3083,1057.8396,720.6779,1062.3564" style="stroke:#000000;stroke-width:1.0;"/><text fill="#000000" font-family="sans-serif" font-size="13" lengthAdjust="spacing" textLength="43" x="726.2269" y="1064.0576">records</text><text fill="#000000" font-family="sans-serif" font-size="13" lengthAdjust="spacing" textLength="7" x="664.844" y="1040.7643">1</text><text fill="#000000" font-family="sans-serif" font-size="13" lengthAdjust="spacing" textLength="22" x="710.4813" y="1086.7836">0..1</text><!--MD5=[d62f9179f427bfabc57e90edef3fdbe8]
link ReferenceValue to ValidationModule--><path codeLine="164" d="M760.8769,1137.7225 C762.7269,1159.2125 765.7169,1193.8725 767.5769,1215.3825 " fill="none" id="ReferenceValue-ValidationModule" style="stroke:#A80036;stroke-width:1.0;"/><polygon fill="#000000" points="770.6567,1181.7198,772.8072,1172.4556,766.9511,1172.9608,770.6567,1181.7198" style="stroke:#000000;stroke-width:1.0;"/><text fill="#000000" font-family="sans-serif" font-size="13" lengthAdjust="spacing" textLength="65" x="779.2269" y="1182.0576">provided by</text><text fill="#000000" font-family="sans-serif" font-size="13" lengthAdjust="spacing" textLength="5" x="755.6378" y="1159.1871">*</text><text fill="#000000" font-family="sans-serif" font-size="13" lengthAdjust="spacing" textLength="7" x="759.0641" y="1204.6514">1</text><!--MD5=[5ebaad9400df340855f77ec273292743]
link Test to SampleCollectionMethod--><path codeLine="167" d="M633.1769,480.1925 C588.3269,496.5725 506.8869,532.0225 458.2269,587.5625 C420.9169,630.1425 434.9969,654.6525 410.2269,705.5625 C404.1069,718.1525 396.3269,731.7925 389.9769,742.4625 " fill="none" id="Test-SampleCollectionMethod" style="stroke:#A80036;stroke-width:1.0;"/><polygon fill="#000000" points="459.8272,618.4046,468.1323,613.7705,463.8223,609.7739,459.8272,618.4046" style="stroke:#000000;stroke-width:1.0;"/><text fill="#000000" font-family="sans-serif" font-size="13" lengthAdjust="spacing" textLength="88" x="472.2269" y="620.0576">executed using</text><text fill="#000000" font-family="sans-serif" font-size="13" lengthAdjust="spacing" textLength="5" x="620.1872" y="498.3246">*</text><text fill="#000000" font-family="sans-serif" font-size="13" lengthAdjust="spacing" textLength="22" x="368.1972" y="731.7549">0..1</text><!--MD5=[c589a96ea5b3e7b46913d69cfe3024d4]
link Test to Diagnosis--><path codeLine="168" d="M697.3069,468.5625 C782.0869,468.5625 1012.2169,468.5625 1109.6669,468.5625 " fill="none" id="Test-Diagnosis" style="stroke:#A80036;stroke-width:1.0;"/><polygon fill="#000000" points="886.9769,456.7383,877.9318,453.7994,877.9318,459.6772,886.9769,456.7383" style="stroke:#000000;stroke-width:1.0;"/><text fill="#000000" font-family="sans-serif" font-size="13" lengthAdjust="spacing" textLength="38" x="890.9769" y="462.0576">origins</text><text fill="#000000" font-family="sans-serif" font-size="13" lengthAdjust="spacing" textLength="7" x="705.09" y="483.8999">1</text><text fill="#000000" font-family="sans-serif" font-size="13" lengthAdjust="spacing" textLength="22" x="1079.8538" y="464.9689">0..1</text><!--MD5=[7bd87164558a8583d45c12ab5fcc8904]
link Diagnosis to DiagnosisReport--><path codeLine="170" d="M1183.0169,495.6425 C1214.3469,524.0025 1263.6869,568.6925 1291.7769,594.1325 " fill="none" id="Diagnosis-DiagnosisReport" style="stroke:#A80036;stroke-width:1.0;"/><polygon fill="#000000" points="1256.9331,552.0945,1252.2013,543.8446,1248.2558,548.2015,1256.9331,552.0945" style="stroke:#000000;stroke-width:1.0;"/><text fill="#000000" font-family="sans-serif" font-size="13" lengthAdjust="spacing" textLength="61" x="1262.2269" y="554.0576">reported in</text><text fill="#000000" font-family="sans-serif" font-size="13" lengthAdjust="spacing" textLength="7" x="1181.5491" y="516.8678">1</text><text fill="#000000" font-family="sans-serif" font-size="13" lengthAdjust="spacing" textLength="7" x="1277.7597" y="583.6811">1</text><!--MD5=[fd5f5b962c28af1c88b5bc5c4cfdb2d8]
link Diagnosis to SpecialistDoctor--><path codeLine="171" d="M1154.2269,495.6425 C1154.2269,524.0025 1154.2269,568.6925 1154.2269,594.1325 " fill="none" id="Diagnosis-SpecialistDoctor" style="stroke:#A80036;stroke-width:1.0;"/><polygon fill="#000000" points="1159.2269,553.7383,1162.1658,544.6932,1156.288,544.6932,1159.2269,553.7383" style="stroke:#000000;stroke-width:1.0;"/><text fill="#000000" font-family="sans-serif" font-size="13" lengthAdjust="spacing" textLength="50" x="1168.2269" y="554.0576">made by</text><text fill="#000000" font-family="sans-serif" font-size="13" lengthAdjust="spacing" textLength="5" x="1148.68" y="516.8678">*</text><text fill="#000000" font-family="sans-serif" font-size="13" lengthAdjust="spacing" textLength="7" x="1146.2425" y="583.6811">1</text><!--MD5=[905c082e5fce4eb785bce914d71adcec]
link Test to TestValidation--><path codeLine="172" d="M696.7069,509.6725 C716.1669,534.4725 740.5869,565.6025 757.6069,587.2825 " fill="none" id="Test-TestValidation" style="stroke:#A80036;stroke-width:1.0;"/><polygon fill="#000000" points="740.3135,552.6718,737.0418,543.7417,732.4177,547.3702,740.3135,552.6718" style="stroke:#000000;stroke-width:1.0;"/><text fill="#000000" font-family="sans-serif" font-size="13" lengthAdjust="spacing" textLength="50" x="746.2269" y="554.0576">validated</text><text fill="#000000" font-family="sans-serif" font-size="13" lengthAdjust="spacing" textLength="7" x="693.8164" y="530.4426">1</text><text fill="#000000" font-family="sans-serif" font-size="13" lengthAdjust="spacing" textLength="22" x="728.2948" y="576.6787">0..1</text><!--MD5=[b7fcc166bae4f8dc851e5c46e0013cfd]
link TestValidation to LaboratoryCoordinator--><path codeLine="173" d="M775.7269,641.6625 C772.9569,670.5325 768.5569,716.3825 766.0869,742.2125 " fill="none" id="TestValidation-LaboratoryCoordinator" style="stroke:#A80036;stroke-width:1.0;"/><polygon fill="#000000" points="777.7497,693.7155,781.5384,684.9921,775.6874,684.4312,777.7497,693.7155" style="stroke:#000000;stroke-width:1.0;"/><text fill="#000000" font-family="sans-serif" font-size="13" lengthAdjust="spacing" textLength="75" x="787.2269" y="694.0576">performed by</text><text fill="#000000" font-family="sans-serif" font-size="13" lengthAdjust="spacing" textLength="5" x="769.6331" y="662.8921">*</text><text fill="#000000" font-family="sans-serif" font-size="13" lengthAdjust="spacing" textLength="7" x="758.6256" y="731.7836">1</text><!--MD5=[036c9872ad7515ab1af27a534778c04f]
link TestValidation to Notification--><path codeLine="174" d="M831.1269,641.6925 C844.8569,650.0325 858.9369,660.1125 870.2269,671.5625 C890.8469,692.4825 906.5969,722.9725 915.3769,742.5325 " fill="none" id="TestValidation-Notification" style="stroke:#A80036;stroke-width:1.0;"/><polygon fill="#000000" points="903.4327,692.5753,899.8887,683.7497,895.378,687.5184,903.4327,692.5753" style="stroke:#000000;stroke-width:1.0;"/><text fill="#000000" font-family="sans-serif" font-size="13" lengthAdjust="spacing" textLength="32" x="909.2269" y="694.0576">emits</text><text fill="#000000" font-family="sans-serif" font-size="13" lengthAdjust="spacing" textLength="7" x="834.9331" y="662.9287">1</text><text fill="#000000" font-family="sans-serif" font-size="13" lengthAdjust="spacing" textLength="22" x="887.8397" y="731.8454">0..1</text><!--MD5=[a9089fca65c19b52c180d74e5c0a9738]
reverse link Notification to SmsNotification--><path codeLine="176" d="M878.1769,793.9825 C851.1869,812.2025 817.7269,834.7925 794.4469,850.5125 " fill="none" id="Notification-backto-SmsNotification" style="stroke:#A80036;stroke-width:1.0;"/><polygon fill="none" points="874.3069,788.1525,894.7969,782.7625,882.1369,799.7525,874.3069,788.1525" style="stroke:#A80036;stroke-width:1.0;"/><!--MD5=[a069fefa93fe627f96a6b9d57d25b567]
reverse link Notification to EmailNotification--><path codeLine="177" d="M923.2269,803.2325 C923.2269,819.3025 923.2269,837.1225 923.2269,850.2425 " fill="none" id="Notification-backto-EmailNotification" style="stroke:#A80036;stroke-width:1.0;"/><polygon fill="none" points="916.2269,803.0025,923.2269,783.0025,930.2269,803.0025,916.2269,803.0025" style="stroke:#A80036;stroke-width:1.0;"/><!--MD5=[cb5e86f6614a99551e1d9ce6f0ae5849]
link Sample to MedicalLabTechnician--><path codeLine="179" d="M986.2269,1012.8725 C986.2269,1037.9425 986.2269,1075.1025 986.2269,1097.4625 " fill="none" id="Sample-MedicalLabTechnician" style="stroke:#A80036;stroke-width:1.0;"/><polygon fill="#000000" points="991.2269,1063.7383,994.1658,1054.6932,988.288,1054.6932,991.2269,1063.7383" style="stroke:#000000;stroke-width:1.0;"/><text fill="#000000" font-family="sans-serif" font-size="13" lengthAdjust="spacing" textLength="70" x="1000.2269" y="1064.0576">collected by</text><text fill="#000000" font-family="sans-serif" font-size="13" lengthAdjust="spacing" textLength="5" x="980.7113" y="1033.7035">*</text><text fill="#000000" font-family="sans-serif" font-size="13" lengthAdjust="spacing" textLength="7" x="978.1988" y="1086.7549">1</text><!--MD5=[2fba4eef0cf1915502918731bf15a606]
link Sample to BarCode--><path codeLine="180" d="M1023.7469,985.5625 C1057.6869,985.5625 1107.5469,985.5625 1142.4569,985.5625 " fill="none" id="Sample-BarCode" style="stroke:#A80036;stroke-width:1.0;"/><polygon fill="#000000" points="1051.2269,973.7383,1042.1818,970.7994,1042.1818,976.6772,1051.2269,973.7383" style="stroke:#000000;stroke-width:1.0;"/><text fill="#000000" font-family="sans-serif" font-size="13" lengthAdjust="spacing" textLength="69" x="1055.2269" y="979.0576">identified by</text><text fill="#000000" font-family="sans-serif" font-size="13" lengthAdjust="spacing" textLength="7" x="1031.8227" y="981.5334">1</text><text fill="#000000" font-family="sans-serif" font-size="13" lengthAdjust="spacing" textLength="7" x="1127.848" y="981.7128">1</text><!--MD5=[f675f1d060b66083fb38f7b06acedd1b]
link BarCode to BarCodeApi--><path codeLine="181" d="M1223.7269,985.5625 C1258.9869,985.5625 1310.2169,985.5625 1347.8669,985.5625 " fill="none" id="BarCode-BarCodeApi" style="stroke:#A80036;stroke-width:1.0;"/><polygon fill="#000000" points="1250.9769,973.7383,1241.9318,970.7994,1241.9318,976.6772,1250.9769,973.7383" style="stroke:#000000;stroke-width:1.0;"/><text fill="#000000" font-family="sans-serif" font-size="13" lengthAdjust="spacing" textLength="75" x="1254.9769" y="979.0576">generated by</text><text fill="#000000" font-family="sans-serif" font-size="13" lengthAdjust="spacing" textLength="5" x="1231.655" y="981.615">*</text><text fill="#000000" font-family="sans-serif" font-size="13" lengthAdjust="spacing" textLength="7" x="1333.1031" y="981.9084">1</text><!--MD5=[a7791d6b36c0a786a27e571e3ea40438]
@startuml
skinparam classAttributeIconSize 0
hide methods

title
Domain Model

(Alternative 1)

end title

class Company {
-designation
}

class Laboratory {
}

class ClinicalAnalysisLaboratory{
}

class ChemicalLaboratory{
}

class Parameter {
-designation
}

class ParameterCategory {
-designation
}

class Test {
-code
-NhsCode
-createdAt
}

class TestType {
}

class TestParameter {
}

class TestParameterResult {
-createdAt
-value
}

class TestValidation {
-createdAt
}

class Sample {
-createdAt
}

class SampleCollectionMethod {
}

class BarCode {
}

class BarCodeApi {
}

class Diagnosis {
-createdAt
}

class DiagnosisReport {
}

class ValidationModule {
}

class Notification {
}

class SmsNotification {
}

class EmailNotification {
}

class Client {
-citizenCardNumber
-name
-nhsNumber
-birthDate
-sex
-taxIdenticationNumber
-phoneNumber
-emailAddress
}

class LabOrder {
}

class ReferenceValue {
}

class Receptionist {
}

class MedicalLabTechnician {
}

class ClinicalChemistryTechnologist{
}

class SpecialistDoctor {
}

class LaboratoryCoordinator{
}

class Nhs{
}

Company "1" -up- "*" Laboratory : owns >
/'
Company "1" -down- "*" Receptionist: knows >
Company "1" -left- "*" MedicalLabTechnician: knows >
Company "1" -left- "*" ClinicalChemistryTechnologist: knows >
Company "1" -left- "*" SpecialistDoctor: knows >
Company "1" -left- "*" LaboratoryCoordinator: knows >
Company "1" -down- "*" Client: knows >
'/
Company "1" -right- "*" Test: performs >
Company "1" -right- "*" TestType: conducts >
Company "1" - - - "*" ParameterCategory : adopts >
Company "1" -down- "*" Parameter : capable of\nanalysing >
Parameter "*" -up- "1" ParameterCategory : presented under >


TestType "1" -right[#blue]- "1..*" ParameterCategory : can measure\nparameters under >
TestType "1" -[#blue]- "1..*" SampleCollectionMethod : allows >

Client "*" -right- "1" Receptionist: registered by >
ClinicalAnalysisLaboratory "*" - - "*" TestType: conducts >
ClinicalAnalysisLaboratory - -|>Laboratory
ChemicalLaboratory - -|>Laboratory



Test "*" - - "1" TestType : is of >
Test "*" -up- "1" Client: requested by >
Test "*" -up- "1" ClinicalAnalysisLaboratory: registered at >
Test "1" -up- "1" LabOrder:  prescribed in >
Test "*" - -up- "1" Receptionist : registered by >
Test "1" - - - "*" Sample: collects >

Test "*" -down- - "1..*" Parameter : requests\nanalysis of >
(Test,Parameter) .. TestParameter
TestParameter "1" -down- - "0..1" TestParameterResult: contains >

/'
TestParameterResult "*" - - "1" ChemicalLaboratory: obtained >
'/

TestParameterResult "*" - -right- "1" Sample : obtained from >
TestParameterResult "*" - - - "1" ClinicalChemistryTechnologist : recorded by >
TestParameterResult "1" - - "0..1" ReferenceValue : records >
ReferenceValue "*" -down- "1" ValidationModule : provided by >


Test "*" - - "0..1" SampleCollectionMethod: executed using >
Test "1" - -right- "0..1" Diagnosis : origins >

Diagnosis "1" - - "1" DiagnosisReport: reported in >
Diagnosis "*" - - "1" SpecialistDoctor: made by >
Test "1" - - "0..1" TestValidation: validated >
TestValidation "*" - - "1" LaboratoryCoordinator: performed by >
TestValidation "1" - - "0..1" Notification: emits >

SmsNotification -up-|>Notification
EmailNotification -up-|>Notification

Sample "*" -down- "1" MedicalLabTechnician: collected by >
Sample "1" -right- "1" BarCode: identified by >
BarCode "*" -right- "1" BarCodeApi: generated by >




@enduml

@startuml
skinparam classAttributeIconSize 0
hide methods

title
Domain Model

(Alternative 1)

end title

class Company {
-designation
}

class Laboratory {
}

class ClinicalAnalysisLaboratory{
}

class ChemicalLaboratory{
}

class Parameter {
-designation
}

class ParameterCategory {
-designation
}

class Test {
-code
-NhsCode
-createdAt
}

class TestType {
}

class TestParameter {
}

class TestParameterResult {
-createdAt
-value
}

class TestValidation {
-createdAt
}

class Sample {
-createdAt
}

class SampleCollectionMethod {
}

class BarCode {
}

class BarCodeApi {
}

class Diagnosis {
-createdAt
}

class DiagnosisReport {
}

class ValidationModule {
}

class Notification {
}

class SmsNotification {
}

class EmailNotification {
}

class Client {
-citizenCardNumber
-name
-nhsNumber
-birthDate
-sex
-taxIdenticationNumber
-phoneNumber
-emailAddress
}

class LabOrder {
}

class ReferenceValue {
}

class Receptionist {
}

class MedicalLabTechnician {
}

class ClinicalChemistryTechnologist{
}

class SpecialistDoctor {
}

class LaboratoryCoordinator{
}

class Nhs{
}

Company "1" -up- "*" Laboratory : owns >
Company "1" -right- "*" Test: performs >
Company "1" -right- "*" TestType: conducts >
Company "1" - - - "*" ParameterCategory : adopts >
Company "1" -down- "*" Parameter : capable of\nanalysing >
Parameter "*" -up- "1" ParameterCategory : presented under >


TestType "1" -right[#blue]- "1..*" ParameterCategory : can measure\nparameters under >
TestType "1" -[#blue]- "1..*" SampleCollectionMethod : allows >

Client "*" -right- "1" Receptionist: registered by >
ClinicalAnalysisLaboratory "*" - - "*" TestType: conducts >
ClinicalAnalysisLaboratory - -|>Laboratory
ChemicalLaboratory - -|>Laboratory



Test "*" - - "1" TestType : is of >
Test "*" -up- "1" Client: requested by >
Test "*" -up- "1" ClinicalAnalysisLaboratory: registered at >
Test "1" -up- "1" LabOrder:  prescribed in >
Test "*" - -up- "1" Receptionist : registered by >
Test "1" - - - "*" Sample: collects >

Test "*" -down- - "1..*" Parameter : requests\nanalysis of >
(Test,Parameter) .. TestParameter
TestParameter "1" -down- - "0..1" TestParameterResult: contains >


TestParameterResult "*" - -right- "1" Sample : obtained from >
TestParameterResult "*" - - - "1" ClinicalChemistryTechnologist : recorded by >
TestParameterResult "1" - - "0..1" ReferenceValue : records >
ReferenceValue "*" -down- "1" ValidationModule : provided by >


Test "*" - - "0..1" SampleCollectionMethod: executed using >
Test "1" - -right- "0..1" Diagnosis : origins >

Diagnosis "1" - - "1" DiagnosisReport: reported in >
Diagnosis "*" - - "1" SpecialistDoctor: made by >
Test "1" - - "0..1" TestValidation: validated >
TestValidation "*" - - "1" LaboratoryCoordinator: performed by >
TestValidation "1" - - "0..1" Notification: emits >

SmsNotification -up-|>Notification
EmailNotification -up-|>Notification

Sample "*" -down- "1" MedicalLabTechnician: collected by >
Sample "1" -right- "1" BarCode: identified by >
BarCode "*" -right- "1" BarCodeApi: generated by >




@enduml

PlantUML version 1.2021.5(Sun Apr 25 12:20:28 BST 2021)
(GPL source distribution)
Java Runtime: OpenJDK Runtime Environment
JVM: Dynamic Code Evolution 64-Bit Server VM
Default Encoding: Cp1252
Language: pt
Country: PT
--></g></svg>