<?xml version="1.0" encoding="UTF-8" standalone="no"?><svg xmlns="http://www.w3.org/2000/svg" xmlns:xlink="http://www.w3.org/1999/xlink" contentScriptType="application/ecmascript" contentStyleType="text/css" height="707px" preserveAspectRatio="none" style="width:979px;height:707px;" version="1.1" viewBox="0 0 979 707" width="979px" zoomAndPan="magnify"><defs><filter height="300%" id="f1ctqr9jlqh3a8" width="300%" x="-1" y="-1"><feGaussianBlur result="blurOut" stdDeviation="2.0"/><feColorMatrix in="blurOut" result="blurOut2" type="matrix" values="0 0 0 0 0 0 0 0 0 0 0 0 0 0 0 0 0 0 .4 0"/><feOffset dx="4.0" dy="4.0" in="blurOut2" result="blurOut3"/><feBlend in="SourceGraphic" in2="blurOut3" mode="normal"/></filter></defs><g><!--MD5=[02e4b9b7573f1156f41e60aa5b4e25a4]
class Company--><rect codeLine="5" fill="#FEFECE" filter="url(#f1ctqr9jlqh3a8)" height="52.9551" id="Company" style="stroke:#A80036;stroke-width:1.5;" width="86" x="483.5" y="176"/><ellipse cx="498.5" cy="192" fill="#ADD1B2" rx="11" ry="11" style="stroke:#A80036;stroke-width:1.0;"/><path d="M500.9731,198.1431 Q500.3921,198.4419 499.7529,198.5913 Q499.1138,198.7407 498.4082,198.7407 Q495.9014,198.7407 494.5815,197.0889 Q493.2617,195.437 493.2617,192.3159 Q493.2617,189.1865 494.5815,187.5347 Q495.9014,185.8828 498.4082,185.8828 Q499.1138,185.8828 499.7612,186.0322 Q500.4087,186.1816 500.9731,186.4805 L500.9731,189.2031 Q500.3423,188.6221 499.7488,188.3523 Q499.1553,188.0825 498.5244,188.0825 Q497.1797,188.0825 496.4949,189.1492 Q495.8101,190.2158 495.8101,192.3159 Q495.8101,194.4077 496.4949,195.4744 Q497.1797,196.541 498.5244,196.541 Q499.1553,196.541 499.7488,196.2712 Q500.3423,196.0015 500.9731,195.4204 Z " fill="#000000"/><text fill="#000000" font-family="sans-serif" font-size="12" lengthAdjust="spacing" textLength="54" x="512.5" y="196.5352">Company</text><line style="stroke:#A80036;stroke-width:1.5;" x1="484.5" x2="568.5" y1="208" y2="208"/><text fill="#000000" font-family="sans-serif" font-size="11" lengthAdjust="spacing" textLength="69" x="489.5" y="222.6348">-designation</text><!--MD5=[7421f545a0d8420c5bec41e74b387d9c]
class Employee--><rect codeLine="9" fill="#FEFECE" filter="url(#f1ctqr9jlqh3a8)" height="117.7305" id="Employee" style="stroke:#A80036;stroke-width:1.5;" width="95" x="870" y="319"/><ellipse cx="888.15" cy="335" fill="#ADD1B2" rx="11" ry="11" style="stroke:#A80036;stroke-width:1.0;"/><path d="M890.6231,341.1431 Q890.0421,341.4419 889.4029,341.5913 Q888.7638,341.7407 888.0582,341.7407 Q885.5514,341.7407 884.2315,340.0889 Q882.9117,338.437 882.9117,335.3159 Q882.9117,332.1865 884.2315,330.5347 Q885.5514,328.8828 888.0582,328.8828 Q888.7638,328.8828 889.4112,329.0322 Q890.0587,329.1816 890.6231,329.4805 L890.6231,332.2031 Q889.9923,331.6221 889.3988,331.3523 Q888.8053,331.0825 888.1744,331.0825 Q886.8297,331.0825 886.1449,332.1492 Q885.4601,333.2158 885.4601,335.3159 Q885.4601,337.4077 886.1449,338.4744 Q886.8297,339.541 888.1744,339.541 Q888.8053,339.541 889.3988,339.2712 Q889.9923,339.0015 890.6231,338.4204 Z " fill="#000000"/><text fill="#000000" font-family="sans-serif" font-size="12" lengthAdjust="spacing" textLength="56" x="902.85" y="339.5352">Employee</text><line style="stroke:#A80036;stroke-width:1.5;" x1="871" x2="964" y1="351" y2="351"/><text fill="#000000" font-family="sans-serif" font-size="11" lengthAdjust="spacing" textLength="16" x="876" y="365.6348">-id</text><text fill="#000000" font-family="sans-serif" font-size="11" lengthAdjust="spacing" textLength="35" x="876" y="378.5898">-name</text><text fill="#000000" font-family="sans-serif" font-size="11" lengthAdjust="spacing" textLength="49" x="876" y="391.5449">-address</text><text fill="#000000" font-family="sans-serif" font-size="11" lengthAdjust="spacing" textLength="83" x="876" y="404.5">-phoneNumber</text><text fill="#000000" font-family="sans-serif" font-size="11" lengthAdjust="spacing" textLength="79" x="876" y="417.4551">-emailAddress</text><text fill="#000000" font-family="sans-serif" font-size="11" lengthAdjust="spacing" textLength="53" x="876" y="430.4102">-socCode</text><!--MD5=[012ee2a8bf3ae2b319009b06f951c2e5]
class ClinicalChemistryTechnologist--><rect codeLine="18" fill="#FEFECE" filter="url(#f1ctqr9jlqh3a8)" height="40" id="ClinicalChemistryTechnologist" style="stroke:#A80036;stroke-width:1.5;" width="201" x="752" y="514"/><ellipse cx="767" cy="530" fill="#ADD1B2" rx="11" ry="11" style="stroke:#A80036;stroke-width:1.0;"/><path d="M769.4731,536.1431 Q768.8921,536.4419 768.2529,536.5913 Q767.6138,536.7407 766.9082,536.7407 Q764.4014,536.7407 763.0815,535.0889 Q761.7617,533.437 761.7617,530.3159 Q761.7617,527.1865 763.0815,525.5347 Q764.4014,523.8828 766.9082,523.8828 Q767.6138,523.8828 768.2612,524.0322 Q768.9087,524.1816 769.4731,524.4805 L769.4731,527.2031 Q768.8423,526.6221 768.2488,526.3523 Q767.6553,526.0825 767.0244,526.0825 Q765.6797,526.0825 764.9949,527.1492 Q764.3101,528.2158 764.3101,530.3159 Q764.3101,532.4077 764.9949,533.4744 Q765.6797,534.541 767.0244,534.541 Q767.6553,534.541 768.2488,534.2712 Q768.8423,534.0015 769.4731,533.4204 Z " fill="#000000"/><text fill="#000000" font-family="sans-serif" font-size="12" lengthAdjust="spacing" textLength="169" x="781" y="534.5352">ClinicalChemistryTechnologist</text><line style="stroke:#A80036;stroke-width:1.5;" x1="753" x2="952" y1="546" y2="546"/><!--MD5=[df38be88ccee13e832d6fafd6288a4ca]
class Test--><rect codeLine="21" fill="#FEFECE" filter="url(#f1ctqr9jlqh3a8)" height="65.9102" id="Test" style="stroke:#A80036;stroke-width:1.5;" width="70" x="325.5" y="13.5"/><ellipse cx="346.35" cy="29.5" fill="#ADD1B2" rx="11" ry="11" style="stroke:#A80036;stroke-width:1.0;"/><path d="M348.8231,35.6431 Q348.2421,35.9419 347.6029,36.0913 Q346.9638,36.2407 346.2582,36.2407 Q343.7514,36.2407 342.4315,34.5889 Q341.1117,32.937 341.1117,29.8159 Q341.1117,26.6865 342.4315,25.0347 Q343.7514,23.3828 346.2582,23.3828 Q346.9638,23.3828 347.6112,23.5322 Q348.2587,23.6816 348.8231,23.9805 L348.8231,26.7031 Q348.1923,26.1221 347.5988,25.8523 Q347.0053,25.5825 346.3744,25.5825 Q345.0297,25.5825 344.3449,26.6492 Q343.6601,27.7158 343.6601,29.8159 Q343.6601,31.9077 344.3449,32.9744 Q345.0297,34.041 346.3744,34.041 Q347.0053,34.041 347.5988,33.7712 Q348.1923,33.5015 348.8231,32.9204 Z " fill="#000000"/><text fill="#000000" font-family="sans-serif" font-size="12" lengthAdjust="spacing" textLength="25" x="361.65" y="34.0352">Test</text><line style="stroke:#A80036;stroke-width:1.5;" x1="326.5" x2="394.5" y1="45.5" y2="45.5"/><text fill="#000000" font-family="sans-serif" font-size="11" lengthAdjust="spacing" textLength="32" x="331.5" y="60.1348">-code</text><text fill="#000000" font-family="sans-serif" font-size="11" lengthAdjust="spacing" textLength="58" x="331.5" y="73.0898">-createdAt</text><!--MD5=[aeb3272166074d8737a70b61b1e71682]
class TestType--><rect codeLine="26" fill="#FEFECE" filter="url(#f1ctqr9jlqh3a8)" height="78.8652" id="TestType" style="stroke:#A80036;stroke-width:1.5;" width="110" x="473.5" y="7"/><ellipse cx="499.3" cy="23" fill="#ADD1B2" rx="11" ry="11" style="stroke:#A80036;stroke-width:1.0;"/><path d="M501.7731,29.1431 Q501.1921,29.4419 500.5529,29.5913 Q499.9138,29.7407 499.2082,29.7407 Q496.7014,29.7407 495.3815,28.0889 Q494.0617,26.437 494.0617,23.3159 Q494.0617,20.1865 495.3815,18.5347 Q496.7014,16.8828 499.2082,16.8828 Q499.9138,16.8828 500.5612,17.0322 Q501.2087,17.1816 501.7731,17.4805 L501.7731,20.2031 Q501.1423,19.6221 500.5488,19.3523 Q499.9553,19.0825 499.3244,19.0825 Q497.9797,19.0825 497.2949,20.1492 Q496.6101,21.2158 496.6101,23.3159 Q496.6101,25.4077 497.2949,26.4744 Q497.9797,27.541 499.3244,27.541 Q499.9553,27.541 500.5488,27.2712 Q501.1423,27.0015 501.7731,26.4204 Z " fill="#000000"/><text fill="#000000" font-family="sans-serif" font-size="12" lengthAdjust="spacing" textLength="54" x="515.7" y="27.5352">TestType</text><line style="stroke:#A80036;stroke-width:1.5;" x1="474.5" x2="582.5" y1="39" y2="39"/><text fill="#000000" font-family="sans-serif" font-size="11" lengthAdjust="spacing" textLength="32" x="479.5" y="53.6348">-code</text><text fill="#000000" font-family="sans-serif" font-size="11" lengthAdjust="spacing" textLength="67" x="479.5" y="66.5898">-description</text><text fill="#000000" font-family="sans-serif" font-size="11" lengthAdjust="spacing" textLength="98" x="479.5" y="79.5449">-collectionMethod</text><!--MD5=[1f6362a5c8f21d8d6a0fce68f3a92a4e]
class Parameter--><rect codeLine="32" fill="#FEFECE" filter="url(#f1ctqr9jlqh3a8)" height="78.8652" id="Parameter" style="stroke:#A80036;stroke-width:1.5;" width="92" x="316.5" y="615"/><ellipse cx="331.5" cy="631" fill="#ADD1B2" rx="11" ry="11" style="stroke:#A80036;stroke-width:1.0;"/><path d="M333.9731,637.1431 Q333.3921,637.4419 332.7529,637.5913 Q332.1138,637.7407 331.4082,637.7407 Q328.9014,637.7407 327.5815,636.0889 Q326.2617,634.437 326.2617,631.3159 Q326.2617,628.1865 327.5815,626.5347 Q328.9014,624.8828 331.4082,624.8828 Q332.1138,624.8828 332.7612,625.0322 Q333.4087,625.1816 333.9731,625.4805 L333.9731,628.2031 Q333.3423,627.6221 332.7488,627.3523 Q332.1553,627.0825 331.5244,627.0825 Q330.1797,627.0825 329.4949,628.1492 Q328.8101,629.2158 328.8101,631.3159 Q328.8101,633.4077 329.4949,634.4744 Q330.1797,635.541 331.5244,635.541 Q332.1553,635.541 332.7488,635.2712 Q333.3423,635.0015 333.9731,634.4204 Z " fill="#000000"/><text fill="#000000" font-family="sans-serif" font-size="12" lengthAdjust="spacing" textLength="60" x="345.5" y="635.5352">Parameter</text><line style="stroke:#A80036;stroke-width:1.5;" x1="317.5" x2="407.5" y1="647" y2="647"/><text fill="#000000" font-family="sans-serif" font-size="11" lengthAdjust="spacing" textLength="32" x="322.5" y="661.6348">-code</text><text fill="#000000" font-family="sans-serif" font-size="11" lengthAdjust="spacing" textLength="61" x="322.5" y="674.5898">-shorName</text><text fill="#000000" font-family="sans-serif" font-size="11" lengthAdjust="spacing" textLength="67" x="322.5" y="687.5449">-description</text><!--MD5=[0f07739f46effee96e095e9c408da841]
class TestParameter--><rect codeLine="38" fill="#FEFECE" filter="url(#f1ctqr9jlqh3a8)" height="40" id="TestParameter" style="stroke:#A80036;stroke-width:1.5;" width="117" x="441" y="358"/><ellipse cx="456" cy="374" fill="#ADD1B2" rx="11" ry="11" style="stroke:#A80036;stroke-width:1.0;"/><path d="M458.4731,380.1431 Q457.8921,380.4419 457.2529,380.5913 Q456.6138,380.7407 455.9082,380.7407 Q453.4014,380.7407 452.0815,379.0889 Q450.7617,377.437 450.7617,374.3159 Q450.7617,371.1865 452.0815,369.5347 Q453.4014,367.8828 455.9082,367.8828 Q456.6138,367.8828 457.2612,368.0322 Q457.9087,368.1816 458.4731,368.4805 L458.4731,371.2031 Q457.8423,370.6221 457.2488,370.3523 Q456.6553,370.0825 456.0244,370.0825 Q454.6797,370.0825 453.9949,371.1492 Q453.3101,372.2158 453.3101,374.3159 Q453.3101,376.4077 453.9949,377.4744 Q454.6797,378.541 456.0244,378.541 Q456.6553,378.541 457.2488,378.2712 Q457.8423,378.0015 458.4731,377.4204 Z " fill="#000000"/><text fill="#000000" font-family="sans-serif" font-size="12" lengthAdjust="spacing" textLength="85" x="470" y="378.5352">TestParameter</text><line style="stroke:#A80036;stroke-width:1.5;" x1="442" x2="557" y1="390" y2="390"/><!--MD5=[4e608140b854dae633589343bce77383]
class TestParameterResult--><rect codeLine="41" fill="#FEFECE" filter="url(#f1ctqr9jlqh3a8)" height="78.8652" id="TestParameterResult" style="stroke:#A80036;stroke-width:1.5;" width="152" x="682.5" y="338.5"/><ellipse cx="697.5" cy="354.5" fill="#ADD1B2" rx="11" ry="11" style="stroke:#A80036;stroke-width:1.0;"/><path d="M699.9731,360.6431 Q699.3921,360.9419 698.7529,361.0913 Q698.1138,361.2407 697.4082,361.2407 Q694.9014,361.2407 693.5815,359.5889 Q692.2617,357.937 692.2617,354.8159 Q692.2617,351.6865 693.5815,350.0347 Q694.9014,348.3828 697.4082,348.3828 Q698.1138,348.3828 698.7612,348.5322 Q699.4087,348.6816 699.9731,348.9805 L699.9731,351.7031 Q699.3423,351.1221 698.7488,350.8523 Q698.1553,350.5825 697.5244,350.5825 Q696.1797,350.5825 695.4949,351.6492 Q694.8101,352.7158 694.8101,354.8159 Q694.8101,356.9077 695.4949,357.9744 Q696.1797,359.041 697.5244,359.041 Q698.1553,359.041 698.7488,358.7712 Q699.3423,358.5015 699.9731,357.9204 Z " fill="#000000"/><text fill="#000000" font-family="sans-serif" font-size="12" lengthAdjust="spacing" textLength="120" x="711.5" y="359.0352">TestParameterResult</text><line style="stroke:#A80036;stroke-width:1.5;" x1="683.5" x2="833.5" y1="370.5" y2="370.5"/><text fill="#000000" font-family="sans-serif" font-size="11" lengthAdjust="spacing" textLength="58" x="688.5" y="385.1348">-createdAt</text><text fill="#000000" font-family="sans-serif" font-size="11" lengthAdjust="spacing" textLength="34" x="688.5" y="398.0898">-value</text><text fill="#000000" font-family="sans-serif" font-size="11" lengthAdjust="spacing" textLength="6" x="688.5" y="411.0449">-</text><text fill="#000000" font-family="sans-serif" font-size="11" font-weight="bold" lengthAdjust="spacing" textLength="36" x="694.5" y="411.0449">metric</text><!--MD5=[8f188b89eff49accb0f38c057b38a9f2]
class ExternalModule--><rect codeLine="47" fill="#FEFECE" filter="url(#f1ctqr9jlqh3a8)" height="40" id="ExternalModule" style="stroke:#A80036;stroke-width:1.5;" width="121" x="717" y="26.5"/><ellipse cx="732" cy="42.5" fill="#ADD1B2" rx="11" ry="11" style="stroke:#A80036;stroke-width:1.0;"/><path d="M734.4731,48.6431 Q733.8921,48.9419 733.2529,49.0913 Q732.6138,49.2407 731.9082,49.2407 Q729.4014,49.2407 728.0815,47.5889 Q726.7617,45.937 726.7617,42.8159 Q726.7617,39.6865 728.0815,38.0347 Q729.4014,36.3828 731.9082,36.3828 Q732.6138,36.3828 733.2612,36.5322 Q733.9087,36.6816 734.4731,36.9805 L734.4731,39.7031 Q733.8423,39.1221 733.2488,38.8523 Q732.6553,38.5825 732.0244,38.5825 Q730.6797,38.5825 729.9949,39.6492 Q729.3101,40.7158 729.3101,42.8159 Q729.3101,44.9077 729.9949,45.9744 Q730.6797,47.041 732.0244,47.041 Q732.6553,47.041 733.2488,46.7712 Q733.8423,46.5015 734.4731,45.9204 Z " fill="#000000"/><text fill="#000000" font-family="sans-serif" font-size="12" lengthAdjust="spacing" textLength="89" x="746" y="47.0352">ExternalModule</text><line style="stroke:#A80036;stroke-width:1.5;" x1="718" x2="837" y1="58.5" y2="58.5"/><!--MD5=[1c357e7e7fdba398bcadd6e61afe49f5]
class ReferenceValue--><rect codeLine="51" fill="#FEFECE" filter="url(#f1ctqr9jlqh3a8)" height="78.8652" id="ReferenceValue" style="stroke:#A80036;stroke-width:1.5;" width="122" x="708.5" y="163"/><ellipse cx="723.5" cy="179" fill="#ADD1B2" rx="11" ry="11" style="stroke:#A80036;stroke-width:1.0;"/><path d="M725.9731,185.1431 Q725.3921,185.4419 724.7529,185.5913 Q724.1138,185.7407 723.4082,185.7407 Q720.9014,185.7407 719.5815,184.0889 Q718.2617,182.437 718.2617,179.3159 Q718.2617,176.1865 719.5815,174.5347 Q720.9014,172.8828 723.4082,172.8828 Q724.1138,172.8828 724.7612,173.0322 Q725.4087,173.1816 725.9731,173.4805 L725.9731,176.2031 Q725.3423,175.6221 724.7488,175.3523 Q724.1553,175.0825 723.5244,175.0825 Q722.1797,175.0825 721.4949,176.1492 Q720.8101,177.2158 720.8101,179.3159 Q720.8101,181.4077 721.4949,182.4744 Q722.1797,183.541 723.5244,183.541 Q724.1553,183.541 724.7488,183.2712 Q725.3423,183.0015 725.9731,182.4204 Z " fill="#000000"/><text fill="#000000" font-family="sans-serif" font-size="12" lengthAdjust="spacing" textLength="90" x="737.5" y="183.5352">ReferenceValue</text><line style="stroke:#A80036;stroke-width:1.5;" x1="709.5" x2="829.5" y1="195" y2="195"/><text fill="#000000" font-family="sans-serif" font-size="11" lengthAdjust="spacing" textLength="55" x="714.5" y="209.6348">-minValue</text><text fill="#000000" font-family="sans-serif" font-size="11" lengthAdjust="spacing" textLength="58" x="714.5" y="222.5898">-maxValue</text><text fill="#000000" font-family="sans-serif" font-size="11" lengthAdjust="spacing" textLength="40" x="714.5" y="235.5449">-metric</text><!--MD5=[9681492165142af2a4a3a169d90ee8d4]
class Sample--><rect codeLine="57" fill="#FEFECE" filter="url(#f1ctqr9jlqh3a8)" height="52.9551" id="Sample" style="stroke:#A80036;stroke-width:1.5;" width="74" x="216.5" y="176"/><ellipse cx="231.5" cy="192" fill="#ADD1B2" rx="11" ry="11" style="stroke:#A80036;stroke-width:1.0;"/><path d="M233.9731,198.1431 Q233.3921,198.4419 232.7529,198.5913 Q232.1138,198.7407 231.4082,198.7407 Q228.9014,198.7407 227.5815,197.0889 Q226.2617,195.437 226.2617,192.3159 Q226.2617,189.1865 227.5815,187.5347 Q228.9014,185.8828 231.4082,185.8828 Q232.1138,185.8828 232.7612,186.0322 Q233.4087,186.1816 233.9731,186.4805 L233.9731,189.2031 Q233.3423,188.6221 232.7488,188.3523 Q232.1553,188.0825 231.5244,188.0825 Q230.1797,188.0825 229.4949,189.1492 Q228.8101,190.2158 228.8101,192.3159 Q228.8101,194.4077 229.4949,195.4744 Q230.1797,196.541 231.5244,196.541 Q232.1553,196.541 232.7488,196.2712 Q233.3423,196.0015 233.9731,195.4204 Z " fill="#000000"/><text fill="#000000" font-family="sans-serif" font-size="12" lengthAdjust="spacing" textLength="42" x="245.5" y="196.5352">Sample</text><line style="stroke:#A80036;stroke-width:1.5;" x1="217.5" x2="289.5" y1="208" y2="208"/><text fill="#000000" font-family="sans-serif" font-size="11" lengthAdjust="spacing" textLength="58" x="222.5" y="222.6348">-createdAt</text><!--MD5=[b374255986abe8788200fa8596627276]
class BarCode--><rect codeLine="62" fill="#FEFECE" filter="url(#f1ctqr9jlqh3a8)" height="65.9102" id="BarCode" style="stroke:#A80036;stroke-width:1.5;" width="81" x="7" y="169.5"/><ellipse cx="22" cy="185.5" fill="#ADD1B2" rx="11" ry="11" style="stroke:#A80036;stroke-width:1.0;"/><path d="M24.4731,191.6431 Q23.8921,191.9419 23.2529,192.0913 Q22.6138,192.2407 21.9082,192.2407 Q19.4014,192.2407 18.0815,190.5889 Q16.7617,188.937 16.7617,185.8159 Q16.7617,182.6865 18.0815,181.0347 Q19.4014,179.3828 21.9082,179.3828 Q22.6138,179.3828 23.2612,179.5322 Q23.9087,179.6816 24.4731,179.9805 L24.4731,182.7031 Q23.8423,182.1221 23.2488,181.8523 Q22.6553,181.5825 22.0244,181.5825 Q20.6797,181.5825 19.9949,182.6492 Q19.3101,183.7158 19.3101,185.8159 Q19.3101,187.9077 19.9949,188.9744 Q20.6797,190.041 22.0244,190.041 Q22.6553,190.041 23.2488,189.7712 Q23.8423,189.5015 24.4731,188.9204 Z " fill="#000000"/><text fill="#000000" font-family="sans-serif" font-size="12" lengthAdjust="spacing" textLength="49" x="36" y="190.0352">BarCode</text><line style="stroke:#A80036;stroke-width:1.5;" x1="8" x2="87" y1="201.5" y2="201.5"/><text fill="#000000" font-family="sans-serif" font-size="11" lengthAdjust="spacing" textLength="32" x="13" y="216.1348">-code</text><text fill="#000000" font-family="sans-serif" font-size="11" lengthAdjust="spacing" textLength="38" x="13" y="229.0898">-image</text><ellipse cx="362.5" cy="378" fill="#000000" rx="2" ry="2" style="stroke:none;stroke-width:1.0;"/><!--MD5=[7e4bc624457760b649895ff2ead938fa]
link Company to Test--><path codeLine="67" d="M495.26,175.68 C480.28,163.06 462.22,147.51 446.5,133 C427.93,115.87 407.88,96.01 391.81,79.75 " fill="none" id="Company-Test" style="stroke:#A80036;stroke-width:1.0;"/><polygon fill="#000000" points="447.8337,121.2555,452.4677,129.5607,456.4644,125.2508,447.8337,121.2555" style="stroke:#000000;stroke-width:1.0;"/><text fill="#000000" font-family="sans-serif" font-size="13" lengthAdjust="spacing" textLength="57" x="460.5" y="129.5684">performs</text><text fill="#000000" font-family="sans-serif" font-size="13" lengthAdjust="spacing" textLength="8" x="479.1108" y="165.353">1</text><text fill="#000000" font-family="sans-serif" font-size="13" lengthAdjust="spacing" textLength="6" x="391.0297" y="99.8686">*</text><!--MD5=[6d9eb9a083ac0654c8b63743033752d3]
link TestType to Company--><path codeLine="68" d="M528,86.36 C527.63,114.34 527.15,151.31 526.83,175.71 " fill="none" id="TestType-Company" style="stroke:#A80036;stroke-width:1.0;"/><polygon fill="#000000" points="532.5655,119.6557,529.5084,128.6615,535.3857,128.7385,532.5655,119.6557" style="stroke:#000000;stroke-width:1.0;"/><text fill="#000000" font-family="sans-serif" font-size="13" lengthAdjust="spacing" textLength="58" x="541.5" y="129.5684">conducts</text><text fill="#000000" font-family="sans-serif" font-size="13" lengthAdjust="spacing" textLength="6" x="521.4422" y="106.5118">*</text><text fill="#000000" font-family="sans-serif" font-size="13" lengthAdjust="spacing" textLength="8" x="517.9813" y="165.3899">1</text><!--MD5=[71e6920dcc27afae8f25537cd5357b5f]
link TestType to ExternalModule--><path codeLine="71" d="M583.76,46.5 C623.16,46.5 676.13,46.5 716.72,46.5 " fill="none" id="TestType-ExternalModule" style="stroke:#A80036;stroke-width:1.0;"/><polygon fill="#000000" points="610.75,35.1553,601.7049,32.2163,601.7049,38.0942,610.75,35.1553" style="stroke:#000000;stroke-width:1.0;"/><text fill="#000000" font-family="sans-serif" font-size="13" lengthAdjust="spacing" textLength="84" x="614.75" y="40.0684">makes use of</text><text fill="#000000" font-family="sans-serif" font-size="13" lengthAdjust="spacing" textLength="6" x="591.5887" y="43.0905">*</text><text fill="#000000" font-family="sans-serif" font-size="13" lengthAdjust="spacing" textLength="8" x="700.8249" y="43.1732">1</text><!--MD5=[e981d4f96c4342412d1e68160b30cf70]
link Test to TestType--><path codeLine="72" d="M395.72,46.5 C418.23,46.5 447.9,46.5 473.49,46.5 " fill="none" id="Test-TestType" style="stroke:#A80036;stroke-width:1.0;"/><polygon fill="#000000" points="423,35.1553,413.9549,32.2163,413.9549,38.0942,423,35.1553" style="stroke:#000000;stroke-width:1.0;"/><text fill="#000000" font-family="sans-serif" font-size="13" lengthAdjust="spacing" textLength="28" x="427" y="40.0684">is of</text><text fill="#000000" font-family="sans-serif" font-size="13" lengthAdjust="spacing" textLength="6" x="403.6029" y="42.5628">*</text><text fill="#000000" font-family="sans-serif" font-size="13" lengthAdjust="spacing" textLength="8" x="457.5605" y="43.0905">1</text><!--MD5=[b72ac8ab7fb5921fceb5036a3902baea]
link Test to Sample--><path codeLine="73" d="M325.49,65.76 C306.31,77.56 283.81,94.68 270.5,116 C259.28,133.97 255.24,157.86 253.9,175.81 " fill="none" id="Test-Sample" style="stroke:#A80036;stroke-width:1.0;"/><polygon fill="#000000" points="272.7735,128.8465,280.1693,122.8671,275.2422,119.6619,272.7735,128.8465" style="stroke:#000000;stroke-width:1.0;"/><text fill="#000000" font-family="sans-serif" font-size="13" lengthAdjust="spacing" textLength="49" x="284.5" y="129.5684">collects</text><text fill="#000000" font-family="sans-serif" font-size="13" lengthAdjust="spacing" textLength="8" x="309.4442" y="65.7951">1</text><text fill="#000000" font-family="sans-serif" font-size="13" lengthAdjust="spacing" textLength="6" x="247.2663" y="165.0879">*</text><!--MD5=[957b932f0c1510e2559eae257f487386]
link Test to apoint799--><path d="M360.7,79.69 C361.18,158.72 362.38,357.19 362.49,375.62 " fill="none" id="Test-apoint799" style="stroke:#A80036;stroke-width:1.0;"/><text fill="#000000" font-family="sans-serif" font-size="13" lengthAdjust="spacing" textLength="54" x="377" y="200.0684">requests</text><polygon fill="#000000" points="368.5302,215.4657,371.4144,206.403,365.5367,206.4386,368.5302,215.4657" style="stroke:#000000;stroke-width:1.0;"/><text fill="#000000" font-family="sans-serif" font-size="13" lengthAdjust="spacing" textLength="68" x="376.5" y="215.3789">analysis of</text><text fill="#000000" font-family="sans-serif" font-size="13" lengthAdjust="spacing" textLength="6" x="354.1663" y="100.0531">*</text><!--MD5=[f12636ce66b1ebdbd64cac20ae558731]
link apoint799 to Parameter--><path d="M362.5,380.22 C362.5,395.17 362.5,543.28 362.5,614.99 " fill="none" id="apoint799-Parameter" style="stroke:#A80036;stroke-width:1.0;"/><text fill="#000000" font-family="sans-serif" font-size="13" lengthAdjust="spacing" textLength="22" x="338.5406" y="604.2244">1..*</text><!--MD5=[a8ee767890d52491ce6e29417d8c73ec]
link apoint799 to TestParameter--><path d="M364.64,378 C390.01,378 415.39,378 440.76,378 " fill="none" id="apoint799-TestParameter" style="stroke:#A80036;stroke-width:1.0;stroke-dasharray:7.0,7.0;"/><!--MD5=[0e00e25ac6b8c14659aaff2cf7e5df08]
link TestParameter to TestParameterResult--><path codeLine="78" d="M558.27,378 C594.99,378 642.64,378 682.25,378 " fill="none" id="TestParameter-TestParameterResult" style="stroke:#A80036;stroke-width:1.0;"/><polygon fill="#000000" points="595.75,366.6553,586.7049,363.7163,586.7049,369.5942,595.75,366.6553" style="stroke:#000000;stroke-width:1.0;"/><text fill="#000000" font-family="sans-serif" font-size="13" lengthAdjust="spacing" textLength="54" x="599.75" y="371.5684">contains</text><text fill="#000000" font-family="sans-serif" font-size="13" lengthAdjust="spacing" textLength="8" x="565.9201" y="374.6732">1</text><text fill="#000000" font-family="sans-serif" font-size="13" lengthAdjust="spacing" textLength="24" x="650.3902" y="374.9202">0..1</text><!--MD5=[2fc0f4084f299b8e83a57524f584a65e]
link ReferenceValue to TestParameterResult--><path codeLine="80" d="M767.06,242.01 C765.24,270.66 762.77,309.6 760.95,338.3 " fill="none" id="ReferenceValue-TestParameterResult" style="stroke:#A80036;stroke-width:1.0;"/><polygon fill="#000000" points="769.8166,275.6653,766.3108,284.5061,772.1769,284.8784,769.8166,275.6653" style="stroke:#000000;stroke-width:1.0;"/><text fill="#000000" font-family="sans-serif" font-size="13" lengthAdjust="spacing" textLength="47" x="778.5" y="285.5684">records</text><text fill="#000000" font-family="sans-serif" font-size="13" lengthAdjust="spacing" textLength="8" x="757.9934" y="262.4013">1</text><text fill="#000000" font-family="sans-serif" font-size="13" lengthAdjust="spacing" textLength="8" x="752.6836" y="327.7941">1</text><!--MD5=[ae231f2115f9ba798a2f0cf9b31d676f]
link TestParameterResult to ClinicalChemistryTechnologist--><path codeLine="81" d="M757.77,417.69 C759.09,438.82 763.65,464.56 776.5,484 C784.72,496.44 797.31,506.4 809.89,514 " fill="none" id="TestParameterResult-ClinicalChemistryTechnologist" style="stroke:#A80036;stroke-width:1.0;"/><polygon fill="#000000" points="783.8797,480.0526,782.1595,470.699,776.9901,473.4965,783.8797,480.0526" style="stroke:#000000;stroke-width:1.0;"/><text fill="#000000" font-family="sans-serif" font-size="13" lengthAdjust="spacing" textLength="74" x="790.5" y="480.5684">recorded by</text><text fill="#000000" font-family="sans-serif" font-size="13" lengthAdjust="spacing" textLength="6" x="751.1755" y="437.8148">*</text><text fill="#000000" font-family="sans-serif" font-size="13" lengthAdjust="spacing" textLength="8" x="787.6157" y="503.194">1</text><!--MD5=[47cc88f3c536b52a6cee7e6f2da83dc0]
link ExternalModule to ReferenceValue--><path codeLine="82" d="M776.5,66.69 C775.26,90.64 773.1,132.17 771.51,162.82 " fill="none" id="ExternalModule-ReferenceValue" style="stroke:#A80036;stroke-width:1.0;"/><polygon fill="#000000" points="778.7592,119.662,775.3553,128.5426,781.2253,128.8473,778.7592,119.662" style="stroke:#000000;stroke-width:1.0;"/><text fill="#000000" font-family="sans-serif" font-size="13" lengthAdjust="spacing" textLength="74" x="787.5" y="129.5684">provided by</text><text fill="#000000" font-family="sans-serif" font-size="13" lengthAdjust="spacing" textLength="8" x="767.0938" y="87.0898">1</text><text fill="#000000" font-family="sans-serif" font-size="13" lengthAdjust="spacing" textLength="6" x="765.3398" y="152.3176">*</text><!--MD5=[46b76864d59c8c3a00a9624d83f6ce80]
link BarCode to Sample--><path codeLine="84" d="M88.2,202.5 C125.49,202.5 180.22,202.5 216.35,202.5 " fill="none" id="BarCode-Sample" style="stroke:#A80036;stroke-width:1.0;"/><polygon fill="#000000" points="105.25,191.1553,114.2951,194.0942,114.2951,188.2163,105.25,191.1553" style="stroke:#000000;stroke-width:1.0;"/><text fill="#000000" font-family="sans-serif" font-size="13" lengthAdjust="spacing" textLength="79" x="119.25" y="196.0684">identified by</text><text fill="#000000" font-family="sans-serif" font-size="13" lengthAdjust="spacing" textLength="8" x="95.8828" y="198.8137">1</text><text fill="#000000" font-family="sans-serif" font-size="13" lengthAdjust="spacing" textLength="8" x="200.5058" y="198.6726">1</text><!--MD5=[d0b577d991866bb293f65e18071b6be7]
link Employee to ClinicalChemistryTechnologist--><path codeLine="87" d="M892.93,437.22 C881.49,464.31 868.67,494.69 860.59,513.83 " fill="none" id="Employee-ClinicalChemistryTechnologist" style="stroke:#A80036;stroke-width:1.0;"/><polygon fill="#000000" points="881.5555,480.2617,887.7807,473.0716,882.3656,470.7857,881.5555,480.2617" style="stroke:#000000;stroke-width:1.0;"/><text fill="#000000" font-family="sans-serif" font-size="13" lengthAdjust="spacing" textLength="51" x="892.5" y="480.5684">plays as</text><text fill="#000000" font-family="sans-serif" font-size="13" lengthAdjust="spacing" textLength="8" x="881.8052" y="457.1176">1</text><text fill="#000000" font-family="sans-serif" font-size="13" lengthAdjust="spacing" textLength="24" x="835.4414" y="503.3159">0..1</text><!--MD5=[522aa22c9a3dc03b6c185efa232db615]
@startuml
skinparam classAttributeIconSize 0
hide methods


class Company {
-designation
}

class Employee {
-id
-name
-address
-phoneNumber
-emailAddress
-socCode
}

class ClinicalChemistryTechnologist{
}

class Test {
-code
-createdAt
}

class TestType {
-code
-description
-collectionMethod
}

class Parameter {
-code
-shorName
-description
}

class TestParameter {
}

class TestParameterResult {
-createdAt
-value
-**metric**
}

class ExternalModule {
}


class ReferenceValue {
-minValue
-maxValue
-metric
}

class Sample {
-createdAt
}


class BarCode {
-code
-image
}

Company "1" -down- "*" Test: performs >
Company "1" -left- "*" TestType: conducts >


TestType "*" -right- "1" ExternalModule : makes use of >
Test "*" -right- "1" TestType : is of >
Test "1" - - "*" Sample: collects >


Test "*" - - - "1..*" Parameter : requests\nanalysis of >
(Test,Parameter) .. TestParameter
TestParameter "1" -right- "0..1" TestParameterResult: contains >

TestParameterResult "1" -up- "1" ReferenceValue : records >
TestParameterResult "*" - - "1" ClinicalChemistryTechnologist : recorded by >
ReferenceValue "*" -up- "1" ExternalModule : provided by >

Sample "1" -left- "1" BarCode: identified by >


Employee "1" - - "0..1" ClinicalChemistryTechnologist: plays as >
@enduml

PlantUML version 1.2021.5(Sun Apr 25 12:20:28 WEST 2021)
(GPL source distribution)
Java Runtime: OpenJDK Runtime Environment
JVM: Dynamic Code Evolution 64-Bit Server VM
Default Encoding: UTF-8
Language: en
Country: PT
--></g></svg>