<?xml version="1.0" encoding="UTF-8" standalone="no"?><svg xmlns="http://www.w3.org/2000/svg" xmlns:xlink="http://www.w3.org/1999/xlink" contentStyleType="text/css" height="796px" preserveAspectRatio="none" style="width:1942px;height:796px;background:#FFFFFF;" version="1.1" viewBox="0 0 1942 796" width="1942px" zoomAndPan="magnify"><defs/><g><rect fill="#FFFFFF" height="612.625" style="stroke:#181818;stroke-width:1.0;" width="10" x="55.5" y="92.6094"/><rect fill="#FFFFFF" height="30.3516" style="stroke:#181818;stroke-width:1.0;" width="10" x="560.5" y="114.9609"/><rect fill="#FFFFFF" height="213.7578" style="stroke:#181818;stroke-width:1.0;" width="10" x="560.5" y="175.6641"/><rect fill="#FFFFFF" height="120.7031" style="stroke:#181818;stroke-width:1.0;" width="10" x="565.5" y="231.3672"/><rect fill="#FFFFFF" height="269.4609" style="stroke:#181818;stroke-width:1.0;" width="10" x="560.5" y="419.7734"/><rect fill="#FFFFFF" height="120.7031" style="stroke:#181818;stroke-width:1.0;" width="10" x="819.5" y="231.3672"/><rect fill="#FFFFFF" height="239.1094" style="stroke:#181818;stroke-width:1.0;" width="10" x="819.5" y="450.125"/><rect fill="#FFFFFF" height="30" style="stroke:#181818;stroke-width:1.0;" width="10" x="1118.5" y="322.0703"/><rect fill="#FFFFFF" height="30" style="stroke:#181818;stroke-width:1.0;" width="10" x="1488.5" y="505.8281"/><rect fill="#FFFFFF" height="30" style="stroke:#181818;stroke-width:1.0;" width="10" x="1488.5" y="628.8828"/><rect fill="#FFFFFF" height="30" style="stroke:#181818;stroke-width:1.0;" width="10" x="1820" y="261.7188"/><rect height="169.4063" style="stroke:#000000;stroke-width:1.5;fill:none;" width="1493" x="443.5" y="190.6641"/><rect height="109.0547" style="stroke:#000000;stroke-width:1.5;fill:none;" width="1533.5" x="10" y="465.125"/><rect height="109.0547" style="stroke:#000000;stroke-width:1.5;fill:none;" width="1533.5" x="10" y="588.1797"/><line style="stroke:#181818;stroke-width:0.5;fill:none;stroke-dasharray:5.0,5.0;" x1="60" x2="60" y1="82.6094" y2="714.2344"/><line style="stroke:#181818;stroke-width:0.5;fill:none;stroke-dasharray:5.0,5.0;" x1="565.5" x2="565.5" y1="82.6094" y2="714.2344"/><line style="stroke:#181818;stroke-width:0.5;fill:none;stroke-dasharray:5.0,5.0;" x1="824.5" x2="824.5" y1="82.6094" y2="714.2344"/><line style="stroke:#181818;stroke-width:0.5;fill:none;stroke-dasharray:5.0,5.0;" x1="1008.5" x2="1008.5" y1="82.6094" y2="714.2344"/><line style="stroke:#181818;stroke-width:0.5;fill:none;stroke-dasharray:5.0,5.0;" x1="1123.5" x2="1123.5" y1="82.6094" y2="714.2344"/><line style="stroke:#181818;stroke-width:0.5;fill:none;stroke-dasharray:5.0,5.0;" x1="1247.5" x2="1247.5" y1="82.6094" y2="714.2344"/><line style="stroke:#181818;stroke-width:0.5;fill:none;stroke-dasharray:5.0,5.0;" x1="1373.5" x2="1373.5" y1="82.6094" y2="714.2344"/><line style="stroke:#181818;stroke-width:0.5;fill:none;stroke-dasharray:5.0,5.0;" x1="1493.5" x2="1493.5" y1="82.6094" y2="714.2344"/><line style="stroke:#181818;stroke-width:0.5;fill:none;stroke-dasharray:5.0,5.0;" x1="1575.5" x2="1575.5" y1="82.6094" y2="714.2344"/><line style="stroke:#181818;stroke-width:0.5;fill:none;stroke-dasharray:5.0,5.0;" x1="1665.5" x2="1665.5" y1="82.6094" y2="714.2344"/><line style="stroke:#181818;stroke-width:0.5;fill:none;stroke-dasharray:5.0,5.0;" x1="1824.5" x2="1824.5" y1="82.6094" y2="714.2344"/><text fill="#000000" font-family="sans-serif" font-size="14" lengthAdjust="spacing" textLength="75" x="20" y="79.5332">Coordinator</text><ellipse cx="60.5" cy="13.5" fill="#E2E2F0" rx="8" ry="8" style="stroke:#181818;stroke-width:0.5;"/><path d="M60.5,21.5 L60.5,48.5 M47.5,29.5 L73.5,29.5 M60.5,48.5 L47.5,63.5 M60.5,48.5 L73.5,63.5 " fill="none" style="stroke:#181818;stroke-width:0.5;"/><text fill="#000000" font-family="sans-serif" font-size="14" lengthAdjust="spacing" textLength="75" x="20" y="727.7676">Coordinator</text><ellipse cx="60.5" cy="739.3438" fill="#E2E2F0" rx="8" ry="8" style="stroke:#181818;stroke-width:0.5;"/><path d="M60.5,747.3438 L60.5,774.3438 M47.5,755.3438 L73.5,755.3438 M60.5,774.3438 L47.5,789.3438 M60.5,774.3438 L73.5,789.3438 " fill="none" style="stroke:#181818;stroke-width:0.5;"/><rect fill="#E2E2F0" height="31.6094" rx="2.5" ry="2.5" style="stroke:#181818;stroke-width:0.5;" width="224" x="453.5" y="50"/><text fill="#000000" font-family="sans-serif" font-size="14" lengthAdjust="spacing" textLength="210" x="460.5" y="71.5332">:ImportDataFromLegacySystemUI</text><rect fill="#E2E2F0" height="31.6094" rx="2.5" ry="2.5" style="stroke:#181818;stroke-width:0.5;" width="224" x="453.5" y="713.2344"/><text fill="#000000" font-family="sans-serif" font-size="14" lengthAdjust="spacing" textLength="210" x="460.5" y="734.7676">:ImportDataFromLegacySystemUI</text><rect fill="#E2E2F0" height="31.6094" rx="2.5" ry="2.5" style="stroke:#181818;stroke-width:0.5;" width="274" x="687.5" y="50"/><text fill="#000000" font-family="sans-serif" font-size="14" lengthAdjust="spacing" textLength="260" x="694.5" y="71.5332">:ImportDataFromLegacySystemController</text><rect fill="#E2E2F0" height="31.6094" rx="2.5" ry="2.5" style="stroke:#181818;stroke-width:0.5;" width="274" x="687.5" y="713.2344"/><text fill="#000000" font-family="sans-serif" font-size="14" lengthAdjust="spacing" textLength="260" x="694.5" y="734.7676">:ImportDataFromLegacySystemController</text><rect fill="#E2E2F0" height="31.6094" rx="2.5" ry="2.5" style="stroke:#181818;stroke-width:0.5;" width="74" x="971.5" y="50"/><text fill="#000000" font-family="sans-serif" font-size="14" lengthAdjust="spacing" textLength="60" x="978.5" y="71.5332">Company</text><rect fill="#E2E2F0" height="31.6094" rx="2.5" ry="2.5" style="stroke:#181818;stroke-width:0.5;" width="74" x="971.5" y="713.2344"/><text fill="#000000" font-family="sans-serif" font-size="14" lengthAdjust="spacing" textLength="60" x="978.5" y="734.7676">Company</text><rect fill="#E2E2F0" height="31.6094" rx="2.5" ry="2.5" style="stroke:#181818;stroke-width:0.5;" width="136" x="1055.5" y="50"/><text fill="#000000" font-family="sans-serif" font-size="14" lengthAdjust="spacing" textLength="122" x="1062.5" y="71.5332">LegacySystemData</text><rect fill="#E2E2F0" height="31.6094" rx="2.5" ry="2.5" style="stroke:#181818;stroke-width:0.5;" width="136" x="1055.5" y="713.2344"/><text fill="#000000" font-family="sans-serif" font-size="14" lengthAdjust="spacing" textLength="122" x="1062.5" y="734.7676">LegacySystemData</text><rect fill="#E2E2F0" height="31.6094" rx="2.5" ry="2.5" style="stroke:#181818;stroke-width:0.5;" width="92" x="1201.5" y="50"/><text fill="#000000" font-family="sans-serif" font-size="14" lengthAdjust="spacing" textLength="78" x="1208.5" y="71.5332">em:SNSuser</text><rect fill="#E2E2F0" height="31.6094" rx="2.5" ry="2.5" style="stroke:#181818;stroke-width:0.5;" width="92" x="1201.5" y="713.2344"/><text fill="#000000" font-family="sans-serif" font-size="14" lengthAdjust="spacing" textLength="78" x="1208.5" y="734.7676">em:SNSuser</text><rect fill="#E2E2F0" height="31.6094" rx="2.5" ry="2.5" style="stroke:#181818;stroke-width:0.5;" width="140" x="1303.5" y="50"/><text fill="#000000" font-family="sans-serif" font-size="14" lengthAdjust="spacing" textLength="126" x="1310.5" y="71.5332">LegacySystemStore</text><rect fill="#E2E2F0" height="31.6094" rx="2.5" ry="2.5" style="stroke:#181818;stroke-width:0.5;" width="140" x="1303.5" y="713.2344"/><text fill="#000000" font-family="sans-serif" font-size="14" lengthAdjust="spacing" textLength="126" x="1310.5" y="734.7676">LegacySystemStore</text><rect fill="#E2E2F0" height="31.6094" rx="2.5" ry="2.5" style="stroke:#181818;stroke-width:0.5;" width="80" x="1453.5" y="50"/><text fill="#000000" font-family="sans-serif" font-size="14" lengthAdjust="spacing" textLength="66" x="1460.5" y="71.5332">Algorithms</text><rect fill="#E2E2F0" height="31.6094" rx="2.5" ry="2.5" style="stroke:#181818;stroke-width:0.5;" width="80" x="1453.5" y="713.2344"/><text fill="#000000" font-family="sans-serif" font-size="14" lengthAdjust="spacing" textLength="66" x="1460.5" y="734.7676">Algorithms</text><rect fill="#E2E2F0" height="31.6094" rx="2.5" ry="2.5" style="stroke:#181818;stroke-width:0.5;" width="64" x="1543.5" y="50"/><text fill="#000000" font-family="sans-serif" font-size="14" lengthAdjust="spacing" textLength="50" x="1550.5" y="71.5332">Vaccine</text><rect fill="#E2E2F0" height="31.6094" rx="2.5" ry="2.5" style="stroke:#181818;stroke-width:0.5;" width="64" x="1543.5" y="713.2344"/><text fill="#000000" font-family="sans-serif" font-size="14" lengthAdjust="spacing" textLength="50" x="1550.5" y="734.7676">Vaccine</text><rect fill="#E2E2F0" height="31.6094" rx="2.5" ry="2.5" style="stroke:#181818;stroke-width:0.5;" width="96" x="1617.5" y="50"/><text fill="#000000" font-family="sans-serif" font-size="14" lengthAdjust="spacing" textLength="82" x="1624.5" y="71.5332">TypeVaccine</text><rect fill="#E2E2F0" height="31.6094" rx="2.5" ry="2.5" style="stroke:#181818;stroke-width:0.5;" width="96" x="1617.5" y="713.2344"/><text fill="#000000" font-family="sans-serif" font-size="14" lengthAdjust="spacing" textLength="82" x="1624.5" y="734.7676">TypeVaccine</text><rect fill="#E2E2F0" height="31.6094" rx="2.5" ry="2.5" style="stroke:#181818;stroke-width:0.5;" width="203" x="1723.5" y="50"/><text fill="#000000" font-family="sans-serif" font-size="14" lengthAdjust="spacing" textLength="189" x="1730.5" y="71.5332">ReadDataFromLegacySystem</text><rect fill="#E2E2F0" height="31.6094" rx="2.5" ry="2.5" style="stroke:#181818;stroke-width:0.5;" width="203" x="1723.5" y="713.2344"/><text fill="#000000" font-family="sans-serif" font-size="14" lengthAdjust="spacing" textLength="189" x="1730.5" y="734.7676">ReadDataFromLegacySystem</text><rect fill="#FFFFFF" height="612.625" style="stroke:#181818;stroke-width:1.0;" width="10" x="55.5" y="92.6094"/><rect fill="#FFFFFF" height="30.3516" style="stroke:#181818;stroke-width:1.0;" width="10" x="560.5" y="114.9609"/><rect fill="#FFFFFF" height="213.7578" style="stroke:#181818;stroke-width:1.0;" width="10" x="560.5" y="175.6641"/><rect fill="#FFFFFF" height="120.7031" style="stroke:#181818;stroke-width:1.0;" width="10" x="565.5" y="231.3672"/><rect fill="#FFFFFF" height="269.4609" style="stroke:#181818;stroke-width:1.0;" width="10" x="560.5" y="419.7734"/><rect fill="#FFFFFF" height="120.7031" style="stroke:#181818;stroke-width:1.0;" width="10" x="819.5" y="231.3672"/><rect fill="#FFFFFF" height="239.1094" style="stroke:#181818;stroke-width:1.0;" width="10" x="819.5" y="450.125"/><rect fill="#FFFFFF" height="30" style="stroke:#181818;stroke-width:1.0;" width="10" x="1118.5" y="322.0703"/><rect fill="#FFFFFF" height="30" style="stroke:#181818;stroke-width:1.0;" width="10" x="1488.5" y="505.8281"/><rect fill="#FFFFFF" height="30" style="stroke:#181818;stroke-width:1.0;" width="10" x="1488.5" y="628.8828"/><rect fill="#FFFFFF" height="30" style="stroke:#181818;stroke-width:1.0;" width="10" x="1820" y="261.7188"/><polygon fill="#181818" points="548.5,110.9609,558.5,114.9609,548.5,118.9609,552.5,114.9609" style="stroke:#181818;stroke-width:1.0;"/><line style="stroke:#181818;stroke-width:1.0;" x1="65.5" x2="554.5" y1="114.9609" y2="114.9609"/><text fill="#000000" font-family="sans-serif" font-size="13" font-weight="bold" lengthAdjust="spacing" textLength="7" x="72.5" y="110.1045">1</text><text fill="#000000" font-family="sans-serif" font-size="13" lengthAdjust="spacing" textLength="268" x="83.5" y="110.1045">Requests to import data from a legacy system</text><polygon fill="#181818" points="76.5,141.3125,66.5,145.3125,76.5,149.3125,72.5,145.3125" style="stroke:#181818;stroke-width:1.0;"/><line style="stroke:#181818;stroke-width:1.0;stroke-dasharray:2.0,2.0;" x1="70.5" x2="564.5" y1="145.3125" y2="145.3125"/><text fill="#000000" font-family="sans-serif" font-size="13" font-weight="bold" lengthAdjust="spacing" textLength="7" x="82.5" y="140.4561">2</text><text fill="#000000" font-family="sans-serif" font-size="13" lengthAdjust="spacing" textLength="196" x="93.5" y="140.4561">request data(file name or file path)</text><polygon fill="#181818" points="548.5,171.6641,558.5,175.6641,548.5,179.6641,552.5,175.6641" style="stroke:#181818;stroke-width:1.0;"/><line style="stroke:#181818;stroke-width:1.0;" x1="65.5" x2="554.5" y1="175.6641" y2="175.6641"/><text fill="#000000" font-family="sans-serif" font-size="13" font-weight="bold" lengthAdjust="spacing" textLength="7" x="72.5" y="170.8076">3</text><text fill="#000000" font-family="sans-serif" font-size="13" lengthAdjust="spacing" textLength="125" x="83.5" y="170.8076">Types requested data</text><path d="M443.5,190.6641 L524.5,190.6641 L524.5,199.0156 L514.5,209.0156 L443.5,209.0156 L443.5,190.6641 " fill="#EEEEEE" style="stroke:#000000;stroke-width:1.5;"/><rect fill="none" height="169.4063" style="stroke:#000000;stroke-width:1.5;" width="1493" x="443.5" y="190.6641"/><text fill="#000000" font-family="sans-serif" font-size="13" font-weight="bold" lengthAdjust="spacing" textLength="32" x="458.5" y="205.1592">loop:</text><text fill="#000000" font-family="sans-serif" font-size="11" font-weight="bold" lengthAdjust="spacing" textLength="261" x="539.5" y="204.083">[while CSV file has a line with valid information]</text><polygon fill="#181818" points="807.5,227.3672,817.5,231.3672,807.5,235.3672,811.5,231.3672" style="stroke:#181818;stroke-width:1.0;"/><line style="stroke:#181818;stroke-width:1.0;" x1="575.5" x2="813.5" y1="231.3672" y2="231.3672"/><text fill="#000000" font-family="sans-serif" font-size="13" font-weight="bold" lengthAdjust="spacing" textLength="7" x="582.5" y="226.5107">4</text><text fill="#000000" font-family="sans-serif" font-size="13" lengthAdjust="spacing" textLength="141" x="593.5" y="226.5107">readData(String filePath)</text><polygon fill="#181818" points="1808,257.7188,1818,261.7188,1808,265.7188,1812,261.7188" style="stroke:#181818;stroke-width:1.0;"/><line style="stroke:#181818;stroke-width:1.0;" x1="829.5" x2="1814" y1="261.7188" y2="261.7188"/><text fill="#000000" font-family="sans-serif" font-size="13" font-weight="bold" lengthAdjust="spacing" textLength="7" x="836.5" y="256.8623">5</text><text fill="#000000" font-family="sans-serif" font-size="13" lengthAdjust="spacing" textLength="392" x="847.5" y="256.8623">ReadDataFromLegacySystem(String file,List&lt;Vaccine&gt; vaccineList)</text><polygon fill="#181818" points="1106.5,318.0703,1116.5,322.0703,1106.5,326.0703,1110.5,322.0703" style="stroke:#181818;stroke-width:1.0;"/><line style="stroke:#181818;stroke-width:1.0;" x1="829.5" x2="1112.5" y1="322.0703" y2="322.0703"/><text fill="#000000" font-family="sans-serif" font-size="13" font-weight="bold" lengthAdjust="spacing" textLength="7" x="836.5" y="317.2139">6</text><text fill="#000000" font-family="sans-serif" font-size="13" lengthAdjust="spacing" textLength="46" x="847.5" y="317.2139">getInfo()</text><polygon fill="#181818" points="76.5,385.4219,66.5,389.4219,76.5,393.4219,72.5,389.4219" style="stroke:#181818;stroke-width:1.0;"/><line style="stroke:#181818;stroke-width:1.0;stroke-dasharray:2.0,2.0;" x1="70.5" x2="564.5" y1="389.4219" y2="389.4219"/><text fill="#000000" font-family="sans-serif" font-size="13" font-weight="bold" lengthAdjust="spacing" textLength="7" x="82.5" y="384.5654">7</text><text fill="#000000" font-family="sans-serif" font-size="13" lengthAdjust="spacing" textLength="350" x="93.5" y="384.5654">requests to select order of sorting (ascending or descending)</text><polygon fill="#181818" points="548.5,415.7734,558.5,419.7734,548.5,423.7734,552.5,419.7734" style="stroke:#181818;stroke-width:1.0;"/><line style="stroke:#181818;stroke-width:1.0;" x1="65.5" x2="554.5" y1="419.7734" y2="419.7734"/><text fill="#000000" font-family="sans-serif" font-size="13" font-weight="bold" lengthAdjust="spacing" textLength="7" x="72.5" y="414.917">8</text><text fill="#000000" font-family="sans-serif" font-size="13" lengthAdjust="spacing" textLength="132" x="83.5" y="414.917">selects requested data</text><polygon fill="#181818" points="807.5,446.125,817.5,450.125,807.5,454.125,811.5,450.125" style="stroke:#181818;stroke-width:1.0;"/><line style="stroke:#181818;stroke-width:1.0;" x1="570.5" x2="813.5" y1="450.125" y2="450.125"/><text fill="#000000" font-family="sans-serif" font-size="13" font-weight="bold" lengthAdjust="spacing" textLength="7" x="577.5" y="445.2686">9</text><text fill="#000000" font-family="sans-serif" font-size="13" lengthAdjust="spacing" textLength="30" x="588.5" y="445.2686">sort()</text><path d="M10,465.125 L75,465.125 L75,473.4766 L65,483.4766 L10,483.4766 L10,465.125 " fill="#EEEEEE" style="stroke:#000000;stroke-width:1.5;"/><rect fill="none" height="109.0547" style="stroke:#000000;stroke-width:1.5;" width="1533.5" x="10" y="465.125"/><text fill="#000000" font-family="sans-serif" font-size="13" font-weight="bold" lengthAdjust="spacing" textLength="20" x="25" y="479.6201">opt</text><text fill="#000000" font-family="sans-serif" font-size="11" font-weight="bold" lengthAdjust="spacing" textLength="235" x="90" y="478.5439">[if it is defined to be sorted by arrival time]</text><polygon fill="#181818" points="1476.5,501.8281,1486.5,505.8281,1476.5,509.8281,1480.5,505.8281" style="stroke:#181818;stroke-width:1.0;"/><line style="stroke:#181818;stroke-width:1.0;" x1="829.5" x2="1482.5" y1="505.8281" y2="505.8281"/><text fill="#000000" font-family="sans-serif" font-size="13" font-weight="bold" lengthAdjust="spacing" textLength="14" x="836.5" y="500.9717">10</text><text fill="#000000" font-family="sans-serif" font-size="13" lengthAdjust="spacing" textLength="81" x="854.5" y="500.9717">sortByArrival()</text><polygon fill="#181818" points="76.5,562.1797,66.5,566.1797,76.5,570.1797,72.5,566.1797" style="stroke:#181818;stroke-width:1.0;"/><line style="stroke:#181818;stroke-width:1.0;stroke-dasharray:2.0,2.0;" x1="70.5" x2="559.5" y1="566.1797" y2="566.1797"/><text fill="#000000" font-family="sans-serif" font-size="13" font-weight="bold" lengthAdjust="spacing" textLength="14" x="82.5" y="561.3232">11</text><text fill="#000000" font-family="sans-serif" font-size="13" lengthAdjust="spacing" textLength="418" x="100.5" y="561.3232">prints sorted data by Arrival Time and informs (In)sucess of the operation</text><path d="M10,588.1797 L75,588.1797 L75,596.5313 L65,606.5313 L10,606.5313 L10,588.1797 " fill="#EEEEEE" style="stroke:#000000;stroke-width:1.5;"/><rect fill="none" height="109.0547" style="stroke:#000000;stroke-width:1.5;" width="1533.5" x="10" y="588.1797"/><text fill="#000000" font-family="sans-serif" font-size="13" font-weight="bold" lengthAdjust="spacing" textLength="20" x="25" y="602.6748">opt</text><text fill="#000000" font-family="sans-serif" font-size="11" font-weight="bold" lengthAdjust="spacing" textLength="279" x="90" y="601.5986">[if it is defined to be sorted by center leaving time]</text><polygon fill="#181818" points="1476.5,624.8828,1486.5,628.8828,1476.5,632.8828,1480.5,628.8828" style="stroke:#181818;stroke-width:1.0;"/><line style="stroke:#181818;stroke-width:1.0;" x1="829.5" x2="1482.5" y1="628.8828" y2="628.8828"/><text fill="#000000" font-family="sans-serif" font-size="13" font-weight="bold" lengthAdjust="spacing" textLength="14" x="836.5" y="624.0264">12</text><text fill="#000000" font-family="sans-serif" font-size="13" lengthAdjust="spacing" textLength="89" x="854.5" y="624.0264">sortByLeaving()</text><polygon fill="#181818" points="76.5,685.2344,66.5,689.2344,76.5,693.2344,72.5,689.2344" style="stroke:#181818;stroke-width:1.0;"/><line style="stroke:#181818;stroke-width:1.0;stroke-dasharray:2.0,2.0;" x1="70.5" x2="564.5" y1="689.2344" y2="689.2344"/><text fill="#000000" font-family="sans-serif" font-size="13" font-weight="bold" lengthAdjust="spacing" textLength="14" x="82.5" y="684.3779">13</text><text fill="#000000" font-family="sans-serif" font-size="13" lengthAdjust="spacing" textLength="453" x="100.5" y="684.3779">prints sorted data by center arrival time and informs (In)sucess of the operation</text><!--MD5=[adf9b669e12d494976acac020d574137]
@startuml
'https://plantuml.com/sequence-diagram

autonumber
    actor "Coordinator" as coord

    participant ":ImportDataFromLegacySystemUI" as UI
    participant ":ImportDataFromLegacySystemController" as  CTRL
    participant "Company" as COMP
    participant "LegacySystemData" as LSD
    participant "em:SNSuser" as SNS
    participant "LegacySystemStore" as LSS
    participant "Algorithms" as ALG
    participant "Vaccine" as VAC
    participant "TypeVaccine" as TVAC
    participant "ReadDataFromLegacySystem" as RDFLS

      activate coord
      coord -> UI: Requests to import data from a legacy system
       activate UI
       UI - -> coord: request data(file name or file path)
       deactivate UI
       UI <- coord: Types requested data

       activate UI

       group loop: [while CSV file has a line with valid information]
       UI->CTRL:readData(String filePath)
       activate UI
       activate CTRL
       CTRL -> RDFLS: ReadDataFromLegacySystem(String file,List<Vaccine> vaccineList)
       activate RDFLS
       deactivate RDFLS
       CTRL -> LSD: getInfo()
       activate LSD
       deactivate CTRL
       deactivate LSD
       deactivate UI
       end
       UI- -> coord:requests to select order of sorting (ascending or descending)
       deactivate UI
       coord -> UI: selects requested data
       activate UI
       UI->CTRL: sort()

 opt if it is defined to be sorted by arrival time
        activate CTRL
         CTRL-> ALG: sortByArrival()
        activate ALG
        deactivate ALG
        UI- ->coord: prints sorted data by Arrival Time and informs (In)sucess of the operation

 end
 opt if it is defined to be sorted by center leaving time
         activate CTRL
          CTRL-> ALG: sortByLeaving()
         activate ALG
         deactivate ALG
         UI- ->coord: prints sorted data by center arrival time and informs (In)sucess of the operation
         deactivate UI
         deactivate CTRL

  end


@enduml

@startuml

autonumber
    actor "Coordinator" as coord

    participant ":ImportDataFromLegacySystemUI" as UI
    participant ":ImportDataFromLegacySystemController" as  CTRL
    participant "Company" as COMP
    participant "LegacySystemData" as LSD
    participant "em:SNSuser" as SNS
    participant "LegacySystemStore" as LSS
    participant "Algorithms" as ALG
    participant "Vaccine" as VAC
    participant "TypeVaccine" as TVAC
    participant "ReadDataFromLegacySystem" as RDFLS

      activate coord
      coord -> UI: Requests to import data from a legacy system
       activate UI
       UI - -> coord: request data(file name or file path)
       deactivate UI
       UI <- coord: Types requested data

       activate UI

       group loop: [while CSV file has a line with valid information]
       UI->CTRL:readData(String filePath)
       activate UI
       activate CTRL
       CTRL -> RDFLS: ReadDataFromLegacySystem(String file,List<Vaccine> vaccineList)
       activate RDFLS
       deactivate RDFLS
       CTRL -> LSD: getInfo()
       activate LSD
       deactivate CTRL
       deactivate LSD
       deactivate UI
       end
       UI- -> coord:requests to select order of sorting (ascending or descending)
       deactivate UI
       coord -> UI: selects requested data
       activate UI
       UI->CTRL: sort()

 opt if it is defined to be sorted by arrival time
        activate CTRL
         CTRL-> ALG: sortByArrival()
        activate ALG
        deactivate ALG
        UI- ->coord: prints sorted data by Arrival Time and informs (In)sucess of the operation

 end
 opt if it is defined to be sorted by center leaving time
         activate CTRL
          CTRL-> ALG: sortByLeaving()
         activate ALG
         deactivate ALG
         UI- ->coord: prints sorted data by center arrival time and informs (In)sucess of the operation
         deactivate UI
         deactivate CTRL

  end


@enduml

PlantUML version 1.2022.5(Sat Apr 30 11:55:52 BST 2022)
(GPL source distribution)
Java Runtime: OpenJDK Runtime Environment
JVM: OpenJDK 64-Bit Server VM
Default Encoding: Cp1252
Language: pt
Country: PT
--></g></svg>