<?xml version="1.0" encoding="UTF-8" standalone="no"?><svg xmlns="http://www.w3.org/2000/svg" xmlns:xlink="http://www.w3.org/1999/xlink" contentStyleType="text/css" height="1223px" preserveAspectRatio="none" style="width:1379px;height:1223px;background:#FFFFFF;" version="1.1" viewBox="0 0 1379 1223" width="1379px" zoomAndPan="magnify"><defs/><g><rect fill="#FFFFFF" height="1030.4922" style="stroke:#181818;stroke-width:1.0;" width="10" x="42" y="92.6094"/><rect fill="#FFFFFF" height="121.0547" style="stroke:#181818;stroke-width:1.0;" width="10" x="379" y="114.9609"/><rect fill="#FFFFFF" height="90.7031" style="stroke:#181818;stroke-width:1.0;" width="10" x="379" y="266.3672"/><rect fill="#FFFFFF" height="467.5703" style="stroke:#181818;stroke-width:1.0;" width="10" x="379" y="387.4219"/><rect fill="#FFFFFF" height="277.4609" style="stroke:#181818;stroke-width:1.0;" width="10" x="384" y="425.7734"/><rect fill="#FFFFFF" height="246.7578" style="stroke:#181818;stroke-width:1.0;" width="10" x="379" y="885.3438"/><rect fill="#FFFFFF" height="60.3516" style="stroke:#181818;stroke-width:1.0;" width="10" x="631" y="145.3125"/><rect fill="#FFFFFF" height="30" style="stroke:#181818;stroke-width:1.0;" width="10" x="631" y="296.7188"/><rect fill="#FFFFFF" height="60.7031" style="stroke:#181818;stroke-width:1.0;" width="10" x="631" y="461.125"/><rect fill="#FFFFFF" height="60.3516" style="stroke:#181818;stroke-width:1.0;" width="10" x="631" y="552.1797"/><rect fill="#FFFFFF" height="60.3516" style="stroke:#181818;stroke-width:1.0;" width="10" x="631" y="642.8828"/><rect fill="#FFFFFF" height="91.0547" style="stroke:#181818;stroke-width:1.0;" width="10" x="631" y="733.5859"/><rect fill="#FFFFFF" height="30.3516" style="stroke:#181818;stroke-width:1.0;" width="10" x="631" y="915.6953"/><rect fill="#FFFFFF" height="30" style="stroke:#181818;stroke-width:1.0;" width="10" x="1045" y="175.6641"/><rect fill="#FFFFFF" height="30.3516" style="stroke:#181818;stroke-width:1.0;" width="10" x="1045" y="491.4766"/><rect fill="#FFFFFF" height="30" style="stroke:#181818;stroke-width:1.0;" width="10" x="1045" y="582.5313"/><rect fill="#FFFFFF" height="30" style="stroke:#181818;stroke-width:1.0;" width="10" x="1045" y="673.2344"/><rect fill="#FFFFFF" height="60.7031" style="stroke:#181818;stroke-width:1.0;" width="10" x="1045" y="763.9375"/><rect fill="#FFFFFF" height="186.0547" style="stroke:#181818;stroke-width:1.0;" width="10" x="1045" y="946.0469"/><rect fill="#FFFFFF" height="28" style="stroke:#181818;stroke-width:1.0;" width="10" x="1050" y="984.3984"/><rect fill="#FFFFFF" height="28" style="stroke:#181818;stroke-width:1.0;" width="10" x="1050" y="1057.75"/><line style="stroke:#181818;stroke-width:0.5;stroke-dasharray:5.0,5.0;" x1="47" x2="47" y1="82.6094" y2="1141.1016"/><line style="stroke:#181818;stroke-width:0.5;stroke-dasharray:5.0,5.0;" x1="383.5" x2="383.5" y1="82.6094" y2="1141.1016"/><line style="stroke:#181818;stroke-width:0.5;stroke-dasharray:5.0,5.0;" x1="635.5" x2="635.5" y1="82.6094" y2="1141.1016"/><line style="stroke:#181818;stroke-width:0.5;stroke-dasharray:5.0,5.0;" x1="820.5" x2="820.5" y1="82.6094" y2="1141.1016"/><line style="stroke:#181818;stroke-width:0.5;stroke-dasharray:5.0,5.0;" x1="1050" x2="1050" y1="82.6094" y2="1141.1016"/><text fill="#000000" font-family="sans-serif" font-size="14" lengthAdjust="spacing" textLength="78" x="5" y="79.5332">Receptionist</text><ellipse cx="47" cy="13.5" fill="#E2E2F0" rx="8" ry="8" style="stroke:#181818;stroke-width:0.5;"/><path d="M47,21.5 L47,48.5 M34,29.5 L60,29.5 M47,48.5 L34,63.5 M47,48.5 L60,63.5 " fill="none" style="stroke:#181818;stroke-width:0.5;"/><text fill="#000000" font-family="sans-serif" font-size="14" lengthAdjust="spacing" textLength="78" x="5" y="1154.6348">Receptionist</text><ellipse cx="47" cy="1166.2109" fill="#E2E2F0" rx="8" ry="8" style="stroke:#181818;stroke-width:0.5;"/><path d="M47,1174.2109 L47,1201.2109 M34,1182.2109 L60,1182.2109 M47,1201.2109 L34,1216.2109 M47,1201.2109 L60,1216.2109 " fill="none" style="stroke:#181818;stroke-width:0.5;"/><rect fill="#E2E2F0" height="31.6094" rx="2.5" ry="2.5" style="stroke:#181818;stroke-width:0.5;" width="199" x="284.5" y="50"/><text fill="#000000" font-family="sans-serif" font-size="14" lengthAdjust="spacing" textLength="185" x="291.5" y="71.5332">:CheckVaccineAppointmentUI</text><rect fill="#E2E2F0" height="31.6094" rx="2.5" ry="2.5" style="stroke:#181818;stroke-width:0.5;" width="199" x="284.5" y="1140.1016"/><text fill="#000000" font-family="sans-serif" font-size="14" lengthAdjust="spacing" textLength="185" x="291.5" y="1161.6348">:CheckVaccineAppointmentUI</text><rect fill="#E2E2F0" height="31.6094" rx="2.5" ry="2.5" style="stroke:#181818;stroke-width:0.5;" width="249" x="511.5" y="50"/><text fill="#000000" font-family="sans-serif" font-size="14" lengthAdjust="spacing" textLength="235" x="518.5" y="71.5332">:CheckVaccineAppointmentController</text><rect fill="#E2E2F0" height="31.6094" rx="2.5" ry="2.5" style="stroke:#181818;stroke-width:0.5;" width="249" x="511.5" y="1140.1016"/><text fill="#000000" font-family="sans-serif" font-size="14" lengthAdjust="spacing" textLength="235" x="518.5" y="1161.6348">:CheckVaccineAppointmentController</text><rect fill="#E2E2F0" height="31.6094" rx="2.5" ry="2.5" style="stroke:#181818;stroke-width:0.5;" width="101" x="770.5" y="50"/><text fill="#000000" font-family="sans-serif" font-size="14" lengthAdjust="spacing" textLength="87" x="777.5" y="71.5332">arrival: Arrival</text><rect fill="#E2E2F0" height="31.6094" rx="2.5" ry="2.5" style="stroke:#181818;stroke-width:0.5;" width="101" x="770.5" y="1140.1016"/><text fill="#000000" font-family="sans-serif" font-size="14" lengthAdjust="spacing" textLength="87" x="777.5" y="1161.6348">arrival: Arrival</text><rect fill="#E2E2F0" height="31.6094" rx="2.5" ry="2.5" style="stroke:#181818;stroke-width:0.5;" width="78" x="1011" y="50"/><text fill="#000000" font-family="sans-serif" font-size="14" lengthAdjust="spacing" textLength="64" x="1018" y="71.5332">:Company</text><rect fill="#E2E2F0" height="31.6094" rx="2.5" ry="2.5" style="stroke:#181818;stroke-width:0.5;" width="78" x="1011" y="1140.1016"/><text fill="#000000" font-family="sans-serif" font-size="14" lengthAdjust="spacing" textLength="64" x="1018" y="1161.6348">:Company</text><rect fill="#FFFFFF" height="1030.4922" style="stroke:#181818;stroke-width:1.0;" width="10" x="42" y="92.6094"/><rect fill="#FFFFFF" height="121.0547" style="stroke:#181818;stroke-width:1.0;" width="10" x="379" y="114.9609"/><rect fill="#FFFFFF" height="90.7031" style="stroke:#181818;stroke-width:1.0;" width="10" x="379" y="266.3672"/><rect fill="#FFFFFF" height="467.5703" style="stroke:#181818;stroke-width:1.0;" width="10" x="379" y="387.4219"/><rect fill="#FFFFFF" height="277.4609" style="stroke:#181818;stroke-width:1.0;" width="10" x="384" y="425.7734"/><rect fill="#FFFFFF" height="246.7578" style="stroke:#181818;stroke-width:1.0;" width="10" x="379" y="885.3438"/><rect fill="#FFFFFF" height="60.3516" style="stroke:#181818;stroke-width:1.0;" width="10" x="631" y="145.3125"/><rect fill="#FFFFFF" height="30" style="stroke:#181818;stroke-width:1.0;" width="10" x="631" y="296.7188"/><rect fill="#FFFFFF" height="60.7031" style="stroke:#181818;stroke-width:1.0;" width="10" x="631" y="461.125"/><rect fill="#FFFFFF" height="60.3516" style="stroke:#181818;stroke-width:1.0;" width="10" x="631" y="552.1797"/><rect fill="#FFFFFF" height="60.3516" style="stroke:#181818;stroke-width:1.0;" width="10" x="631" y="642.8828"/><rect fill="#FFFFFF" height="91.0547" style="stroke:#181818;stroke-width:1.0;" width="10" x="631" y="733.5859"/><rect fill="#FFFFFF" height="30.3516" style="stroke:#181818;stroke-width:1.0;" width="10" x="631" y="915.6953"/><rect fill="#FFFFFF" height="30" style="stroke:#181818;stroke-width:1.0;" width="10" x="1045" y="175.6641"/><rect fill="#FFFFFF" height="30.3516" style="stroke:#181818;stroke-width:1.0;" width="10" x="1045" y="491.4766"/><rect fill="#FFFFFF" height="30" style="stroke:#181818;stroke-width:1.0;" width="10" x="1045" y="582.5313"/><rect fill="#FFFFFF" height="30" style="stroke:#181818;stroke-width:1.0;" width="10" x="1045" y="673.2344"/><rect fill="#FFFFFF" height="60.7031" style="stroke:#181818;stroke-width:1.0;" width="10" x="1045" y="763.9375"/><rect fill="#FFFFFF" height="186.0547" style="stroke:#181818;stroke-width:1.0;" width="10" x="1045" y="946.0469"/><rect fill="#FFFFFF" height="28" style="stroke:#181818;stroke-width:1.0;" width="10" x="1050" y="984.3984"/><rect fill="#FFFFFF" height="28" style="stroke:#181818;stroke-width:1.0;" width="10" x="1050" y="1057.75"/><polygon fill="#181818" points="367,110.9609,377,114.9609,367,118.9609,371,114.9609" style="stroke:#181818;stroke-width:1.0;"/><line style="stroke:#181818;stroke-width:1.0;" x1="52" x2="373" y1="114.9609" y2="114.9609"/><text fill="#000000" font-family="sans-serif" font-size="13" font-weight="bold" lengthAdjust="spacing" textLength="7" x="59" y="110.1045">1</text><text fill="#000000" font-family="sans-serif" font-size="13" lengthAdjust="spacing" textLength="204" x="70" y="110.1045">asks to check vaccine appointment</text><polygon fill="#181818" points="619,141.3125,629,145.3125,619,149.3125,623,145.3125" style="stroke:#181818;stroke-width:1.0;"/><line style="stroke:#181818;stroke-width:1.0;" x1="389" x2="625" y1="145.3125" y2="145.3125"/><text fill="#000000" font-family="sans-serif" font-size="13" font-weight="bold" lengthAdjust="spacing" textLength="7" x="396" y="140.4561">2</text><text fill="#000000" font-family="sans-serif" font-size="13" lengthAdjust="spacing" textLength="146" x="407" y="140.4561">getVaccinationFacilities()</text><polygon fill="#181818" points="1033,171.6641,1043,175.6641,1033,179.6641,1037,175.6641" style="stroke:#181818;stroke-width:1.0;"/><line style="stroke:#181818;stroke-width:1.0;" x1="641" x2="1039" y1="175.6641" y2="175.6641"/><text fill="#000000" font-family="sans-serif" font-size="13" font-weight="bold" lengthAdjust="spacing" textLength="7" x="648" y="170.8076">3</text><text fill="#000000" font-family="sans-serif" font-size="13" lengthAdjust="spacing" textLength="157" x="659" y="170.8076">getVaccinationFacilityList()</text><polygon fill="#181818" points="63,232.0156,53,236.0156,63,240.0156,59,236.0156" style="stroke:#181818;stroke-width:1.0;"/><line style="stroke:#181818;stroke-width:1.0;stroke-dasharray:2.0,2.0;" x1="57" x2="383" y1="236.0156" y2="236.0156"/><text fill="#000000" font-family="sans-serif" font-size="13" font-weight="bold" lengthAdjust="spacing" textLength="7" x="69" y="231.1592">4</text><text fill="#000000" font-family="sans-serif" font-size="13" lengthAdjust="spacing" textLength="292" x="80" y="231.1592">shows a list of vaccination facilities to choose from</text><polygon fill="#181818" points="367,262.3672,377,266.3672,367,270.3672,371,266.3672" style="stroke:#181818;stroke-width:1.0;"/><line style="stroke:#181818;stroke-width:1.0;" x1="52" x2="373" y1="266.3672" y2="266.3672"/><text fill="#000000" font-family="sans-serif" font-size="13" font-weight="bold" lengthAdjust="spacing" textLength="7" x="59" y="261.5107">5</text><text fill="#000000" font-family="sans-serif" font-size="13" lengthAdjust="spacing" textLength="151" x="70" y="261.5107">selects vaccination facility</text><polygon fill="#181818" points="619,292.7188,629,296.7188,619,300.7188,623,296.7188" style="stroke:#181818;stroke-width:1.0;"/><line style="stroke:#181818;stroke-width:1.0;" x1="389" x2="625" y1="296.7188" y2="296.7188"/><text fill="#000000" font-family="sans-serif" font-size="13" font-weight="bold" lengthAdjust="spacing" textLength="7" x="396" y="291.8623">6</text><text fill="#000000" font-family="sans-serif" font-size="13" lengthAdjust="spacing" textLength="88" x="407" y="291.8623">setIndex(index)</text><polygon fill="#181818" points="63,353.0703,53,357.0703,63,361.0703,59,357.0703" style="stroke:#181818;stroke-width:1.0;"/><line style="stroke:#181818;stroke-width:1.0;stroke-dasharray:2.0,2.0;" x1="57" x2="383" y1="357.0703" y2="357.0703"/><text fill="#000000" font-family="sans-serif" font-size="13" font-weight="bold" lengthAdjust="spacing" textLength="7" x="69" y="352.2139">7</text><text fill="#000000" font-family="sans-serif" font-size="13" lengthAdjust="spacing" textLength="134" x="80" y="352.2139">requests data (number)</text><polygon fill="#181818" points="367,383.4219,377,387.4219,367,391.4219,371,387.4219" style="stroke:#181818;stroke-width:1.0;"/><line style="stroke:#181818;stroke-width:1.0;" x1="52" x2="373" y1="387.4219" y2="387.4219"/><text fill="#000000" font-family="sans-serif" font-size="13" font-weight="bold" lengthAdjust="spacing" textLength="7" x="59" y="382.5654">8</text><text fill="#000000" font-family="sans-serif" font-size="13" lengthAdjust="spacing" textLength="122" x="70" y="382.5654">types requested data</text><line style="stroke:#181818;stroke-width:1.0;" x1="389" x2="436" y1="412.7734" y2="412.7734"/><line style="stroke:#181818;stroke-width:1.0;" x1="436" x2="436" y1="412.7734" y2="425.7734"/><line style="stroke:#181818;stroke-width:1.0;" x1="395" x2="436" y1="425.7734" y2="425.7734"/><polygon fill="#181818" points="405,421.7734,395,425.7734,405,429.7734,401,425.7734" style="stroke:#181818;stroke-width:1.0;"/><text fill="#000000" font-family="sans-serif" font-size="13" font-weight="bold" lengthAdjust="spacing" textLength="7" x="401" y="407.917">9</text><text fill="#000000" font-family="sans-serif" font-size="13" lengthAdjust="spacing" textLength="209" x="412" y="407.917">checkSnsUserAppointment(number)</text><polygon fill="#181818" points="619,457.125,629,461.125,619,465.125,623,461.125" style="stroke:#181818;stroke-width:1.0;"/><line style="stroke:#181818;stroke-width:1.0;" x1="394" x2="625" y1="461.125" y2="461.125"/><text fill="#000000" font-family="sans-serif" font-size="13" font-weight="bold" lengthAdjust="spacing" textLength="14" x="401" y="456.2686">10</text><text fill="#000000" font-family="sans-serif" font-size="13" lengthAdjust="spacing" textLength="136" x="419" y="456.2686">snsUserExists(number)</text><polygon fill="#181818" points="1033,487.4766,1043,491.4766,1033,495.4766,1037,491.4766" style="stroke:#181818;stroke-width:1.0;"/><line style="stroke:#181818;stroke-width:1.0;" x1="641" x2="1039" y1="491.4766" y2="491.4766"/><text fill="#000000" font-family="sans-serif" font-size="13" font-weight="bold" lengthAdjust="spacing" textLength="14" x="648" y="486.6201">11</text><text fill="#000000" font-family="sans-serif" font-size="13" lengthAdjust="spacing" textLength="245" x="666" y="486.6201">snsUser = snsUserExistsNumber(number)</text><polygon fill="#181818" points="1038,517.8281,1048,521.8281,1038,525.8281,1042,521.8281" style="stroke:#181818;stroke-width:1.0;"/><line style="stroke:#181818;stroke-width:1.0;" x1="636" x2="1044" y1="521.8281" y2="521.8281"/><text fill="#000000" font-family="sans-serif" font-size="13" font-weight="bold" lengthAdjust="spacing" textLength="14" x="643" y="516.9717">12</text><text fill="#000000" font-family="sans-serif" font-size="13" lengthAdjust="spacing" textLength="362" x="661" y="516.9717">snsUserIndex = getSnsUserAppointmentIndex(index, snsUser)</text><polygon fill="#181818" points="619,548.1797,629,552.1797,619,556.1797,623,552.1797" style="stroke:#181818;stroke-width:1.0;"/><line style="stroke:#181818;stroke-width:1.0;" x1="394" x2="625" y1="552.1797" y2="552.1797"/><text fill="#000000" font-family="sans-serif" font-size="13" font-weight="bold" lengthAdjust="spacing" textLength="14" x="401" y="547.3232">13</text><text fill="#000000" font-family="sans-serif" font-size="13" lengthAdjust="spacing" textLength="116" x="419" y="547.3232">checkAppointment()</text><polygon fill="#181818" points="1033,578.5313,1043,582.5313,1033,586.5313,1037,582.5313" style="stroke:#181818;stroke-width:1.0;"/><line style="stroke:#181818;stroke-width:1.0;" x1="641" x2="1039" y1="582.5313" y2="582.5313"/><text fill="#000000" font-family="sans-serif" font-size="13" font-weight="bold" lengthAdjust="spacing" textLength="14" x="648" y="577.6748">14</text><text fill="#000000" font-family="sans-serif" font-size="13" lengthAdjust="spacing" textLength="203" x="666" y="577.6748">checkAppointment(index, snsUser)</text><polygon fill="#181818" points="619,638.8828,629,642.8828,619,646.8828,623,642.8828" style="stroke:#181818;stroke-width:1.0;"/><line style="stroke:#181818;stroke-width:1.0;" x1="394" x2="625" y1="642.8828" y2="642.8828"/><text fill="#000000" font-family="sans-serif" font-size="13" font-weight="bold" lengthAdjust="spacing" textLength="14" x="401" y="638.0264">15</text><text fill="#000000" font-family="sans-serif" font-size="13" lengthAdjust="spacing" textLength="139" x="419" y="638.0264">checkAppointmentDay()</text><polygon fill="#181818" points="1033,669.2344,1043,673.2344,1033,677.2344,1037,673.2344" style="stroke:#181818;stroke-width:1.0;"/><line style="stroke:#181818;stroke-width:1.0;" x1="641" x2="1039" y1="673.2344" y2="673.2344"/><text fill="#000000" font-family="sans-serif" font-size="13" font-weight="bold" lengthAdjust="spacing" textLength="14" x="648" y="668.3779">16</text><text fill="#000000" font-family="sans-serif" font-size="13" lengthAdjust="spacing" textLength="226" x="666" y="668.3779">checkAppointmentDay(index, snsUser)</text><polygon fill="#181818" points="619,729.5859,629,733.5859,619,737.5859,623,733.5859" style="stroke:#181818;stroke-width:1.0;"/><line style="stroke:#181818;stroke-width:1.0;" x1="389" x2="625" y1="733.5859" y2="733.5859"/><text fill="#000000" font-family="sans-serif" font-size="13" font-weight="bold" lengthAdjust="spacing" textLength="14" x="396" y="728.7295">17</text><text fill="#000000" font-family="sans-serif" font-size="13" lengthAdjust="spacing" textLength="205" x="414" y="728.7295">requestSnsUserArrivalRegistration()</text><polygon fill="#181818" points="1033,759.9375,1043,763.9375,1033,767.9375,1037,763.9375" style="stroke:#181818;stroke-width:1.0;"/><line style="stroke:#181818;stroke-width:1.0;" x1="641" x2="1039" y1="763.9375" y2="763.9375"/><text fill="#000000" font-family="sans-serif" font-size="13" font-weight="bold" lengthAdjust="spacing" textLength="14" x="648" y="759.0811">18</text><text fill="#000000" font-family="sans-serif" font-size="13" lengthAdjust="spacing" textLength="176" x="666" y="759.0811">arrival = createArrival(snSuser)</text><polygon fill="#181818" points="832,790.2891,822,794.2891,832,798.2891,828,794.2891" style="stroke:#181818;stroke-width:1.0;"/><line style="stroke:#181818;stroke-width:1.0;" x1="826" x2="1044" y1="794.2891" y2="794.2891"/><text fill="#000000" font-family="sans-serif" font-size="13" font-weight="bold" lengthAdjust="spacing" textLength="14" x="838" y="789.4326">19</text><text fill="#000000" font-family="sans-serif" font-size="13" lengthAdjust="spacing" textLength="91" x="856" y="789.4326">Arrival(snsUser)</text><polygon fill="#181818" points="1038,820.6406,1048,824.6406,1038,828.6406,1042,824.6406" style="stroke:#181818;stroke-width:1.0;"/><line style="stroke:#181818;stroke-width:1.0;" x1="636" x2="1044" y1="824.6406" y2="824.6406"/><text fill="#000000" font-family="sans-serif" font-size="13" font-weight="bold" lengthAdjust="spacing" textLength="14" x="643" y="819.7842">20</text><text fill="#000000" font-family="sans-serif" font-size="13" lengthAdjust="spacing" textLength="119" x="661" y="819.7842">validateArrival(arrival)</text><polygon fill="#181818" points="63,850.9922,53,854.9922,63,858.9922,59,854.9922" style="stroke:#181818;stroke-width:1.0;"/><line style="stroke:#181818;stroke-width:1.0;stroke-dasharray:2.0,2.0;" x1="57" x2="383" y1="854.9922" y2="854.9922"/><text fill="#000000" font-family="sans-serif" font-size="13" font-weight="bold" lengthAdjust="spacing" textLength="14" x="69" y="850.1357">21</text><text fill="#000000" font-family="sans-serif" font-size="13" lengthAdjust="spacing" textLength="236" x="87" y="850.1357">shows all data and requests confirmation</text><polygon fill="#181818" points="367,881.3438,377,885.3438,367,889.3438,371,885.3438" style="stroke:#181818;stroke-width:1.0;"/><line style="stroke:#181818;stroke-width:1.0;" x1="52" x2="373" y1="885.3438" y2="885.3438"/><text fill="#000000" font-family="sans-serif" font-size="13" font-weight="bold" lengthAdjust="spacing" textLength="14" x="59" y="880.4873">22</text><text fill="#000000" font-family="sans-serif" font-size="13" lengthAdjust="spacing" textLength="100" x="77" y="880.4873">confirms the data</text><polygon fill="#181818" points="619,911.6953,629,915.6953,619,919.6953,623,915.6953" style="stroke:#181818;stroke-width:1.0;"/><line style="stroke:#181818;stroke-width:1.0;" x1="389" x2="625" y1="915.6953" y2="915.6953"/><text fill="#000000" font-family="sans-serif" font-size="13" font-weight="bold" lengthAdjust="spacing" textLength="14" x="396" y="910.8389">23</text><text fill="#000000" font-family="sans-serif" font-size="13" lengthAdjust="spacing" textLength="178" x="414" y="910.8389">requestToSaveSnsUserArrival()</text><polygon fill="#181818" points="1033,942.0469,1043,946.0469,1033,950.0469,1037,946.0469" style="stroke:#181818;stroke-width:1.0;"/><line style="stroke:#181818;stroke-width:1.0;" x1="636" x2="1039" y1="946.0469" y2="946.0469"/><text fill="#000000" font-family="sans-serif" font-size="13" font-weight="bold" lengthAdjust="spacing" textLength="14" x="643" y="941.1904">24</text><text fill="#000000" font-family="sans-serif" font-size="13" lengthAdjust="spacing" textLength="193" x="661" y="941.1904">saveSNSuserArrival(index, arrival)</text><line style="stroke:#181818;stroke-width:1.0;" x1="1060" x2="1102" y1="976.3984" y2="976.3984"/><line style="stroke:#181818;stroke-width:1.0;" x1="1102" x2="1102" y1="976.3984" y2="989.3984"/><line style="stroke:#181818;stroke-width:1.0;" x1="1061" x2="1102" y1="989.3984" y2="989.3984"/><polygon fill="#181818" points="1071,985.3984,1061,989.3984,1071,993.3984,1067,989.3984" style="stroke:#181818;stroke-width:1.0;"/><text fill="#000000" font-family="sans-serif" font-size="13" font-weight="bold" lengthAdjust="spacing" textLength="14" x="1067" y="971.542">25</text><text fill="#000000" font-family="sans-serif" font-size="13" lengthAdjust="spacing" textLength="119" x="1085" y="971.542">validateArrival(arrival)</text><line style="stroke:#181818;stroke-width:1.0;" x1="1060" x2="1102" y1="1049.75" y2="1049.75"/><line style="stroke:#181818;stroke-width:1.0;" x1="1102" x2="1102" y1="1049.75" y2="1062.75"/><line style="stroke:#181818;stroke-width:1.0;" x1="1061" x2="1102" y1="1062.75" y2="1062.75"/><polygon fill="#181818" points="1071,1058.75,1061,1062.75,1071,1066.75,1067,1062.75" style="stroke:#181818;stroke-width:1.0;"/><text fill="#000000" font-family="sans-serif" font-size="13" font-weight="bold" lengthAdjust="spacing" textLength="14" x="1067" y="1044.8936">26</text><text fill="#000000" font-family="sans-serif" font-size="13" lengthAdjust="spacing" textLength="287" x="1085" y="1044.8936">addSnsUserToWaitingList(int index, Arrival arrival)</text><polygon fill="#181818" points="58,1119.1016,48,1123.1016,58,1127.1016,54,1123.1016" style="stroke:#181818;stroke-width:1.0;"/><line style="stroke:#181818;stroke-width:1.0;stroke-dasharray:2.0,2.0;" x1="52" x2="378" y1="1123.1016" y2="1123.1016"/><text fill="#000000" font-family="sans-serif" font-size="13" font-weight="bold" lengthAdjust="spacing" textLength="14" x="64" y="1118.2451">27</text><text fill="#000000" font-family="sans-serif" font-size="13" lengthAdjust="spacing" textLength="152" x="82" y="1118.2451">informs operation success</text><!--MD5=[df296e3f1dc6f222607486ca2143ac35]
@startuml
autonumber
actor "Receptionist" as res

participant ":CheckVaccineAppointmentUI" as UI
participant ":CheckVaccineAppointmentController" as ctrl
participant "arrival: Arrival" as arrival
participant ":Company" as comp

activate res



res -> UI : asks to check vaccine appointment
activate UI
UI -> ctrl : getVaccinationFacilities()
activate ctrl
ctrl -> comp : getVaccinationFacilityList()
activate comp
deactivate comp
deactivate ctrl
UI - -> res : shows a list of vaccination facilities to choose from
deactivate UI

res -> UI : selects vaccination facility
activate UI
UI -> ctrl : setIndex(index)
activate ctrl
deactivate ctrl

UI - -> res : requests data (number)
deactivate UI
res -> UI : types requested data
activate UI

UI -> UI : checkSnsUserAppointment(number)
activate UI

UI -> ctrl : snsUserExists(number)
activate ctrl
ctrl -> comp : snsUser = snsUserExistsNumber(number)
activate comp
ctrl -> comp : snsUserIndex = getSnsUserAppointmentIndex(index, snsUser)
deactivate comp
deactivate ctrl
UI -> ctrl : checkAppointment()

activate ctrl
ctrl -> comp : checkAppointment(index, snsUser)
activate comp
deactivate comp
deactivate ctrl
UI -> ctrl : checkAppointmentDay()
activate ctrl
ctrl -> comp : checkAppointmentDay(index, snsUser)
activate comp
deactivate comp
deactivate ctrl
deactivate UI

UI -> ctrl : requestSnsUserArrivalRegistration()
activate ctrl
ctrl -> comp : arrival = createArrival(snSuser)
activate comp
comp -> arrival : Arrival(snsUser)
ctrl -> comp : validateArrival(arrival)
deactivate comp

deactivate ctrl


deactivate ctrl



UI - -> res : shows all data and requests confirmation
deactivate UI

res -> UI : confirms the data
activate UI
UI -> ctrl : requestToSaveSnsUserArrival()
activate ctrl
ctrl -> comp : saveSNSuserArrival(index, arrival)
deactivate ctrl

activate comp
comp -> comp : validateArrival(arrival)
activate comp
deactivate comp

comp -> comp : addSnsUserToWaitingList(int index, Arrival arrival)
activate comp
deactivate comp

UI - -> res : informs operation success



deactivate res
@enduml

PlantUML version 1.2022.5(Sat Apr 30 11:55:52 BST 2022)
(GPL source distribution)
Java Runtime: OpenJDK Runtime Environment
JVM: OpenJDK 64-Bit Server VM
Default Encoding: Cp1252
Language: pt
Country: BR
--></g></svg>