<?xml version="1.0" encoding="UTF-8" standalone="no"?><svg xmlns="http://www.w3.org/2000/svg" xmlns:xlink="http://www.w3.org/1999/xlink" contentStyleType="text/css" height="971px" preserveAspectRatio="none" style="width:513px;height:971px;background:#FFFFFF;" version="1.1" viewBox="0 0 513 971" width="513px" zoomAndPan="magnify"><defs/><g><!--MD5=[02e4b9b7573f1156f41e60aa5b4e25a4]
class Company--><g id="elem_Company"><rect codeLine="4" fill="#F1F1F1" height="224.0938" id="Company" rx="2.5" ry="2.5" style="stroke:#181818;stroke-width:0.5;" width="293" x="7" y="330"/><ellipse cx="119.25" cy="346" fill="#ADD1B2" rx="11" ry="11" style="stroke:#181818;stroke-width:1.0;"/><path d="M121.25,342.5 Q121.4531,342 121.6875,341.75 Q121.9219,341.5 122.1875,341.5 Q122.6563,341.5 122.9531,341.7813 Q123.25,342.0625 123.25,342.7188 L123.25,344.2813 Q123.25,344.9375 122.9688,345.2188 Q122.6875,345.5 122.25,345.5 Q121.8594,345.5 121.6094,345.3281 Q121.3594,345.1563 121.25,344.7031 Q121.2031,344.3906 121.0313,344.2188 Q120.7188,343.8906 120.1563,343.7031 Q119.5938,343.5 119.0313,343.5 Q118.3281,343.5 117.7344,343.7813 Q117.1563,344.0625 116.7031,344.6875 Q116.25,345.3125 116.25,346.1719 L116.25,347.0938 Q116.25,348.125 117.0938,348.8125 Q117.9375,349.5 119.4375,349.5 Q120.3281,349.5 120.9531,349.2969 Q121.3125,349.1875 121.7188,348.8281 Q121.9844,348.625 122.125,348.5625 Q122.2656,348.5 122.4375,348.5 Q122.7656,348.5 123,348.7656 Q123.25,349.0156 123.25,349.375 Q123.25,349.7188 122.9063,350.125 Q122.4063,350.7188 121.6094,351.0469 Q120.5625,351.5 119.2813,351.5 Q117.7813,351.5 116.5781,350.9063 Q115.6094,350.4375 114.9219,349.4219 Q114.25,348.4063 114.25,347.2031 L114.25,346.1094 Q114.25,344.8594 114.8438,343.7656 Q115.4531,342.6719 116.5,342.0938 Q117.5625,341.5 118.75,341.5 Q119.4688,341.5 120.0938,341.75 Q120.7188,342 121.25,342.5 Z " fill="#000000"/><text fill="#000000" font-family="sans-serif" font-size="14" lengthAdjust="spacing" textLength="60" x="139.75" y="351.7285">Company</text><line style="stroke:#181818;stroke-width:0.5;" x1="8" x2="299" y1="362" y2="362"/><text fill="#000000" font-family="sans-serif" font-size="14" lengthAdjust="spacing" textLength="78" x="13" y="380.5332">-designation</text><line style="stroke:#181818;stroke-width:0.5;" x1="8" x2="299" y1="387.6094" y2="387.6094"/><text fill="#000000" font-family="sans-serif" font-size="14" lengthAdjust="spacing" textLength="139" x="13" y="406.1426">+createUser(String id)</text><text fill="#000000" font-family="sans-serif" font-size="14" lengthAdjust="spacing" textLength="157" x="13" y="423.752">+validateUser(User user)</text><text fill="#000000" font-family="sans-serif" font-size="14" lengthAdjust="spacing" textLength="138" x="13" y="441.3613">+saveUser(User user)</text><text fill="#000000" font-family="sans-serif" font-size="14" lengthAdjust="spacing" textLength="277" x="13" y="458.9707">+createEmployee(String name, String email,</text><text fill="#000000" font-family="sans-serif" font-size="14" lengthAdjust="spacing" textLength="277" x="17" y="476.5801">int phone, int cc,String adress, String roleId)</text><text fill="#000000" font-family="sans-serif" font-size="14" lengthAdjust="spacing" textLength="256" x="13" y="494.1895">+validateEmployee(Employee employee)</text><text fill="#000000" font-family="sans-serif" font-size="14" lengthAdjust="spacing" textLength="244" x="13" y="511.7988">+saveEmployees(Employee employee)</text><text fill="#000000" font-family="sans-serif" font-size="14" lengthAdjust="spacing" textLength="136" x="13" y="529.4082">+printUser(User user)</text><text fill="#000000" font-family="sans-serif" font-size="14" lengthAdjust="spacing" textLength="235" x="13" y="547.0176">+printEmployee(Employee employee)</text></g><!--MD5=[7421f545a0d8420c5bec41e74b387d9c]
class Employee--><g id="elem_Employee"><rect codeLine="15" fill="#F1F1F1" height="153.6563" id="Employee" rx="2.5" ry="2.5" style="stroke:#181818;stroke-width:0.5;" width="106" x="279.5" y="632"/><ellipse cx="299.9" cy="648" fill="#ADD1B2" rx="11" ry="11" style="stroke:#181818;stroke-width:1.0;"/><path d="M301.9,644.5 Q302.1031,644 302.3375,643.75 Q302.5719,643.5 302.8375,643.5 Q303.3063,643.5 303.6031,643.7813 Q303.9,644.0625 303.9,644.7188 L303.9,646.2813 Q303.9,646.9375 303.6188,647.2188 Q303.3375,647.5 302.9,647.5 Q302.5094,647.5 302.2594,647.3281 Q302.0094,647.1563 301.9,646.7031 Q301.8531,646.3906 301.6813,646.2188 Q301.3688,645.8906 300.8063,645.7031 Q300.2438,645.5 299.6813,645.5 Q298.9781,645.5 298.3844,645.7813 Q297.8063,646.0625 297.3531,646.6875 Q296.9,647.3125 296.9,648.1719 L296.9,649.0938 Q296.9,650.125 297.7438,650.8125 Q298.5875,651.5 300.0875,651.5 Q300.9781,651.5 301.6031,651.2969 Q301.9625,651.1875 302.3688,650.8281 Q302.6344,650.625 302.775,650.5625 Q302.9156,650.5 303.0875,650.5 Q303.4156,650.5 303.65,650.7656 Q303.9,651.0156 303.9,651.375 Q303.9,651.7188 303.5563,652.125 Q303.0563,652.7188 302.2594,653.0469 Q301.2125,653.5 299.9313,653.5 Q298.4313,653.5 297.2281,652.9063 Q296.2594,652.4375 295.5719,651.4219 Q294.9,650.4063 294.9,649.2031 L294.9,648.1094 Q294.9,646.8594 295.4938,645.7656 Q296.1031,644.6719 297.15,644.0938 Q298.2125,643.5 299.4,643.5 Q300.1188,643.5 300.7438,643.75 Q301.3688,644 301.9,644.5 Z " fill="#000000"/><text fill="#000000" font-family="sans-serif" font-size="14" lengthAdjust="spacing" textLength="62" x="315.1" y="653.7285">Employee</text><line style="stroke:#181818;stroke-width:0.5;" x1="280.5" x2="384.5" y1="664" y2="664"/><text fill="#000000" font-family="sans-serif" font-size="14" lengthAdjust="spacing" textLength="16" x="285.5" y="682.5332">-id</text><text fill="#000000" font-family="sans-serif" font-size="14" lengthAdjust="spacing" textLength="40" x="285.5" y="700.1426">-name</text><text fill="#000000" font-family="sans-serif" font-size="14" lengthAdjust="spacing" textLength="56" x="285.5" y="717.752">-address</text><text fill="#000000" font-family="sans-serif" font-size="14" lengthAdjust="spacing" textLength="94" x="285.5" y="735.3613">-phoneNumber</text><text fill="#000000" font-family="sans-serif" font-size="14" lengthAdjust="spacing" textLength="38" x="285.5" y="752.9707">-email</text><text fill="#000000" font-family="sans-serif" font-size="14" lengthAdjust="spacing" textLength="68" x="285.5" y="770.5801">-ccNumber</text><line style="stroke:#181818;stroke-width:0.5;" x1="280.5" x2="384.5" y1="777.6563" y2="777.6563"/></g><!--MD5=[3fd616f346a44cd59a91eb10b19e157c]
class User--><g id="elem_User"><rect codeLine="23" fill="#F1F1F1" height="100.8281" id="User" rx="2.5" ry="2.5" style="stroke:#181818;stroke-width:0.5;" width="171" x="322" y="864"/><ellipse cx="388.75" cy="880" fill="#ADD1B2" rx="11" ry="11" style="stroke:#181818;stroke-width:1.0;"/><path d="M390.75,876.5 Q390.9531,876 391.1875,875.75 Q391.4219,875.5 391.6875,875.5 Q392.1563,875.5 392.4531,875.7813 Q392.75,876.0625 392.75,876.7188 L392.75,878.2813 Q392.75,878.9375 392.4688,879.2188 Q392.1875,879.5 391.75,879.5 Q391.3594,879.5 391.1094,879.3281 Q390.8594,879.1563 390.75,878.7031 Q390.7031,878.3906 390.5313,878.2188 Q390.2188,877.8906 389.6563,877.7031 Q389.0938,877.5 388.5313,877.5 Q387.8281,877.5 387.2344,877.7813 Q386.6563,878.0625 386.2031,878.6875 Q385.75,879.3125 385.75,880.1719 L385.75,881.0938 Q385.75,882.125 386.5938,882.8125 Q387.4375,883.5 388.9375,883.5 Q389.8281,883.5 390.4531,883.2969 Q390.8125,883.1875 391.2188,882.8281 Q391.4844,882.625 391.625,882.5625 Q391.7656,882.5 391.9375,882.5 Q392.2656,882.5 392.5,882.7656 Q392.75,883.0156 392.75,883.375 Q392.75,883.7188 392.4063,884.125 Q391.9063,884.7188 391.1094,885.0469 Q390.0625,885.5 388.7813,885.5 Q387.2813,885.5 386.0781,884.9063 Q385.1094,884.4375 384.4219,883.4219 Q383.75,882.4063 383.75,881.2031 L383.75,880.1094 Q383.75,878.8594 384.3438,877.7656 Q384.9531,876.6719 386,876.0938 Q387.0625,875.5 388.25,875.5 Q388.9688,875.5 389.5938,875.75 Q390.2188,876 390.75,876.5 Z " fill="#000000"/><text fill="#000000" font-family="sans-serif" font-size="14" lengthAdjust="spacing" textLength="29" x="409.25" y="885.7285">User</text><line style="stroke:#181818;stroke-width:0.5;" x1="323" x2="492" y1="896" y2="896"/><text fill="#000000" font-family="sans-serif" font-size="14" lengthAdjust="spacing" textLength="16" x="328" y="914.5332">-id</text><text fill="#000000" font-family="sans-serif" font-size="14" lengthAdjust="spacing" textLength="65" x="328" y="932.1426">-password</text><line style="stroke:#181818;stroke-width:0.5;" x1="323" x2="492" y1="939.2188" y2="939.2188"/><text fill="#000000" font-family="sans-serif" font-size="14" lengthAdjust="spacing" textLength="159" x="328" y="957.752">+generatePwd(int lenght)</text></g><!--MD5=[12e90e92236ca84f203192a07d84ec5e]
class OrganizationRole--><g id="elem_OrganizationRole"><rect codeLine="28" fill="#F1F1F1" height="65.6094" id="OrganizationRole" rx="2.5" ry="2.5" style="stroke:#181818;stroke-width:0.5;" width="141" x="116" y="881.5"/><ellipse cx="131" cy="897.5" fill="#ADD1B2" rx="11" ry="11" style="stroke:#181818;stroke-width:1.0;"/><path d="M133,894 Q133.2031,893.5 133.4375,893.25 Q133.6719,893 133.9375,893 Q134.4063,893 134.7031,893.2813 Q135,893.5625 135,894.2188 L135,895.7813 Q135,896.4375 134.7188,896.7188 Q134.4375,897 134,897 Q133.6094,897 133.3594,896.8281 Q133.1094,896.6563 133,896.2031 Q132.9531,895.8906 132.7813,895.7188 Q132.4688,895.3906 131.9063,895.2031 Q131.3438,895 130.7813,895 Q130.0781,895 129.4844,895.2813 Q128.9063,895.5625 128.4531,896.1875 Q128,896.8125 128,897.6719 L128,898.5938 Q128,899.625 128.8438,900.3125 Q129.6875,901 131.1875,901 Q132.0781,901 132.7031,900.7969 Q133.0625,900.6875 133.4688,900.3281 Q133.7344,900.125 133.875,900.0625 Q134.0156,900 134.1875,900 Q134.5156,900 134.75,900.2656 Q135,900.5156 135,900.875 Q135,901.2188 134.6563,901.625 Q134.1563,902.2188 133.3594,902.5469 Q132.3125,903 131.0313,903 Q129.5313,903 128.3281,902.4063 Q127.3594,901.9375 126.6719,900.9219 Q126,899.9063 126,898.7031 L126,897.6094 Q126,896.3594 126.5938,895.2656 Q127.2031,894.1719 128.25,893.5938 Q129.3125,893 130.5,893 Q131.2188,893 131.8438,893.25 Q132.4688,893.5 133,894 Z " fill="#000000"/><text fill="#000000" font-family="sans-serif" font-size="14" lengthAdjust="spacing" textLength="109" x="145" y="903.2285">OrganizationRole</text><line style="stroke:#181818;stroke-width:0.5;" x1="117" x2="256" y1="913.5" y2="913.5"/><text fill="#000000" font-family="sans-serif" font-size="14" lengthAdjust="spacing" textLength="74" x="122" y="932.0332">-description</text><line style="stroke:#181818;stroke-width:0.5;" x1="117" x2="256" y1="939.1094" y2="939.1094"/></g><!--MD5=[4dee175ac5e3dcba71a5ebc459660a76]
class ResgisterEmployeeUI--><g id="elem_ResgisterEmployeeUI"><rect codeLine="31" fill="#F1F1F1" height="83.2188" id="ResgisterEmployeeUI" rx="2.5" ry="2.5" style="stroke:#181818;stroke-width:0.5;" width="166" x="218.5" y="7"/><ellipse cx="233.5" cy="23" fill="#ADD1B2" rx="11" ry="11" style="stroke:#181818;stroke-width:1.0;"/><path d="M235.5,19.5 Q235.7031,19 235.9375,18.75 Q236.1719,18.5 236.4375,18.5 Q236.9063,18.5 237.2031,18.7813 Q237.5,19.0625 237.5,19.7188 L237.5,21.2813 Q237.5,21.9375 237.2188,22.2188 Q236.9375,22.5 236.5,22.5 Q236.1094,22.5 235.8594,22.3281 Q235.6094,22.1563 235.5,21.7031 Q235.4531,21.3906 235.2813,21.2188 Q234.9688,20.8906 234.4063,20.7031 Q233.8438,20.5 233.2813,20.5 Q232.5781,20.5 231.9844,20.7813 Q231.4063,21.0625 230.9531,21.6875 Q230.5,22.3125 230.5,23.1719 L230.5,24.0938 Q230.5,25.125 231.3438,25.8125 Q232.1875,26.5 233.6875,26.5 Q234.5781,26.5 235.2031,26.2969 Q235.5625,26.1875 235.9688,25.8281 Q236.2344,25.625 236.375,25.5625 Q236.5156,25.5 236.6875,25.5 Q237.0156,25.5 237.25,25.7656 Q237.5,26.0156 237.5,26.375 Q237.5,26.7188 237.1563,27.125 Q236.6563,27.7188 235.8594,28.0469 Q234.8125,28.5 233.5313,28.5 Q232.0313,28.5 230.8281,27.9063 Q229.8594,27.4375 229.1719,26.4219 Q228.5,25.4063 228.5,24.2031 L228.5,23.1094 Q228.5,21.8594 229.0938,20.7656 Q229.7031,19.6719 230.75,19.0938 Q231.8125,18.5 233,18.5 Q233.7188,18.5 234.3438,18.75 Q234.9688,19 235.5,19.5 Z " fill="#000000"/><text fill="#000000" font-family="sans-serif" font-size="14" lengthAdjust="spacing" textLength="134" x="247.5" y="28.7285">ResgisterEmployeeUI</text><line style="stroke:#181818;stroke-width:0.5;" x1="219.5" x2="383.5" y1="39" y2="39"/><line style="stroke:#181818;stroke-width:0.5;" x1="219.5" x2="383.5" y1="47" y2="47"/><text fill="#000000" font-family="sans-serif" font-size="14" lengthAdjust="spacing" textLength="66" x="224.5" y="65.5332">+register()</text><text fill="#000000" font-family="sans-serif" font-size="14" lengthAdjust="spacing" textLength="39" x="224.5" y="83.1426">+run()</text></g><!--MD5=[7572be66b8a6a9960658a95bfe5759cb]
class ResgisterEmployeeController--><g id="elem_ResgisterEmployeeController"><rect codeLine="35" fill="#F1F1F1" height="118.4375" id="ResgisterEmployeeController" rx="2.5" ry="2.5" style="stroke:#181818;stroke-width:0.5;" width="293" x="27" y="151"/><ellipse cx="77.25" cy="167" fill="#ADD1B2" rx="11" ry="11" style="stroke:#181818;stroke-width:1.0;"/><path d="M79.25,163.5 Q79.4531,163 79.6875,162.75 Q79.9219,162.5 80.1875,162.5 Q80.6563,162.5 80.9531,162.7813 Q81.25,163.0625 81.25,163.7188 L81.25,165.2813 Q81.25,165.9375 80.9688,166.2188 Q80.6875,166.5 80.25,166.5 Q79.8594,166.5 79.6094,166.3281 Q79.3594,166.1563 79.25,165.7031 Q79.2031,165.3906 79.0313,165.2188 Q78.7188,164.8906 78.1563,164.7031 Q77.5938,164.5 77.0313,164.5 Q76.3281,164.5 75.7344,164.7813 Q75.1563,165.0625 74.7031,165.6875 Q74.25,166.3125 74.25,167.1719 L74.25,168.0938 Q74.25,169.125 75.0938,169.8125 Q75.9375,170.5 77.4375,170.5 Q78.3281,170.5 78.9531,170.2969 Q79.3125,170.1875 79.7188,169.8281 Q79.9844,169.625 80.125,169.5625 Q80.2656,169.5 80.4375,169.5 Q80.7656,169.5 81,169.7656 Q81.25,170.0156 81.25,170.375 Q81.25,170.7188 80.9063,171.125 Q80.4063,171.7188 79.6094,172.0469 Q78.5625,172.5 77.2813,172.5 Q75.7813,172.5 74.5781,171.9063 Q73.6094,171.4375 72.9219,170.4219 Q72.25,169.4063 72.25,168.2031 L72.25,167.1094 Q72.25,165.8594 72.8438,164.7656 Q73.4531,163.6719 74.5,163.0938 Q75.5625,162.5 76.75,162.5 Q77.4688,162.5 78.0938,162.75 Q78.7188,163 79.25,163.5 Z " fill="#000000"/><text fill="#000000" font-family="sans-serif" font-size="14" lengthAdjust="spacing" textLength="184" x="97.75" y="172.7285">ResgisterEmployeeController</text><line style="stroke:#181818;stroke-width:0.5;" x1="28" x2="319" y1="183" y2="183"/><line style="stroke:#181818;stroke-width:0.5;" x1="28" x2="319" y1="191" y2="191"/><text fill="#000000" font-family="sans-serif" font-size="14" lengthAdjust="spacing" textLength="277" x="33" y="209.5332">+createEmployee(String name, String email,</text><text fill="#000000" font-family="sans-serif" font-size="14" lengthAdjust="spacing" textLength="281" x="33" y="227.1426">int phone, int cc, String adress, String roleId)</text><text fill="#000000" font-family="sans-serif" font-size="14" lengthAdjust="spacing" textLength="110" x="33" y="244.752">+saveEmployee()</text><text fill="#000000" font-family="sans-serif" font-size="14" lengthAdjust="spacing" textLength="100" x="33" y="262.3613">printEmployee()</text></g><!--MD5=[8c59cfbc2252cb07c050d5e7108b82d8]
class AddUserController--><g id="elem_AddUserController"><rect codeLine="41" fill="#F1F1F1" height="100.8281" id="AddUserController" rx="2.5" ry="2.5" style="stroke:#181818;stroke-width:0.5;" width="151" x="355" y="159.5"/><ellipse cx="371.35" cy="175.5" fill="#ADD1B2" rx="11" ry="11" style="stroke:#181818;stroke-width:1.0;"/><path d="M373.35,172 Q373.5531,171.5 373.7875,171.25 Q374.0219,171 374.2875,171 Q374.7563,171 375.0531,171.2813 Q375.35,171.5625 375.35,172.2188 L375.35,173.7813 Q375.35,174.4375 375.0688,174.7188 Q374.7875,175 374.35,175 Q373.9594,175 373.7094,174.8281 Q373.4594,174.6563 373.35,174.2031 Q373.3031,173.8906 373.1313,173.7188 Q372.8188,173.3906 372.2563,173.2031 Q371.6938,173 371.1313,173 Q370.4281,173 369.8344,173.2813 Q369.2563,173.5625 368.8031,174.1875 Q368.35,174.8125 368.35,175.6719 L368.35,176.5938 Q368.35,177.625 369.1938,178.3125 Q370.0375,179 371.5375,179 Q372.4281,179 373.0531,178.7969 Q373.4125,178.6875 373.8188,178.3281 Q374.0844,178.125 374.225,178.0625 Q374.3656,178 374.5375,178 Q374.8656,178 375.1,178.2656 Q375.35,178.5156 375.35,178.875 Q375.35,179.2188 375.0063,179.625 Q374.5063,180.2188 373.7094,180.5469 Q372.6625,181 371.3813,181 Q369.8813,181 368.6781,180.4063 Q367.7094,179.9375 367.0219,178.9219 Q366.35,177.9063 366.35,176.7031 L366.35,175.6094 Q366.35,174.3594 366.9438,173.2656 Q367.5531,172.1719 368.6,171.5938 Q369.6625,171 370.85,171 Q371.5688,171 372.1938,171.25 Q372.8188,171.5 373.35,172 Z " fill="#000000"/><text fill="#000000" font-family="sans-serif" font-size="14" lengthAdjust="spacing" textLength="116" x="385.65" y="181.2285">AddUserController</text><line style="stroke:#181818;stroke-width:0.5;" x1="356" x2="505" y1="191.5" y2="191.5"/><line style="stroke:#181818;stroke-width:0.5;" x1="356" x2="505" y1="199.5" y2="199.5"/><text fill="#000000" font-family="sans-serif" font-size="14" lengthAdjust="spacing" textLength="139" x="361" y="218.0332">+createUser(String id)</text><text fill="#000000" font-family="sans-serif" font-size="14" lengthAdjust="spacing" textLength="77" x="361" y="235.6426">+saveUser()</text><text fill="#000000" font-family="sans-serif" font-size="14" lengthAdjust="spacing" textLength="75" x="361" y="253.252">+printUser()</text></g><!--MD5=[09366576ee87d48d594df10cacc83f45]
link Company to Employee--><g id="link_Company_Employee"><path codeLine="47" d="M228.63,554.23 C245.21,578.77 262.45,604.3 278.02,627.35 " fill="none" id="Company-to-Employee" style="stroke:#181818;stroke-width:1.0;"/><polygon fill="#181818" points="280.91,631.62,279.1844,621.9235,278.1102,627.4774,272.5563,626.4032,280.91,631.62" style="stroke:#181818;stroke-width:1.0;"/><polygon fill="#000000" points="267.2987,597.3191,264.6712,588.1787,259.8004,591.4688,267.2987,597.3191" style="stroke:#000000;stroke-width:1.0;"/><text fill="#000000" font-family="sans-serif" font-size="13" lengthAdjust="spacing" textLength="42" x="273.5" y="598.4951">employ</text><text fill="#000000" font-family="sans-serif" font-size="13" lengthAdjust="spacing" textLength="7" x="226.2188" y="575.4356">1</text><text fill="#000000" font-family="sans-serif" font-size="13" lengthAdjust="spacing" textLength="5" x="270.9236" y="621.2762">*</text></g><!--MD5=[22fb9506fac029fc1d2ae00f0eb8d606]
link Employee to User--><g id="link_Employee_User"><path codeLine="48" d="M332.17,786.09 C334.03,802.32 337.48,819.07 343.5,834 C347.02,842.74 351.84,851.27 357.26,859.31 " fill="none" id="Employee-to-User" style="stroke:#181818;stroke-width:1.0;"/><polygon fill="#181818" points="360.34,863.73,358.4919,854.0561,357.488,859.6232,351.921,858.6193,360.34,863.73" style="stroke:#181818;stroke-width:1.0;"/><polygon fill="#000000" points="350.1208,829.9058,349.969,820.3964,344.4085,822.3018,350.1208,829.9058" style="stroke:#000000;stroke-width:1.0;"/><text fill="#000000" font-family="sans-serif" font-size="13" lengthAdjust="spacing" textLength="54" x="357.5" y="830.4951">relates to</text><text fill="#000000" font-family="sans-serif" font-size="13" lengthAdjust="spacing" textLength="18" x="313.339" y="807.1944">0.1</text><text fill="#000000" font-family="sans-serif" font-size="13" lengthAdjust="spacing" textLength="7" x="346.2159" y="852.9974">1</text></g><!--MD5=[9abf40ff36e4aa94ac761b2803c1dce8]
link Company to OrganizationRole--><g id="link_Company_OrganizationRole"><path codeLine="49" d="M155.64,554.02 C157.61,621.26 161.37,708.69 168.5,786 C171.32,816.57 176.3,851.04 180.3,876.42 " fill="none" id="Company-to-OrganizationRole" style="stroke:#181818;stroke-width:1.0;"/><polygon fill="#181818" points="181.09,881.37,183.6275,871.8536,180.3051,876.432,175.7267,873.1096,181.09,881.37" style="stroke:#181818;stroke-width:1.0;"/><polygon fill="#000000" points="173.8813,714.1612,176.1219,704.9183,170.2611,705.3666,173.8813,714.1612" style="stroke:#000000;stroke-width:1.0;"/><text fill="#000000" font-family="sans-serif" font-size="13" lengthAdjust="spacing" textLength="78" x="182.5" y="714.4951">comprehends</text><text fill="#000000" font-family="sans-serif" font-size="13" lengthAdjust="spacing" textLength="7" x="148.5486" y="575.5876">1</text><text fill="#000000" font-family="sans-serif" font-size="13" lengthAdjust="spacing" textLength="5" x="174.4586" y="870.4586">*</text></g><!--MD5=[241b49406f7a05442b1e788ffaf3787c]
link Employee to OrganizationRole--><g id="link_Employee_OrganizationRole"><path codeLine="50" d="M279.38,784.04 C256.72,815.63 231.29,851.07 212.78,876.87 " fill="none" id="Employee-to-OrganizationRole" style="stroke:#181818;stroke-width:1.0;"/><polygon fill="#181818" points="209.64,881.25,218.1393,876.2739,212.557,877.1891,211.6419,871.6067,209.64,881.25" style="stroke:#181818;stroke-width:1.0;"/><polygon fill="#000000" points="257.5853,829.2384,265.246,823.6023,260.4701,820.1759,257.5853,829.2384" style="stroke:#000000;stroke-width:1.0;"/><text fill="#000000" font-family="sans-serif" font-size="13" lengthAdjust="spacing" textLength="56" x="269.5" y="830.4951">has/plays</text><text fill="#000000" font-family="sans-serif" font-size="13" lengthAdjust="spacing" textLength="5" x="266.5584" y="791.0115">*</text><text fill="#000000" font-family="sans-serif" font-size="13" lengthAdjust="spacing" textLength="7" x="206.5066" y="870.6971">1</text></g><!--MD5=[df15290130a04fab2c28c94944254cae]
link ResgisterEmployeeController to Company--><g id="link_ResgisterEmployeeController_Company"><path codeLine="51" d="M168.45,269.04 C166.98,285.95 165.32,305.05 163.65,324.22 " fill="none" id="ResgisterEmployeeController-to-Company" style="stroke:#181818;stroke-width:1.0;stroke-dasharray:7.0,7.0;"/><polygon fill="#181818" points="163.18,329.63,167.9361,321.0056,163.6082,324.6484,159.9655,320.3205,163.18,329.63" style="stroke:#181818;stroke-width:1.0;"/></g><!--MD5=[38532987b21f897cfcb2c1b2c379ed4a]
link ResgisterEmployeeUI to ResgisterEmployeeController--><g id="link_ResgisterEmployeeUI_ResgisterEmployeeController"><path codeLine="52" d="M268.87,90.16 C255.1,107.32 238.75,127.69 223.51,146.68 " fill="none" id="ResgisterEmployeeUI-to-ResgisterEmployeeController" style="stroke:#181818;stroke-width:1.0;stroke-dasharray:7.0,7.0;"/><polygon fill="#181818" points="220.08,150.96,228.8318,146.4427,223.2087,147.0598,222.5915,141.4368,220.08,150.96" style="stroke:#181818;stroke-width:1.0;"/></g><!--MD5=[19d8b66c165ecc07ee7c3f61011c0c97]
link ResgisterEmployeeUI to AddUserController--><g id="link_ResgisterEmployeeUI_AddUserController"><path codeLine="53" d="M334.39,90.16 C350.41,109.97 369.89,134.06 387.11,155.35 " fill="none" id="ResgisterEmployeeUI-to-AddUserController" style="stroke:#181818;stroke-width:1.0;stroke-dasharray:7.0,7.0;"/><polygon fill="#181818" points="390.3,159.3,387.7673,149.7824,387.1626,155.4068,381.5382,154.8022,390.3,159.3" style="stroke:#181818;stroke-width:1.0;"/></g><!--MD5=[4d6a504bd8592d7635dc1a37eb045d96]
link AddUserController to Company--><g id="link_AddUserController_Company"><path codeLine="54" d="M370.74,260.62 C347.32,280.07 319.4,303.25 291.51,326.41 " fill="none" id="AddUserController-to-Company" style="stroke:#181818;stroke-width:1.0;stroke-dasharray:7.0,7.0;"/><polygon fill="#181818" points="287.39,329.83,296.8657,327.1447,291.2323,326.6305,291.7465,320.997,287.39,329.83" style="stroke:#181818;stroke-width:1.0;"/></g><!--MD5=[8f4aabb34a5d96535bee493d712df1da]
link AddUserController to User--><g id="link_AddUserController_User"><path codeLine="55" d="M430.9,260.73 C431.43,366.41 430.91,621.09 416.5,834 C415.96,842.03 415.2,850.51 414.35,858.8 " fill="none" id="AddUserController-to-User" style="stroke:#181818;stroke-width:1.0;stroke-dasharray:7.0,7.0;"/><polygon fill="#181818" points="413.81,863.94,418.7149,855.3994,414.3245,858.9665,410.7573,854.5762,413.81,863.94" style="stroke:#181818;stroke-width:1.0;"/></g><!--MD5=[a56ea79f00703e7e84525a90c8137ec1]
link ResgisterEmployeeController to Employee--><g id="link_ResgisterEmployeeController_Employee"><path codeLine="56" d="M267.4,269.11 C287.37,286.16 305.91,306.61 317.5,330 C363.85,423.58 358.41,546.74 347.63,626.63 " fill="none" id="ResgisterEmployeeController-to-Employee" style="stroke:#181818;stroke-width:1.0;stroke-dasharray:7.0,7.0;"/><polygon fill="#181818" points="346.92,631.83,352.1188,623.465,347.6071,626.8774,344.1947,622.3657,346.92,631.83" style="stroke:#181818;stroke-width:1.0;"/></g><!--MD5=[b628f3990002155057fb9df4785657ec]
@startuml
'https://plantuml.com/class-diagram
skinparam classAttributeIconSize 0

Class Company{
-designation
    +createUser(String id)
    +validateUser(User user)
    +saveUser(User user)
    +createEmployee(String name, String email,\n int phone, int cc,String adress, String roleId)
    +validateEmployee(Employee employee)
    +saveEmployees(Employee employee)
    +printUser(User user)
    +printEmployee(Employee employee)
}
Class Employee{
-id
-name
-address
-phoneNumber
-email
-ccNumber
}
Class User{
-id
-password
+generatePwd(int lenght)
}
Class OrganizationRole{
-description
}
Class ResgisterEmployeeUI{
+register()
+run()
}
Class ResgisterEmployeeController{
+createEmployee(String name, String email, \nint phone, int cc, String adress, String roleId)
+saveEmployee()
printEmployee()
}

Class AddUserController{
+createUser(String id)
+saveUser()
+printUser()
}

Company"1"- ->"*"Employee:employ >
Employee"0.1"- ->"1"User:relates to >
Company"1"- ->"*"OrganizationRole: comprehends >
Employee"*"- ->"1"OrganizationRole:has/plays >
ResgisterEmployeeController..>Company
ResgisterEmployeeUI..> ResgisterEmployeeController
ResgisterEmployeeUI..>AddUserController
AddUserController..>Company
AddUserController..>User
ResgisterEmployeeController..>Employee

@enduml

@startuml
skinparam classAttributeIconSize 0

Class Company{
-designation
    +createUser(String id)
    +validateUser(User user)
    +saveUser(User user)
    +createEmployee(String name, String email,\n int phone, int cc,String adress, String roleId)
    +validateEmployee(Employee employee)
    +saveEmployees(Employee employee)
    +printUser(User user)
    +printEmployee(Employee employee)
}
Class Employee{
-id
-name
-address
-phoneNumber
-email
-ccNumber
}
Class User{
-id
-password
+generatePwd(int lenght)
}
Class OrganizationRole{
-description
}
Class ResgisterEmployeeUI{
+register()
+run()
}
Class ResgisterEmployeeController{
+createEmployee(String name, String email, \nint phone, int cc, String adress, String roleId)
+saveEmployee()
printEmployee()
}

Class AddUserController{
+createUser(String id)
+saveUser()
+printUser()
}

Company"1"- ->"*"Employee:employ >
Employee"0.1"- ->"1"User:relates to >
Company"1"- ->"*"OrganizationRole: comprehends >
Employee"*"- ->"1"OrganizationRole:has/plays >
ResgisterEmployeeController..>Company
ResgisterEmployeeUI..> ResgisterEmployeeController
ResgisterEmployeeUI..>AddUserController
AddUserController..>Company
AddUserController..>User
ResgisterEmployeeController..>Employee

@enduml

PlantUML version 1.2022.4(Sat Apr 09 14:29:17 BST 2022)
(GPL source distribution)
Java Runtime: OpenJDK Runtime Environment
JVM: OpenJDK 64-Bit Server VM
Default Encoding: Cp1252
Language: pt
Country: PT
--></g></svg>