<?xml version="1.0" encoding="UTF-8" standalone="no"?><svg xmlns="http://www.w3.org/2000/svg" xmlns:xlink="http://www.w3.org/1999/xlink" contentScriptType="application/ecmascript" contentStyleType="text/css" height="682px" preserveAspectRatio="none" style="width:587px;height:682px;" version="1.1" viewBox="0 0 587 682" width="587px" zoomAndPan="magnify"><defs><filter height="300%" id="fn7w8v1glk7p3" width="300%" x="-1" y="-1"><feGaussianBlur result="blurOut" stdDeviation="2.0"/><feColorMatrix in="blurOut" result="blurOut2" type="matrix" values="0 0 0 0 0 0 0 0 0 0 0 0 0 0 0 0 0 0 .4 0"/><feOffset dx="4.0" dy="4.0" in="blurOut2" result="blurOut3"/><feBlend in="SourceGraphic" in2="blurOut3" mode="normal"/></filter></defs><g><!--MD5=[02e4b9b7573f1156f41e60aa5b4e25a4]
class Company--><rect codeLine="6" fill="#FEFECE" filter="url(#fn7w8v1glk7p3)" height="52.9551" id="Company" style="stroke:#A80036;stroke-width:1.5;" width="86" x="186" y="296.5"/><ellipse cx="201" cy="312.5" fill="#ADD1B2" rx="11" ry="11" style="stroke:#A80036;stroke-width:1.0;"/><path d="M203.4731,318.6431 Q202.8921,318.9419 202.2529,319.0913 Q201.6138,319.2407 200.9082,319.2407 Q198.4014,319.2407 197.0815,317.5889 Q195.7617,315.937 195.7617,312.8159 Q195.7617,309.6865 197.0815,308.0347 Q198.4014,306.3828 200.9082,306.3828 Q201.6138,306.3828 202.2612,306.5322 Q202.9087,306.6816 203.4731,306.9805 L203.4731,309.7031 Q202.8423,309.1221 202.2488,308.8523 Q201.6553,308.5825 201.0244,308.5825 Q199.6797,308.5825 198.9949,309.6492 Q198.3101,310.7158 198.3101,312.8159 Q198.3101,314.9077 198.9949,315.9744 Q199.6797,317.041 201.0244,317.041 Q201.6553,317.041 202.2488,316.7712 Q202.8423,316.5015 203.4731,315.9204 Z " fill="#000000"/><text fill="#000000" font-family="sans-serif" font-size="12" lengthAdjust="spacing" textLength="54" x="215" y="317.0352">Company</text><line style="stroke:#A80036;stroke-width:1.5;" x1="187" x2="271" y1="328.5" y2="328.5"/><text fill="#000000" font-family="sans-serif" font-size="11" lengthAdjust="spacing" textLength="69" x="192" y="343.1348">-designation</text><!--MD5=[0caf3a413731a0de34fc6162fe213ed9]
class Laboratory--><rect codeLine="10" fill="#FEFECE" filter="url(#fn7w8v1glk7p3)" height="91.8203" id="Laboratory" style="stroke:#A80036;stroke-width:1.5;" width="141" x="191.5" y="121"/><ellipse cx="227.65" cy="137" fill="#ADD1B2" rx="11" ry="11" style="stroke:#A80036;stroke-width:1.0;"/><path d="M230.1231,143.1431 Q229.5421,143.4419 228.9029,143.5913 Q228.2638,143.7407 227.5582,143.7407 Q225.0514,143.7407 223.7315,142.0889 Q222.4117,140.437 222.4117,137.3159 Q222.4117,134.1865 223.7315,132.5347 Q225.0514,130.8828 227.5582,130.8828 Q228.2638,130.8828 228.9112,131.0322 Q229.5587,131.1816 230.1231,131.4805 L230.1231,134.2031 Q229.4923,133.6221 228.8988,133.3523 Q228.3053,133.0825 227.6744,133.0825 Q226.3297,133.0825 225.6449,134.1492 Q224.9601,135.2158 224.9601,137.3159 Q224.9601,139.4077 225.6449,140.4744 Q226.3297,141.541 227.6744,141.541 Q228.3053,141.541 228.8988,141.2712 Q229.4923,141.0015 230.1231,140.4204 Z " fill="#000000"/><text fill="#000000" font-family="sans-serif" font-size="12" lengthAdjust="spacing" textLength="62" x="246.35" y="141.5352">Laboratory</text><line style="stroke:#A80036;stroke-width:1.5;" x1="192.5" x2="331.5" y1="153" y2="153"/><text fill="#000000" font-family="sans-serif" font-size="11" lengthAdjust="spacing" textLength="35" x="197.5" y="167.6348">-name</text><text fill="#000000" font-family="sans-serif" font-size="11" lengthAdjust="spacing" textLength="49" x="197.5" y="180.5898">-address</text><text fill="#000000" font-family="sans-serif" font-size="11" lengthAdjust="spacing" textLength="83" x="197.5" y="193.5449">-phoneNumber</text><text fill="#000000" font-family="sans-serif" font-size="11" lengthAdjust="spacing" textLength="129" x="197.5" y="206.5">-taxIdenticationNumber</text><!--MD5=[1934a092c0e7d4da7dc7075b6f4b6b03]
class ClinicalAnalysisLaboratory--><rect codeLine="17" fill="#FEFECE" filter="url(#fn7w8v1glk7p3)" height="52.9551" id="ClinicalAnalysisLaboratory" style="stroke:#A80036;stroke-width:1.5;" width="180" x="247" y="7"/><ellipse cx="262" cy="23" fill="#ADD1B2" rx="11" ry="11" style="stroke:#A80036;stroke-width:1.0;"/><path d="M264.4731,29.1431 Q263.8921,29.4419 263.2529,29.5913 Q262.6138,29.7407 261.9082,29.7407 Q259.4014,29.7407 258.0815,28.0889 Q256.7617,26.437 256.7617,23.3159 Q256.7617,20.1865 258.0815,18.5347 Q259.4014,16.8828 261.9082,16.8828 Q262.6138,16.8828 263.2612,17.0322 Q263.9087,17.1816 264.4731,17.4805 L264.4731,20.2031 Q263.8423,19.6221 263.2488,19.3523 Q262.6553,19.0825 262.0244,19.0825 Q260.6797,19.0825 259.9949,20.1492 Q259.3101,21.2158 259.3101,23.3159 Q259.3101,25.4077 259.9949,26.4744 Q260.6797,27.541 262.0244,27.541 Q262.6553,27.541 263.2488,27.2712 Q263.8423,27.0015 264.4731,26.4204 Z " fill="#000000"/><text fill="#000000" font-family="sans-serif" font-size="12" lengthAdjust="spacing" textLength="148" x="276" y="27.5352">ClinicalAnalysisLaboratory</text><line style="stroke:#A80036;stroke-width:1.5;" x1="248" x2="426" y1="39" y2="39"/><text fill="#000000" font-family="sans-serif" font-size="11" lengthAdjust="spacing" textLength="16" x="253" y="53.6348">-id</text><!--MD5=[df38be88ccee13e832d6fafd6288a4ca]
class Test--><rect codeLine="22" fill="#FEFECE" filter="url(#fn7w8v1glk7p3)" height="65.9102" id="Test" style="stroke:#A80036;stroke-width:1.5;" width="70" x="379" y="290"/><ellipse cx="399.85" cy="306" fill="#ADD1B2" rx="11" ry="11" style="stroke:#A80036;stroke-width:1.0;"/><path d="M402.3231,312.1431 Q401.7421,312.4419 401.1029,312.5913 Q400.4638,312.7407 399.7582,312.7407 Q397.2514,312.7407 395.9315,311.0889 Q394.6117,309.437 394.6117,306.3159 Q394.6117,303.1865 395.9315,301.5347 Q397.2514,299.8828 399.7582,299.8828 Q400.4638,299.8828 401.1112,300.0322 Q401.7587,300.1816 402.3231,300.4805 L402.3231,303.2031 Q401.6923,302.6221 401.0988,302.3523 Q400.5053,302.0825 399.8744,302.0825 Q398.5297,302.0825 397.8449,303.1492 Q397.1601,304.2158 397.1601,306.3159 Q397.1601,308.4077 397.8449,309.4744 Q398.5297,310.541 399.8744,310.541 Q400.5053,310.541 401.0988,310.2712 Q401.6923,310.0015 402.3231,309.4204 Z " fill="#000000"/><text fill="#000000" font-family="sans-serif" font-size="12" lengthAdjust="spacing" textLength="25" x="415.15" y="310.5352">Test</text><line style="stroke:#A80036;stroke-width:1.5;" x1="380" x2="448" y1="322" y2="322"/><text fill="#000000" font-family="sans-serif" font-size="11" lengthAdjust="spacing" textLength="32" x="385" y="336.6348">-code</text><text fill="#000000" font-family="sans-serif" font-size="11" lengthAdjust="spacing" textLength="58" x="385" y="349.5898">-createdAt</text><!--MD5=[9681492165142af2a4a3a169d90ee8d4]
class Sample--><rect codeLine="27" fill="#FEFECE" filter="url(#fn7w8v1glk7p3)" height="52.9551" id="Sample" style="stroke:#A80036;stroke-width:1.5;" width="74" x="358" y="465.5"/><ellipse cx="373" cy="481.5" fill="#ADD1B2" rx="11" ry="11" style="stroke:#A80036;stroke-width:1.0;"/><path d="M375.4731,487.6431 Q374.8921,487.9419 374.2529,488.0913 Q373.6138,488.2407 372.9082,488.2407 Q370.4014,488.2407 369.0815,486.5889 Q367.7617,484.937 367.7617,481.8159 Q367.7617,478.6865 369.0815,477.0347 Q370.4014,475.3828 372.9082,475.3828 Q373.6138,475.3828 374.2612,475.5322 Q374.9087,475.6816 375.4731,475.9805 L375.4731,478.7031 Q374.8423,478.1221 374.2488,477.8523 Q373.6553,477.5825 373.0244,477.5825 Q371.6797,477.5825 370.9949,478.6492 Q370.3101,479.7158 370.3101,481.8159 Q370.3101,483.9077 370.9949,484.9744 Q371.6797,486.041 373.0244,486.041 Q373.6553,486.041 374.2488,485.7712 Q374.8423,485.5015 375.4731,484.9204 Z " fill="#000000"/><text fill="#000000" font-family="sans-serif" font-size="12" lengthAdjust="spacing" textLength="42" x="387" y="486.0352">Sample</text><line style="stroke:#A80036;stroke-width:1.5;" x1="359" x2="431" y1="497.5" y2="497.5"/><text fill="#000000" font-family="sans-serif" font-size="11" lengthAdjust="spacing" textLength="58" x="364" y="512.1348">-createdAt</text><!--MD5=[b374255986abe8788200fa8596627276]
class BarCode--><rect codeLine="32" fill="#FEFECE" filter="url(#fn7w8v1glk7p3)" height="65.9102" id="BarCode" style="stroke:#A80036;stroke-width:1.5;" width="81" x="129.5" y="459"/><ellipse cx="144.5" cy="475" fill="#ADD1B2" rx="11" ry="11" style="stroke:#A80036;stroke-width:1.0;"/><path d="M146.9731,481.1431 Q146.3921,481.4419 145.7529,481.5913 Q145.1138,481.7407 144.4082,481.7407 Q141.9014,481.7407 140.5815,480.0889 Q139.2617,478.437 139.2617,475.3159 Q139.2617,472.1865 140.5815,470.5347 Q141.9014,468.8828 144.4082,468.8828 Q145.1138,468.8828 145.7612,469.0322 Q146.4087,469.1816 146.9731,469.4805 L146.9731,472.2031 Q146.3423,471.6221 145.7488,471.3523 Q145.1553,471.0825 144.5244,471.0825 Q143.1797,471.0825 142.4949,472.1492 Q141.8101,473.2158 141.8101,475.3159 Q141.8101,477.4077 142.4949,478.4744 Q143.1797,479.541 144.5244,479.541 Q145.1553,479.541 145.7488,479.2712 Q146.3423,479.0015 146.9731,478.4204 Z " fill="#000000"/><text fill="#000000" font-family="sans-serif" font-size="12" lengthAdjust="spacing" textLength="49" x="158.5" y="479.5352">BarCode</text><line style="stroke:#A80036;stroke-width:1.5;" x1="130.5" x2="209.5" y1="491" y2="491"/><text fill="#000000" font-family="sans-serif" font-size="11" lengthAdjust="spacing" textLength="32" x="135.5" y="505.6348">-code</text><text fill="#000000" font-family="sans-serif" font-size="11" lengthAdjust="spacing" textLength="38" x="135.5" y="518.5898">-image</text><!--MD5=[36a204bd4af8ae270b9eb204523b0143]
class BarCodeApi--><rect codeLine="37" fill="#FEFECE" filter="url(#fn7w8v1glk7p3)" height="40" id="BarCodeApi" style="stroke:#A80036;stroke-width:1.5;" width="100" x="7" y="303"/><ellipse cx="22" cy="319" fill="#ADD1B2" rx="11" ry="11" style="stroke:#A80036;stroke-width:1.0;"/><path d="M24.4731,325.1431 Q23.8921,325.4419 23.2529,325.5913 Q22.6138,325.7407 21.9082,325.7407 Q19.4014,325.7407 18.0815,324.0889 Q16.7617,322.437 16.7617,319.3159 Q16.7617,316.1865 18.0815,314.5347 Q19.4014,312.8828 21.9082,312.8828 Q22.6138,312.8828 23.2612,313.0322 Q23.9087,313.1816 24.4731,313.4805 L24.4731,316.2031 Q23.8423,315.6221 23.2488,315.3523 Q22.6553,315.0825 22.0244,315.0825 Q20.6797,315.0825 19.9949,316.1492 Q19.3101,317.2158 19.3101,319.3159 Q19.3101,321.4077 19.9949,322.4744 Q20.6797,323.541 22.0244,323.541 Q22.6553,323.541 23.2488,323.2712 Q23.8423,323.0015 24.4731,322.4204 Z " fill="#000000"/><text fill="#000000" font-family="sans-serif" font-size="12" lengthAdjust="spacing" textLength="68" x="36" y="323.5352">BarCodeApi</text><line style="stroke:#A80036;stroke-width:1.5;" x1="8" x2="106" y1="335" y2="335"/><!--MD5=[7421f545a0d8420c5bec41e74b387d9c]
class Employee--><rect codeLine="40" fill="#FEFECE" filter="url(#fn7w8v1glk7p3)" height="117.7305" id="Employee" style="stroke:#A80036;stroke-width:1.5;" width="95" x="478.5" y="433"/><ellipse cx="496.65" cy="449" fill="#ADD1B2" rx="11" ry="11" style="stroke:#A80036;stroke-width:1.0;"/><path d="M499.1231,455.1431 Q498.5421,455.4419 497.9029,455.5913 Q497.2638,455.7407 496.5582,455.7407 Q494.0514,455.7407 492.7315,454.0889 Q491.4117,452.437 491.4117,449.3159 Q491.4117,446.1865 492.7315,444.5347 Q494.0514,442.8828 496.5582,442.8828 Q497.2638,442.8828 497.9112,443.0322 Q498.5587,443.1816 499.1231,443.4805 L499.1231,446.2031 Q498.4923,445.6221 497.8988,445.3523 Q497.3053,445.0825 496.6744,445.0825 Q495.3297,445.0825 494.6449,446.1492 Q493.9601,447.2158 493.9601,449.3159 Q493.9601,451.4077 494.6449,452.4744 Q495.3297,453.541 496.6744,453.541 Q497.3053,453.541 497.8988,453.2712 Q498.4923,453.0015 499.1231,452.4204 Z " fill="#000000"/><text fill="#000000" font-family="sans-serif" font-size="12" lengthAdjust="spacing" textLength="56" x="511.35" y="453.5352">Employee</text><line style="stroke:#A80036;stroke-width:1.5;" x1="479.5" x2="572.5" y1="465" y2="465"/><text fill="#000000" font-family="sans-serif" font-size="11" lengthAdjust="spacing" textLength="16" x="484.5" y="479.6348">-id</text><text fill="#000000" font-family="sans-serif" font-size="11" lengthAdjust="spacing" textLength="35" x="484.5" y="492.5898">-name</text><text fill="#000000" font-family="sans-serif" font-size="11" lengthAdjust="spacing" textLength="49" x="484.5" y="505.5449">-address</text><text fill="#000000" font-family="sans-serif" font-size="11" lengthAdjust="spacing" textLength="83" x="484.5" y="518.5">-phoneNumber</text><text fill="#000000" font-family="sans-serif" font-size="11" lengthAdjust="spacing" textLength="79" x="484.5" y="531.4551">-emailAddress</text><text fill="#000000" font-family="sans-serif" font-size="11" lengthAdjust="spacing" textLength="53" x="484.5" y="544.4102">-socCode</text><!--MD5=[01931d41e78f8996acd44f6f0fd8de28]
class MedicalLabTechnician--><rect codeLine="49" fill="#FEFECE" filter="url(#fn7w8v1glk7p3)" height="40" id="MedicalLabTechnician" style="stroke:#A80036;stroke-width:1.5;" width="158" x="381" y="628"/><ellipse cx="396" cy="644" fill="#ADD1B2" rx="11" ry="11" style="stroke:#A80036;stroke-width:1.0;"/><path d="M398.4731,650.1431 Q397.8921,650.4419 397.2529,650.5913 Q396.6138,650.7407 395.9082,650.7407 Q393.4014,650.7407 392.0815,649.0889 Q390.7617,647.437 390.7617,644.3159 Q390.7617,641.1865 392.0815,639.5347 Q393.4014,637.8828 395.9082,637.8828 Q396.6138,637.8828 397.2612,638.0322 Q397.9087,638.1816 398.4731,638.4805 L398.4731,641.2031 Q397.8423,640.6221 397.2488,640.3523 Q396.6553,640.0825 396.0244,640.0825 Q394.6797,640.0825 393.9949,641.1492 Q393.3101,642.2158 393.3101,644.3159 Q393.3101,646.4077 393.9949,647.4744 Q394.6797,648.541 396.0244,648.541 Q396.6553,648.541 397.2488,648.2712 Q397.8423,648.0015 398.4731,647.4204 Z " fill="#000000"/><text fill="#000000" font-family="sans-serif" font-size="12" lengthAdjust="spacing" textLength="126" x="410" y="648.5352">MedicalLabTechnician</text><line style="stroke:#A80036;stroke-width:1.5;" x1="382" x2="538" y1="660" y2="660"/><!--MD5=[0468c29d471e955935592eb8f20885af]
link Laboratory to Company--><path codeLine="52" d="M252.28,213.37 C246.5,240.34 239.38,273.58 234.54,296.14 " fill="none" id="Laboratory-Company" style="stroke:#A80036;stroke-width:1.0;"/><polygon fill="#000000" points="252.0478,246.7663,247.2786,254.9946,253.0259,256.2264,252.0478,246.7663" style="stroke:#000000;stroke-width:1.0;"/><text fill="#000000" font-family="sans-serif" font-size="13" lengthAdjust="spacing" textLength="33" x="260" y="256.5684">owns</text><text fill="#000000" font-family="sans-serif" font-size="13" lengthAdjust="spacing" textLength="6" x="244.4913" y="233.5483">*</text><text fill="#000000" font-family="sans-serif" font-size="13" lengthAdjust="spacing" textLength="8" x="226.8961" y="285.8037">1</text><!--MD5=[7e4bc624457760b649895ff2ead938fa]
link Company to Test--><path codeLine="53" d="M272.37,323 C304.84,323 348.68,323 378.94,323 " fill="none" id="Company-Test" style="stroke:#A80036;stroke-width:1.0;"/><polygon fill="#000000" points="299.5,311.6553,290.4549,308.7163,290.4549,314.5942,299.5,311.6553" style="stroke:#000000;stroke-width:1.0;"/><text fill="#000000" font-family="sans-serif" font-size="13" lengthAdjust="spacing" textLength="57" x="303.5" y="316.5684">performs</text><text fill="#000000" font-family="sans-serif" font-size="13" lengthAdjust="spacing" textLength="8" x="279.9196" y="319.4014">1</text><text fill="#000000" font-family="sans-serif" font-size="13" lengthAdjust="spacing" textLength="6" x="365.0901" y="319.0628">*</text><!--MD5=[1f571f03ad5f9fc2d647ba15cc77d225]
link BarCodeApi to Company--><path codeLine="54" d="M107.21,323 C132.1,323 161.86,323 185.72,323 " fill="none" id="BarCodeApi-Company" style="stroke:#A80036;stroke-width:1.0;"/><polygon fill="#000000" points="124.5,311.6553,133.5451,314.5942,133.5451,308.7163,124.5,311.6553" style="stroke:#000000;stroke-width:1.0;"/><text fill="#000000" font-family="sans-serif" font-size="13" lengthAdjust="spacing" textLength="29" x="138.5" y="316.5684">uses</text><text fill="#000000" font-family="sans-serif" font-size="13" lengthAdjust="spacing" textLength="8" x="114.8333" y="319.5355">1</text><text fill="#000000" font-family="sans-serif" font-size="13" lengthAdjust="spacing" textLength="6" x="172.0549" y="319.3556">*</text><!--MD5=[6d0dfcacb99e5b6ea3de933623cb0bd1]
link ClinicalAnalysisLaboratory to Laboratory--><path codeLine="56" d="M322.36,60.17 C315.28,72.58 306.45,88.07 297.74,103.34 " fill="none" id="ClinicalAnalysisLaboratory-to-Laboratory" style="stroke:#A80036;stroke-width:1.0;"/><polygon fill="none" points="303.68,107.05,287.69,120.96,291.52,100.12,303.68,107.05" style="stroke:#A80036;stroke-width:1.0;"/><!--MD5=[d480452e7d21fe720ba0207568bc7434]
link ClinicalAnalysisLaboratory to Test--><path codeLine="59" d="M343.83,60.01 C357.86,112.37 389.86,231.88 405.32,289.61 " fill="none" id="ClinicalAnalysisLaboratory-Test" style="stroke:#A80036;stroke-width:1.0;"/><polygon fill="#000000" points="387.7065,162.3255,387.2076,171.8229,392.8853,170.3024,387.7065,162.3255" style="stroke:#000000;stroke-width:1.0;"/><text fill="#000000" font-family="sans-serif" font-size="13" lengthAdjust="spacing" textLength="79" x="398" y="172.0684">registered at</text><text fill="#000000" font-family="sans-serif" font-size="13" lengthAdjust="spacing" textLength="8" x="336.4844" y="80.4843">1</text><text fill="#000000" font-family="sans-serif" font-size="13" lengthAdjust="spacing" textLength="6" x="397.0205" y="279.1676">*</text><!--MD5=[b72ac8ab7fb5921fceb5036a3902baea]
link Test to Sample--><path codeLine="60" d="M410.34,356.2 C406.71,388.05 401.24,436.15 397.91,465.45 " fill="none" id="Test-Sample" style="stroke:#A80036;stroke-width:1.0;"/><polygon fill="#000000" points="410.4348,399.6232,414.3774,390.9684,408.5372,390.3039,410.4348,399.6232" style="stroke:#000000;stroke-width:1.0;"/><text fill="#000000" font-family="sans-serif" font-size="13" lengthAdjust="spacing" textLength="49" x="420" y="399.5684">collects</text><text fill="#000000" font-family="sans-serif" font-size="13" lengthAdjust="spacing" textLength="8" x="400.8798" y="376.565">1</text><text fill="#000000" font-family="sans-serif" font-size="13" lengthAdjust="spacing" textLength="6" x="391.8881" y="454.762">*</text><!--MD5=[cb5e86f6614a99551e1d9ce6f0ae5849]
link Sample to MedicalLabTechnician--><path codeLine="63" d="M387.66,518.69 C382.79,540.94 379.37,573.33 392,598 C398.3,610.3 409.29,620.22 420.62,627.84 " fill="none" id="Sample-MedicalLabTechnician" style="stroke:#A80036;stroke-width:1.0;"/><polygon fill="#000000" points="398.4454,594.4418,398.6441,584.9333,393.0172,586.6325,398.4454,594.4418" style="stroke:#000000;stroke-width:1.0;"/><text fill="#000000" font-family="sans-serif" font-size="13" lengthAdjust="spacing" textLength="76" x="406" y="594.5684">collected by</text><text fill="#000000" font-family="sans-serif" font-size="13" lengthAdjust="spacing" textLength="6" x="379.2689" y="539.2059">*</text><text fill="#000000" font-family="sans-serif" font-size="13" lengthAdjust="spacing" textLength="8" x="399.8771" y="617.3288">1</text><!--MD5=[46b76864d59c8c3a00a9624d83f6ce80]
link BarCode to Sample--><path codeLine="64" d="M210.75,492 C252.66,492 317.39,492 357.92,492 " fill="none" id="BarCode-Sample" style="stroke:#A80036;stroke-width:1.0;"/><polygon fill="#000000" points="237.25,480.6553,246.2951,483.5942,246.2951,477.7163,237.25,480.6553" style="stroke:#000000;stroke-width:1.0;"/><text fill="#000000" font-family="sans-serif" font-size="13" lengthAdjust="spacing" textLength="79" x="251.25" y="485.5684">identified by</text><text fill="#000000" font-family="sans-serif" font-size="13" lengthAdjust="spacing" textLength="8" x="218.4414" y="488.3137">1</text><text fill="#000000" font-family="sans-serif" font-size="13" lengthAdjust="spacing" textLength="8" x="342.0891" y="488.1726">1</text><!--MD5=[6cf811bdcc9e8f0edccd5aa0f02fa29f]
link BarCodeApi to BarCode--><path codeLine="65" d="M69.96,343.16 C89.09,371.43 125.12,424.67 148.32,458.96 " fill="none" id="BarCodeApi-BarCode" style="stroke:#A80036;stroke-width:1.0;"/><polygon fill="#000000" points="113.1978,390.5143,115.833,399.6525,120.701,396.3584,113.1978,390.5143" style="stroke:#000000;stroke-width:1.0;"/><text fill="#000000" font-family="sans-serif" font-size="13" lengthAdjust="spacing" textLength="81" x="125" y="399.5684">generated by</text><text fill="#000000" font-family="sans-serif" font-size="13" lengthAdjust="spacing" textLength="8" x="64.48" y="363.5514">1</text><text fill="#000000" font-family="sans-serif" font-size="13" lengthAdjust="spacing" textLength="6" x="137.2298" y="448.2083">*</text><!--MD5=[3960df5b1ea8ecab6ad2804cc08d8583]
link Employee to MedicalLabTechnician--><path codeLine="68" d="M506.16,551.12 C500.42,566.54 493.84,583.06 487,598 C482.39,608.07 476.53,618.88 471.45,627.79 " fill="none" id="Employee-MedicalLabTechnician" style="stroke:#A80036;stroke-width:1.0;"/><polygon fill="#000000" points="496.9379,594.2102,503.3456,587.1823,497.991,584.7581,496.9379,594.2102" style="stroke:#000000;stroke-width:1.0;"/><text fill="#000000" font-family="sans-serif" font-size="13" lengthAdjust="spacing" textLength="51" x="508" y="594.5684">plays as</text><text fill="#000000" font-family="sans-serif" font-size="13" lengthAdjust="spacing" textLength="8" x="495.4035" y="571.4248">1</text><text fill="#000000" font-family="sans-serif" font-size="13" lengthAdjust="spacing" textLength="24" x="447.2884" y="617.2642">0..1</text><!--MD5=[9ccae5c1b5f2c3564b6bb9431c97d147]
@startuml

skinparam classAttributeIconSize 0
hide methods


class Company {
-designation
}

class Laboratory {
-name
-address
-phoneNumber
-taxIdenticationNumber
}

class ClinicalAnalysisLaboratory{
-id
}


class Test {
-code
-createdAt
}

class Sample {
-createdAt
}


class BarCode {
-code
-image
}

class BarCodeApi {
}

class Employee {
-id
-name
-address
-phoneNumber
-emailAddress
-socCode
}

class MedicalLabTechnician {
}

Company "1" -up- "*" Laboratory : owns >
Company "1" -right- "*" Test: performs >
Company "*" -left- "1" BarCodeApi: uses >

ClinicalAnalysisLaboratory - -|>Laboratory


Test "*" -up- "1" ClinicalAnalysisLaboratory: registered at >
Test "1" - - "*" Sample: collects >


Sample "*" - - "1" MedicalLabTechnician: collected by >
Sample "1" -left- "1" BarCode: identified by >
BarCode "*" -up- "1" BarCodeApi: generated by >


Employee "1" - - "0..1" MedicalLabTechnician: plays as >
@enduml

PlantUML version 1.2021.5(Sun Apr 25 12:20:28 WEST 2021)
(GPL source distribution)
Java Runtime: OpenJDK Runtime Environment
JVM: Dynamic Code Evolution 64-Bit Server VM
Default Encoding: UTF-8
Language: en
Country: PT
--></g></svg>