<?xml version="1.0" encoding="UTF-8" standalone="no"?><svg xmlns="http://www.w3.org/2000/svg" xmlns:xlink="http://www.w3.org/1999/xlink" contentScriptType="application/ecmascript" contentStyleType="text/css" height="861.25px" preserveAspectRatio="none" style="width:1161px;height:861px;background:#FFFFFF;" version="1.1" viewBox="0 0 1161 861" width="1161.25px" zoomAndPan="magnify"><defs><filter height="300%" id="f1qeqtqvxtud1i" width="300%" x="-1" y="-1"><feGaussianBlur result="blurOut" stdDeviation="2.5"/><feColorMatrix in="blurOut" result="blurOut2" type="matrix" values="0 0 0 0 0 0 0 0 0 0 0 0 0 0 0 0 0 0 .4 0"/><feOffset dx="5.0" dy="5.0" in="blurOut2" result="blurOut3"/><feBlend in="SourceGraphic" in2="blurOut3" mode="normal"/></filter></defs><g><!--MD5=[60d8c6067b38aa5412df1ef116bdb7f2]
class :ScheduleVaccinationUI--><rect codeLine="4" fill="#FEFECE" filter="url(#f1qeqtqvxtud1i)" height="232.9492" id=":ScheduleVaccinationUI" style="stroke:#A80036;stroke-width:1.875;" width="270" x="106.25" y="156.25"/><ellipse cx="155.375" cy="176.25" fill="#ADD1B2" rx="13.75" ry="13.75" style="stroke:#A80036;stroke-width:1.25;"/><path d="M157.875,171.875 Q158.1289,171.25 158.4219,170.9375 Q158.7148,170.625 159.0469,170.625 Q159.6328,170.625 160.0039,170.9766 Q160.375,171.3281 160.375,172.1484 L160.375,174.1016 Q160.375,174.9219 160.0234,175.2734 Q159.6719,175.625 159.125,175.625 Q158.6367,175.625 158.3242,175.4102 Q158.0117,175.1953 157.875,174.6289 Q157.8164,174.2383 157.6016,174.0234 Q157.2109,173.6133 156.5078,173.3789 Q155.8047,173.125 155.1016,173.125 Q154.2227,173.125 153.4805,173.4766 Q152.7578,173.8281 152.1914,174.6094 Q151.625,175.3906 151.625,176.4648 L151.625,177.6172 Q151.625,178.9063 152.6797,179.7656 Q153.7344,180.625 155.6094,180.625 Q156.7227,180.625 157.5039,180.3711 Q157.9531,180.2344 158.4609,179.7852 Q158.793,179.5313 158.9688,179.4531 Q159.1445,179.375 159.3594,179.375 Q159.7695,179.375 160.0625,179.707 Q160.375,180.0195 160.375,180.4688 Q160.375,180.8984 159.9453,181.4063 Q159.3203,182.1484 158.3242,182.5586 Q157.0156,183.125 155.4141,183.125 Q153.5391,183.125 152.0352,182.3828 Q150.8242,181.7969 149.9648,180.5273 Q149.125,179.2578 149.125,177.7539 L149.125,176.3867 Q149.125,174.8242 149.8672,173.457 Q150.6289,172.0898 151.9375,171.3672 Q153.2656,170.625 154.75,170.625 Q155.6484,170.625 156.4297,170.9375 Q157.2109,171.25 157.875,171.875 Z " fill="#000000"/><text fill="#000000" font-family="sans-serif" font-size="15" lengthAdjust="spacing" textLength="162.5" x="179.625" y="182.3877">:ScheduleVaccinationUI</text><line style="stroke:#A80036;stroke-width:1.875;" x1="107.5" x2="375" y1="196.25" y2="196.25"/><line style="stroke:#A80036;stroke-width:1.875;" x1="107.5" x2="375" y1="206.25" y2="206.25"/><text fill="#000000" font-family="sans-serif" font-size="13.75" lengthAdjust="spacing" textLength="37.5" x="113.75" y="225.5237">+run()</text><text fill="#000000" font-family="sans-serif" font-size="13.75" lengthAdjust="spacing" textLength="71.25" x="113.75" y="242.8186">-Schedule()</text><text fill="#000000" font-family="sans-serif" font-size="13.75" lengthAdjust="spacing" textLength="87.5" x="113.75" y="260.1135">-setSNSuser()</text><text fill="#000000" font-family="sans-serif" font-size="13.75" lengthAdjust="spacing" textLength="146.25" x="113.75" y="277.4084">-setVaccinationFacility()</text><text fill="#000000" font-family="sans-serif" font-size="13.75" lengthAdjust="spacing" textLength="152.5" x="113.75" y="294.7034">-getDateTimeAppoiment()</text><text fill="#000000" font-family="sans-serif" font-size="13.75" lengthAdjust="spacing" textLength="151.25" x="113.75" y="311.9983">-getTime(LocalDate date)</text><text fill="#000000" font-family="sans-serif" font-size="13.75" lengthAdjust="spacing" textLength="61.25" x="113.75" y="329.2932">-getDate()</text><text fill="#000000" font-family="sans-serif" font-size="13.75" lengthAdjust="spacing" textLength="131.25" x="113.75" y="346.5881">-selectVaccineType()</text><text fill="#000000" font-family="sans-serif" font-size="13.75" lengthAdjust="spacing" textLength="255" x="113.75" y="363.8831">-getTypeVaccineFromVaccinationCenter()</text><text fill="#000000" font-family="sans-serif" font-size="13.75" lengthAdjust="spacing" textLength="250" x="113.75" y="381.178">-getTypeVaccineFromHealthCareCenter()</text><!--MD5=[75fdbe4195d9e8c747f88dd46ee33e90]
class :VaccinationScheduleController--><rect codeLine="17" fill="#FEFECE" filter="url(#f1qeqtqvxtud1i)" height="526.9629" id=":VaccinationScheduleController" style="stroke:#A80036;stroke-width:1.875;" width="468.75" x="420.625" y="8.75"/><ellipse cx="542.1875" cy="28.75" fill="#ADD1B2" rx="13.75" ry="13.75" style="stroke:#A80036;stroke-width:1.25;"/><path d="M544.6875,24.375 Q544.9414,23.75 545.2344,23.4375 Q545.5273,23.125 545.8594,23.125 Q546.4453,23.125 546.8164,23.4766 Q547.1875,23.8281 547.1875,24.6484 L547.1875,26.6016 Q547.1875,27.4219 546.8359,27.7734 Q546.4844,28.125 545.9375,28.125 Q545.4492,28.125 545.1367,27.9102 Q544.8242,27.6953 544.6875,27.1289 Q544.6289,26.7383 544.4141,26.5234 Q544.0234,26.1133 543.3203,25.8789 Q542.6172,25.625 541.9141,25.625 Q541.0352,25.625 540.293,25.9766 Q539.5703,26.3281 539.0039,27.1094 Q538.4375,27.8906 538.4375,28.9648 L538.4375,30.1172 Q538.4375,31.4063 539.4922,32.2656 Q540.5469,33.125 542.4219,33.125 Q543.5352,33.125 544.3164,32.8711 Q544.7656,32.7344 545.2734,32.2852 Q545.6055,32.0313 545.7813,31.9531 Q545.957,31.875 546.1719,31.875 Q546.582,31.875 546.875,32.207 Q547.1875,32.5195 547.1875,32.9688 Q547.1875,33.3984 546.7578,33.9063 Q546.1328,34.6484 545.1367,35.0586 Q543.8281,35.625 542.2266,35.625 Q540.3516,35.625 538.8477,34.8828 Q537.6367,34.2969 536.7773,33.0273 Q535.9375,31.7578 535.9375,30.2539 L535.9375,28.8867 Q535.9375,27.3242 536.6797,25.957 Q537.4414,24.5898 538.75,23.8672 Q540.0781,23.125 541.5625,23.125 Q542.4609,23.125 543.2422,23.4375 Q544.0234,23.75 544.6875,24.375 Z " fill="#000000"/><text fill="#000000" font-family="sans-serif" font-size="15" lengthAdjust="spacing" textLength="215" x="567.8125" y="34.8877">:VaccinationScheduleController</text><line style="stroke:#A80036;stroke-width:1.875;" x1="421.875" x2="888.125" y1="48.75" y2="48.75"/><line style="stroke:#A80036;stroke-width:1.875;" x1="421.875" x2="888.125" y1="58.75" y2="58.75"/><text fill="#000000" font-family="sans-serif" font-size="13.75" lengthAdjust="spacing" textLength="198.75" x="428.125" y="78.0237">+setVaccinationFacility(int index)</text><text fill="#000000" font-family="sans-serif" font-size="13.75" lengthAdjust="spacing" textLength="137.5" x="428.125" y="95.3186">+SNSuserExistsEmail()</text><text fill="#000000" font-family="sans-serif" font-size="13.75" lengthAdjust="spacing" textLength="112.5" x="428.125" y="112.6135">+createSchedule()</text><text fill="#000000" font-family="sans-serif" font-size="13.75" lengthAdjust="spacing" textLength="316.25" x="428.125" y="129.9084">+createScheduleFromDTO(dtoScheduleVaccine dto)</text><text fill="#000000" font-family="sans-serif" font-size="13.75" lengthAdjust="spacing" textLength="103.75" x="428.125" y="147.2034">+saveSchedule()</text><text fill="#000000" font-family="sans-serif" font-size="13.75" lengthAdjust="spacing" textLength="158.75" x="428.125" y="164.4983">+getVaccinationFacilities()</text><text fill="#000000" font-family="sans-serif" font-size="13.75" lengthAdjust="spacing" textLength="170" x="428.125" y="181.7932">+validateScheduleVaccine()</text><text fill="#000000" font-family="sans-serif" font-size="13.75" lengthAdjust="spacing" textLength="197.5" x="428.125" y="199.0881">-validateScheduleVaccineType()</text><text fill="#000000" font-family="sans-serif" font-size="13.75" lengthAdjust="spacing" textLength="170" x="428.125" y="216.3831">+validateCreationSchedule()</text><text fill="#000000" font-family="sans-serif" font-size="13.75" lengthAdjust="spacing" textLength="238.75" x="428.125" y="233.678">+checkIfVaccinationFaciltyListIsEmpty()</text><text fill="#000000" font-family="sans-serif" font-size="13.75" lengthAdjust="spacing" textLength="240" x="428.125" y="250.9729">+checkIfSNSuserExists(int SNSnumber)</text><text fill="#000000" font-family="sans-serif" font-size="13.75" lengthAdjust="spacing" textLength="176.25" x="428.125" y="268.2678">-validateVaccinationRecord()</text><text fill="#000000" font-family="sans-serif" font-size="13.75" lengthAdjust="spacing" textLength="227.5" x="428.125" y="285.5627">+validateAgeGroup(Vaccine vaccine)</text><text fill="#000000" font-family="sans-serif" font-size="13.75" lengthAdjust="spacing" textLength="223.75" x="428.125" y="302.8577">+validateDoseTime(Vaccine vaccine)</text><text fill="#000000" font-family="sans-serif" font-size="13.75" lengthAdjust="spacing" textLength="115" x="428.125" y="320.1526">+checkIfSNSuser()</text><text fill="#000000" font-family="sans-serif" font-size="13.75" lengthAdjust="spacing" textLength="301.25" x="428.125" y="337.4475">+ValidateAppoimentTime(LocalDate day,int index )</text><text fill="#000000" font-family="sans-serif" font-size="13.75" lengthAdjust="spacing" textLength="85" x="428.125" y="354.7424">+getDateList()</text><text fill="#000000" font-family="sans-serif" font-size="13.75" lengthAdjust="spacing" textLength="210" x="428.125" y="372.0374">+getTimeSlotsDTO(LocalDate date)</text><text fill="#000000" font-family="sans-serif" font-size="13.75" lengthAdjust="spacing" textLength="180" x="428.125" y="389.3323">+getTimeSlots(LocalDate day)</text><text fill="#000000" font-family="sans-serif" font-size="13.75" lengthAdjust="spacing" textLength="203.75" x="428.125" y="406.6272">+setDate(LocalDate day,int index)</text><text fill="#000000" font-family="sans-serif" font-size="13.75" lengthAdjust="spacing" textLength="178.75" x="428.125" y="423.9221">+getTypeVaccinationFacility()</text><text fill="#000000" font-family="sans-serif" font-size="13.75" lengthAdjust="spacing" textLength="290" x="428.125" y="441.217">+getTypeVaccineFromMassVaccinationCenter()</text><text fill="#000000" font-family="sans-serif" font-size="13.75" lengthAdjust="spacing" textLength="260" x="428.125" y="458.512">+setTypeVaccineMassVaccinationCenter()</text><text fill="#000000" font-family="sans-serif" font-size="13.75" lengthAdjust="spacing" textLength="252.5" x="428.125" y="475.8069">+getTypeVaccineFromHealthCareCenter()</text><text fill="#000000" font-family="sans-serif" font-size="13.75" lengthAdjust="spacing" textLength="272.5" x="428.125" y="493.1018">+setTypeVaccineHealthCareCenter(int index)</text><text fill="#000000" font-family="sans-serif" font-size="13.75" lengthAdjust="spacing" textLength="100" x="428.125" y="510.3967">+printSchedule()</text><text fill="#000000" font-family="sans-serif" font-size="13.75" lengthAdjust="spacing" textLength="453.75" x="428.125" y="527.6917">+printScheduleInfo(String VaccinationCenter, LocalDateTime dateSheducle)</text><!--MD5=[492ce2bfa81eb223a862a92e88d9bd9d]
class :dtoScheduleVaccine--><rect codeLine="47" fill="#FEFECE" filter="url(#f1qeqtqvxtud1i)" height="111.8848" id=":dtoScheduleVaccine" style="stroke:#A80036;stroke-width:1.875;" width="211.25" x="933.125" y="216.25"/><ellipse cx="964.25" cy="236.25" fill="#ADD1B2" rx="13.75" ry="13.75" style="stroke:#A80036;stroke-width:1.25;"/><path d="M966.75,231.875 Q967.0039,231.25 967.2969,230.9375 Q967.5898,230.625 967.9219,230.625 Q968.5078,230.625 968.8789,230.9766 Q969.25,231.3281 969.25,232.1484 L969.25,234.1016 Q969.25,234.9219 968.8984,235.2734 Q968.5469,235.625 968,235.625 Q967.5117,235.625 967.1992,235.4102 Q966.8867,235.1953 966.75,234.6289 Q966.6914,234.2383 966.4766,234.0234 Q966.0859,233.6133 965.3828,233.3789 Q964.6797,233.125 963.9766,233.125 Q963.0977,233.125 962.3555,233.4766 Q961.6328,233.8281 961.0664,234.6094 Q960.5,235.3906 960.5,236.4648 L960.5,237.6172 Q960.5,238.9063 961.5547,239.7656 Q962.6094,240.625 964.4844,240.625 Q965.5977,240.625 966.3789,240.3711 Q966.8281,240.2344 967.3359,239.7852 Q967.668,239.5313 967.8438,239.4531 Q968.0195,239.375 968.2344,239.375 Q968.6445,239.375 968.9375,239.707 Q969.25,240.0195 969.25,240.4688 Q969.25,240.8984 968.8203,241.4063 Q968.1953,242.1484 967.1992,242.5586 Q965.8906,243.125 964.2891,243.125 Q962.4141,243.125 960.9102,242.3828 Q959.6992,241.7969 958.8398,240.5273 Q958,239.2578 958,237.7539 L958,236.3867 Q958,234.8242 958.7422,233.457 Q959.5039,232.0898 960.8125,231.3672 Q962.1406,230.625 963.625,230.625 Q964.5234,230.625 965.3047,230.9375 Q966.0859,231.25 966.75,231.875 Z " fill="#000000"/><text fill="#000000" font-family="sans-serif" font-size="15" lengthAdjust="spacing" textLength="143.75" x="984.5" y="242.3877">:dtoScheduleVaccine</text><line style="stroke:#A80036;stroke-width:1.875;" x1="934.375" x2="1143.125" y1="256.25" y2="256.25"/><text fill="#000000" font-family="sans-serif" font-size="13.75" lengthAdjust="spacing" textLength="93.75" x="940.625" y="275.5237">-int SNSnumber</text><text fill="#000000" font-family="sans-serif" font-size="13.75" lengthAdjust="spacing" textLength="196.25" x="940.625" y="292.8186">-LocalDateTime appointmentDate</text><text fill="#000000" font-family="sans-serif" font-size="13.75" lengthAdjust="spacing" textLength="168.75" x="940.625" y="310.1135">-TypeVaccine TypeVaccine</text><line style="stroke:#A80036;stroke-width:1.875;" x1="934.375" x2="1143.125" y1="318.1348" y2="318.1348"/><!--MD5=[02e4b9b7573f1156f41e60aa5b4e25a4]
class Company--><rect codeLine="54" fill="#FEFECE" filter="url(#f1qeqtqvxtud1i)" height="232.9492" id="Company" style="stroke:#A80036;stroke-width:1.875;" width="465" x="8.75" y="611.25"/><ellipse cx="202.8125" cy="631.25" fill="#ADD1B2" rx="13.75" ry="13.75" style="stroke:#A80036;stroke-width:1.25;"/><path d="M205.3125,626.875 Q205.5664,626.25 205.8594,625.9375 Q206.1523,625.625 206.4844,625.625 Q207.0703,625.625 207.4414,625.9766 Q207.8125,626.3281 207.8125,627.1484 L207.8125,629.1016 Q207.8125,629.9219 207.4609,630.2734 Q207.1094,630.625 206.5625,630.625 Q206.0742,630.625 205.7617,630.4102 Q205.4492,630.1953 205.3125,629.6289 Q205.2539,629.2383 205.0391,629.0234 Q204.6484,628.6133 203.9453,628.3789 Q203.2422,628.125 202.5391,628.125 Q201.6602,628.125 200.918,628.4766 Q200.1953,628.8281 199.6289,629.6094 Q199.0625,630.3906 199.0625,631.4648 L199.0625,632.6172 Q199.0625,633.9063 200.1172,634.7656 Q201.1719,635.625 203.0469,635.625 Q204.1602,635.625 204.9414,635.3711 Q205.3906,635.2344 205.8984,634.7852 Q206.2305,634.5313 206.4063,634.4531 Q206.582,634.375 206.7969,634.375 Q207.207,634.375 207.5,634.707 Q207.8125,635.0195 207.8125,635.4688 Q207.8125,635.8984 207.3828,636.4063 Q206.7578,637.1484 205.7617,637.5586 Q204.4531,638.125 202.8516,638.125 Q200.9766,638.125 199.4727,637.3828 Q198.2617,636.7969 197.4023,635.5273 Q196.5625,634.2578 196.5625,632.7539 L196.5625,631.3867 Q196.5625,629.8242 197.3047,628.457 Q198.0664,627.0898 199.375,626.3672 Q200.7031,625.625 202.1875,625.625 Q203.0859,625.625 203.8672,625.9375 Q204.6484,626.25 205.3125,626.875 Z " fill="#000000"/><text fill="#000000" font-family="sans-serif" font-size="15" lengthAdjust="spacing" textLength="66.25" x="228.4375" y="637.3877">Company</text><line style="stroke:#A80036;stroke-width:1.875;" x1="10" x2="472.5" y1="651.25" y2="651.25"/><text fill="#000000" font-family="sans-serif" font-size="13.75" lengthAdjust="spacing" textLength="222.5" x="16.25" y="670.5237">-List&lt;TypeVaccine&gt; typeVaccineList</text><text fill="#000000" font-family="sans-serif" font-size="13.75" lengthAdjust="spacing" textLength="333.75" x="16.25" y="687.8186">-List&lt;VaccineAdministration&gt; vaccineAdministrationList</text><text fill="#000000" font-family="sans-serif" font-size="13.75" lengthAdjust="spacing" textLength="163.75" x="16.25" y="705.1135">-List&lt;Vaccine&gt; vaccineList</text><text fill="#000000" font-family="sans-serif" font-size="13.75" lengthAdjust="spacing" textLength="288.75" x="16.25" y="722.4084">-List&lt;VaccinationFacility&gt; vaccinationFacilityList</text><text fill="#000000" font-family="sans-serif" font-size="13.75" lengthAdjust="spacing" textLength="73.75" x="16.25" y="739.7034">-designation</text><line style="stroke:#A80036;stroke-width:1.875;" x1="10" x2="472.5" y1="747.7246" y2="747.7246"/><text fill="#000000" font-family="sans-serif" font-size="13.75" lengthAdjust="spacing" textLength="170" x="16.25" y="766.9983">+getVaccinationFacilityList()</text><text fill="#000000" font-family="sans-serif" font-size="13.75" lengthAdjust="spacing" textLength="250" x="16.25" y="784.2932">+getVaccinationFacilityFromList(int index)</text><text fill="#000000" font-family="sans-serif" font-size="13.75" lengthAdjust="spacing" textLength="242.5" x="16.25" y="801.5881">+SNSuserExistsNumber(int SNSnumber)</text><text fill="#000000" font-family="sans-serif" font-size="13.75" lengthAdjust="spacing" textLength="206.25" x="16.25" y="818.8831">+SNSuserExistsEmail(String email)</text><text fill="#000000" font-family="sans-serif" font-size="13.75" lengthAdjust="spacing" textLength="450" x="16.25" y="836.178">+checkOtherCentersForVaccination(TypeVaccine vaccine,int SNSnumber)</text><!--MD5=[335f4d9be48430461c68bf6d6fdba145]
class App--><rect codeLine="67" fill="#FEFECE" filter="url(#f1qeqtqvxtud1i)" height="94.5898" id="App" style="stroke:#A80036;stroke-width:1.875;" width="173.75" x="518.125" y="680"/><ellipse cx="586.5625" cy="700" fill="#ADD1B2" rx="13.75" ry="13.75" style="stroke:#A80036;stroke-width:1.25;"/><path d="M589.0625,695.625 Q589.3164,695 589.6094,694.6875 Q589.9023,694.375 590.2344,694.375 Q590.8203,694.375 591.1914,694.7266 Q591.5625,695.0781 591.5625,695.8984 L591.5625,697.8516 Q591.5625,698.6719 591.2109,699.0234 Q590.8594,699.375 590.3125,699.375 Q589.8242,699.375 589.5117,699.1602 Q589.1992,698.9453 589.0625,698.3789 Q589.0039,697.9883 588.7891,697.7734 Q588.3984,697.3633 587.6953,697.1289 Q586.9922,696.875 586.2891,696.875 Q585.4102,696.875 584.668,697.2266 Q583.9453,697.5781 583.3789,698.3594 Q582.8125,699.1406 582.8125,700.2148 L582.8125,701.3672 Q582.8125,702.6563 583.8672,703.5156 Q584.9219,704.375 586.7969,704.375 Q587.9102,704.375 588.6914,704.1211 Q589.1406,703.9844 589.6484,703.5352 Q589.9805,703.2813 590.1563,703.2031 Q590.332,703.125 590.5469,703.125 Q590.957,703.125 591.25,703.457 Q591.5625,703.7695 591.5625,704.2188 Q591.5625,704.6484 591.1328,705.1563 Q590.5078,705.8984 589.5117,706.3086 Q588.2031,706.875 586.6016,706.875 Q584.7266,706.875 583.2227,706.1328 Q582.0117,705.5469 581.1523,704.2773 Q580.3125,703.0078 580.3125,701.5039 L580.3125,700.1367 Q580.3125,698.5742 581.0547,697.207 Q581.8164,695.8398 583.125,695.1172 Q584.4531,694.375 585.9375,694.375 Q586.8359,694.375 587.6172,694.6875 Q588.3984,695 589.0625,695.625 Z " fill="#000000"/><text fill="#000000" font-family="sans-serif" font-size="15" lengthAdjust="spacing" textLength="26.25" x="612.1875" y="706.1377">App</text><line style="stroke:#A80036;stroke-width:1.875;" x1="519.375" x2="690.625" y1="720" y2="720"/><line style="stroke:#A80036;stroke-width:1.875;" x1="519.375" x2="690.625" y1="730" y2="730"/><text fill="#000000" font-family="sans-serif" font-size="13.75" lengthAdjust="spacing" textLength="80" x="525.625" y="749.2737">+getIntance()</text><text fill="#000000" font-family="sans-serif" font-size="13.75" lengthAdjust="spacing" textLength="158.75" x="525.625" y="766.5686">+getIntance.getCompany()</text><!--MD5=[1027955b605cd1668145db8d3e719ba8]
link :ScheduleVaccinationUI to :VaccinationScheduleController--><!--MD5=[bce3db3e12a7fa00c270ee697a7db971]
link :VaccinationScheduleController to :dtoScheduleVaccine--><!--MD5=[ad313b06a26c0a146fa9d056c4e4c774]
link :ScheduleVaccinationUI to Company--><!--MD5=[04a3751f217677a84b533ed87bfad901]
link Company to App--><!--MD5=[04ff48ffe90f41939a818fc91b1b4ad6]
@startuml
'https://plantuml.com/class-diagram
skinparam classAttributeIconSize 0

Class :ScheduleVaccinationUI {
+run()
-Schedule()
-setSNSuser()
-setVaccinationFacility()
-getDateTimeAppoiment()
-getTime(LocalDate date)
-getDate()
-selectVaccineType()
-getTypeVaccineFromVaccinationCenter()
-getTypeVaccineFromHealthCareCenter()
}

Class :VaccinationScheduleController {
+setVaccinationFacility(int index)
+SNSuserExistsEmail()
+createSchedule()
+createScheduleFromDTO(dtoScheduleVaccine dto)
+saveSchedule()
+getVaccinationFacilities()
+validateScheduleVaccine()
-validateScheduleVaccineType()
+validateCreationSchedule()
+checkIfVaccinationFaciltyListIsEmpty()
+checkIfSNSuserExists(int SNSnumber)
-validateVaccinationRecord()
+validateAgeGroup(Vaccine vaccine)
+validateDoseTime(Vaccine vaccine)
+checkIfSNSuser()
+ValidateAppoimentTime(LocalDate day,int index )
+getDateList()
+getTimeSlotsDTO(LocalDate date)
+getTimeSlots(LocalDate day)
+setDate(LocalDate day,int index)
+getTypeVaccinationFacility()
+getTypeVaccineFromMassVaccinationCenter()
+setTypeVaccineMassVaccinationCenter()
+getTypeVaccineFromHealthCareCenter()
+setTypeVaccineHealthCareCenter(int index)
+printSchedule()
+printScheduleInfo(String VaccinationCenter, LocalDateTime dateSheducle)
}

Class :dtoScheduleVaccine {
-int SNSnumber
-LocalDateTime appointmentDate
-TypeVaccine TypeVaccine

}

Class Company{
-List<TypeVaccine> typeVaccineList
-List<VaccineAdministration> vaccineAdministrationList
-List<Vaccine> vaccineList
-List<VaccinationFacility> vaccinationFacilityList
-designation
    +getVaccinationFacilityList()
    +getVaccinationFacilityFromList(int index)
    +SNSuserExistsNumber(int SNSnumber)
    +SNSuserExistsEmail(String email)
    +checkOtherCentersForVaccination(TypeVaccine vaccine,int SNSnumber)
}

Class App{
+getIntance()
+getIntance.getCompany()
}


@enduml

@startuml
skinparam classAttributeIconSize 0

Class :ScheduleVaccinationUI {
+run()
-Schedule()
-setSNSuser()
-setVaccinationFacility()
-getDateTimeAppoiment()
-getTime(LocalDate date)
-getDate()
-selectVaccineType()
-getTypeVaccineFromVaccinationCenter()
-getTypeVaccineFromHealthCareCenter()
}

Class :VaccinationScheduleController {
+setVaccinationFacility(int index)
+SNSuserExistsEmail()
+createSchedule()
+createScheduleFromDTO(dtoScheduleVaccine dto)
+saveSchedule()
+getVaccinationFacilities()
+validateScheduleVaccine()
-validateScheduleVaccineType()
+validateCreationSchedule()
+checkIfVaccinationFaciltyListIsEmpty()
+checkIfSNSuserExists(int SNSnumber)
-validateVaccinationRecord()
+validateAgeGroup(Vaccine vaccine)
+validateDoseTime(Vaccine vaccine)
+checkIfSNSuser()
+ValidateAppoimentTime(LocalDate day,int index )
+getDateList()
+getTimeSlotsDTO(LocalDate date)
+getTimeSlots(LocalDate day)
+setDate(LocalDate day,int index)
+getTypeVaccinationFacility()
+getTypeVaccineFromMassVaccinationCenter()
+setTypeVaccineMassVaccinationCenter()
+getTypeVaccineFromHealthCareCenter()
+setTypeVaccineHealthCareCenter(int index)
+printSchedule()
+printScheduleInfo(String VaccinationCenter, LocalDateTime dateSheducle)
}

Class :dtoScheduleVaccine {
-int SNSnumber
-LocalDateTime appointmentDate
-TypeVaccine TypeVaccine

}

Class Company{
-List<TypeVaccine> typeVaccineList
-List<VaccineAdministration> vaccineAdministrationList
-List<Vaccine> vaccineList
-List<VaccinationFacility> vaccinationFacilityList
-designation
    +getVaccinationFacilityList()
    +getVaccinationFacilityFromList(int index)
    +SNSuserExistsNumber(int SNSnumber)
    +SNSuserExistsEmail(String email)
    +checkOtherCentersForVaccination(TypeVaccine vaccine,int SNSnumber)
}

Class App{
+getIntance()
+getIntance.getCompany()
}


@enduml

PlantUML version 1.2021.7(Sun May 23 13:40:07 BST 2021)
(GPL source distribution)
Java Runtime: OpenJDK Runtime Environment
JVM: Dynamic Code Evolution 64-Bit Server VM
Default Encoding: Cp1252
Language: pt
Country: PT
--></g></svg>