<?xml version="1.0" encoding="UTF-8" standalone="no"?><svg xmlns="http://www.w3.org/2000/svg" xmlns:xlink="http://www.w3.org/1999/xlink" contentScriptType="application/ecmascript" contentStyleType="text/css" height="547.5px" preserveAspectRatio="none" style="width:550px;height:547px;background:#FFFFFF;" version="1.1" viewBox="0 0 550 547" width="550px" zoomAndPan="magnify"><defs><filter height="300%" id="fde1vjatwpdhd" width="300%" x="-1" y="-1"><feGaussianBlur result="blurOut" stdDeviation="2.5"/><feColorMatrix in="blurOut" result="blurOut2" type="matrix" values="0 0 0 0 0 0 0 0 0 0 0 0 0 0 0 0 0 0 .4 0"/><feOffset dx="5.0" dy="5.0" in="blurOut2" result="blurOut3"/><feBlend in="SourceGraphic" in2="blurOut3" mode="normal"/></filter></defs><g><rect fill="#FFFFFF" filter="url(#fde1vjatwpdhd)" height="293.5156" style="stroke:#A80036;stroke-width:1.25;" width="12.5" x="80" y="124.5117"/><rect fill="#FFFFFF" filter="url(#fde1vjatwpdhd)" height="37.9395" style="stroke:#A80036;stroke-width:1.25;" width="12.5" x="488.75" y="152.4512"/><rect fill="#FFFFFF" filter="url(#fde1vjatwpdhd)" height="37.9395" style="stroke:#A80036;stroke-width:1.25;" width="12.5" x="488.75" y="228.3301"/><rect fill="#FFFFFF" filter="url(#fde1vjatwpdhd)" height="37.9395" style="stroke:#A80036;stroke-width:1.25;" width="12.5" x="488.75" y="304.209"/><rect fill="#FFFFFF" filter="url(#fde1vjatwpdhd)" height="49.1895" style="stroke:#A80036;stroke-width:1.25;" width="12.5" x="488.75" y="380.0879"/><line style="stroke:#A80036;stroke-width:1.25;stroke-dasharray:5.0,5.0;" x1="86.25" x2="86.25" y1="112.0117" y2="440.5273"/><line style="stroke:#A80036;stroke-width:1.25;stroke-dasharray:5.0,5.0;" x1="495" x2="495" y1="112.0117" y2="440.5273"/><text fill="#000000" font-family="sans-serif" font-size="17.5" lengthAdjust="spacing" textLength="152.5" x="6.25" y="108.1665">Center Coordinator</text><ellipse cx="86.25" cy="18.75" fill="#FEFECE" filter="url(#fde1vjatwpdhd)" rx="10" ry="10" style="stroke:#A80036;stroke-width:2.5;"/><path d="M86.25,28.75 L86.25,62.5 M70,38.75 L102.5,38.75 M86.25,62.5 L70,81.25 M86.25,62.5 L102.5,81.25 " fill="none" filter="url(#fde1vjatwpdhd)" style="stroke:#A80036;stroke-width:2.5;"/><text fill="#000000" font-family="sans-serif" font-size="17.5" lengthAdjust="spacing" textLength="152.5" x="6.25" y="457.4438">Center Coordinator</text><ellipse cx="86.25" cy="473.7891" fill="#FEFECE" filter="url(#fde1vjatwpdhd)" rx="10" ry="10" style="stroke:#A80036;stroke-width:2.5;"/><path d="M86.25,483.7891 L86.25,517.5391 M70,493.7891 L102.5,493.7891 M86.25,517.5391 L70,536.2891 M86.25,517.5391 L102.5,536.2891 " fill="none" filter="url(#fde1vjatwpdhd)" style="stroke:#A80036;stroke-width:2.5;"/><rect fill="#FEFECE" filter="url(#fde1vjatwpdhd)" height="39.5117" style="stroke:#A80036;stroke-width:1.875;" width="80" x="452.5" y="66.25"/><text fill="#000000" font-family="sans-serif" font-size="17.5" lengthAdjust="spacing" textLength="62.5" x="461.25" y="93.1665">:System</text><rect fill="#FEFECE" filter="url(#fde1vjatwpdhd)" height="39.5117" style="stroke:#A80036;stroke-width:1.875;" width="80" x="452.5" y="439.2773"/><text fill="#000000" font-family="sans-serif" font-size="17.5" lengthAdjust="spacing" textLength="62.5" x="461.25" y="466.1938">:System</text><rect fill="#FFFFFF" filter="url(#fde1vjatwpdhd)" height="293.5156" style="stroke:#A80036;stroke-width:1.25;" width="12.5" x="80" y="124.5117"/><rect fill="#FFFFFF" filter="url(#fde1vjatwpdhd)" height="37.9395" style="stroke:#A80036;stroke-width:1.25;" width="12.5" x="488.75" y="152.4512"/><rect fill="#FFFFFF" filter="url(#fde1vjatwpdhd)" height="37.9395" style="stroke:#A80036;stroke-width:1.25;" width="12.5" x="488.75" y="228.3301"/><rect fill="#FFFFFF" filter="url(#fde1vjatwpdhd)" height="37.9395" style="stroke:#A80036;stroke-width:1.25;" width="12.5" x="488.75" y="304.209"/><rect fill="#FFFFFF" filter="url(#fde1vjatwpdhd)" height="49.1895" style="stroke:#A80036;stroke-width:1.25;" width="12.5" x="488.75" y="380.0879"/><polygon fill="#A80036" points="473.75,147.4512,486.25,152.4512,473.75,157.4512,478.75,152.4512" style="stroke:#A80036;stroke-width:1.25;"/><line style="stroke:#A80036;stroke-width:1.25;" x1="92.5" x2="481.25" y1="152.4512" y2="152.4512"/><text fill="#000000" font-family="sans-serif" font-size="16.25" font-weight="bold" lengthAdjust="spacing" textLength="8.75" x="101.25" y="146.3806">1</text><text fill="#000000" font-family="sans-serif" font-size="16.25" lengthAdjust="spacing" textLength="266.25" x="115" y="146.3806">intends to do a performance analysis</text><polygon fill="#A80036" points="106.25,185.3906,93.75,190.3906,106.25,195.3906,101.25,190.3906" style="stroke:#A80036;stroke-width:1.25;"/><line style="stroke:#A80036;stroke-width:1.25;stroke-dasharray:2.0,2.0;" x1="98.75" x2="493.75" y1="190.3906" y2="190.3906"/><text fill="#000000" font-family="sans-serif" font-size="16.25" font-weight="bold" lengthAdjust="spacing" textLength="8.75" x="113.75" y="184.3201">2</text><text fill="#000000" font-family="sans-serif" font-size="16.25" lengthAdjust="spacing" textLength="352.5" x="127.5" y="184.3201">asks to type the day of the performance analysis</text><polygon fill="#A80036" points="473.75,223.3301,486.25,228.3301,473.75,233.3301,478.75,228.3301" style="stroke:#A80036;stroke-width:1.25;"/><line style="stroke:#A80036;stroke-width:1.25;" x1="92.5" x2="481.25" y1="228.3301" y2="228.3301"/><text fill="#000000" font-family="sans-serif" font-size="16.25" font-weight="bold" lengthAdjust="spacing" textLength="8.75" x="101.25" y="222.2595">3</text><text fill="#000000" font-family="sans-serif" font-size="16.25" lengthAdjust="spacing" textLength="152.5" x="115" y="222.2595">types requested data</text><polygon fill="#A80036" points="106.25,261.2695,93.75,266.2695,106.25,271.2695,101.25,266.2695" style="stroke:#A80036;stroke-width:1.25;"/><line style="stroke:#A80036;stroke-width:1.25;stroke-dasharray:2.0,2.0;" x1="98.75" x2="493.75" y1="266.2695" y2="266.2695"/><text fill="#000000" font-family="sans-serif" font-size="16.25" font-weight="bold" lengthAdjust="spacing" textLength="8.75" x="113.75" y="260.199">4</text><text fill="#000000" font-family="sans-serif" font-size="16.25" lengthAdjust="spacing" textLength="217.5" x="127.5" y="260.199">asks to type the time intervals</text><polygon fill="#A80036" points="473.75,299.209,486.25,304.209,473.75,309.209,478.75,304.209" style="stroke:#A80036;stroke-width:1.25;"/><line style="stroke:#A80036;stroke-width:1.25;" x1="92.5" x2="481.25" y1="304.209" y2="304.209"/><text fill="#000000" font-family="sans-serif" font-size="16.25" font-weight="bold" lengthAdjust="spacing" textLength="8.75" x="101.25" y="298.1384">5</text><text fill="#000000" font-family="sans-serif" font-size="16.25" lengthAdjust="spacing" textLength="152.5" x="115" y="298.1384">types requested data</text><polygon fill="#A80036" points="106.25,337.1484,93.75,342.1484,106.25,347.1484,101.25,342.1484" style="stroke:#A80036;stroke-width:1.25;"/><line style="stroke:#A80036;stroke-width:1.25;stroke-dasharray:2.0,2.0;" x1="98.75" x2="493.75" y1="342.1484" y2="342.1484"/><text fill="#000000" font-family="sans-serif" font-size="16.25" font-weight="bold" lengthAdjust="spacing" textLength="8.75" x="113.75" y="336.0779">6</text><text fill="#000000" font-family="sans-serif" font-size="16.25" lengthAdjust="spacing" textLength="295" x="127.5" y="336.0779">shows all data and requests confirmation</text><polygon fill="#A80036" points="473.75,375.0879,486.25,380.0879,473.75,385.0879,478.75,380.0879" style="stroke:#A80036;stroke-width:1.25;"/><line style="stroke:#A80036;stroke-width:1.25;" x1="92.5" x2="481.25" y1="380.0879" y2="380.0879"/><text fill="#000000" font-family="sans-serif" font-size="16.25" font-weight="bold" lengthAdjust="spacing" textLength="8.75" x="101.25" y="374.0173">7</text><text fill="#000000" font-family="sans-serif" font-size="16.25" lengthAdjust="spacing" textLength="125" x="115" y="374.0173">confirms the data</text><polygon fill="#A80036" points="100,413.0273,87.5,418.0273,100,423.0273,95,418.0273" style="stroke:#A80036;stroke-width:1.25;"/><line style="stroke:#A80036;stroke-width:1.25;stroke-dasharray:2.0,2.0;" x1="92.5" x2="487.5" y1="418.0273" y2="418.0273"/><text fill="#000000" font-family="sans-serif" font-size="16.25" font-weight="bold" lengthAdjust="spacing" textLength="8.75" x="107.5" y="411.9568">8</text><text fill="#000000" font-family="sans-serif" font-size="16.25" lengthAdjust="spacing" textLength="331.25" x="121.25" y="411.9568">shows the results of the performance analysis</text><!--MD5=[3a16c5e1236eb7569527206e22dc96b3]
@startuml
autonumber
actor "Center Coordinator" as cc

activate cc


cc -> ":System" : intends to do a performance analysis
activate ":System"
":System" - -> cc : asks to type the day of the performance analysis
deactivate ":System"

cc -> ":System" : types requested data
activate ":System"
":System" - -> cc : asks to type the time intervals
deactivate ":System"

cc -> ":System" : types requested data
activate ":System"
":System" - -> cc : shows all data and requests confirmation
deactivate ":System"

cc -> ":System" : confirms the data
activate ":System"
":System" - -> cc : shows the results of the performance analysis


deactivate cc

@enduml

PlantUML version 1.2021.7(Sun May 23 13:40:07 BST 2021)
(GPL source distribution)
Java Runtime: OpenJDK Runtime Environment
JVM: Dynamic Code Evolution 64-Bit Server VM
Default Encoding: Cp1252
Language: pt
Country: PT
--></g></svg>