<?xml version="1.0" encoding="UTF-8" standalone="no"?><svg xmlns="http://www.w3.org/2000/svg" xmlns:xlink="http://www.w3.org/1999/xlink" contentScriptType="application/ecmascript" contentStyleType="text/css" height="1077.5px" preserveAspectRatio="none" style="width:656px;height:1077px;background:#FFFFFF;" version="1.1" viewBox="0 0 656 1077" width="656.25px" zoomAndPan="magnify"><defs><filter height="300%" id="f6hkqg3nb91ob" width="300%" x="-1" y="-1"><feGaussianBlur result="blurOut" stdDeviation="2.5"/><feColorMatrix in="blurOut" result="blurOut2" type="matrix" values="0 0 0 0 0 0 0 0 0 0 0 0 0 0 0 0 0 0 .4 0"/><feOffset dx="5.0" dy="5.0" in="blurOut2" result="blurOut3"/><feBlend in="SourceGraphic" in2="blurOut3" mode="normal"/></filter></defs><g><line style="stroke:#A80036;stroke-width:1.25;stroke-dasharray:5.0,5.0;" x1="61.25" x2="61.25" y1="112.0117" y2="971.6797"/><line style="stroke:#A80036;stroke-width:1.25;stroke-dasharray:5.0,5.0;" x1="601.875" x2="601.875" y1="112.0117" y2="971.6797"/><text fill="#000000" font-family="sans-serif" font-size="17.5" lengthAdjust="spacing" textLength="103.75" x="6.25" y="108.1665">Administrator</text><ellipse cx="61.875" cy="18.75" fill="#FEFECE" filter="url(#f6hkqg3nb91ob)" rx="10" ry="10" style="stroke:#A80036;stroke-width:2.5;"/><path d="M61.875,28.75 L61.875,62.5 M45.625,38.75 L78.125,38.75 M61.875,62.5 L45.625,81.25 M61.875,62.5 L78.125,81.25 " fill="none" filter="url(#f6hkqg3nb91ob)" style="stroke:#A80036;stroke-width:2.5;"/><text fill="#000000" font-family="sans-serif" font-size="17.5" lengthAdjust="spacing" textLength="103.75" x="6.25" y="988.5962">Administrator</text><ellipse cx="61.875" cy="1004.9414" fill="#FEFECE" filter="url(#f6hkqg3nb91ob)" rx="10" ry="10" style="stroke:#A80036;stroke-width:2.5;"/><path d="M61.875,1014.9414 L61.875,1048.6914 M45.625,1024.9414 L78.125,1024.9414 M61.875,1048.6914 L45.625,1067.4414 M61.875,1048.6914 L78.125,1067.4414 " fill="none" filter="url(#f6hkqg3nb91ob)" style="stroke:#A80036;stroke-width:2.5;"/><rect fill="#FEFECE" filter="url(#f6hkqg3nb91ob)" height="39.5117" style="stroke:#A80036;stroke-width:1.875;" width="80" x="559.375" y="66.25"/><text fill="#000000" font-family="sans-serif" font-size="17.5" lengthAdjust="spacing" textLength="62.5" x="568.125" y="93.1665">:System</text><rect fill="#FEFECE" filter="url(#f6hkqg3nb91ob)" height="39.5117" style="stroke:#A80036;stroke-width:1.875;" width="80" x="559.375" y="970.4297"/><text fill="#000000" font-family="sans-serif" font-size="17.5" lengthAdjust="spacing" textLength="62.5" x="568.125" y="997.3462">:System</text><polygon fill="#A80036" points="586.875,147.4512,599.375,152.4512,586.875,157.4512,591.875,152.4512" style="stroke:#A80036;stroke-width:1.25;"/><line style="stroke:#A80036;stroke-width:1.25;" x1="61.875" x2="594.375" y1="152.4512" y2="152.4512"/><text fill="#000000" font-family="sans-serif" font-size="16.25" font-weight="bold" lengthAdjust="spacing" textLength="8.75" x="70.625" y="146.3806">1</text><text fill="#000000" font-family="sans-serif" font-size="16.25" lengthAdjust="spacing" textLength="348.75" x="84.375" y="146.3806">starts the registation of a new vaccination center</text><polygon fill="#A80036" points="75.625,185.3906,63.125,190.3906,75.625,195.3906,70.625,190.3906" style="stroke:#A80036;stroke-width:1.25;"/><line style="stroke:#A80036;stroke-width:1.25;stroke-dasharray:2.0,2.0;" x1="68.125" x2="600.625" y1="190.3906" y2="190.3906"/><text fill="#000000" font-family="sans-serif" font-size="16.25" font-weight="bold" lengthAdjust="spacing" textLength="8.75" x="83.125" y="184.3201">2</text><text fill="#000000" font-family="sans-serif" font-size="16.25" lengthAdjust="spacing" textLength="98.75" x="96.875" y="184.3201">request name</text><polygon fill="#A80036" points="586.875,223.3301,599.375,228.3301,586.875,233.3301,591.875,228.3301" style="stroke:#A80036;stroke-width:1.25;"/><line style="stroke:#A80036;stroke-width:1.25;" x1="61.875" x2="594.375" y1="228.3301" y2="228.3301"/><text fill="#000000" font-family="sans-serif" font-size="16.25" font-weight="bold" lengthAdjust="spacing" textLength="8.75" x="70.625" y="222.2595">3</text><text fill="#000000" font-family="sans-serif" font-size="16.25" lengthAdjust="spacing" textLength="152.5" x="84.375" y="222.2595">types requested data</text><polygon fill="#A80036" points="75.625,261.2695,63.125,266.2695,75.625,271.2695,70.625,266.2695" style="stroke:#A80036;stroke-width:1.25;"/><line style="stroke:#A80036;stroke-width:1.25;stroke-dasharray:2.0,2.0;" x1="68.125" x2="600.625" y1="266.2695" y2="266.2695"/><text fill="#000000" font-family="sans-serif" font-size="16.25" font-weight="bold" lengthAdjust="spacing" textLength="8.75" x="83.125" y="260.199">4</text><text fill="#000000" font-family="sans-serif" font-size="16.25" lengthAdjust="spacing" textLength="107.5" x="96.875" y="260.199">request adress</text><polygon fill="#A80036" points="586.875,299.209,599.375,304.209,586.875,309.209,591.875,304.209" style="stroke:#A80036;stroke-width:1.25;"/><line style="stroke:#A80036;stroke-width:1.25;" x1="61.875" x2="594.375" y1="304.209" y2="304.209"/><text fill="#000000" font-family="sans-serif" font-size="16.25" font-weight="bold" lengthAdjust="spacing" textLength="8.75" x="70.625" y="298.1384">5</text><text fill="#000000" font-family="sans-serif" font-size="16.25" lengthAdjust="spacing" textLength="152.5" x="84.375" y="298.1384">types requested data</text><polygon fill="#A80036" points="75.625,337.1484,63.125,342.1484,75.625,347.1484,70.625,342.1484" style="stroke:#A80036;stroke-width:1.25;"/><line style="stroke:#A80036;stroke-width:1.25;stroke-dasharray:2.0,2.0;" x1="68.125" x2="600.625" y1="342.1484" y2="342.1484"/><text fill="#000000" font-family="sans-serif" font-size="16.25" font-weight="bold" lengthAdjust="spacing" textLength="8.75" x="83.125" y="336.0779">6</text><text fill="#000000" font-family="sans-serif" font-size="16.25" lengthAdjust="spacing" textLength="161.25" x="96.875" y="336.0779">request phone number</text><polygon fill="#A80036" points="586.875,375.0879,599.375,380.0879,586.875,385.0879,591.875,380.0879" style="stroke:#A80036;stroke-width:1.25;"/><line style="stroke:#A80036;stroke-width:1.25;" x1="61.875" x2="594.375" y1="380.0879" y2="380.0879"/><text fill="#000000" font-family="sans-serif" font-size="16.25" font-weight="bold" lengthAdjust="spacing" textLength="8.75" x="70.625" y="374.0173">7</text><text fill="#000000" font-family="sans-serif" font-size="16.25" lengthAdjust="spacing" textLength="152.5" x="84.375" y="374.0173">types requested data</text><polygon fill="#A80036" points="75.625,413.0273,63.125,418.0273,75.625,423.0273,70.625,418.0273" style="stroke:#A80036;stroke-width:1.25;"/><line style="stroke:#A80036;stroke-width:1.25;stroke-dasharray:2.0,2.0;" x1="68.125" x2="600.625" y1="418.0273" y2="418.0273"/><text fill="#000000" font-family="sans-serif" font-size="16.25" font-weight="bold" lengthAdjust="spacing" textLength="8.75" x="83.125" y="411.9568">8</text><text fill="#000000" font-family="sans-serif" font-size="16.25" lengthAdjust="spacing" textLength="151.25" x="96.875" y="411.9568">request email adress</text><polygon fill="#A80036" points="586.875,450.9668,599.375,455.9668,586.875,460.9668,591.875,455.9668" style="stroke:#A80036;stroke-width:1.25;"/><line style="stroke:#A80036;stroke-width:1.25;" x1="61.875" x2="594.375" y1="455.9668" y2="455.9668"/><text fill="#000000" font-family="sans-serif" font-size="16.25" font-weight="bold" lengthAdjust="spacing" textLength="8.75" x="70.625" y="449.8962">9</text><text fill="#000000" font-family="sans-serif" font-size="16.25" lengthAdjust="spacing" textLength="152.5" x="84.375" y="449.8962">types requested data</text><polygon fill="#A80036" points="75.625,488.9063,63.125,493.9063,75.625,498.9063,70.625,493.9063" style="stroke:#A80036;stroke-width:1.25;"/><line style="stroke:#A80036;stroke-width:1.25;stroke-dasharray:2.0,2.0;" x1="68.125" x2="600.625" y1="493.9063" y2="493.9063"/><text fill="#000000" font-family="sans-serif" font-size="16.25" font-weight="bold" lengthAdjust="spacing" textLength="17.5" x="83.125" y="487.8357">10</text><text fill="#000000" font-family="sans-serif" font-size="16.25" lengthAdjust="spacing" textLength="138.75" x="105.625" y="487.8357">request fax number</text><polygon fill="#A80036" points="586.875,526.8457,599.375,531.8457,586.875,536.8457,591.875,531.8457" style="stroke:#A80036;stroke-width:1.25;"/><line style="stroke:#A80036;stroke-width:1.25;" x1="61.875" x2="594.375" y1="531.8457" y2="531.8457"/><text fill="#000000" font-family="sans-serif" font-size="16.25" font-weight="bold" lengthAdjust="spacing" textLength="17.5" x="70.625" y="525.7751">11</text><text fill="#000000" font-family="sans-serif" font-size="16.25" lengthAdjust="spacing" textLength="152.5" x="93.125" y="525.7751">types requested data</text><polygon fill="#A80036" points="75.625,564.7852,63.125,569.7852,75.625,574.7852,70.625,569.7852" style="stroke:#A80036;stroke-width:1.25;"/><line style="stroke:#A80036;stroke-width:1.25;stroke-dasharray:2.0,2.0;" x1="68.125" x2="600.625" y1="569.7852" y2="569.7852"/><text fill="#000000" font-family="sans-serif" font-size="16.25" font-weight="bold" lengthAdjust="spacing" textLength="17.5" x="83.125" y="563.7146">12</text><text fill="#000000" font-family="sans-serif" font-size="16.25" lengthAdjust="spacing" textLength="167.5" x="105.625" y="563.7146">request website adress</text><polygon fill="#A80036" points="586.875,602.7246,599.375,607.7246,586.875,612.7246,591.875,607.7246" style="stroke:#A80036;stroke-width:1.25;"/><line style="stroke:#A80036;stroke-width:1.25;" x1="61.875" x2="594.375" y1="607.7246" y2="607.7246"/><text fill="#000000" font-family="sans-serif" font-size="16.25" font-weight="bold" lengthAdjust="spacing" textLength="17.5" x="70.625" y="601.6541">13</text><text fill="#000000" font-family="sans-serif" font-size="16.25" lengthAdjust="spacing" textLength="152.5" x="93.125" y="601.6541">types requested data</text><polygon fill="#A80036" points="75.625,640.6641,63.125,645.6641,75.625,650.6641,70.625,645.6641" style="stroke:#A80036;stroke-width:1.25;"/><line style="stroke:#A80036;stroke-width:1.25;stroke-dasharray:2.0,2.0;" x1="68.125" x2="600.625" y1="645.6641" y2="645.6641"/><text fill="#000000" font-family="sans-serif" font-size="16.25" font-weight="bold" lengthAdjust="spacing" textLength="17.5" x="83.125" y="639.5935">14</text><text fill="#000000" font-family="sans-serif" font-size="16.25" lengthAdjust="spacing" textLength="247.5" x="105.625" y="639.5935">request opening and closing hours</text><polygon fill="#A80036" points="586.875,678.6035,599.375,683.6035,586.875,688.6035,591.875,683.6035" style="stroke:#A80036;stroke-width:1.25;"/><line style="stroke:#A80036;stroke-width:1.25;" x1="61.875" x2="594.375" y1="683.6035" y2="683.6035"/><text fill="#000000" font-family="sans-serif" font-size="16.25" font-weight="bold" lengthAdjust="spacing" textLength="17.5" x="70.625" y="677.533">15</text><text fill="#000000" font-family="sans-serif" font-size="16.25" lengthAdjust="spacing" textLength="152.5" x="93.125" y="677.533">types requested data</text><polygon fill="#A80036" points="75.625,716.543,63.125,721.543,75.625,726.543,70.625,721.543" style="stroke:#A80036;stroke-width:1.25;"/><line style="stroke:#A80036;stroke-width:1.25;stroke-dasharray:2.0,2.0;" x1="68.125" x2="600.625" y1="721.543" y2="721.543"/><text fill="#000000" font-family="sans-serif" font-size="16.25" font-weight="bold" lengthAdjust="spacing" textLength="17.5" x="83.125" y="715.4724">16</text><text fill="#000000" font-family="sans-serif" font-size="16.25" lengthAdjust="spacing" textLength="147.5" x="105.625" y="715.4724">request slot duration</text><polygon fill="#A80036" points="586.875,754.4824,599.375,759.4824,586.875,764.4824,591.875,759.4824" style="stroke:#A80036;stroke-width:1.25;"/><line style="stroke:#A80036;stroke-width:1.25;" x1="61.875" x2="594.375" y1="759.4824" y2="759.4824"/><text fill="#000000" font-family="sans-serif" font-size="16.25" font-weight="bold" lengthAdjust="spacing" textLength="17.5" x="70.625" y="753.4119">17</text><text fill="#000000" font-family="sans-serif" font-size="16.25" lengthAdjust="spacing" textLength="152.5" x="93.125" y="753.4119">types requested data</text><polygon fill="#A80036" points="75.625,792.4219,63.125,797.4219,75.625,802.4219,70.625,797.4219" style="stroke:#A80036;stroke-width:1.25;"/><line style="stroke:#A80036;stroke-width:1.25;stroke-dasharray:2.0,2.0;" x1="68.125" x2="600.625" y1="797.4219" y2="797.4219"/><text fill="#000000" font-family="sans-serif" font-size="16.25" font-weight="bold" lengthAdjust="spacing" textLength="17.5" x="83.125" y="791.3513">18</text><text fill="#000000" font-family="sans-serif" font-size="16.25" lengthAdjust="spacing" textLength="487.5" x="105.625" y="791.3513">request the maximum number of vaccines that can be given per slot</text><polygon fill="#A80036" points="586.875,830.3613,599.375,835.3613,586.875,840.3613,591.875,835.3613" style="stroke:#A80036;stroke-width:1.25;"/><line style="stroke:#A80036;stroke-width:1.25;" x1="61.875" x2="594.375" y1="835.3613" y2="835.3613"/><text fill="#000000" font-family="sans-serif" font-size="16.25" font-weight="bold" lengthAdjust="spacing" textLength="17.5" x="70.625" y="829.2908">19</text><text fill="#000000" font-family="sans-serif" font-size="16.25" lengthAdjust="spacing" textLength="152.5" x="93.125" y="829.2908">types requested data</text><polygon fill="#A80036" points="75.625,868.3008,63.125,873.3008,75.625,878.3008,70.625,873.3008" style="stroke:#A80036;stroke-width:1.25;"/><line style="stroke:#A80036;stroke-width:1.25;stroke-dasharray:2.0,2.0;" x1="68.125" x2="600.625" y1="873.3008" y2="873.3008"/><text fill="#000000" font-family="sans-serif" font-size="16.25" font-weight="bold" lengthAdjust="spacing" textLength="17.5" x="83.125" y="867.2302">20</text><text fill="#000000" font-family="sans-serif" font-size="16.25" lengthAdjust="spacing" textLength="193.75" x="105.625" y="867.2302">request the type of vaccine</text><polygon fill="#A80036" points="586.875,906.2402,599.375,911.2402,586.875,916.2402,591.875,911.2402" style="stroke:#A80036;stroke-width:1.25;"/><line style="stroke:#A80036;stroke-width:1.25;" x1="61.875" x2="594.375" y1="911.2402" y2="911.2402"/><text fill="#000000" font-family="sans-serif" font-size="16.25" font-weight="bold" lengthAdjust="spacing" textLength="17.5" x="70.625" y="905.1697">21</text><text fill="#000000" font-family="sans-serif" font-size="16.25" lengthAdjust="spacing" textLength="152.5" x="93.125" y="905.1697">types requested data</text><polygon fill="#A80036" points="75.625,944.1797,63.125,949.1797,75.625,954.1797,70.625,949.1797" style="stroke:#A80036;stroke-width:1.25;"/><line style="stroke:#A80036;stroke-width:1.25;stroke-dasharray:2.0,2.0;" x1="68.125" x2="600.625" y1="949.1797" y2="949.1797"/><text fill="#000000" font-family="sans-serif" font-size="16.25" font-weight="bold" lengthAdjust="spacing" textLength="17.5" x="83.125" y="943.1091">22</text><text fill="#000000" font-family="sans-serif" font-size="16.25" lengthAdjust="spacing" textLength="368.75" x="105.625" y="943.1091">confirms the registation of a new vaccination center</text><!--MD5=[64b433bf13acbe0ce48e3173f5ac2e85]
@startuml
actor Administrator
autonumber
Administrator -> ":System" : starts the registation of a new vaccination center
Administrator <- - ":System" : request name
Administrator -> ":System" : types requested data
Administrator <- - ":System" : request adress
Administrator -> ":System" : types requested data
Administrator <- - ":System" : request phone number
Administrator -> ":System" : types requested data
Administrator <- - ":System" : request email adress
Administrator -> ":System" : types requested data
Administrator <- - ":System" : request fax number
Administrator -> ":System" : types requested data
Administrator <- - ":System" : request website adress
Administrator -> ":System" : types requested data
Administrator <- - ":System" : request opening and closing hours
Administrator -> ":System" : types requested data
Administrator <- - ":System" : request slot duration
Administrator -> ":System" : types requested data
Administrator <- - ":System" : request the maximum number of vaccines that can be given per slot
Administrator -> ":System" : types requested data
Administrator <- - ":System" : request the type of vaccine
Administrator -> ":System" : types requested data
Administrator <- - ":System" : confirms the registation of a new vaccination center






@enduml

PlantUML version 1.2021.7(Sun May 23 13:40:07 BST 2021)
(GPL source distribution)
Java Runtime: OpenJDK Runtime Environment
JVM: Dynamic Code Evolution 64-Bit Server VM
Default Encoding: Cp1252
Language: pt
Country: PT
--></g></svg>