<?xml version="1.0" encoding="UTF-8" standalone="no"?><svg xmlns="http://www.w3.org/2000/svg" xmlns:xlink="http://www.w3.org/1999/xlink" contentStyleType="text/css" height="507px" preserveAspectRatio="none" style="width:269px;height:507px;background:#FFFFFF;" version="1.1" viewBox="0 0 269 507" width="269px" zoomAndPan="magnify"><defs/><g><!--MD5=[24f15571321cce40e07cd8fc99bbf100]
class company--><g id="elem_company"><rect codeLine="3" fill="#F1F1F1" height="65.6094" id="company" rx="2.5" ry="2.5" style="stroke:#181818;stroke-width:0.5;" width="99" x="85" y="7"/><ellipse cx="104.5" cy="23" fill="#ADD1B2" rx="11" ry="11" style="stroke:#181818;stroke-width:1.0;"/><path d="M106.5,19.5 Q106.7031,19 106.9375,18.75 Q107.1719,18.5 107.4375,18.5 Q107.9063,18.5 108.2031,18.7813 Q108.5,19.0625 108.5,19.7188 L108.5,21.2813 Q108.5,21.9375 108.2188,22.2188 Q107.9375,22.5 107.5,22.5 Q107.1094,22.5 106.8594,22.3281 Q106.6094,22.1563 106.5,21.7031 Q106.4531,21.3906 106.2813,21.2188 Q105.9688,20.8906 105.4063,20.7031 Q104.8438,20.5 104.2813,20.5 Q103.5781,20.5 102.9844,20.7813 Q102.4063,21.0625 101.9531,21.6875 Q101.5,22.3125 101.5,23.1719 L101.5,24.0938 Q101.5,25.125 102.3438,25.8125 Q103.1875,26.5 104.6875,26.5 Q105.5781,26.5 106.2031,26.2969 Q106.5625,26.1875 106.9688,25.8281 Q107.2344,25.625 107.375,25.5625 Q107.5156,25.5 107.6875,25.5 Q108.0156,25.5 108.25,25.7656 Q108.5,26.0156 108.5,26.375 Q108.5,26.7188 108.1563,27.125 Q107.6563,27.7188 106.8594,28.0469 Q105.8125,28.5 104.5313,28.5 Q103.0313,28.5 101.8281,27.9063 Q100.8594,27.4375 100.1719,26.4219 Q99.5,25.4063 99.5,24.2031 L99.5,23.1094 Q99.5,21.8594 100.0938,20.7656 Q100.7031,19.6719 101.75,19.0938 Q102.8125,18.5 104,18.5 Q104.7188,18.5 105.3438,18.75 Q105.9688,19 106.5,19.5 Z " fill="#000000"/><text fill="#000000" font-family="sans-serif" font-size="14" lengthAdjust="spacing" textLength="57" x="119.5" y="28.7285">company</text><line style="stroke:#181818;stroke-width:0.5;" x1="86" x2="183" y1="39" y2="39"/><rect fill="none" height="6" style="stroke:#C82930;stroke-width:1.0;" width="6" x="93" y="47"/><text fill="#000000" font-family="sans-serif" font-size="14" lengthAdjust="spacing" textLength="73" x="105" y="57.5332">designation</text><line style="stroke:#181818;stroke-width:0.5;" x1="86" x2="183" y1="64.6094" y2="64.6094"/></g><!--MD5=[7a31c2b6f9ba1ab733255ce31e30f2fd]
class vaccinationCenter--><g id="elem_vaccinationCenter"><rect codeLine="6" fill="#F1F1F1" height="206.4844" id="vaccinationCenter" rx="2.5" ry="2.5" style="stroke:#181818;stroke-width:0.5;" width="255" x="7" y="151"/><ellipse cx="73.25" cy="167" fill="#ADD1B2" rx="11" ry="11" style="stroke:#181818;stroke-width:1.0;"/><path d="M75.25,163.5 Q75.4531,163 75.6875,162.75 Q75.9219,162.5 76.1875,162.5 Q76.6563,162.5 76.9531,162.7813 Q77.25,163.0625 77.25,163.7188 L77.25,165.2813 Q77.25,165.9375 76.9688,166.2188 Q76.6875,166.5 76.25,166.5 Q75.8594,166.5 75.6094,166.3281 Q75.3594,166.1563 75.25,165.7031 Q75.2031,165.3906 75.0313,165.2188 Q74.7188,164.8906 74.1563,164.7031 Q73.5938,164.5 73.0313,164.5 Q72.3281,164.5 71.7344,164.7813 Q71.1563,165.0625 70.7031,165.6875 Q70.25,166.3125 70.25,167.1719 L70.25,168.0938 Q70.25,169.125 71.0938,169.8125 Q71.9375,170.5 73.4375,170.5 Q74.3281,170.5 74.9531,170.2969 Q75.3125,170.1875 75.7188,169.8281 Q75.9844,169.625 76.125,169.5625 Q76.2656,169.5 76.4375,169.5 Q76.7656,169.5 77,169.7656 Q77.25,170.0156 77.25,170.375 Q77.25,170.7188 76.9063,171.125 Q76.4063,171.7188 75.6094,172.0469 Q74.5625,172.5 73.2813,172.5 Q71.7813,172.5 70.5781,171.9063 Q69.6094,171.4375 68.9219,170.4219 Q68.25,169.4063 68.25,168.2031 L68.25,167.1094 Q68.25,165.8594 68.8438,164.7656 Q69.4531,163.6719 70.5,163.0938 Q71.5625,162.5 72.75,162.5 Q73.4688,162.5 74.0938,162.75 Q74.7188,163 75.25,163.5 Z " fill="#000000"/><text fill="#000000" font-family="sans-serif" font-size="14" lengthAdjust="spacing" textLength="114" x="93.75" y="172.7285">vaccinationCenter</text><line style="stroke:#181818;stroke-width:0.5;" x1="8" x2="261" y1="183" y2="183"/><rect fill="none" height="6" style="stroke:#C82930;stroke-width:1.0;" width="6" x="15" y="191"/><text fill="#000000" font-family="sans-serif" font-size="14" lengthAdjust="spacing" textLength="35" x="27" y="201.5332">name</text><rect fill="none" height="6" style="stroke:#C82930;stroke-width:1.0;" width="6" x="15" y="208.6094"/><text fill="#000000" font-family="sans-serif" font-size="14" lengthAdjust="spacing" textLength="51" x="27" y="219.1426">address</text><rect fill="none" height="6" style="stroke:#C82930;stroke-width:1.0;" width="6" x="15" y="226.2188"/><text fill="#000000" font-family="sans-serif" font-size="14" lengthAdjust="spacing" textLength="92" x="27" y="236.752">phone number</text><rect fill="none" height="6" style="stroke:#C82930;stroke-width:1.0;" width="6" x="15" y="243.8281"/><text fill="#000000" font-family="sans-serif" font-size="14" lengthAdjust="spacing" textLength="93" x="27" y="254.3613">e-mail address</text><rect fill="none" height="6" style="stroke:#C82930;stroke-width:1.0;" width="6" x="15" y="261.4375"/><text fill="#000000" font-family="sans-serif" font-size="14" lengthAdjust="spacing" textLength="70" x="27" y="271.9707">fax number</text><rect fill="none" height="6" style="stroke:#C82930;stroke-width:1.0;" width="6" x="15" y="279.0469"/><text fill="#000000" font-family="sans-serif" font-size="14" lengthAdjust="spacing" textLength="102" x="27" y="289.5801">website address</text><rect fill="none" height="6" style="stroke:#C82930;stroke-width:1.0;" width="6" x="15" y="296.6563"/><text fill="#000000" font-family="sans-serif" font-size="14" lengthAdjust="spacing" textLength="167" x="27" y="307.1895">opening and closing hours</text><rect fill="none" height="6" style="stroke:#C82930;stroke-width:1.0;" width="6" x="15" y="314.2656"/><text fill="#000000" font-family="sans-serif" font-size="14" lengthAdjust="spacing" textLength="78" x="27" y="324.7988">slot duration</text><rect fill="none" height="6" style="stroke:#C82930;stroke-width:1.0;" width="6" x="15" y="331.875"/><text fill="#000000" font-family="sans-serif" font-size="14" lengthAdjust="spacing" textLength="229" x="27" y="342.4082">maximum number of vacines per slot</text><line style="stroke:#181818;stroke-width:0.5;" x1="8" x2="261" y1="349.4844" y2="349.4844"/></g><!--MD5=[b7adf5fded6ae0f0fc921e37e0c777aa]
class typeOfVaccine--><g id="elem_typeOfVaccine"><rect codeLine="17" fill="#F1F1F1" height="65.6094" id="typeOfVaccine" rx="2.5" ry="2.5" style="stroke:#181818;stroke-width:0.5;" width="124" x="72.5" y="435"/><ellipse cx="87.5" cy="451" fill="#ADD1B2" rx="11" ry="11" style="stroke:#181818;stroke-width:1.0;"/><path d="M89.5,447.5 Q89.7031,447 89.9375,446.75 Q90.1719,446.5 90.4375,446.5 Q90.9063,446.5 91.2031,446.7813 Q91.5,447.0625 91.5,447.7188 L91.5,449.2813 Q91.5,449.9375 91.2188,450.2188 Q90.9375,450.5 90.5,450.5 Q90.1094,450.5 89.8594,450.3281 Q89.6094,450.1563 89.5,449.7031 Q89.4531,449.3906 89.2813,449.2188 Q88.9688,448.8906 88.4063,448.7031 Q87.8438,448.5 87.2813,448.5 Q86.5781,448.5 85.9844,448.7813 Q85.4063,449.0625 84.9531,449.6875 Q84.5,450.3125 84.5,451.1719 L84.5,452.0938 Q84.5,453.125 85.3438,453.8125 Q86.1875,454.5 87.6875,454.5 Q88.5781,454.5 89.2031,454.2969 Q89.5625,454.1875 89.9688,453.8281 Q90.2344,453.625 90.375,453.5625 Q90.5156,453.5 90.6875,453.5 Q91.0156,453.5 91.25,453.7656 Q91.5,454.0156 91.5,454.375 Q91.5,454.7188 91.1563,455.125 Q90.6563,455.7188 89.8594,456.0469 Q88.8125,456.5 87.5313,456.5 Q86.0313,456.5 84.8281,455.9063 Q83.8594,455.4375 83.1719,454.4219 Q82.5,453.4063 82.5,452.2031 L82.5,451.1094 Q82.5,449.8594 83.0938,448.7656 Q83.7031,447.6719 84.75,447.0938 Q85.8125,446.5 87,446.5 Q87.7188,446.5 88.3438,446.75 Q88.9688,447 89.5,447.5 Z " fill="#000000"/><text fill="#000000" font-family="sans-serif" font-size="14" lengthAdjust="spacing" textLength="92" x="101.5" y="456.7285">typeOfVaccine</text><line style="stroke:#181818;stroke-width:0.5;" x1="73.5" x2="195.5" y1="467" y2="467"/><rect fill="none" height="6" style="stroke:#C82930;stroke-width:1.0;" width="6" x="80.5" y="475"/><text fill="#000000" font-family="sans-serif" font-size="14" lengthAdjust="spacing" textLength="49" x="92.5" y="485.5332">disease</text><line style="stroke:#181818;stroke-width:0.5;" x1="73.5" x2="195.5" y1="492.6094" y2="492.6094"/></g><!--MD5=[2c17f5b5759ff35156900be3c9a5916f]
link company to vaccinationCenter--><g id="link_company_vaccinationCenter"><path codeLine="22" d="M134.5,73.2 C134.5,94.05 134.5,122.46 134.5,150.54 " fill="none" id="company-vaccinationCenter" style="stroke:#181818;stroke-width:1.0;"/><polygon fill="#000000" points="139.5,117.1758,142.4389,108.1307,136.5611,108.1307,139.5,117.1758" style="stroke:#000000;stroke-width:1.0;"/><text fill="#000000" font-family="sans-serif" font-size="13" lengthAdjust="spacing" textLength="50" x="148.5" y="117.4951">registers</text><text fill="#000000" font-family="sans-serif" font-size="13" lengthAdjust="spacing" textLength="7" x="126.8766" y="94.1">1</text><text fill="#000000" font-family="sans-serif" font-size="13" lengthAdjust="spacing" textLength="5" x="129.3242" y="140.1934">*</text></g><!--MD5=[6edbf727859666a1dfe03c477ca9a548]
link vaccinationCenter to typeOfVaccine--><g id="link_vaccinationCenter_typeOfVaccine"><path codeLine="23" d="M134.5,357.27 C134.5,385.44 134.5,413.96 134.5,434.86 " fill="none" id="vaccinationCenter-typeOfVaccine" style="stroke:#181818;stroke-width:1.0;"/><polygon fill="#000000" points="139.5,401.1758,142.4389,392.1307,136.5611,392.1307,139.5,401.1758" style="stroke:#000000;stroke-width:1.0;"/><text fill="#000000" font-family="sans-serif" font-size="13" lengthAdjust="spacing" textLength="21" x="148.5" y="401.4951">has</text><text fill="#000000" font-family="sans-serif" font-size="13" lengthAdjust="spacing" textLength="5" x="129.3164" y="378.9316">*</text><text fill="#000000" font-family="sans-serif" font-size="13" lengthAdjust="spacing" textLength="7" x="126.7781" y="423.9465">1</text></g><!--MD5=[900606b9387e47eb18e06201a625a3b1]
@startuml
'https://plantuml.com/sequence-diagram

Class company{
-designation
}
Class vaccinationCenter{
-name
-address
-phone number
-e-mail address
-fax number
-website address
-opening and closing hours
-slot duration
-maximum number of vacines per slot
}
Class typeOfVaccine{
-disease
}


company"1"- -"*"vaccinationCenter:registers >
vaccinationCenter"*"- -"1"typeOfVaccine: has >

@enduml

@startuml

Class company{
-designation
}
Class vaccinationCenter{
-name
-address
-phone number
-e-mail address
-fax number
-website address
-opening and closing hours
-slot duration
-maximum number of vacines per slot
}
Class typeOfVaccine{
-disease
}


company"1"- -"*"vaccinationCenter:registers >
vaccinationCenter"*"- -"1"typeOfVaccine: has >

@enduml

PlantUML version 1.2022.4(Sat Apr 09 14:29:17 BST 2022)
(GPL source distribution)
Java Runtime: OpenJDK Runtime Environment
JVM: OpenJDK 64-Bit Server VM
Default Encoding: Cp1252
Language: pt
Country: PT
--></g></svg>