<?xml version="1.0" encoding="UTF-8" standalone="no"?><svg xmlns="http://www.w3.org/2000/svg" xmlns:xlink="http://www.w3.org/1999/xlink" contentScriptType="application/ecmascript" contentStyleType="text/css" height="465px" preserveAspectRatio="none" style="width:748px;height:465px;" version="1.1" viewBox="0 0 748 465" width="748px" zoomAndPan="magnify"><defs><filter height="300%" id="fjpk52nyw8app" width="300%" x="-1" y="-1"><feGaussianBlur result="blurOut" stdDeviation="2.0"/><feColorMatrix in="blurOut" result="blurOut2" type="matrix" values="0 0 0 0 0 0 0 0 0 0 0 0 0 0 0 0 0 0 .4 0"/><feOffset dx="4.0" dy="4.0" in="blurOut2" result="blurOut3"/><feBlend in="SourceGraphic" in2="blurOut3" mode="normal"/></filter></defs><g><!--MD5=[02e4b9b7573f1156f41e60aa5b4e25a4]
class Company--><rect codeLine="5" fill="#FEFECE" filter="url(#fjpk52nyw8app)" height="52.9551" id="Company" style="stroke:#A80036;stroke-width:1.5;" width="86" x="7" y="39.5"/><ellipse cx="22" cy="55.5" fill="#ADD1B2" rx="11" ry="11" style="stroke:#A80036;stroke-width:1.0;"/><path d="M24.4731,61.6431 Q23.8921,61.9419 23.2529,62.0913 Q22.6138,62.2407 21.9082,62.2407 Q19.4014,62.2407 18.0815,60.5889 Q16.7617,58.937 16.7617,55.8159 Q16.7617,52.6865 18.0815,51.0347 Q19.4014,49.3828 21.9082,49.3828 Q22.6138,49.3828 23.2612,49.5322 Q23.9087,49.6816 24.4731,49.9805 L24.4731,52.7031 Q23.8423,52.1221 23.2488,51.8523 Q22.6553,51.5825 22.0244,51.5825 Q20.6797,51.5825 19.9949,52.6492 Q19.3101,53.7158 19.3101,55.8159 Q19.3101,57.9077 19.9949,58.9744 Q20.6797,60.041 22.0244,60.041 Q22.6553,60.041 23.2488,59.7712 Q23.8423,59.5015 24.4731,58.9204 Z " fill="#000000"/><text fill="#000000" font-family="sans-serif" font-size="12" lengthAdjust="spacing" textLength="54" x="36" y="60.0352">Company</text><line style="stroke:#A80036;stroke-width:1.5;" x1="8" x2="92" y1="71.5" y2="71.5"/><text fill="#000000" font-family="sans-serif" font-size="11" lengthAdjust="spacing" textLength="69" x="13" y="86.1348">-designation</text><!--MD5=[1f6362a5c8f21d8d6a0fce68f3a92a4e]
class Parameter--><rect codeLine="9" fill="#FEFECE" filter="url(#fjpk52nyw8app)" height="78.8652" id="Parameter" style="stroke:#A80036;stroke-width:1.5;" width="92" x="43" y="373"/><ellipse cx="58" cy="389" fill="#ADD1B2" rx="11" ry="11" style="stroke:#A80036;stroke-width:1.0;"/><path d="M60.4731,395.1431 Q59.8921,395.4419 59.2529,395.5913 Q58.6138,395.7407 57.9082,395.7407 Q55.4014,395.7407 54.0815,394.0889 Q52.7617,392.437 52.7617,389.3159 Q52.7617,386.1865 54.0815,384.5347 Q55.4014,382.8828 57.9082,382.8828 Q58.6138,382.8828 59.2612,383.0322 Q59.9087,383.1816 60.4731,383.4805 L60.4731,386.2031 Q59.8423,385.6221 59.2488,385.3523 Q58.6553,385.0825 58.0244,385.0825 Q56.6797,385.0825 55.9949,386.1492 Q55.3101,387.2158 55.3101,389.3159 Q55.3101,391.4077 55.9949,392.4744 Q56.6797,393.541 58.0244,393.541 Q58.6553,393.541 59.2488,393.2712 Q59.8423,393.0015 60.4731,392.4204 Z " fill="#000000"/><text fill="#000000" font-family="sans-serif" font-size="12" lengthAdjust="spacing" textLength="60" x="72" y="393.5352">Parameter</text><line style="stroke:#A80036;stroke-width:1.5;" x1="44" x2="134" y1="405" y2="405"/><text fill="#000000" font-family="sans-serif" font-size="11" lengthAdjust="spacing" textLength="32" x="49" y="419.6348">-code</text><text fill="#000000" font-family="sans-serif" font-size="11" lengthAdjust="spacing" textLength="61" x="49" y="432.5898">-shorName</text><text fill="#000000" font-family="sans-serif" font-size="11" lengthAdjust="spacing" textLength="67" x="49" y="445.5449">-description</text><!--MD5=[df38be88ccee13e832d6fafd6288a4ca]
class Test--><rect codeLine="15" fill="#FEFECE" filter="url(#fjpk52nyw8app)" height="78.8652" id="Test" style="stroke:#A80036;stroke-width:1.5;" width="70" x="200" y="26.5"/><ellipse cx="220.85" cy="42.5" fill="#ADD1B2" rx="11" ry="11" style="stroke:#A80036;stroke-width:1.0;"/><path d="M223.3231,48.6431 Q222.7421,48.9419 222.1029,49.0913 Q221.4638,49.2407 220.7582,49.2407 Q218.2514,49.2407 216.9315,47.5889 Q215.6117,45.937 215.6117,42.8159 Q215.6117,39.6865 216.9315,38.0347 Q218.2514,36.3828 220.7582,36.3828 Q221.4638,36.3828 222.1112,36.5322 Q222.7587,36.6816 223.3231,36.9805 L223.3231,39.7031 Q222.6923,39.1221 222.0988,38.8523 Q221.5053,38.5825 220.8744,38.5825 Q219.5297,38.5825 218.8449,39.6492 Q218.1601,40.7158 218.1601,42.8159 Q218.1601,44.9077 218.8449,45.9744 Q219.5297,47.041 220.8744,47.041 Q221.5053,47.041 222.0988,46.7712 Q222.6923,46.5015 223.3231,45.9204 Z " fill="#000000"/><text fill="#000000" font-family="sans-serif" font-size="12" lengthAdjust="spacing" textLength="25" x="236.15" y="47.0352">Test</text><line style="stroke:#A80036;stroke-width:1.5;" x1="201" x2="269" y1="58.5" y2="58.5"/><text fill="#000000" font-family="sans-serif" font-size="11" lengthAdjust="spacing" textLength="32" x="206" y="73.1348">-code</text><text fill="#000000" font-family="sans-serif" font-size="11" lengthAdjust="spacing" textLength="55" x="206" y="86.0898">-NhsCode</text><text fill="#000000" font-family="sans-serif" font-size="11" lengthAdjust="spacing" textLength="58" x="206" y="99.0449">-createdAt</text><!--MD5=[0f07739f46effee96e095e9c408da841]
class TestParameter--><rect codeLine="22" fill="#FEFECE" filter="url(#fjpk52nyw8app)" height="40" id="TestParameter" style="stroke:#A80036;stroke-width:1.5;" width="117" x="199.5" y="236.5"/><ellipse cx="214.5" cy="252.5" fill="#ADD1B2" rx="11" ry="11" style="stroke:#A80036;stroke-width:1.0;"/><path d="M216.9731,258.6431 Q216.3921,258.9419 215.7529,259.0913 Q215.1138,259.2407 214.4082,259.2407 Q211.9014,259.2407 210.5815,257.5889 Q209.2617,255.937 209.2617,252.8159 Q209.2617,249.6865 210.5815,248.0347 Q211.9014,246.3828 214.4082,246.3828 Q215.1138,246.3828 215.7612,246.5322 Q216.4087,246.6816 216.9731,246.9805 L216.9731,249.7031 Q216.3423,249.1221 215.7488,248.8523 Q215.1553,248.5825 214.5244,248.5825 Q213.1797,248.5825 212.4949,249.6492 Q211.8101,250.7158 211.8101,252.8159 Q211.8101,254.9077 212.4949,255.9744 Q213.1797,257.041 214.5244,257.041 Q215.1553,257.041 215.7488,256.7712 Q216.3423,256.5015 216.9731,255.9204 Z " fill="#000000"/><text fill="#000000" font-family="sans-serif" font-size="12" lengthAdjust="spacing" textLength="85" x="228.5" y="257.0352">TestParameter</text><line style="stroke:#A80036;stroke-width:1.5;" x1="200.5" x2="315.5" y1="268.5" y2="268.5"/><!--MD5=[4e608140b854dae633589343bce77383]
class TestParameterResult--><rect codeLine="25" fill="#FEFECE" filter="url(#fjpk52nyw8app)" height="78.8652" id="TestParameterResult" style="stroke:#A80036;stroke-width:1.5;" width="152" x="420" y="217"/><ellipse cx="435" cy="233" fill="#ADD1B2" rx="11" ry="11" style="stroke:#A80036;stroke-width:1.0;"/><path d="M437.4731,239.1431 Q436.8921,239.4419 436.2529,239.5913 Q435.6138,239.7407 434.9082,239.7407 Q432.4014,239.7407 431.0815,238.0889 Q429.7617,236.437 429.7617,233.3159 Q429.7617,230.1865 431.0815,228.5347 Q432.4014,226.8828 434.9082,226.8828 Q435.6138,226.8828 436.2612,227.0322 Q436.9087,227.1816 437.4731,227.4805 L437.4731,230.2031 Q436.8423,229.6221 436.2488,229.3523 Q435.6553,229.0825 435.0244,229.0825 Q433.6797,229.0825 432.9949,230.1492 Q432.3101,231.2158 432.3101,233.3159 Q432.3101,235.4077 432.9949,236.4744 Q433.6797,237.541 435.0244,237.541 Q435.6553,237.541 436.2488,237.2712 Q436.8423,237.0015 437.4731,236.4204 Z " fill="#000000"/><text fill="#000000" font-family="sans-serif" font-size="12" lengthAdjust="spacing" textLength="120" x="449" y="237.5352">TestParameterResult</text><line style="stroke:#A80036;stroke-width:1.5;" x1="421" x2="571" y1="249" y2="249"/><text fill="#000000" font-family="sans-serif" font-size="11" lengthAdjust="spacing" textLength="58" x="426" y="263.6348">-createdAt</text><text fill="#000000" font-family="sans-serif" font-size="11" lengthAdjust="spacing" textLength="34" x="426" y="276.5898">-value</text><text fill="#000000" font-family="sans-serif" font-size="11" lengthAdjust="spacing" textLength="40" x="426" y="289.5449">-metric</text><!--MD5=[1c357e7e7fdba398bcadd6e61afe49f5]
class ReferenceValue--><rect codeLine="31" fill="#FEFECE" filter="url(#fjpk52nyw8app)" height="78.8652" id="ReferenceValue" style="stroke:#A80036;stroke-width:1.5;" width="122" x="435" y="373"/><ellipse cx="450" cy="389" fill="#ADD1B2" rx="11" ry="11" style="stroke:#A80036;stroke-width:1.0;"/><path d="M452.4731,395.1431 Q451.8921,395.4419 451.2529,395.5913 Q450.6138,395.7407 449.9082,395.7407 Q447.4014,395.7407 446.0815,394.0889 Q444.7617,392.437 444.7617,389.3159 Q444.7617,386.1865 446.0815,384.5347 Q447.4014,382.8828 449.9082,382.8828 Q450.6138,382.8828 451.2612,383.0322 Q451.9087,383.1816 452.4731,383.4805 L452.4731,386.2031 Q451.8423,385.6221 451.2488,385.3523 Q450.6553,385.0825 450.0244,385.0825 Q448.6797,385.0825 447.9949,386.1492 Q447.3101,387.2158 447.3101,389.3159 Q447.3101,391.4077 447.9949,392.4744 Q448.6797,393.541 450.0244,393.541 Q450.6553,393.541 451.2488,393.2712 Q451.8423,393.0015 452.4731,392.4204 Z " fill="#000000"/><text fill="#000000" font-family="sans-serif" font-size="12" lengthAdjust="spacing" textLength="90" x="464" y="393.5352">ReferenceValue</text><line style="stroke:#A80036;stroke-width:1.5;" x1="436" x2="556" y1="405" y2="405"/><text fill="#000000" font-family="sans-serif" font-size="11" lengthAdjust="spacing" textLength="55" x="441" y="419.6348">-minValue</text><text fill="#000000" font-family="sans-serif" font-size="11" lengthAdjust="spacing" textLength="58" x="441" y="432.5898">-maxValue</text><text fill="#000000" font-family="sans-serif" font-size="11" lengthAdjust="spacing" textLength="40" x="441" y="445.5449">-metric</text><!--MD5=[f61f25a4c924aea49782a3614f4b4835]
class DiagnosisReport--><rect codeLine="37" fill="#FEFECE" filter="url(#fjpk52nyw8app)" height="65.9102" id="DiagnosisReport" style="stroke:#A80036;stroke-width:1.5;" width="126" x="413" y="33"/><ellipse cx="428" cy="49" fill="#ADD1B2" rx="11" ry="11" style="stroke:#A80036;stroke-width:1.0;"/><path d="M430.4731,55.1431 Q429.8921,55.4419 429.2529,55.5913 Q428.6138,55.7407 427.9082,55.7407 Q425.4014,55.7407 424.0815,54.0889 Q422.7617,52.437 422.7617,49.3159 Q422.7617,46.1865 424.0815,44.5347 Q425.4014,42.8828 427.9082,42.8828 Q428.6138,42.8828 429.2612,43.0322 Q429.9087,43.1816 430.4731,43.4805 L430.4731,46.2031 Q429.8423,45.6221 429.2488,45.3523 Q428.6553,45.0825 428.0244,45.0825 Q426.6797,45.0825 425.9949,46.1492 Q425.3101,47.2158 425.3101,49.3159 Q425.3101,51.4077 425.9949,52.4744 Q426.6797,53.541 428.0244,53.541 Q428.6553,53.541 429.2488,53.2712 Q429.8423,53.0015 430.4731,52.4204 Z " fill="#000000"/><text fill="#000000" font-family="sans-serif" font-size="12" lengthAdjust="spacing" textLength="94" x="442" y="53.5352">DiagnosisReport</text><line style="stroke:#A80036;stroke-width:1.5;" x1="414" x2="538" y1="65" y2="65"/><text fill="#000000" font-family="sans-serif" font-size="11" lengthAdjust="spacing" textLength="58" x="419" y="79.6348">-createdAt</text><text fill="#000000" font-family="sans-serif" font-size="11" lengthAdjust="spacing" textLength="63" x="419" y="92.5898">-textReport</text><!--MD5=[7421f545a0d8420c5bec41e74b387d9c]
class Employee--><rect codeLine="44" fill="#FEFECE" filter="url(#fjpk52nyw8app)" height="117.7305" id="Employee" style="stroke:#A80036;stroke-width:1.5;" width="95" x="623.5" y="7"/><ellipse cx="641.65" cy="23" fill="#ADD1B2" rx="11" ry="11" style="stroke:#A80036;stroke-width:1.0;"/><path d="M644.1231,29.1431 Q643.5421,29.4419 642.9029,29.5913 Q642.2638,29.7407 641.5582,29.7407 Q639.0514,29.7407 637.7315,28.0889 Q636.4117,26.437 636.4117,23.3159 Q636.4117,20.1865 637.7315,18.5347 Q639.0514,16.8828 641.5582,16.8828 Q642.2638,16.8828 642.9112,17.0322 Q643.5587,17.1816 644.1231,17.4805 L644.1231,20.2031 Q643.4923,19.6221 642.8988,19.3523 Q642.3053,19.0825 641.6744,19.0825 Q640.3297,19.0825 639.6449,20.1492 Q638.9601,21.2158 638.9601,23.3159 Q638.9601,25.4077 639.6449,26.4744 Q640.3297,27.541 641.6744,27.541 Q642.3053,27.541 642.8988,27.2712 Q643.4923,27.0015 644.1231,26.4204 Z " fill="#000000"/><text fill="#000000" font-family="sans-serif" font-size="12" lengthAdjust="spacing" textLength="56" x="656.35" y="27.5352">Employee</text><line style="stroke:#A80036;stroke-width:1.5;" x1="624.5" x2="717.5" y1="39" y2="39"/><text fill="#000000" font-family="sans-serif" font-size="11" lengthAdjust="spacing" textLength="16" x="629.5" y="53.6348">-id</text><text fill="#000000" font-family="sans-serif" font-size="11" lengthAdjust="spacing" textLength="35" x="629.5" y="66.5898">-name</text><text fill="#000000" font-family="sans-serif" font-size="11" lengthAdjust="spacing" textLength="49" x="629.5" y="79.5449">-address</text><text fill="#000000" font-family="sans-serif" font-size="11" lengthAdjust="spacing" textLength="83" x="629.5" y="92.5">-phoneNumber</text><text fill="#000000" font-family="sans-serif" font-size="11" lengthAdjust="spacing" textLength="79" x="629.5" y="105.4551">-emailAddress</text><text fill="#000000" font-family="sans-serif" font-size="11" lengthAdjust="spacing" textLength="53" x="629.5" y="118.4102">-socCode</text><!--MD5=[7d96fd15f3014691d2fcaf89c5791e2a]
class SpecialistDoctor--><rect codeLine="53" fill="#FEFECE" filter="url(#fjpk52nyw8app)" height="52.9551" id="SpecialistDoctor" style="stroke:#A80036;stroke-width:1.5;" width="127" x="607.5" y="230"/><ellipse cx="624.3" cy="246" fill="#ADD1B2" rx="11" ry="11" style="stroke:#A80036;stroke-width:1.0;"/><path d="M626.7731,252.1431 Q626.1921,252.4419 625.5529,252.5913 Q624.9138,252.7407 624.2082,252.7407 Q621.7014,252.7407 620.3815,251.0889 Q619.0617,249.437 619.0617,246.3159 Q619.0617,243.1865 620.3815,241.5347 Q621.7014,239.8828 624.2082,239.8828 Q624.9138,239.8828 625.5612,240.0322 Q626.2087,240.1816 626.7731,240.4805 L626.7731,243.2031 Q626.1423,242.6221 625.5488,242.3523 Q624.9553,242.0825 624.3244,242.0825 Q622.9797,242.0825 622.2949,243.1492 Q621.6101,244.2158 621.6101,246.3159 Q621.6101,248.4077 622.2949,249.4744 Q622.9797,250.541 624.3244,250.541 Q624.9553,250.541 625.5488,250.2712 Q626.1423,250.0015 626.7731,249.4204 Z " fill="#000000"/><text fill="#000000" font-family="sans-serif" font-size="12" lengthAdjust="spacing" textLength="91" x="638.7" y="250.5352">SpecialistDoctor</text><line style="stroke:#A80036;stroke-width:1.5;" x1="608.5" x2="733.5" y1="262" y2="262"/><text fill="#000000" font-family="sans-serif" font-size="11" lengthAdjust="spacing" textLength="115" x="613.5" y="276.6348">-doctorIndexNumber</text><ellipse cx="162" cy="256.5" fill="#000000" rx="2" ry="2" style="stroke:none;stroke-width:1.0;"/><!--MD5=[7e4bc624457760b649895ff2ead938fa]
link Company to Test--><path codeLine="57" d="M93.37,66 C125.84,66 169.68,66 199.94,66 " fill="none" id="Company-Test" style="stroke:#A80036;stroke-width:1.0;"/><polygon fill="#000000" points="120.5,54.6553,111.4549,51.7163,111.4549,57.5942,120.5,54.6553" style="stroke:#000000;stroke-width:1.0;"/><text fill="#000000" font-family="sans-serif" font-size="13" lengthAdjust="spacing" textLength="57" x="124.5" y="59.5684">performs</text><text fill="#000000" font-family="sans-serif" font-size="13" lengthAdjust="spacing" textLength="8" x="100.9196" y="62.4014">1</text><text fill="#000000" font-family="sans-serif" font-size="13" lengthAdjust="spacing" textLength="6" x="186.0901" y="62.0674">*</text><!--MD5=[12d76240d3c3c66074d4ec2ea8bf469c]
link Company to Parameter--><path codeLine="58" d="M50.94,92.51 C52.72,134.91 57.3,222.49 67,296 C70.4,321.8 75.87,350.55 80.51,372.91 " fill="none" id="Company-Parameter" style="stroke:#A80036;stroke-width:1.0;"/><text fill="#000000" font-family="sans-serif" font-size="13" lengthAdjust="spacing" textLength="65" x="72" y="254.0684">capable of</text><polygon fill="#000000" points="73.5244,269.4382,75.4985,260.1348,69.6531,260.7513,73.5244,269.4382" style="stroke:#000000;stroke-width:1.0;"/><text fill="#000000" font-family="sans-serif" font-size="13" lengthAdjust="spacing" textLength="60" x="81" y="269.3789">analysing</text><text fill="#000000" font-family="sans-serif" font-size="13" lengthAdjust="spacing" textLength="8" x="42.2324" y="112.9843">1</text><text fill="#000000" font-family="sans-serif" font-size="13" lengthAdjust="spacing" textLength="6" x="72.4633" y="362.1301">*</text><!--MD5=[ef7d9ddeb00a1c217bf4f9d2b935cdc5]
link Test to apoint9985--><path d="M220.05,105.6 C200.03,157.3 166.53,243.81 162.42,254.42 " fill="none" id="Test-apoint9985" style="stroke:#A80036;stroke-width:1.0;"/><text fill="#000000" font-family="sans-serif" font-size="13" lengthAdjust="spacing" textLength="54" x="215.5" y="168.5684">requests</text><polygon fill="#000000" points="205.1944,183.6284,211.2014,176.255,205.7201,174.1324,205.1944,183.6284" style="stroke:#000000;stroke-width:1.0;"/><text fill="#000000" font-family="sans-serif" font-size="13" lengthAdjust="spacing" textLength="68" x="215" y="183.8789">analysis of</text><text fill="#000000" font-family="sans-serif" font-size="13" lengthAdjust="spacing" textLength="6" x="211.077" y="126.0062">*</text><!--MD5=[a378a7f954c4357bc01f6fdacca101be]
link apoint9985 to Parameter--><path d="M161.53,258.48 C157.45,267.09 127.49,330.3 107.37,372.74 " fill="none" id="apoint9985-Parameter" style="stroke:#A80036;stroke-width:1.0;"/><text fill="#000000" font-family="sans-serif" font-size="13" lengthAdjust="spacing" textLength="22" x="86.6367" y="362.2238">1..*</text><!--MD5=[989821dd16d7f2a44fc44e2ff6b5ed30]
link apoint9985 to TestParameter--><path d="M164.25,256.5 C175.97,256.5 187.69,256.5 199.41,256.5 " fill="none" id="apoint9985-TestParameter" style="stroke:#A80036;stroke-width:1.0;stroke-dasharray:7.0,7.0;"/><!--MD5=[0e00e25ac6b8c14659aaff2cf7e5df08]
link TestParameter to TestParameterResult--><path codeLine="62" d="M316.53,256.5 C347.63,256.5 386.25,256.5 419.68,256.5 " fill="none" id="TestParameter-TestParameterResult" style="stroke:#A80036;stroke-width:1.0;"/><polygon fill="#000000" points="343.75,245.1553,334.7049,242.2163,334.7049,248.0942,343.75,245.1553" style="stroke:#000000;stroke-width:1.0;"/><text fill="#000000" font-family="sans-serif" font-size="13" lengthAdjust="spacing" textLength="54" x="347.75" y="250.0684">contains</text><text fill="#000000" font-family="sans-serif" font-size="13" lengthAdjust="spacing" textLength="8" x="324.5417" y="253.1273">1</text><text fill="#000000" font-family="sans-serif" font-size="13" lengthAdjust="spacing" textLength="24" x="388.09" y="269.732">0..1</text><!--MD5=[52200cc2361fa0ac0481dd6ffcdb824b]
link TestParameterResult to ReferenceValue--><path codeLine="64" d="M496,296.36 C496,319.8 496,349.53 496,372.92 " fill="none" id="TestParameterResult-ReferenceValue" style="stroke:#A80036;stroke-width:1.0;"/><polygon fill="#000000" points="501,339.6553,503.9389,330.6102,498.0611,330.6102,501,339.6553" style="stroke:#000000;stroke-width:1.0;"/><text fill="#000000" font-family="sans-serif" font-size="13" lengthAdjust="spacing" textLength="47" x="510" y="339.5684">records</text><text fill="#000000" font-family="sans-serif" font-size="13" lengthAdjust="spacing" textLength="8" x="487.3625" y="316.5118">1</text><text fill="#000000" font-family="sans-serif" font-size="13" lengthAdjust="spacing" textLength="24" x="469.8625" y="362.1419">0..1</text><!--MD5=[5fda545c79585d17c4a435a79f76ac33]
link Test to DiagnosisReport--><path codeLine="66" d="M270.04,66 C307.38,66 367.27,66 412.86,66 " fill="none" id="Test-DiagnosisReport" style="stroke:#A80036;stroke-width:1.0;"/><polygon fill="#000000" points="322,54.6553,312.9549,51.7163,312.9549,57.5942,322,54.6553" style="stroke:#000000;stroke-width:1.0;"/><text fill="#000000" font-family="sans-serif" font-size="13" lengthAdjust="spacing" textLength="44" x="326" y="59.5684">origins</text><text fill="#000000" font-family="sans-serif" font-size="13" lengthAdjust="spacing" textLength="8" x="278.092" y="62.0674">1</text><text fill="#000000" font-family="sans-serif" font-size="13" lengthAdjust="spacing" textLength="24" x="381.1112" y="62.8156">0..1</text><!--MD5=[e509fed78cd7f855333fe9c80fc7ea15]
link DiagnosisReport to SpecialistDoctor--><path codeLine="69" d="M506.84,99.07 C530.59,123.52 564.42,157.85 595,187 C610.17,201.46 627.5,217.15 641.78,229.85 " fill="none" id="DiagnosisReport-SpecialistDoctor" style="stroke:#A80036;stroke-width:1.0;"/><polygon fill="#000000" points="603.5904,174.635,599.1406,166.2297,595.0499,170.4505,603.5904,174.635" style="stroke:#000000;stroke-width:1.0;"/><text fill="#000000" font-family="sans-serif" font-size="13" lengthAdjust="spacing" textLength="53" x="609" y="176.0684">made by</text><text fill="#000000" font-family="sans-serif" font-size="13" lengthAdjust="spacing" textLength="6" x="506.147" y="119.4102">*</text><text fill="#000000" font-family="sans-serif" font-size="13" lengthAdjust="spacing" textLength="8" x="625.6826" y="219.1376">1</text><!--MD5=[dad08633360fb9f059c0c4df7f2e8d04]
link Employee to SpecialistDoctor--><path codeLine="71" d="M671,125.09 C671,160.14 671,203.05 671,229.84 " fill="none" id="Employee-SpecialistDoctor" style="stroke:#A80036;stroke-width:1.0;"/><polygon fill="#000000" points="676,176.1553,678.9389,167.1102,673.0611,167.1102,676,176.1553" style="stroke:#000000;stroke-width:1.0;"/><text fill="#000000" font-family="sans-serif" font-size="13" lengthAdjust="spacing" textLength="51" x="685" y="176.0684">plays as</text><text fill="#000000" font-family="sans-serif" font-size="13" lengthAdjust="spacing" textLength="8" x="662.5375" y="145.3914">1</text><text fill="#000000" font-family="sans-serif" font-size="13" lengthAdjust="spacing" textLength="24" x="644.075" y="219.1252">0..1</text><!--MD5=[3fe18bcb2bc78b31e5c5183fa1a0076c]
@startuml

skinparam classAttributeIconSize 0
hide methods

class Company {
-designation
}

class Parameter {
-code
-shorName
-description
}

class Test {
-code
-NhsCode
-createdAt
}


class TestParameter {
}

class TestParameterResult {
-createdAt
-value
-metric
}

class ReferenceValue {
-minValue
-maxValue
-metric
}

class DiagnosisReport {
-createdAt
-textReport
}



class Employee {
-id
-name
-address
-phoneNumber
-emailAddress
-socCode
}

class SpecialistDoctor {
-doctorIndexNumber
}

Company "1" -right- "*" Test: performs >
Company "1" -down- "*" Parameter : capable of\nanalysing >

Test "*" -down- "1..*" Parameter : requests\nanalysis of >
(Test,Parameter) .. TestParameter
TestParameter "1" -right- "0..1" TestParameterResult: contains >

TestParameterResult "1" - - "0..1" ReferenceValue : records >

Test "1" -right- "0..1" DiagnosisReport : origins >


DiagnosisReport "*" - - "1" SpecialistDoctor: made by >

Employee "1" - - "0..1" SpecialistDoctor: plays as >

@enduml

PlantUML version 1.2021.5(Sun Apr 25 12:20:28 WEST 2021)
(GPL source distribution)
Java Runtime: OpenJDK Runtime Environment
JVM: Dynamic Code Evolution 64-Bit Server VM
Default Encoding: UTF-8
Language: en
Country: PT
--></g></svg>