<?xml version="1.0" encoding="UTF-8" standalone="no"?><svg xmlns="http://www.w3.org/2000/svg" xmlns:xlink="http://www.w3.org/1999/xlink" contentScriptType="application/ecmascript" contentStyleType="text/css" height="1148px" preserveAspectRatio="none" style="width:778px;height:1148px;" version="1.1" viewBox="0 0 778 1148" width="778px" zoomAndPan="magnify"><defs><filter height="300%" id="f1blshf7ap7072" width="300%" x="-1" y="-1"><feGaussianBlur result="blurOut" stdDeviation="2.0"/><feColorMatrix in="blurOut" result="blurOut2" type="matrix" values="0 0 0 0 0 0 0 0 0 0 0 0 0 0 0 0 0 0 .4 0"/><feOffset dx="4.0" dy="4.0" in="blurOut2" result="blurOut3"/><feBlend in="SourceGraphic" in2="blurOut3" mode="normal"/></filter></defs><g><!--MD5=[02e4b9b7573f1156f41e60aa5b4e25a4]
class Company--><rect codeLine="5" fill="#FEFECE" filter="url(#f1blshf7ap7072)" height="52.9551" id="Company" style="stroke:#A80036;stroke-width:1.5;" width="86" x="62.5437" y="543.5"/><ellipse cx="77.5437" cy="559.5" fill="#ADD1B2" rx="11" ry="11" style="stroke:#A80036;stroke-width:1.0;"/><path d="M80.0168,565.6431 Q79.4358,565.9419 78.7966,566.0913 Q78.1575,566.2407 77.4519,566.2407 Q74.9451,566.2407 73.6252,564.5889 Q72.3054,562.937 72.3054,559.8159 Q72.3054,556.6865 73.6252,555.0347 Q74.9451,553.3828 77.4519,553.3828 Q78.1575,553.3828 78.8049,553.5322 Q79.4524,553.6816 80.0168,553.9805 L80.0168,556.7031 Q79.386,556.1221 78.7925,555.8523 Q78.199,555.5825 77.5681,555.5825 Q76.2234,555.5825 75.5386,556.6492 Q74.8538,557.7158 74.8538,559.8159 Q74.8538,561.9077 75.5386,562.9744 Q76.2234,564.041 77.5681,564.041 Q78.199,564.041 78.7925,563.7712 Q79.386,563.5015 80.0168,562.9204 Z " fill="#000000"/><text fill="#000000" font-family="sans-serif" font-size="12" lengthAdjust="spacing" textLength="54" x="91.5437" y="564.0352">Company</text><line style="stroke:#A80036;stroke-width:1.5;" x1="63.5437" x2="147.5437" y1="575.5" y2="575.5"/><text fill="#000000" font-family="sans-serif" font-size="11" lengthAdjust="spacing" textLength="69" x="68.5437" y="590.1348">-designation</text><!--MD5=[0caf3a413731a0de34fc6162fe213ed9]
class Laboratory--><rect codeLine="9" fill="#FEFECE" filter="url(#f1blshf7ap7072)" height="91.8203" id="Laboratory" style="stroke:#A80036;stroke-width:1.5;" width="141" x="57.0437" y="342"/><ellipse cx="93.1937" cy="358" fill="#ADD1B2" rx="11" ry="11" style="stroke:#A80036;stroke-width:1.0;"/><path d="M95.6668,364.1431 Q95.0858,364.4419 94.4466,364.5913 Q93.8075,364.7407 93.1019,364.7407 Q90.5951,364.7407 89.2752,363.0889 Q87.9554,361.437 87.9554,358.3159 Q87.9554,355.1865 89.2752,353.5347 Q90.5951,351.8828 93.1019,351.8828 Q93.8075,351.8828 94.4549,352.0322 Q95.1024,352.1816 95.6668,352.4805 L95.6668,355.2031 Q95.036,354.6221 94.4425,354.3523 Q93.849,354.0825 93.2181,354.0825 Q91.8734,354.0825 91.1886,355.1492 Q90.5038,356.2158 90.5038,358.3159 Q90.5038,360.4077 91.1886,361.4744 Q91.8734,362.541 93.2181,362.541 Q93.849,362.541 94.4425,362.2712 Q95.036,362.0015 95.6668,361.4204 Z " fill="#000000"/><text fill="#000000" font-family="sans-serif" font-size="12" lengthAdjust="spacing" textLength="62" x="111.8937" y="362.5352">Laboratory</text><line style="stroke:#A80036;stroke-width:1.5;" x1="58.0437" x2="197.0437" y1="374" y2="374"/><text fill="#000000" font-family="sans-serif" font-size="11" lengthAdjust="spacing" textLength="35" x="63.0437" y="388.6348">-name</text><text fill="#000000" font-family="sans-serif" font-size="11" lengthAdjust="spacing" textLength="49" x="63.0437" y="401.5898">-address</text><text fill="#000000" font-family="sans-serif" font-size="11" lengthAdjust="spacing" textLength="83" x="63.0437" y="414.5449">-phoneNumber</text><text fill="#000000" font-family="sans-serif" font-size="11" lengthAdjust="spacing" textLength="129" x="63.0437" y="427.5">-taxIdenticationNumber</text><!--MD5=[1934a092c0e7d4da7dc7075b6f4b6b03]
class ClinicalAnalysisLaboratory--><rect codeLine="16" fill="#FEFECE" filter="url(#f1blshf7ap7072)" height="52.9551" id="ClinicalAnalysisLaboratory" style="stroke:#A80036;stroke-width:1.5;" width="180" x="165.5437" y="202"/><ellipse cx="180.5437" cy="218" fill="#ADD1B2" rx="11" ry="11" style="stroke:#A80036;stroke-width:1.0;"/><path d="M183.0168,224.1431 Q182.4358,224.4419 181.7966,224.5913 Q181.1575,224.7407 180.4519,224.7407 Q177.9451,224.7407 176.6252,223.0889 Q175.3054,221.437 175.3054,218.3159 Q175.3054,215.1865 176.6252,213.5347 Q177.9451,211.8828 180.4519,211.8828 Q181.1575,211.8828 181.8049,212.0322 Q182.4524,212.1816 183.0168,212.4805 L183.0168,215.2031 Q182.386,214.6221 181.7925,214.3523 Q181.199,214.0825 180.5681,214.0825 Q179.2234,214.0825 178.5386,215.1492 Q177.8538,216.2158 177.8538,218.3159 Q177.8538,220.4077 178.5386,221.4744 Q179.2234,222.541 180.5681,222.541 Q181.199,222.541 181.7925,222.2712 Q182.386,222.0015 183.0168,221.4204 Z " fill="#000000"/><text fill="#000000" font-family="sans-serif" font-size="12" lengthAdjust="spacing" textLength="148" x="194.5437" y="222.5352">ClinicalAnalysisLaboratory</text><line style="stroke:#A80036;stroke-width:1.5;" x1="166.5437" x2="344.5437" y1="234" y2="234"/><text fill="#000000" font-family="sans-serif" font-size="11" lengthAdjust="spacing" textLength="16" x="171.5437" y="248.6348">-id</text><!--MD5=[1f6362a5c8f21d8d6a0fce68f3a92a4e]
class Parameter--><rect codeLine="21" fill="#FEFECE" filter="url(#f1blshf7ap7072)" height="78.8652" id="Parameter" style="stroke:#A80036;stroke-width:1.5;" width="92" x="156.5437" y="1056"/><ellipse cx="171.5437" cy="1072" fill="#ADD1B2" rx="11" ry="11" style="stroke:#A80036;stroke-width:1.0;"/><path d="M174.0168,1078.1431 Q173.4358,1078.4419 172.7966,1078.5913 Q172.1575,1078.7407 171.4519,1078.7407 Q168.9451,1078.7407 167.6252,1077.0889 Q166.3054,1075.437 166.3054,1072.3159 Q166.3054,1069.1865 167.6252,1067.5347 Q168.9451,1065.8828 171.4519,1065.8828 Q172.1575,1065.8828 172.8049,1066.0322 Q173.4524,1066.1816 174.0168,1066.4805 L174.0168,1069.2031 Q173.386,1068.6221 172.7925,1068.3523 Q172.199,1068.0825 171.5681,1068.0825 Q170.2234,1068.0825 169.5386,1069.1492 Q168.8538,1070.2158 168.8538,1072.3159 Q168.8538,1074.4077 169.5386,1075.4744 Q170.2234,1076.541 171.5681,1076.541 Q172.199,1076.541 172.7925,1076.2712 Q173.386,1076.0015 174.0168,1075.4204 Z " fill="#000000"/><text fill="#000000" font-family="sans-serif" font-size="12" lengthAdjust="spacing" textLength="60" x="185.5437" y="1076.5352">Parameter</text><line style="stroke:#A80036;stroke-width:1.5;" x1="157.5437" x2="247.5437" y1="1088" y2="1088"/><text fill="#000000" font-family="sans-serif" font-size="11" lengthAdjust="spacing" textLength="32" x="162.5437" y="1102.6348">-code</text><text fill="#000000" font-family="sans-serif" font-size="11" lengthAdjust="spacing" textLength="61" x="162.5437" y="1115.5898">-shorName</text><text fill="#000000" font-family="sans-serif" font-size="11" lengthAdjust="spacing" textLength="67" x="162.5437" y="1128.5449">-description</text><!--MD5=[36afb6bbd95a8ac778c4537c55a683d5]
class ParameterCategory--><rect codeLine="27" fill="#FEFECE" filter="url(#f1blshf7ap7072)" height="65.9102" id="ParameterCategory" style="stroke:#A80036;stroke-width:1.5;" width="143" x="131.0437" y="851"/><ellipse cx="146.0437" cy="867" fill="#ADD1B2" rx="11" ry="11" style="stroke:#A80036;stroke-width:1.0;"/><path d="M148.5168,873.1431 Q147.9358,873.4419 147.2966,873.5913 Q146.6575,873.7407 145.9519,873.7407 Q143.4451,873.7407 142.1252,872.0889 Q140.8054,870.437 140.8054,867.3159 Q140.8054,864.1865 142.1252,862.5347 Q143.4451,860.8828 145.9519,860.8828 Q146.6575,860.8828 147.3049,861.0322 Q147.9524,861.1816 148.5168,861.4805 L148.5168,864.2031 Q147.886,863.6221 147.2925,863.3523 Q146.699,863.0825 146.0681,863.0825 Q144.7234,863.0825 144.0386,864.1492 Q143.3538,865.2158 143.3538,867.3159 Q143.3538,869.4077 144.0386,870.4744 Q144.7234,871.541 146.0681,871.541 Q146.699,871.541 147.2925,871.2712 Q147.886,871.0015 148.5168,870.4204 Z " fill="#000000"/><text fill="#000000" font-family="sans-serif" font-size="12" lengthAdjust="spacing" textLength="111" x="160.0437" y="871.5352">ParameterCategory</text><line style="stroke:#A80036;stroke-width:1.5;" x1="132.0437" x2="273.0437" y1="883" y2="883"/><text fill="#000000" font-family="sans-serif" font-size="11" lengthAdjust="spacing" textLength="32" x="137.0437" y="897.6348">-code</text><text fill="#000000" font-family="sans-serif" font-size="11" lengthAdjust="spacing" textLength="35" x="137.0437" y="910.5898">-name</text><!--MD5=[df38be88ccee13e832d6fafd6288a4ca]
class Test--><rect codeLine="32" fill="#FEFECE" filter="url(#f1blshf7ap7072)" height="65.9102" id="Test" style="stroke:#A80036;stroke-width:1.5;" width="70" x="414.5437" y="537"/><ellipse cx="435.3937" cy="553" fill="#ADD1B2" rx="11" ry="11" style="stroke:#A80036;stroke-width:1.0;"/><path d="M437.8668,559.1431 Q437.2858,559.4419 436.6466,559.5913 Q436.0075,559.7407 435.3019,559.7407 Q432.7951,559.7407 431.4752,558.0889 Q430.1554,556.437 430.1554,553.3159 Q430.1554,550.1865 431.4752,548.5347 Q432.7951,546.8828 435.3019,546.8828 Q436.0075,546.8828 436.6549,547.0322 Q437.3024,547.1816 437.8668,547.4805 L437.8668,550.2031 Q437.236,549.6221 436.6425,549.3523 Q436.049,549.0825 435.4181,549.0825 Q434.0734,549.0825 433.3886,550.1492 Q432.7038,551.2158 432.7038,553.3159 Q432.7038,555.4077 433.3886,556.4744 Q434.0734,557.541 435.4181,557.541 Q436.049,557.541 436.6425,557.2712 Q437.236,557.0015 437.8668,556.4204 Z " fill="#000000"/><text fill="#000000" font-family="sans-serif" font-size="12" lengthAdjust="spacing" textLength="25" x="450.6937" y="557.5352">Test</text><line style="stroke:#A80036;stroke-width:1.5;" x1="415.5437" x2="483.5437" y1="569" y2="569"/><text fill="#000000" font-family="sans-serif" font-size="11" lengthAdjust="spacing" textLength="32" x="420.5437" y="583.6348">-code</text><text fill="#000000" font-family="sans-serif" font-size="11" lengthAdjust="spacing" textLength="58" x="420.5437" y="596.5898">-createdAt</text><!--MD5=[aeb3272166074d8737a70b61b1e71682]
class TestType--><rect codeLine="37" fill="#FEFECE" filter="url(#f1blshf7ap7072)" height="78.8652" id="TestType" style="stroke:#A80036;stroke-width:1.5;" width="110" x="197.5437" y="680"/><ellipse cx="223.3437" cy="696" fill="#ADD1B2" rx="11" ry="11" style="stroke:#A80036;stroke-width:1.0;"/><path d="M225.8168,702.1431 Q225.2358,702.4419 224.5966,702.5913 Q223.9575,702.7407 223.2519,702.7407 Q220.7451,702.7407 219.4252,701.0889 Q218.1054,699.437 218.1054,696.3159 Q218.1054,693.1865 219.4252,691.5347 Q220.7451,689.8828 223.2519,689.8828 Q223.9575,689.8828 224.6049,690.0322 Q225.2524,690.1816 225.8168,690.4805 L225.8168,693.2031 Q225.186,692.6221 224.5925,692.3523 Q223.999,692.0825 223.3681,692.0825 Q222.0234,692.0825 221.3386,693.1492 Q220.6538,694.2158 220.6538,696.3159 Q220.6538,698.4077 221.3386,699.4744 Q222.0234,700.541 223.3681,700.541 Q223.999,700.541 224.5925,700.2712 Q225.186,700.0015 225.8168,699.4204 Z " fill="#000000"/><text fill="#000000" font-family="sans-serif" font-size="12" lengthAdjust="spacing" textLength="54" x="239.7437" y="700.5352">TestType</text><line style="stroke:#A80036;stroke-width:1.5;" x1="198.5437" x2="306.5437" y1="712" y2="712"/><text fill="#000000" font-family="sans-serif" font-size="11" lengthAdjust="spacing" textLength="32" x="203.5437" y="726.6348">-code</text><text fill="#000000" font-family="sans-serif" font-size="11" lengthAdjust="spacing" textLength="67" x="203.5437" y="739.5898">-description</text><text fill="#000000" font-family="sans-serif" font-size="11" lengthAdjust="spacing" textLength="98" x="203.5437" y="752.5449">-collectionMethod</text><!--MD5=[0f07739f46effee96e095e9c408da841]
class TestParameter--><rect codeLine="43" fill="#FEFECE" filter="url(#f1blshf7ap7072)" height="40" id="TestParameter" style="stroke:#A80036;stroke-width:1.5;" width="117" x="415.0437" y="864"/><ellipse cx="430.0437" cy="880" fill="#ADD1B2" rx="11" ry="11" style="stroke:#A80036;stroke-width:1.0;"/><path d="M432.5168,886.1431 Q431.9358,886.4419 431.2966,886.5913 Q430.6575,886.7407 429.9519,886.7407 Q427.4451,886.7407 426.1252,885.0889 Q424.8054,883.437 424.8054,880.3159 Q424.8054,877.1865 426.1252,875.5347 Q427.4451,873.8828 429.9519,873.8828 Q430.6575,873.8828 431.3049,874.0322 Q431.9524,874.1816 432.5168,874.4805 L432.5168,877.2031 Q431.886,876.6221 431.2925,876.3523 Q430.699,876.0825 430.0681,876.0825 Q428.7234,876.0825 428.0386,877.1492 Q427.3538,878.2158 427.3538,880.3159 Q427.3538,882.4077 428.0386,883.4744 Q428.7234,884.541 430.0681,884.541 Q430.699,884.541 431.2925,884.2712 Q431.886,884.0015 432.5168,883.4204 Z " fill="#000000"/><text fill="#000000" font-family="sans-serif" font-size="12" lengthAdjust="spacing" textLength="85" x="444.0437" y="884.5352">TestParameter</text><line style="stroke:#A80036;stroke-width:1.5;" x1="416.0437" x2="531.0437" y1="896" y2="896"/><!--MD5=[ed6624c6556d5e7b1bd23032162d20b7]
class Client--><rect codeLine="47" fill="#FEFECE" filter="url(#f1blshf7ap7072)" height="143.6406" id="Client" style="stroke:#A80036;stroke-width:1.5;" width="141" x="309.0437" y="316"/><ellipse cx="359.2937" cy="332" fill="#ADD1B2" rx="11" ry="11" style="stroke:#A80036;stroke-width:1.0;"/><path d="M361.7668,338.1431 Q361.1858,338.4419 360.5466,338.5913 Q359.9075,338.7407 359.2019,338.7407 Q356.6951,338.7407 355.3752,337.0889 Q354.0554,335.437 354.0554,332.3159 Q354.0554,329.1865 355.3752,327.5347 Q356.6951,325.8828 359.2019,325.8828 Q359.9075,325.8828 360.5549,326.0322 Q361.2024,326.1816 361.7668,326.4805 L361.7668,329.2031 Q361.136,328.6221 360.5425,328.3523 Q359.949,328.0825 359.3181,328.0825 Q357.9734,328.0825 357.2886,329.1492 Q356.6038,330.2158 356.6038,332.3159 Q356.6038,334.4077 357.2886,335.4744 Q357.9734,336.541 359.3181,336.541 Q359.949,336.541 360.5425,336.2712 Q361.136,336.0015 361.7668,335.4204 Z " fill="#000000"/><text fill="#000000" font-family="sans-serif" font-size="12" lengthAdjust="spacing" textLength="32" x="379.7937" y="336.5352">Client</text><line style="stroke:#A80036;stroke-width:1.5;" x1="310.0437" x2="449.0437" y1="348" y2="348"/><text fill="#000000" font-family="sans-serif" font-size="11" lengthAdjust="spacing" textLength="110" x="315.0437" y="362.6348">-citizenCardNumber</text><text fill="#000000" font-family="sans-serif" font-size="11" lengthAdjust="spacing" textLength="35" x="315.0437" y="375.5898">-name</text><text fill="#000000" font-family="sans-serif" font-size="11" lengthAdjust="spacing" textLength="69" x="315.0437" y="388.5449">-nhsNumber</text><text fill="#000000" font-family="sans-serif" font-size="11" lengthAdjust="spacing" textLength="56" x="315.0437" y="401.5">-birthDate</text><text fill="#000000" font-family="sans-serif" font-size="11" lengthAdjust="spacing" textLength="25" x="315.0437" y="414.4551">-sex</text><text fill="#000000" font-family="sans-serif" font-size="11" lengthAdjust="spacing" textLength="129" x="315.0437" y="427.4102">-taxIdenticationNumber</text><text fill="#000000" font-family="sans-serif" font-size="11" lengthAdjust="spacing" textLength="83" x="315.0437" y="440.3652">-phoneNumber</text><text fill="#000000" font-family="sans-serif" font-size="11" lengthAdjust="spacing" textLength="79" x="315.0437" y="453.3203">-emailAddress</text><!--MD5=[a999c1570c205a2156b04a15307bc1ff]
class LabOrder--><rect codeLine="58" fill="#FEFECE" filter="url(#f1blshf7ap7072)" height="52.9551" id="LabOrder" style="stroke:#A80036;stroke-width:1.5;" width="87" x="498.0437" y="693"/><ellipse cx="513.0437" cy="709" fill="#ADD1B2" rx="11" ry="11" style="stroke:#A80036;stroke-width:1.0;"/><path d="M515.5168,715.1431 Q514.9358,715.4419 514.2966,715.5913 Q513.6575,715.7407 512.9519,715.7407 Q510.4451,715.7407 509.1252,714.0889 Q507.8054,712.437 507.8054,709.3159 Q507.8054,706.1865 509.1252,704.5347 Q510.4451,702.8828 512.9519,702.8828 Q513.6575,702.8828 514.3049,703.0322 Q514.9524,703.1816 515.5168,703.4805 L515.5168,706.2031 Q514.886,705.6221 514.2925,705.3523 Q513.699,705.0825 513.0681,705.0825 Q511.7234,705.0825 511.0386,706.1492 Q510.3538,707.2158 510.3538,709.3159 Q510.3538,711.4077 511.0386,712.4744 Q511.7234,713.541 513.0681,713.541 Q513.699,713.541 514.2925,713.2712 Q514.886,713.0015 515.5168,712.4204 Z " fill="#000000"/><text fill="#000000" font-family="sans-serif" font-size="12" lengthAdjust="spacing" textLength="55" x="527.0437" y="713.5352">LabOrder</text><line style="stroke:#A80036;stroke-width:1.5;" x1="499.0437" x2="584.0437" y1="725" y2="725"/><text fill="#000000" font-family="sans-serif" font-size="11" lengthAdjust="spacing" textLength="55" x="504.0437" y="739.6348">-NhsCode</text><!--MD5=[7421f545a0d8420c5bec41e74b387d9c]
class Employee--><rect codeLine="63" fill="#FEFECE" filter="url(#f1blshf7ap7072)" height="117.7305" id="Employee" style="stroke:#A80036;stroke-width:1.5;" width="95" x="637.0437" y="7"/><ellipse cx="655.1937" cy="23" fill="#ADD1B2" rx="11" ry="11" style="stroke:#A80036;stroke-width:1.0;"/><path d="M657.6668,29.1431 Q657.0858,29.4419 656.4466,29.5913 Q655.8075,29.7407 655.1019,29.7407 Q652.5951,29.7407 651.2752,28.0889 Q649.9554,26.437 649.9554,23.3159 Q649.9554,20.1865 651.2752,18.5347 Q652.5951,16.8828 655.1019,16.8828 Q655.8075,16.8828 656.4549,17.0322 Q657.1024,17.1816 657.6668,17.4805 L657.6668,20.2031 Q657.036,19.6221 656.4425,19.3523 Q655.849,19.0825 655.2181,19.0825 Q653.8734,19.0825 653.1886,20.1492 Q652.5038,21.2158 652.5038,23.3159 Q652.5038,25.4077 653.1886,26.4744 Q653.8734,27.541 655.2181,27.541 Q655.849,27.541 656.4425,27.2712 Q657.036,27.0015 657.6668,26.4204 Z " fill="#000000"/><text fill="#000000" font-family="sans-serif" font-size="12" lengthAdjust="spacing" textLength="56" x="669.8937" y="27.5352">Employee</text><line style="stroke:#A80036;stroke-width:1.5;" x1="638.0437" x2="731.0437" y1="39" y2="39"/><text fill="#000000" font-family="sans-serif" font-size="11" lengthAdjust="spacing" textLength="16" x="643.0437" y="53.6348">-id</text><text fill="#000000" font-family="sans-serif" font-size="11" lengthAdjust="spacing" textLength="35" x="643.0437" y="66.5898">-name</text><text fill="#000000" font-family="sans-serif" font-size="11" lengthAdjust="spacing" textLength="49" x="643.0437" y="79.5449">-address</text><text fill="#000000" font-family="sans-serif" font-size="11" lengthAdjust="spacing" textLength="83" x="643.0437" y="92.5">-phoneNumber</text><text fill="#000000" font-family="sans-serif" font-size="11" lengthAdjust="spacing" textLength="79" x="643.0437" y="105.4551">-emailAddress</text><text fill="#000000" font-family="sans-serif" font-size="11" lengthAdjust="spacing" textLength="53" x="643.0437" y="118.4102">-socCode</text><!--MD5=[03960189e81aa2c066c762ffabbee709]
class Receptionist--><rect codeLine="73" fill="#FEFECE" filter="url(#f1blshf7ap7072)" height="40" id="Receptionist" style="stroke:#A80036;stroke-width:1.5;" width="102" x="633.5437" y="208.5"/><ellipse cx="648.5437" cy="224.5" fill="#ADD1B2" rx="11" ry="11" style="stroke:#A80036;stroke-width:1.0;"/><path d="M651.0168,230.6431 Q650.4358,230.9419 649.7966,231.0913 Q649.1575,231.2407 648.4519,231.2407 Q645.9451,231.2407 644.6252,229.5889 Q643.3054,227.937 643.3054,224.8159 Q643.3054,221.6865 644.6252,220.0347 Q645.9451,218.3828 648.4519,218.3828 Q649.1575,218.3828 649.8049,218.5322 Q650.4524,218.6816 651.0168,218.9805 L651.0168,221.7031 Q650.386,221.1221 649.7925,220.8523 Q649.199,220.5825 648.5681,220.5825 Q647.2234,220.5825 646.5386,221.6492 Q645.8538,222.7158 645.8538,224.8159 Q645.8538,226.9077 646.5386,227.9744 Q647.2234,229.041 648.5681,229.041 Q649.199,229.041 649.7925,228.7712 Q650.386,228.5015 651.0168,227.9204 Z " fill="#000000"/><text fill="#000000" font-family="sans-serif" font-size="12" lengthAdjust="spacing" textLength="70" x="662.5437" y="229.0352">Receptionist</text><line style="stroke:#A80036;stroke-width:1.5;" x1="634.5437" x2="734.5437" y1="240.5" y2="240.5"/><ellipse cx="377.5437" cy="884" fill="#000000" rx="2" ry="2" style="stroke:none;stroke-width:1.0;"/><!--MD5=[0468c29d471e955935592eb8f20885af]
link Laboratory to Company--><path codeLine="77" d="M121.9937,434.42 C117.7837,468.89 112.1337,515.04 108.6737,543.36 " fill="none" id="Laboratory-Company" style="stroke:#A80036;stroke-width:1.0;"/><polygon fill="#000000" points="121.1505,493.6922,117.1356,502.3138,122.97,503.0271,121.1505,493.6922" style="stroke:#000000;stroke-width:1.0;"/><text fill="#000000" font-family="sans-serif" font-size="13" lengthAdjust="spacing" textLength="33" x="129.5437" y="503.5684">owns</text><text fill="#000000" font-family="sans-serif" font-size="13" lengthAdjust="spacing" textLength="6" x="114.8448" y="454.2668">*</text><text fill="#000000" font-family="sans-serif" font-size="13" lengthAdjust="spacing" textLength="8" x="100.4616" y="532.6501">1</text><!--MD5=[7e4bc624457760b649895ff2ead938fa]
link Company to Test--><path codeLine="78" d="M148.7637,570 C217.5137,570 350.5037,570 414.0537,570 " fill="none" id="Company-Test" style="stroke:#A80036;stroke-width:1.0;"/><polygon fill="#000000" points="255.5437,558.6553,246.4986,555.7163,246.4986,561.5942,255.5437,558.6553" style="stroke:#000000;stroke-width:1.0;"/><text fill="#000000" font-family="sans-serif" font-size="13" lengthAdjust="spacing" textLength="57" x="259.5437" y="563.5684">performs</text><text fill="#000000" font-family="sans-serif" font-size="13" lengthAdjust="spacing" textLength="8" x="156.5845" y="566.3556">1</text><text fill="#000000" font-family="sans-serif" font-size="13" lengthAdjust="spacing" textLength="6" x="400.476" y="566.1312">*</text><!--MD5=[742a261f27a3dcd734c626287d811acd]
link Company to TestType--><path codeLine="79" d="M118.7537,596.58 C127.9737,612.96 141.3237,634.06 156.5437,650 C168.5637,662.59 183.1837,674.37 197.3537,684.49 " fill="none" id="Company-TestType" style="stroke:#A80036;stroke-width:1.0;"/><polygon fill="#000000" points="164.8763,645.3827,161.0384,636.6809,156.6566,640.5986,164.8763,645.3827" style="stroke:#000000;stroke-width:1.0;"/><text fill="#000000" font-family="sans-serif" font-size="13" lengthAdjust="spacing" textLength="58" x="170.5437" y="646.5684">conducts</text><text fill="#000000" font-family="sans-serif" font-size="13" lengthAdjust="spacing" textLength="8" x="112.8835" y="617.0705">1</text><text fill="#000000" font-family="sans-serif" font-size="13" lengthAdjust="spacing" textLength="6" x="183.5344" y="676.376">*</text><!--MD5=[93b4f25fb503a8e0e9a46b1d30ff3f44]
link Company to ParameterCategory--><path codeLine="80" d="M103.8337,596.75 C102.2337,633.74 102.4437,703.56 121.5437,759 C133.3137,793.16 156.5637,827.17 175.1437,850.91 " fill="none" id="Company-ParameterCategory" style="stroke:#A80036;stroke-width:1.0;"/><polygon fill="#000000" points="127.8944,724.4694,128.2806,714.9667,122.6213,716.5545,127.8944,724.4694" style="stroke:#000000;stroke-width:1.0;"/><text fill="#000000" font-family="sans-serif" font-size="13" lengthAdjust="spacing" textLength="43" x="135.5437" y="724.5684">adopts</text><text fill="#000000" font-family="sans-serif" font-size="13" lengthAdjust="spacing" textLength="8" x="94.5846" y="616.8494">1</text><text fill="#000000" font-family="sans-serif" font-size="13" lengthAdjust="spacing" textLength="6" x="162.8737" y="840.148">*</text><!--MD5=[12d76240d3c3c66074d4ec2ea8bf469c]
link Company to Parameter--><path codeLine="81" d="M77.1937,596.53 C50.1537,623.81 13.5437,669.76 13.5437,718.5 C13.5437,718.5 13.5437,718.5 13.5437,987.5 C13.5437,1052.92 100.3537,1078.81 156.3137,1088.71 " fill="none" id="Company-Parameter" style="stroke:#A80036;stroke-width:1.0;"/><text fill="#000000" font-family="sans-serif" font-size="13" lengthAdjust="spacing" textLength="65" x="18.5437" y="881.5684">capable of</text><polygon fill="#000000" points="20.3373,896.9024,21.8033,887.5056,16,888.4385,20.3373,896.9024" style="stroke:#000000;stroke-width:1.0;"/><text fill="#000000" font-family="sans-serif" font-size="13" lengthAdjust="spacing" textLength="60" x="27.5437" y="896.8789">analysing</text><text fill="#000000" font-family="sans-serif" font-size="13" lengthAdjust="spacing" textLength="8" x="61.7128" y="617.0089">1</text><text fill="#000000" font-family="sans-serif" font-size="13" lengthAdjust="spacing" textLength="6" x="142.4677" y="1084.0364">*</text><!--MD5=[7a9e3e328fb1db48284e23a673c1e60d]
link ParameterCategory to Parameter--><path codeLine="82" d="M202.5437,917.28 C202.5437,954.58 202.5437,1015.93 202.5437,1055.77 " fill="none" id="ParameterCategory-Parameter" style="stroke:#A80036;stroke-width:1.0;"/><polygon fill="#000000" points="207.5437,981.6553,204.6048,990.7004,210.4826,990.7004,207.5437,981.6553" style="stroke:#000000;stroke-width:1.0;"/><text fill="#000000" font-family="sans-serif" font-size="13" lengthAdjust="spacing" textLength="102" x="216.5437" y="991.5684">presented under</text><text fill="#000000" font-family="sans-serif" font-size="13" lengthAdjust="spacing" textLength="8" x="193.8062" y="937.4041">1</text><text fill="#000000" font-family="sans-serif" font-size="13" lengthAdjust="spacing" textLength="6" x="196.0281" y="1045.259">*</text><!--MD5=[8aaf0efd5e2f3824be7ea3e488dcc283]
link TestType to ParameterCategory--><path codeLine="85" d="M238.5037,759.11 C235.1137,768.82 231.5937,779.26 228.5437,789 C222.1737,809.36 215.7737,832.45 210.9137,850.65 " fill="none" id="TestType-ParameterCategory" style="stroke:#0000FF;stroke-width:1.0;"/><text fill="#000000" font-family="sans-serif" font-size="13" lengthAdjust="spacing" textLength="79" x="251.5437" y="802.5684">can measure</text><polygon fill="#000000" points="233.1008,817.7531,238.5249,809.9409,232.8971,808.2447,233.1008,817.7531" style="stroke:#000000;stroke-width:1.0;"/><text fill="#000000" font-family="sans-serif" font-size="13" lengthAdjust="spacing" textLength="110" x="242.5437" y="817.8789">parameters under</text><text fill="#000000" font-family="sans-serif" font-size="13" lengthAdjust="spacing" textLength="8" x="227.5158" y="779.5178">1</text><text fill="#000000" font-family="sans-serif" font-size="13" lengthAdjust="spacing" textLength="22" x="188.3959" y="840.2154">1..*</text><!--MD5=[2eb961b30663a01bbfd8b4b9b8950031]
link ClinicalAnalysisLaboratory to TestType--><path codeLine="87" d="M255.3837,255.1 C254.8937,335.57 253.3737,583.75 252.7837,679.9 " fill="none" id="ClinicalAnalysisLaboratory-TestType" style="stroke:#A80036;stroke-width:1.0;"/><polygon fill="#000000" points="259.5131,503.6552,262.5073,494.6283,256.6296,494.5923,259.5131,503.6552" style="stroke:#000000;stroke-width:1.0;"/><text fill="#000000" font-family="sans-serif" font-size="13" lengthAdjust="spacing" textLength="58" x="268.5437" y="503.5684">conducts</text><text fill="#000000" font-family="sans-serif" font-size="13" lengthAdjust="spacing" textLength="6" x="248.6529" y="275.5951">*</text><text fill="#000000" font-family="sans-serif" font-size="13" lengthAdjust="spacing" textLength="6" x="246.2921" y="669.1183">*</text><!--MD5=[6d0dfcacb99e5b6ea3de933623cb0bd1]
link ClinicalAnalysisLaboratory to Laboratory--><path codeLine="88" d="M234.6937,255.16 C219.0637,274.39 197.0037,301.54 176.9537,326.2 " fill="none" id="ClinicalAnalysisLaboratory-to-Laboratory" style="stroke:#A80036;stroke-width:1.0;"/><polygon fill="none" points="182.2137,330.83,164.1637,341.94,171.3437,322,182.2137,330.83" style="stroke:#A80036;stroke-width:1.0;"/><!--MD5=[e981d4f96c4342412d1e68160b30cf70]
link Test to TestType--><path codeLine="91" d="M414.3137,580.71 C384.2837,590.3 341.2337,607.3 310.5437,633 C295.2837,645.78 282.3437,663.55 272.5937,679.59 " fill="none" id="Test-TestType" style="stroke:#A80036;stroke-width:1.0;"/><polygon fill="#000000" points="311.4431,644.5163,320.5428,641.7509,317.1795,636.9304,311.4431,644.5163" style="stroke:#000000;stroke-width:1.0;"/><text fill="#000000" font-family="sans-serif" font-size="13" lengthAdjust="spacing" textLength="28" x="324.5437" y="646.5684">is of</text><text fill="#000000" font-family="sans-serif" font-size="13" lengthAdjust="spacing" textLength="6" x="400.4288" y="597.0755">*</text><text fill="#000000" font-family="sans-serif" font-size="13" lengthAdjust="spacing" textLength="8" x="267.252" y="669.343">1</text><!--MD5=[502b51bc079239060389dab43b7d3470]
link Client to Test--><path codeLine="92" d="M384.7837,460.04 C387.6337,475.96 391.9737,492.44 398.5437,507 C403.3037,517.54 410.3337,527.77 417.6737,536.77 " fill="none" id="Client-Test" style="stroke:#A80036;stroke-width:1.0;"/><polygon fill="#000000" points="401.5738,494.0597,402.4361,503.5311,407.8386,501.2153,401.5738,494.0597" style="stroke:#000000;stroke-width:1.0;"/><text fill="#000000" font-family="sans-serif" font-size="13" lengthAdjust="spacing" textLength="81" x="412.5437" y="503.5684">requested by</text><text fill="#000000" font-family="sans-serif" font-size="13" lengthAdjust="spacing" textLength="8" x="376.9019" y="480.2214">1</text><text fill="#000000" font-family="sans-serif" font-size="13" lengthAdjust="spacing" textLength="6" x="404.8087" y="526.3591">*</text><!--MD5=[d480452e7d21fe720ba0207568bc7434]
link ClinicalAnalysisLaboratory to Test--><path codeLine="93" d="M345.8037,245.32 C388.8937,257.49 437.4937,278.83 467.5437,316 C521.6137,382.88 526.7737,425.76 498.5437,507 C494.8537,517.63 488.4937,527.81 481.5637,536.74 " fill="none" id="ClinicalAnalysisLaboratory-Test" style="stroke:#A80036;stroke-width:1.0;"/><polygon fill="#000000" points="518.4323,383.623,519.5878,393.0631,524.9159,390.5809,518.4323,383.623" style="stroke:#000000;stroke-width:1.0;"/><text fill="#000000" font-family="sans-serif" font-size="13" lengthAdjust="spacing" textLength="79" x="529.5437" y="393.0684">registered at</text><text fill="#000000" font-family="sans-serif" font-size="13" lengthAdjust="spacing" textLength="8" x="353.6096" y="243.6749">1</text><text fill="#000000" font-family="sans-serif" font-size="13" lengthAdjust="spacing" textLength="6" x="481.277" y="526.3231">*</text><!--MD5=[7ae31b06ecb5db678e40497ee74dd179]
link Test to LabOrder--><path codeLine="94" d="M469.5037,603.01 C486.3137,629.95 510.0337,667.98 525.5937,692.93 " fill="none" id="Test-LabOrder" style="stroke:#A80036;stroke-width:1.0;"/><polygon fill="#000000" points="506.19,645.8976,503.8964,636.6677,498.9092,639.7786,506.19,645.8976" style="stroke:#000000;stroke-width:1.0;"/><text fill="#000000" font-family="sans-serif" font-size="13" lengthAdjust="spacing" textLength="82" x="512.5437" y="646.5684">prescribed in</text><text fill="#000000" font-family="sans-serif" font-size="13" lengthAdjust="spacing" textLength="8" x="464.6458" y="623.5932">1</text><text fill="#000000" font-family="sans-serif" font-size="13" lengthAdjust="spacing" textLength="8" x="512.7309" y="682.2371">1</text><!--MD5=[e8b34c2e6517a986175307f5599f058a]
link Receptionist to Test--><path codeLine="95" d="M683.4137,248.79 C680.0537,291.08 667.0037,393.44 617.5437,460 C583.2237,506.19 523.0637,538.21 484.8137,555.08 " fill="none" id="Receptionist-Test" style="stroke:#A80036;stroke-width:1.0;"/><polygon fill="#000000" points="682.2639,383.96,674.8771,389.9504,679.8089,393.1482,682.2639,383.96" style="stroke:#000000;stroke-width:1.0;"/><text fill="#000000" font-family="sans-serif" font-size="13" lengthAdjust="spacing" textLength="82" x="688.5437" y="393.0684">registered by</text><text fill="#000000" font-family="sans-serif" font-size="13" lengthAdjust="spacing" textLength="8" x="673.9709" y="269.218">1</text><text fill="#000000" font-family="sans-serif" font-size="13" lengthAdjust="spacing" textLength="6" x="492.7069" y="548.0655">*</text><!--MD5=[1d5d0931e7fdc1fbd65efbf42c021ec4]
link Test to apoint9430--><path d="M430.5037,603.23 C418.9737,624.34 405.0837,652.93 397.5437,680 C374.7337,761.88 377.1137,868.65 377.5037,881.68 " fill="none" id="Test-apoint9430" style="stroke:#A80036;stroke-width:1.0;"/><text fill="#000000" font-family="sans-serif" font-size="13" lengthAdjust="spacing" textLength="54" x="412.0437" y="717.0684">requests</text><polygon fill="#000000" points="402.6088,732.3776,407.1871,724.0416,401.413,722.9425,402.6088,732.3776" style="stroke:#000000;stroke-width:1.0;"/><text fill="#000000" font-family="sans-serif" font-size="13" lengthAdjust="spacing" textLength="68" x="411.5437" y="732.3789">analysis of</text><text fill="#000000" font-family="sans-serif" font-size="13" lengthAdjust="spacing" textLength="6" x="420.3023" y="623.6007">*</text><!--MD5=[9198086511392fd405ddcd3242c983e0]
link apoint9430 to Parameter--><path d="M377.2337,886.19 C374.7937,895.42 357.9937,955.97 327.5437,995 C305.7037,1022.99 274.4537,1047.87 248.6637,1065.74 " fill="none" id="apoint9430-Parameter" style="stroke:#A80036;stroke-width:1.0;"/><text fill="#000000" font-family="sans-serif" font-size="13" lengthAdjust="spacing" textLength="22" x="256.6962" y="1058.1">1..*</text><!--MD5=[0bb567373dfeb0f5ff7514fa27da760c]
link apoint9430 to TestParameter--><path d="M379.7937,884 C391.5137,884 403.2337,884 414.9537,884 " fill="none" id="apoint9430-TestParameter" style="stroke:#A80036;stroke-width:1.0;stroke-dasharray:7.0,7.0;"/><!--MD5=[1da12df22706e73e1def33b218b7f412]
link Employee to Receptionist--><path codeLine="102" d="M684.5437,125.4 C684.5437,154.62 684.5437,188.02 684.5437,208.43 " fill="none" id="Employee-Receptionist" style="stroke:#A80036;stroke-width:1.0;"/><polygon fill="#000000" points="689.5437,168.6553,692.4826,159.6102,686.6048,159.6102,689.5437,168.6553" style="stroke:#000000;stroke-width:1.0;"/><text fill="#000000" font-family="sans-serif" font-size="13" lengthAdjust="spacing" textLength="51" x="698.5437" y="168.5684">plays as</text><text fill="#000000" font-family="sans-serif" font-size="13" lengthAdjust="spacing" textLength="8" x="676.1062" y="145.3173">1</text><text fill="#000000" font-family="sans-serif" font-size="13" lengthAdjust="spacing" textLength="24" x="656.8687" y="197.6026">0..1</text><!--MD5=[a6a19edf5e580e95d7852f9e366bbd88]
@startuml

skinparam classAttributeIconSize 0
hide methods

class Company {
-designation
}

class Laboratory {
-name
-address
-phoneNumber
-taxIdenticationNumber
}

class ClinicalAnalysisLaboratory{
-id
}


class Parameter {
-code
-shorName
-description
}

class ParameterCategory {
-code
-name
}

class Test {
-code
-createdAt
}

class TestType {
-code
-description
-collectionMethod
}

class TestParameter {
}


class Client {
-citizenCardNumber
-name
-nhsNumber
-birthDate
-sex
-taxIdenticationNumber
-phoneNumber
-emailAddress
}

class LabOrder {
-NhsCode
}


class Employee {
-id
-name
-address
-phoneNumber
-emailAddress
-socCode
}


class Receptionist {

}

Company "1" -up- "*" Laboratory : owns >
Company "1" -right- "*" Test: performs >
Company "1" -right- "*" TestType: conducts >
Company "1" - - - "*" ParameterCategory : adopts >
Company "1" -down- "*" Parameter : capable of\nanalysing >
Parameter "*" -up- "1" ParameterCategory : presented under >


TestType "1" -right[#blue]- "1..*" ParameterCategory : can measure\nparameters under >

ClinicalAnalysisLaboratory "*" - - "*" TestType: conducts >
ClinicalAnalysisLaboratory - -|>Laboratory


Test "*" - - "1" TestType : is of >
Test "*" -up- "1" Client: requested by >
Test "*" -up- "1" ClinicalAnalysisLaboratory: registered at >
Test "1" - - "1" LabOrder:  prescribed in >
Test "*" - -up- "1" Receptionist : registered by >

Test "*" -down- - "1..*" Parameter : requests\nanalysis of >
(Test,Parameter) .. TestParameter



Employee "1" - - "0..1" Receptionist: plays as >

@enduml

PlantUML version 1.2021.5(Sun Apr 25 12:20:28 WEST 2021)
(GPL source distribution)
Java Runtime: OpenJDK Runtime Environment
JVM: Dynamic Code Evolution 64-Bit Server VM
Default Encoding: UTF-8
Language: en
Country: PT
--></g></svg>