<?xml version="1.0" encoding="UTF-8" standalone="no"?><svg xmlns="http://www.w3.org/2000/svg" xmlns:xlink="http://www.w3.org/1999/xlink" contentStyleType="text/css" height="536px" preserveAspectRatio="none" style="width:410px;height:536px;background:#FFFFFF;" version="1.1" viewBox="0 0 410 536" width="410px" zoomAndPan="magnify"><defs/><g><rect fill="#FFFFFF" height="353.2188" style="stroke:#181818;stroke-width:1.0;" width="10" x="79" y="92.6094"/><rect fill="#FFFFFF" height="30.3516" style="stroke:#181818;stroke-width:1.0;" width="10" x="357" y="114.9609"/><rect fill="#FFFFFF" height="46.7031" style="stroke:#181818;stroke-width:1.0;" width="10" x="357" y="175.6641"/><rect fill="#FFFFFF" height="55.7031" style="stroke:#181818;stroke-width:1.0;" width="10" x="357" y="252.7188"/><rect fill="#FFFFFF" height="30.3516" style="stroke:#181818;stroke-width:1.0;" width="10" x="357" y="338.7734"/><rect fill="#FFFFFF" height="37.3516" style="stroke:#181818;stroke-width:1.0;" width="10" x="357" y="399.4766"/><rect height="139.7578" style="stroke:#000000;stroke-width:1.5;fill:none;" width="394" x="10" y="267.7188"/><line style="stroke:#181818;stroke-width:0.5;fill:none;stroke-dasharray:5.0,5.0;" x1="84" x2="84" y1="82.6094" y2="454.8281"/><line style="stroke:#181818;stroke-width:0.5;fill:none;stroke-dasharray:5.0,5.0;" x1="362" x2="362" y1="82.6094" y2="454.8281"/><text fill="#000000" font-family="sans-serif" font-size="14" lengthAdjust="spacing" textLength="122" x="20" y="79.5332">Center Coordinator</text><ellipse cx="84" cy="13.5" fill="#E2E2F0" rx="8" ry="8" style="stroke:#181818;stroke-width:0.5;"/><path d="M84,21.5 L84,48.5 M71,29.5 L97,29.5 M84,48.5 L71,63.5 M84,48.5 L97,63.5 " fill="none" style="stroke:#181818;stroke-width:0.5;"/><text fill="#000000" font-family="sans-serif" font-size="14" lengthAdjust="spacing" textLength="122" x="20" y="468.3613">Center Coordinator</text><ellipse cx="84" cy="479.9375" fill="#E2E2F0" rx="8" ry="8" style="stroke:#181818;stroke-width:0.5;"/><path d="M84,487.9375 L84,514.9375 M71,495.9375 L97,495.9375 M84,514.9375 L71,529.9375 M84,514.9375 L97,529.9375 " fill="none" style="stroke:#181818;stroke-width:0.5;"/><rect fill="#E2E2F0" height="31.6094" rx="2.5" ry="2.5" style="stroke:#181818;stroke-width:0.5;" width="64" x="330" y="50"/><text fill="#000000" font-family="sans-serif" font-size="14" lengthAdjust="spacing" textLength="50" x="337" y="71.5332">:System</text><rect fill="#E2E2F0" height="31.6094" rx="2.5" ry="2.5" style="stroke:#181818;stroke-width:0.5;" width="64" x="330" y="453.8281"/><text fill="#000000" font-family="sans-serif" font-size="14" lengthAdjust="spacing" textLength="50" x="337" y="475.3613">:System</text><rect fill="#FFFFFF" height="353.2188" style="stroke:#181818;stroke-width:1.0;" width="10" x="79" y="92.6094"/><rect fill="#FFFFFF" height="30.3516" style="stroke:#181818;stroke-width:1.0;" width="10" x="357" y="114.9609"/><rect fill="#FFFFFF" height="46.7031" style="stroke:#181818;stroke-width:1.0;" width="10" x="357" y="175.6641"/><rect fill="#FFFFFF" height="55.7031" style="stroke:#181818;stroke-width:1.0;" width="10" x="357" y="252.7188"/><rect fill="#FFFFFF" height="30.3516" style="stroke:#181818;stroke-width:1.0;" width="10" x="357" y="338.7734"/><rect fill="#FFFFFF" height="37.3516" style="stroke:#181818;stroke-width:1.0;" width="10" x="357" y="399.4766"/><polygon fill="#181818" points="345,110.9609,355,114.9609,345,118.9609,349,114.9609" style="stroke:#181818;stroke-width:1.0;"/><line style="stroke:#181818;stroke-width:1.0;" x1="89" x2="351" y1="114.9609" y2="114.9609"/><text fill="#000000" font-family="sans-serif" font-size="13" font-weight="bold" lengthAdjust="spacing" textLength="7" x="96" y="110.1045">1</text><text fill="#000000" font-family="sans-serif" font-size="13" lengthAdjust="spacing" textLength="211" x="107" y="110.1045">asks to check vaccination statistics.</text><polygon fill="#181818" points="100,141.3125,90,145.3125,100,149.3125,96,145.3125" style="stroke:#181818;stroke-width:1.0;"/><line style="stroke:#181818;stroke-width:1.0;stroke-dasharray:2.0,2.0;" x1="94" x2="361" y1="145.3125" y2="145.3125"/><text fill="#000000" font-family="sans-serif" font-size="13" font-weight="bold" lengthAdjust="spacing" textLength="7" x="106" y="140.4561">2</text><text fill="#000000" font-family="sans-serif" font-size="13" lengthAdjust="spacing" textLength="193" x="117" y="140.4561">requests data (fromDate, toDate).</text><polygon fill="#181818" points="345,171.6641,355,175.6641,345,179.6641,349,175.6641" style="stroke:#181818;stroke-width:1.0;"/><line style="stroke:#181818;stroke-width:1.0;" x1="89" x2="351" y1="175.6641" y2="175.6641"/><text fill="#000000" font-family="sans-serif" font-size="13" font-weight="bold" lengthAdjust="spacing" textLength="7" x="96" y="170.8076">3</text><text fill="#000000" font-family="sans-serif" font-size="13" lengthAdjust="spacing" textLength="126" x="107" y="170.8076">types requested data.</text><polygon fill="#181818" points="100,218.3672,90,222.3672,100,226.3672,96,222.3672" style="stroke:#181818;stroke-width:1.0;"/><line style="stroke:#181818;stroke-width:1.0;stroke-dasharray:2.0,2.0;" x1="94" x2="361" y1="222.3672" y2="222.3672"/><text fill="#000000" font-family="sans-serif" font-size="13" font-weight="bold" lengthAdjust="spacing" textLength="7" x="106" y="209.335">4</text><text fill="#000000" font-family="sans-serif" font-size="13" lengthAdjust="spacing" textLength="229" x="117" y="201.1592">shows vaccination statistics and asks if</text><text fill="#000000" font-family="sans-serif" font-size="13" lengthAdjust="spacing" textLength="174" x="117" y="217.5107">user would like to export data.</text><polygon fill="#181818" points="345,248.7188,355,252.7188,345,256.7188,349,252.7188" style="stroke:#181818;stroke-width:1.0;"/><line style="stroke:#181818;stroke-width:1.0;" x1="89" x2="351" y1="252.7188" y2="252.7188"/><text fill="#000000" font-family="sans-serif" font-size="13" font-weight="bold" lengthAdjust="spacing" textLength="7" x="96" y="247.8623">5</text><text fill="#000000" font-family="sans-serif" font-size="13" lengthAdjust="spacing" textLength="92" x="107" y="247.8623">confirms option.</text><path d="M10,267.7188 L71,267.7188 L71,276.0703 L61,286.0703 L10,286.0703 L10,267.7188 " fill="#EEEEEE" style="stroke:#000000;stroke-width:1.5;"/><rect fill="none" height="139.7578" style="stroke:#000000;stroke-width:1.5;" width="394" x="10" y="267.7188"/><text fill="#000000" font-family="sans-serif" font-size="13" font-weight="bold" lengthAdjust="spacing" textLength="16" x="25" y="282.2139">alt</text><text fill="#000000" font-family="sans-serif" font-size="11" font-weight="bold" lengthAdjust="spacing" textLength="38" x="86" y="281.1377">[if yes]</text><polygon fill="#181818" points="100,304.4219,90,308.4219,100,312.4219,96,308.4219" style="stroke:#181818;stroke-width:1.0;"/><line style="stroke:#181818;stroke-width:1.0;stroke-dasharray:2.0,2.0;" x1="94" x2="361" y1="308.4219" y2="308.4219"/><text fill="#000000" font-family="sans-serif" font-size="13" font-weight="bold" lengthAdjust="spacing" textLength="7" x="106" y="303.5654">6</text><text fill="#000000" font-family="sans-serif" font-size="13" lengthAdjust="spacing" textLength="181" x="117" y="303.5654">requests new file name (name).</text><polygon fill="#181818" points="345,334.7734,355,338.7734,345,342.7734,349,338.7734" style="stroke:#181818;stroke-width:1.0;"/><line style="stroke:#181818;stroke-width:1.0;" x1="89" x2="351" y1="338.7734" y2="338.7734"/><text fill="#000000" font-family="sans-serif" font-size="13" font-weight="bold" lengthAdjust="spacing" textLength="7" x="96" y="333.917">7</text><text fill="#000000" font-family="sans-serif" font-size="13" lengthAdjust="spacing" textLength="126" x="107" y="333.917">types requested data.</text><polygon fill="#181818" points="100,365.125,90,369.125,100,373.125,96,369.125" style="stroke:#181818;stroke-width:1.0;"/><line style="stroke:#181818;stroke-width:1.0;stroke-dasharray:2.0,2.0;" x1="94" x2="361" y1="369.125" y2="369.125"/><text fill="#000000" font-family="sans-serif" font-size="13" font-weight="bold" lengthAdjust="spacing" textLength="7" x="106" y="364.2686">8</text><text fill="#000000" font-family="sans-serif" font-size="13" lengthAdjust="spacing" textLength="128" x="117" y="364.2686">requests confirmation.</text><polygon fill="#181818" points="345,395.4766,355,399.4766,345,403.4766,349,399.4766" style="stroke:#181818;stroke-width:1.0;"/><line style="stroke:#181818;stroke-width:1.0;" x1="89" x2="351" y1="399.4766" y2="399.4766"/><text fill="#000000" font-family="sans-serif" font-size="13" font-weight="bold" lengthAdjust="spacing" textLength="7" x="96" y="394.6201">9</text><text fill="#000000" font-family="sans-serif" font-size="13" lengthAdjust="spacing" textLength="82" x="107" y="394.6201">confirms data.</text><polygon fill="#181818" points="100,432.8281,90,436.8281,100,440.8281,96,436.8281" style="stroke:#181818;stroke-width:1.0;"/><line style="stroke:#181818;stroke-width:1.0;stroke-dasharray:2.0,2.0;" x1="94" x2="361" y1="436.8281" y2="436.8281"/><text fill="#000000" font-family="sans-serif" font-size="13" font-weight="bold" lengthAdjust="spacing" textLength="14" x="106" y="431.9717">10</text><text fill="#000000" font-family="sans-serif" font-size="13" lengthAdjust="spacing" textLength="156" x="124" y="431.9717">informs operation success.</text><!--MD5=[f4fe19bf273fe0662f7df4ce80d416b2]
@startuml
autonumber
actor "Center Coordinator" as cc

activate cc
cc -> ":System" : asks to check vaccination statistics.
activate ":System"
":System" - -> cc : requests data (fromDate, toDate).
deactivate ":System"

cc -> ":System" : types requested data.
activate ":System"
":System" - -> cc : shows vaccination statistics and asks if \nuser would like to export data.
deactivate ":System"

cc -> ":System" : confirms option.

alt if yes
activate ":System"
":System" - -> cc : requests new file name (name).
deactivate ":System"

cc -> ":System" : types requested data.
activate ":System"
":System" - -> cc : requests confirmation.
deactivate ":System"

cc -> ":System" : confirms data.
activate ":System"

end

":System" - -> cc : informs operation success.
deactivate ":System"

@enduml

PlantUML version 1.2022.5(Sat Apr 30 11:55:52 BST 2022)
(GPL source distribution)
Java Runtime: OpenJDK Runtime Environment
JVM: OpenJDK 64-Bit Server VM
Default Encoding: Cp1252
Language: pt
Country: BR
--></g></svg>