<?xml version="1.0" encoding="UTF-8" standalone="no"?><svg xmlns="http://www.w3.org/2000/svg" xmlns:xlink="http://www.w3.org/1999/xlink" contentStyleType="text/css" height="879px" preserveAspectRatio="none" style="width:1017px;height:879px;background:#FFFFFF;" version="1.1" viewBox="0 0 1017 879" width="1017px" zoomAndPan="magnify"><defs/><g><!--MD5=[02e4b9b7573f1156f41e60aa5b4e25a4]
class Company--><g id="elem_Company"><rect codeLine="4" fill="#F1F1F1" height="171.2656" id="Company" rx="2.5" ry="2.5" style="stroke:#181818;stroke-width:0.5;" width="260" x="105" y="399.5"/><ellipse cx="200.75" cy="415.5" fill="#ADD1B2" rx="11" ry="11" style="stroke:#181818;stroke-width:1.0;"/><path d="M202.75,412 Q202.9531,411.5 203.1875,411.25 Q203.4219,411 203.6875,411 Q204.1563,411 204.4531,411.2813 Q204.75,411.5625 204.75,412.2188 L204.75,413.7813 Q204.75,414.4375 204.4688,414.7188 Q204.1875,415 203.75,415 Q203.3594,415 203.1094,414.8281 Q202.8594,414.6563 202.75,414.2031 Q202.7031,413.8906 202.5313,413.7188 Q202.2188,413.3906 201.6563,413.2031 Q201.0938,413 200.5313,413 Q199.8281,413 199.2344,413.2813 Q198.6563,413.5625 198.2031,414.1875 Q197.75,414.8125 197.75,415.6719 L197.75,416.5938 Q197.75,417.625 198.5938,418.3125 Q199.4375,419 200.9375,419 Q201.8281,419 202.4531,418.7969 Q202.8125,418.6875 203.2188,418.3281 Q203.4844,418.125 203.625,418.0625 Q203.7656,418 203.9375,418 Q204.2656,418 204.5,418.2656 Q204.75,418.5156 204.75,418.875 Q204.75,419.2188 204.4063,419.625 Q203.9063,420.2188 203.1094,420.5469 Q202.0625,421 200.7813,421 Q199.2813,421 198.0781,420.4063 Q197.1094,419.9375 196.4219,418.9219 Q195.75,417.9063 195.75,416.7031 L195.75,415.6094 Q195.75,414.3594 196.3438,413.2656 Q196.9531,412.1719 198,411.5938 Q199.0625,411 200.25,411 Q200.9688,411 201.5938,411.25 Q202.2188,411.5 202.75,412 Z " fill="#000000"/><text fill="#000000" font-family="sans-serif" font-size="14" lengthAdjust="spacing" textLength="60" x="221.25" y="421.2285">Company</text><line style="stroke:#181818;stroke-width:0.5;" x1="106" x2="364" y1="431.5" y2="431.5"/><text fill="#000000" font-family="sans-serif" font-size="14" lengthAdjust="spacing" textLength="179" x="111" y="450.0332">-List&lt;SNSuser&gt; SNSuserList</text><text fill="#000000" font-family="sans-serif" font-size="14" lengthAdjust="spacing" textLength="78" x="111" y="467.6426">-designation</text><line style="stroke:#181818;stroke-width:0.5;" x1="106" x2="364" y1="474.7188" y2="474.7188"/><text fill="#000000" font-family="sans-serif" font-size="14" lengthAdjust="spacing" textLength="212" x="111" y="493.252">+createSNSuser(dtoSNSuser dto)</text><text fill="#000000" font-family="sans-serif" font-size="14" lengthAdjust="spacing" textLength="209" x="111" y="510.8613">+validateSNSuser(SNSuser user)</text><text fill="#000000" font-family="sans-serif" font-size="14" lengthAdjust="spacing" textLength="248" x="111" y="528.4707">-validateSNSuserDTO(dtoSNSuser dto)</text><text fill="#000000" font-family="sans-serif" font-size="14" lengthAdjust="spacing" textLength="202" x="111" y="546.0801">+saveSNSuser(dtoSNSuser dto)</text><text fill="#000000" font-family="sans-serif" font-size="14" lengthAdjust="spacing" textLength="188" x="111" y="563.6895">+printSNSuser(SNSuser user)</text></g><!--MD5=[8ae808d068a8995f06b9b3ec51357f0b]
class AuthFacade--><g id="elem_AuthFacade"><rect codeLine="13" fill="#F1F1F1" height="65.6094" id="AuthFacade" rx="2.5" ry="2.5" style="stroke:#181818;stroke-width:0.5;" width="456" x="7" y="736"/><ellipse cx="192.25" cy="752" fill="#ADD1B2" rx="11" ry="11" style="stroke:#181818;stroke-width:1.0;"/><path d="M194.25,748.5 Q194.4531,748 194.6875,747.75 Q194.9219,747.5 195.1875,747.5 Q195.6563,747.5 195.9531,747.7813 Q196.25,748.0625 196.25,748.7188 L196.25,750.2813 Q196.25,750.9375 195.9688,751.2188 Q195.6875,751.5 195.25,751.5 Q194.8594,751.5 194.6094,751.3281 Q194.3594,751.1563 194.25,750.7031 Q194.2031,750.3906 194.0313,750.2188 Q193.7188,749.8906 193.1563,749.7031 Q192.5938,749.5 192.0313,749.5 Q191.3281,749.5 190.7344,749.7813 Q190.1563,750.0625 189.7031,750.6875 Q189.25,751.3125 189.25,752.1719 L189.25,753.0938 Q189.25,754.125 190.0938,754.8125 Q190.9375,755.5 192.4375,755.5 Q193.3281,755.5 193.9531,755.2969 Q194.3125,755.1875 194.7188,754.8281 Q194.9844,754.625 195.125,754.5625 Q195.2656,754.5 195.4375,754.5 Q195.7656,754.5 196,754.7656 Q196.25,755.0156 196.25,755.375 Q196.25,755.7188 195.9063,756.125 Q195.4063,756.7188 194.6094,757.0469 Q193.5625,757.5 192.2813,757.5 Q190.7813,757.5 189.5781,756.9063 Q188.6094,756.4375 187.9219,755.4219 Q187.25,754.4063 187.25,753.2031 L187.25,752.1094 Q187.25,750.8594 187.8438,749.7656 Q188.4531,748.6719 189.5,748.0938 Q190.5625,747.5 191.75,747.5 Q192.4688,747.5 193.0938,747.75 Q193.7188,748 194.25,748.5 Z " fill="#000000"/><text fill="#000000" font-family="sans-serif" font-size="14" lengthAdjust="spacing" textLength="77" x="212.75" y="757.7285">AuthFacade</text><line style="stroke:#181818;stroke-width:0.5;" x1="8" x2="462" y1="768" y2="768"/><line style="stroke:#181818;stroke-width:0.5;" x1="8" x2="462" y1="776" y2="776"/><text fill="#000000" font-family="sans-serif" font-size="14" lengthAdjust="spacing" textLength="444" x="13" y="794.5332">+addUserWithRole(String name, String email, String pwd, String roleId)</text></g><!--MD5=[335f4d9be48430461c68bf6d6fdba145]
class App--><g id="elem_App"><rect codeLine="17" fill="#F1F1F1" height="83.2188" id="App" rx="2.5" ry="2.5" style="stroke:#181818;stroke-width:0.5;" width="180" x="400" y="443.5"/><ellipse cx="473.25" cy="459.5" fill="#ADD1B2" rx="11" ry="11" style="stroke:#181818;stroke-width:1.0;"/><path d="M475.25,456 Q475.4531,455.5 475.6875,455.25 Q475.9219,455 476.1875,455 Q476.6563,455 476.9531,455.2813 Q477.25,455.5625 477.25,456.2188 L477.25,457.7813 Q477.25,458.4375 476.9688,458.7188 Q476.6875,459 476.25,459 Q475.8594,459 475.6094,458.8281 Q475.3594,458.6563 475.25,458.2031 Q475.2031,457.8906 475.0313,457.7188 Q474.7188,457.3906 474.1563,457.2031 Q473.5938,457 473.0313,457 Q472.3281,457 471.7344,457.2813 Q471.1563,457.5625 470.7031,458.1875 Q470.25,458.8125 470.25,459.6719 L470.25,460.5938 Q470.25,461.625 471.0938,462.3125 Q471.9375,463 473.4375,463 Q474.3281,463 474.9531,462.7969 Q475.3125,462.6875 475.7188,462.3281 Q475.9844,462.125 476.125,462.0625 Q476.2656,462 476.4375,462 Q476.7656,462 477,462.2656 Q477.25,462.5156 477.25,462.875 Q477.25,463.2188 476.9063,463.625 Q476.4063,464.2188 475.6094,464.5469 Q474.5625,465 473.2813,465 Q471.7813,465 470.5781,464.4063 Q469.6094,463.9375 468.9219,462.9219 Q468.25,461.9063 468.25,460.7031 L468.25,459.6094 Q468.25,458.3594 468.8438,457.2656 Q469.4531,456.1719 470.5,455.5938 Q471.5625,455 472.75,455 Q473.4688,455 474.0938,455.25 Q474.7188,455.5 475.25,456 Z " fill="#000000"/><text fill="#000000" font-family="sans-serif" font-size="14" lengthAdjust="spacing" textLength="25" x="493.75" y="465.2285">App</text><line style="stroke:#181818;stroke-width:0.5;" x1="401" x2="579" y1="475.5" y2="475.5"/><line style="stroke:#181818;stroke-width:0.5;" x1="401" x2="579" y1="483.5" y2="483.5"/><text fill="#000000" font-family="sans-serif" font-size="14" lengthAdjust="spacing" textLength="84" x="406" y="502.0332">+getIntance()</text><text fill="#000000" font-family="sans-serif" font-size="14" lengthAdjust="spacing" textLength="168" x="406" y="519.6426">+getIntance.getCompany()</text></g><!--MD5=[fd0a4d8e5e69f6a264816a697947f9e2]
class SNSuser--><g id="elem_SNSuser"><rect codeLine="22" fill="#F1F1F1" height="206.4844" id="SNSuser" rx="2.5" ry="2.5" style="stroke:#181818;stroke-width:0.5;" width="176" x="834" y="382"/><ellipse cx="890.25" cy="398" fill="#ADD1B2" rx="11" ry="11" style="stroke:#181818;stroke-width:1.0;"/><path d="M892.25,394.5 Q892.4531,394 892.6875,393.75 Q892.9219,393.5 893.1875,393.5 Q893.6563,393.5 893.9531,393.7813 Q894.25,394.0625 894.25,394.7188 L894.25,396.2813 Q894.25,396.9375 893.9688,397.2188 Q893.6875,397.5 893.25,397.5 Q892.8594,397.5 892.6094,397.3281 Q892.3594,397.1563 892.25,396.7031 Q892.2031,396.3906 892.0313,396.2188 Q891.7188,395.8906 891.1563,395.7031 Q890.5938,395.5 890.0313,395.5 Q889.3281,395.5 888.7344,395.7813 Q888.1563,396.0625 887.7031,396.6875 Q887.25,397.3125 887.25,398.1719 L887.25,399.0938 Q887.25,400.125 888.0938,400.8125 Q888.9375,401.5 890.4375,401.5 Q891.3281,401.5 891.9531,401.2969 Q892.3125,401.1875 892.7188,400.8281 Q892.9844,400.625 893.125,400.5625 Q893.2656,400.5 893.4375,400.5 Q893.7656,400.5 894,400.7656 Q894.25,401.0156 894.25,401.375 Q894.25,401.7188 893.9063,402.125 Q893.4063,402.7188 892.6094,403.0469 Q891.5625,403.5 890.2813,403.5 Q888.7813,403.5 887.5781,402.9063 Q886.6094,402.4375 885.9219,401.4219 Q885.25,400.4063 885.25,399.2031 L885.25,398.1094 Q885.25,396.8594 885.8438,395.7656 Q886.4531,394.6719 887.5,394.0938 Q888.5625,393.5 889.75,393.5 Q890.4688,393.5 891.0938,393.75 Q891.7188,394 892.25,394.5 Z " fill="#000000"/><text fill="#000000" font-family="sans-serif" font-size="14" lengthAdjust="spacing" textLength="55" x="910.75" y="403.7285">SNSuser</text><line style="stroke:#181818;stroke-width:0.5;" x1="835" x2="1009" y1="414" y2="414"/><text fill="#000000" font-family="sans-serif" font-size="14" lengthAdjust="spacing" textLength="85" x="840" y="432.5332">-String name;</text><text fill="#000000" font-family="sans-serif" font-size="14" lengthAdjust="spacing" textLength="164" x="840" y="450.1426">-String residenceAddress;</text><text fill="#000000" font-family="sans-serif" font-size="14" lengthAdjust="spacing" textLength="83" x="840" y="467.752">-String email;</text><text fill="#000000" font-family="sans-serif" font-size="14" lengthAdjust="spacing" textLength="117" x="840" y="485.3613">-int phoneNumber;</text><text fill="#000000" font-family="sans-serif" font-size="14" lengthAdjust="spacing" textLength="91" x="840" y="502.9707">-int ccNumber;</text><text fill="#000000" font-family="sans-serif" font-size="14" lengthAdjust="spacing" textLength="71" x="840" y="520.5801">-String sex;</text><text fill="#000000" font-family="sans-serif" font-size="14" lengthAdjust="spacing" textLength="105" x="840" y="538.1895">-LocalDate birth;</text><text fill="#000000" font-family="sans-serif" font-size="14" lengthAdjust="spacing" textLength="103" x="840" y="555.7988">-int SNSnumber;</text><text fill="#000000" font-family="sans-serif" font-size="14" lengthAdjust="spacing" textLength="110" x="840" y="573.4082">-String password;</text><line style="stroke:#181818;stroke-width:0.5;" x1="835" x2="1009" y1="580.4844" y2="580.4844"/></g><!--MD5=[d4944a25d4754a7b0223128b8935cdea]
class AddSNSfromCSVUI--><g id="elem_AddSNSfromCSVUI"><rect codeLine="34" fill="#F1F1F1" height="118.4375" id="AddSNSfromCSVUI" rx="2.5" ry="2.5" style="stroke:#181818;stroke-width:0.5;" width="209" x="516.5" y="7"/><ellipse cx="557.15" cy="23" fill="#ADD1B2" rx="11" ry="11" style="stroke:#181818;stroke-width:1.0;"/><path d="M559.15,19.5 Q559.3531,19 559.5875,18.75 Q559.8219,18.5 560.0875,18.5 Q560.5563,18.5 560.8531,18.7813 Q561.15,19.0625 561.15,19.7188 L561.15,21.2813 Q561.15,21.9375 560.8688,22.2188 Q560.5875,22.5 560.15,22.5 Q559.7594,22.5 559.5094,22.3281 Q559.2594,22.1563 559.15,21.7031 Q559.1031,21.3906 558.9313,21.2188 Q558.6188,20.8906 558.0563,20.7031 Q557.4938,20.5 556.9313,20.5 Q556.2281,20.5 555.6344,20.7813 Q555.0563,21.0625 554.6031,21.6875 Q554.15,22.3125 554.15,23.1719 L554.15,24.0938 Q554.15,25.125 554.9938,25.8125 Q555.8375,26.5 557.3375,26.5 Q558.2281,26.5 558.8531,26.2969 Q559.2125,26.1875 559.6188,25.8281 Q559.8844,25.625 560.025,25.5625 Q560.1656,25.5 560.3375,25.5 Q560.6656,25.5 560.9,25.7656 Q561.15,26.0156 561.15,26.375 Q561.15,26.7188 560.8063,27.125 Q560.3063,27.7188 559.5094,28.0469 Q558.4625,28.5 557.1813,28.5 Q555.6813,28.5 554.4781,27.9063 Q553.5094,27.4375 552.8219,26.4219 Q552.15,25.4063 552.15,24.2031 L552.15,23.1094 Q552.15,21.8594 552.7438,20.7656 Q553.3531,19.6719 554.4,19.0938 Q555.4625,18.5 556.65,18.5 Q557.3688,18.5 557.9938,18.75 Q558.6188,19 559.15,19.5 Z " fill="#000000"/><text fill="#000000" font-family="sans-serif" font-size="14" lengthAdjust="spacing" textLength="120" x="576.85" y="28.7285">AddSNSfromCSVUI</text><line style="stroke:#181818;stroke-width:0.5;" x1="517.5" x2="724.5" y1="39" y2="39"/><text fill="#000000" font-family="sans-serif" font-size="14" lengthAdjust="spacing" textLength="121" x="522.5" y="57.5332">-copyDataFromFile</text><line style="stroke:#181818;stroke-width:0.5;" x1="517.5" x2="724.5" y1="64.6094" y2="64.6094"/><text fill="#000000" font-family="sans-serif" font-size="14" lengthAdjust="spacing" textLength="39" x="522.5" y="83.1426">+run()</text><text fill="#000000" font-family="sans-serif" font-size="14" lengthAdjust="spacing" textLength="33" x="522.5" y="100.752">-file()</text><text fill="#000000" font-family="sans-serif" font-size="14" lengthAdjust="spacing" textLength="197" x="522.5" y="118.3613">-validateContents(String[] Line)</text></g><!--MD5=[5d03b164cd64ccb051dae51c0801286f]
class AddSNSfromCSVController--><g id="elem_AddSNSfromCSVController"><rect codeLine="40" fill="#F1F1F1" height="100.8281" id="AddSNSfromCSVController" rx="2.5" ry="2.5" style="stroke:#181818;stroke-width:0.5;" width="224" x="402" y="203"/><ellipse cx="426.9" cy="219" fill="#ADD1B2" rx="11" ry="11" style="stroke:#181818;stroke-width:1.0;"/><path d="M428.9,215.5 Q429.1031,215 429.3375,214.75 Q429.5719,214.5 429.8375,214.5 Q430.3063,214.5 430.6031,214.7813 Q430.9,215.0625 430.9,215.7188 L430.9,217.2813 Q430.9,217.9375 430.6188,218.2188 Q430.3375,218.5 429.9,218.5 Q429.5094,218.5 429.2594,218.3281 Q429.0094,218.1563 428.9,217.7031 Q428.8531,217.3906 428.6813,217.2188 Q428.3688,216.8906 427.8063,216.7031 Q427.2438,216.5 426.6813,216.5 Q425.9781,216.5 425.3844,216.7813 Q424.8063,217.0625 424.3531,217.6875 Q423.9,218.3125 423.9,219.1719 L423.9,220.0938 Q423.9,221.125 424.7438,221.8125 Q425.5875,222.5 427.0875,222.5 Q427.9781,222.5 428.6031,222.2969 Q428.9625,222.1875 429.3688,221.8281 Q429.6344,221.625 429.775,221.5625 Q429.9156,221.5 430.0875,221.5 Q430.4156,221.5 430.65,221.7656 Q430.9,222.0156 430.9,222.375 Q430.9,222.7188 430.5563,223.125 Q430.0563,223.7188 429.2594,224.0469 Q428.2125,224.5 426.9313,224.5 Q425.4313,224.5 424.2281,223.9063 Q423.2594,223.4375 422.5719,222.4219 Q421.9,221.4063 421.9,220.2031 L421.9,219.1094 Q421.9,217.8594 422.4938,216.7656 Q423.1031,215.6719 424.15,215.0938 Q425.2125,214.5 426.4,214.5 Q427.1188,214.5 427.7438,214.75 Q428.3688,215 428.9,215.5 Z " fill="#000000"/><text fill="#000000" font-family="sans-serif" font-size="14" lengthAdjust="spacing" textLength="170" x="443.1" y="224.7285">AddSNSfromCSVController</text><line style="stroke:#181818;stroke-width:0.5;" x1="403" x2="625" y1="235" y2="235"/><line style="stroke:#181818;stroke-width:0.5;" x1="403" x2="625" y1="243" y2="243"/><text fill="#000000" font-family="sans-serif" font-size="14" lengthAdjust="spacing" textLength="212" x="408" y="261.5332">+createSNSuser(dtoSNSuser dto)</text><text fill="#000000" font-family="sans-serif" font-size="14" lengthAdjust="spacing" textLength="202" x="408" y="279.1426">+saveSNSuser(dtoSNSuser dto)</text><text fill="#000000" font-family="sans-serif" font-size="14" lengthAdjust="spacing" textLength="101" x="408" y="296.752">+printSNSuser()</text></g><!--MD5=[dab0e46459b21054476ab58630687929]
class DTOSNSuser--><g id="elem_DTOSNSuser"><rect codeLine="46" fill="#F1F1F1" height="206.4844" id="DTOSNSuser" rx="2.5" ry="2.5" style="stroke:#181818;stroke-width:0.5;" width="176" x="562" y="666"/><ellipse cx="603.55" cy="682" fill="#ADD1B2" rx="11" ry="11" style="stroke:#181818;stroke-width:1.0;"/><path d="M605.55,678.5 Q605.7531,678 605.9875,677.75 Q606.2219,677.5 606.4875,677.5 Q606.9563,677.5 607.2531,677.7813 Q607.55,678.0625 607.55,678.7188 L607.55,680.2813 Q607.55,680.9375 607.2688,681.2188 Q606.9875,681.5 606.55,681.5 Q606.1594,681.5 605.9094,681.3281 Q605.6594,681.1563 605.55,680.7031 Q605.5031,680.3906 605.3313,680.2188 Q605.0188,679.8906 604.4563,679.7031 Q603.8938,679.5 603.3313,679.5 Q602.6281,679.5 602.0344,679.7813 Q601.4563,680.0625 601.0031,680.6875 Q600.55,681.3125 600.55,682.1719 L600.55,683.0938 Q600.55,684.125 601.3938,684.8125 Q602.2375,685.5 603.7375,685.5 Q604.6281,685.5 605.2531,685.2969 Q605.6125,685.1875 606.0188,684.8281 Q606.2844,684.625 606.425,684.5625 Q606.5656,684.5 606.7375,684.5 Q607.0656,684.5 607.3,684.7656 Q607.55,685.0156 607.55,685.375 Q607.55,685.7188 607.2063,686.125 Q606.7063,686.7188 605.9094,687.0469 Q604.8625,687.5 603.5813,687.5 Q602.0813,687.5 600.8781,686.9063 Q599.9094,686.4375 599.2219,685.4219 Q598.55,684.4063 598.55,683.2031 L598.55,682.1094 Q598.55,680.8594 599.1438,679.7656 Q599.7531,678.6719 600.8,678.0938 Q601.8625,677.5 603.05,677.5 Q603.7688,677.5 604.3938,677.75 Q605.0188,678 605.55,678.5 Z " fill="#000000"/><text fill="#000000" font-family="sans-serif" font-size="14" lengthAdjust="spacing" textLength="85" x="623.45" y="687.7285">DTOSNSuser</text><line style="stroke:#181818;stroke-width:0.5;" x1="563" x2="737" y1="698" y2="698"/><text fill="#000000" font-family="sans-serif" font-size="14" lengthAdjust="spacing" textLength="85" x="568" y="716.5332">-String name;</text><text fill="#000000" font-family="sans-serif" font-size="14" lengthAdjust="spacing" textLength="164" x="568" y="734.1426">-String residenceAddress;</text><text fill="#000000" font-family="sans-serif" font-size="14" lengthAdjust="spacing" textLength="83" x="568" y="751.752">-String email;</text><text fill="#000000" font-family="sans-serif" font-size="14" lengthAdjust="spacing" textLength="117" x="568" y="769.3613">-int phoneNumber;</text><text fill="#000000" font-family="sans-serif" font-size="14" lengthAdjust="spacing" textLength="91" x="568" y="786.9707">-int ccNumber;</text><text fill="#000000" font-family="sans-serif" font-size="14" lengthAdjust="spacing" textLength="71" x="568" y="804.5801">-String sex;</text><text fill="#000000" font-family="sans-serif" font-size="14" lengthAdjust="spacing" textLength="105" x="568" y="822.1895">-LocalDate birth;</text><text fill="#000000" font-family="sans-serif" font-size="14" lengthAdjust="spacing" textLength="103" x="568" y="839.7988">-int SNSnumber;</text><text fill="#000000" font-family="sans-serif" font-size="14" lengthAdjust="spacing" textLength="110" x="568" y="857.4082">-String password;</text><line style="stroke:#181818;stroke-width:0.5;" x1="563" x2="737" y1="864.4844" y2="864.4844"/></g><!--MD5=[aa5150cf1554aa2a2f479ecf9bc6bc20]
class MapperSNSuser--><g id="elem_MapperSNSuser"><rect codeLine="58" fill="#F1F1F1" height="48" id="MapperSNSuser" rx="2.5" ry="2.5" style="stroke:#181818;stroke-width:0.5;" width="135" x="684.5" y="229.5"/><ellipse cx="699.5" cy="245.5" fill="#ADD1B2" rx="11" ry="11" style="stroke:#181818;stroke-width:1.0;"/><path d="M701.5,242 Q701.7031,241.5 701.9375,241.25 Q702.1719,241 702.4375,241 Q702.9063,241 703.2031,241.2813 Q703.5,241.5625 703.5,242.2188 L703.5,243.7813 Q703.5,244.4375 703.2188,244.7188 Q702.9375,245 702.5,245 Q702.1094,245 701.8594,244.8281 Q701.6094,244.6563 701.5,244.2031 Q701.4531,243.8906 701.2813,243.7188 Q700.9688,243.3906 700.4063,243.2031 Q699.8438,243 699.2813,243 Q698.5781,243 697.9844,243.2813 Q697.4063,243.5625 696.9531,244.1875 Q696.5,244.8125 696.5,245.6719 L696.5,246.5938 Q696.5,247.625 697.3438,248.3125 Q698.1875,249 699.6875,249 Q700.5781,249 701.2031,248.7969 Q701.5625,248.6875 701.9688,248.3281 Q702.2344,248.125 702.375,248.0625 Q702.5156,248 702.6875,248 Q703.0156,248 703.25,248.2656 Q703.5,248.5156 703.5,248.875 Q703.5,249.2188 703.1563,249.625 Q702.6563,250.2188 701.8594,250.5469 Q700.8125,251 699.5313,251 Q698.0313,251 696.8281,250.4063 Q695.8594,249.9375 695.1719,248.9219 Q694.5,247.9063 694.5,246.7031 L694.5,245.6094 Q694.5,244.3594 695.0938,243.2656 Q695.7031,242.1719 696.75,241.5938 Q697.8125,241 699,241 Q699.7188,241 700.3438,241.25 Q700.9688,241.5 701.5,242 Z " fill="#000000"/><text fill="#000000" font-family="sans-serif" font-size="14" lengthAdjust="spacing" textLength="103" x="713.5" y="251.2285">MapperSNSuser</text><line style="stroke:#181818;stroke-width:0.5;" x1="685.5" x2="818.5" y1="261.5" y2="261.5"/><line style="stroke:#181818;stroke-width:0.5;" x1="685.5" x2="818.5" y1="269.5" y2="269.5"/></g><!--MD5=[f288aef74005c8b50530d73130849428]
link AddSNSfromCSVUI to AddSNSfromCSVController--><g id="link_AddSNSfromCSVUI_AddSNSfromCSVController"><path codeLine="61" d="M587.44,125.18 C573.94,148.59 558.46,175.43 545.2,198.41 " fill="none" id="AddSNSfromCSVUI-to-AddSNSfromCSVController" style="stroke:#181818;stroke-width:1.0;stroke-dasharray:7.0,7.0;"/><polygon fill="#181818" points="542.58,202.95,550.545,197.157,545.0807,198.6203,543.6174,193.1559,542.58,202.95" style="stroke:#181818;stroke-width:1.0;"/></g><!--MD5=[1a95402ff187bc4255e8c98844bbc6c6]
link AddSNSfromCSVUI to MapperSNSuser--><g id="link_AddSNSfromCSVUI_MapperSNSuser"><path codeLine="62" d="M662.09,125.18 C685.64,158.53 714.1,198.83 732.6,225.04 " fill="none" id="AddSNSfromCSVUI-to-MapperSNSuser" style="stroke:#181818;stroke-width:1.0;stroke-dasharray:7.0,7.0;"/><polygon fill="#181818" points="735.71,229.44,733.7851,219.7811,732.8255,225.356,727.2506,224.3963,735.71,229.44" style="stroke:#181818;stroke-width:1.0;"/><text fill="#000000" font-family="sans-serif" font-size="13" lengthAdjust="spacing" textLength="30" x="695" y="169.4951">Uses</text></g><!--MD5=[284d078c17e4c31e65bedc14ae39737e]
link MapperSNSuser to DTOSNSuser--><g id="link_MapperSNSuser_DTOSNSuser"><path codeLine="63" d="M747.99,277.6 C738.51,331.88 713.72,471.73 690,588 C685.19,611.57 679.76,636.82 674.48,660.72 " fill="none" id="MapperSNSuser-to-DTOSNSuser" style="stroke:#181818;stroke-width:1.0;stroke-dasharray:7.0,7.0;"/><polygon fill="#181818" points="673.36,665.8,679.2171,657.882,674.4447,660.9191,671.4076,656.1466,673.36,665.8" style="stroke:#181818;stroke-width:1.0;"/><text fill="#000000" font-family="sans-serif" font-size="13" lengthAdjust="spacing" textLength="45" x="730" y="490.4951">Creates</text></g><!--MD5=[d926af47cea8a7e1a1c5a25809cb41ce]
link MapperSNSuser to SNSuser--><g id="link_MapperSNSuser_SNSuser"><path codeLine="64" d="M769.24,277.77 C786.87,301.57 815.54,340.28 843.31,377.77 " fill="none" id="MapperSNSuser-to-SNSuser" style="stroke:#181818;stroke-width:1.0;stroke-dasharray:7.0,7.0;"/><polygon fill="#181818" points="846.34,381.86,844.1784,372.2513,843.356,377.848,837.7593,377.0257,846.34,381.86" style="stroke:#181818;stroke-width:1.0;"/><text fill="#000000" font-family="sans-serif" font-size="13" lengthAdjust="spacing" textLength="45" x="822" y="348.4951">Creates</text></g><!--MD5=[cfbaea2d6b7a1c24dc1299ff9885fa6a]
link AddSNSfromCSVController to Company--><g id="link_AddSNSfromCSVController_Company"><path codeLine="65" d="M453.8,304.02 C421.19,330.84 379.92,364.79 342.03,395.96 " fill="none" id="AddSNSfromCSVController-to-Company" style="stroke:#181818;stroke-width:1.0;stroke-dasharray:7.0,7.0;"/><polygon fill="#181818" points="337.91,399.35,347.407,396.741,341.7779,396.1815,342.3374,390.5524,337.91,399.35" style="stroke:#181818;stroke-width:1.0;"/></g><!--MD5=[bf7b092c1cfd695beae5ebce6010cc3a]
link AddSNSfromCSVController to App--><g id="link_AddSNSfromCSVController_App"><path codeLine="66" d="M508.82,304.02 C504.65,343.87 498.84,399.43 494.78,438.25 " fill="none" id="AddSNSfromCSVController-to-App" style="stroke:#181818;stroke-width:1.0;stroke-dasharray:7.0,7.0;"/><polygon fill="#181818" points="494.25,443.37,499.1549,434.8294,494.7645,438.3965,491.1973,434.0062,494.25,443.37" style="stroke:#181818;stroke-width:1.0;"/></g><!--MD5=[5fe33b5e52c30aa1aa61318c15203fe1]
link AddSNSfromCSVController to DTOSNSuser--><g id="link_AddSNSfromCSVController_DTOSNSuser"><path codeLine="67" d="M574.5,304.32 C582.51,313.41 589.75,323.41 595,334 C622.57,389.59 637.35,551.04 644.44,660.56 " fill="none" id="AddSNSfromCSVController-to-DTOSNSuser" style="stroke:#181818;stroke-width:1.0;stroke-dasharray:7.0,7.0;"/><polygon fill="#181818" points="644.77,665.73,648.1695,656.4864,644.4412,660.7408,640.1868,657.0125,644.77,665.73" style="stroke:#181818;stroke-width:1.0;"/><text fill="#000000" font-family="sans-serif" font-size="13" lengthAdjust="spacing" textLength="30" x="640" y="490.4951">Uses</text></g><!--MD5=[562b5f1e4988a8f02404f43afe700deb]
link Company to SNSuser--><g id="link_Company_SNSuser"><path codeLine="68" d="M346.35,399.3 C358,392.71 369.98,386.78 382,382 C453.17,353.71 476.11,362.57 552.5,357 C645.77,350.2 789.54,374.16 807,382 C814.59,385.41 822.04,389.51 829.26,394.07 " fill="none" id="Company-to-SNSuser" style="stroke:#181818;stroke-width:1.0;"/><polygon fill="#181818" points="833.72,396.98,828.352,388.7226,829.5271,394.2561,823.9937,395.4312,833.72,396.98" style="stroke:#181818;stroke-width:1.0;"/><text fill="#000000" font-family="sans-serif" font-size="13" lengthAdjust="spacing" textLength="33" x="553.5" y="348.4951">Owns</text><text fill="#000000" font-family="sans-serif" font-size="13" lengthAdjust="spacing" textLength="7" x="348.6184" y="388.7465">1</text><text fill="#000000" font-family="sans-serif" font-size="13" lengthAdjust="spacing" textLength="5" x="820.9186" y="386.2177">*</text></g><!--MD5=[717d4b03d3c4372f4eafe5e342a0a7dd]
link Company to AuthFacade--><g id="link_Company_AuthFacade"><path codeLine="69" d="M235,570.61 C235,623.87 235,689.97 235,730.56 " fill="none" id="Company-to-AuthFacade" style="stroke:#181818;stroke-width:1.0;stroke-dasharray:7.0,7.0;"/><polygon fill="#181818" points="235,735.87,239,726.87,235,730.87,231,726.87,235,735.87" style="stroke:#181818;stroke-width:1.0;"/></g><!--MD5=[81609ceba30e9eab06d3d66a9b4c4636]
link Company to DTOSNSuser--><g id="link_Company_DTOSNSuser"><path codeLine="70" d="M356.83,570.74 C365.34,576.6 373.79,582.4 382,588 C440.19,627.73 505.86,671.85 557.63,706.46 " fill="none" id="Company-to-DTOSNSuser" style="stroke:#181818;stroke-width:1.0;stroke-dasharray:7.0,7.0;"/><polygon fill="#181818" points="561.96,709.36,556.7101,701.027,557.8063,706.5766,552.2567,707.6728,561.96,709.36" style="stroke:#181818;stroke-width:1.0;"/><text fill="#000000" font-family="sans-serif" font-size="13" lengthAdjust="spacing" textLength="30" x="449" y="632.4951">Uses</text></g><!--MD5=[4e6fb0d8eb5824b89388c4ae04e82f9a]
@startuml
'https://plantuml.com/class-diagram
skinparam classAttributeIconSize 0

Class Company{
-List<SNSuser> SNSuserList
-designation
    +createSNSuser(dtoSNSuser dto)
    +validateSNSuser(SNSuser user)
    -validateSNSuserDTO(dtoSNSuser dto)
    +saveSNSuser(dtoSNSuser dto)
    +printSNSuser(SNSuser user)
}
Class AuthFacade{
+addUserWithRole(String name, String email, String pwd, String roleId)
}

Class App{
+getIntance()
+getIntance.getCompany()
}

Class SNSuser{
- String name;
    - String residenceAddress;
    - String email;
    - int phoneNumber;
    - int ccNumber;
    - String sex;
    - LocalDate birth;
    - int SNSnumber;
    - String password;
}

Class AddSNSfromCSVUI{
+run()
-file()
-copyDataFromFile
-validateContents(String[] Line)
}
Class AddSNSfromCSVController{
+createSNSuser(dtoSNSuser dto)
+saveSNSuser(dtoSNSuser dto)
+printSNSuser()
}

Class DTOSNSuser{
- String name;
    - String residenceAddress;
    - String email;
    - int phoneNumber;
    - int ccNumber;
    - String sex;
    - LocalDate birth;
    - int SNSnumber;
    - String password;
}

Class MapperSNSuser{
}

AddSNSfromCSVUI..>AddSNSfromCSVController
AddSNSfromCSVUI..>MapperSNSuser:Uses
MapperSNSuser..>DTOSNSuser:Creates
MapperSNSuser..>SNSuser:Creates
AddSNSfromCSVController..>Company
AddSNSfromCSVController..>App
AddSNSfromCSVController..>DTOSNSuser:Uses
Company"1"->"*"SNSuser:Owns
Company..>AuthFacade
Company..>DTOSNSuser:Uses


@enduml

@startuml
skinparam classAttributeIconSize 0

Class Company{
-List<SNSuser> SNSuserList
-designation
    +createSNSuser(dtoSNSuser dto)
    +validateSNSuser(SNSuser user)
    -validateSNSuserDTO(dtoSNSuser dto)
    +saveSNSuser(dtoSNSuser dto)
    +printSNSuser(SNSuser user)
}
Class AuthFacade{
+addUserWithRole(String name, String email, String pwd, String roleId)
}

Class App{
+getIntance()
+getIntance.getCompany()
}

Class SNSuser{
- String name;
    - String residenceAddress;
    - String email;
    - int phoneNumber;
    - int ccNumber;
    - String sex;
    - LocalDate birth;
    - int SNSnumber;
    - String password;
}

Class AddSNSfromCSVUI{
+run()
-file()
-copyDataFromFile
-validateContents(String[] Line)
}
Class AddSNSfromCSVController{
+createSNSuser(dtoSNSuser dto)
+saveSNSuser(dtoSNSuser dto)
+printSNSuser()
}

Class DTOSNSuser{
- String name;
    - String residenceAddress;
    - String email;
    - int phoneNumber;
    - int ccNumber;
    - String sex;
    - LocalDate birth;
    - int SNSnumber;
    - String password;
}

Class MapperSNSuser{
}

AddSNSfromCSVUI..>AddSNSfromCSVController
AddSNSfromCSVUI..>MapperSNSuser:Uses
MapperSNSuser..>DTOSNSuser:Creates
MapperSNSuser..>SNSuser:Creates
AddSNSfromCSVController..>Company
AddSNSfromCSVController..>App
AddSNSfromCSVController..>DTOSNSuser:Uses
Company"1"->"*"SNSuser:Owns
Company..>AuthFacade
Company..>DTOSNSuser:Uses


@enduml

PlantUML version 1.2022.4(Sat Apr 09 14:29:17 BST 2022)
(GPL source distribution)
Java Runtime: OpenJDK Runtime Environment
JVM: OpenJDK 64-Bit Server VM
Default Encoding: Cp1252
Language: pt
Country: PT
--></g></svg>