<?xml version="1.0" encoding="UTF-8" standalone="no"?><svg xmlns="http://www.w3.org/2000/svg" xmlns:xlink="http://www.w3.org/1999/xlink" contentStyleType="text/css" height="1000px" preserveAspectRatio="none" style="width:1750px;height:1000px;background:#FFFFFF;" version="1.1" viewBox="0 0 1750 1000" width="1750px" zoomAndPan="magnify"><defs/><g><rect fill="#FFFFFF" height="817.0859" style="stroke:#181818;stroke-width:1.0;" width="10" x="59.5" y="92.6094"/><rect fill="#FFFFFF" height="30.3516" style="stroke:#181818;stroke-width:1.0;" width="10" x="381.5" y="114.9609"/><rect fill="#FFFFFF" height="310.8125" style="stroke:#181818;stroke-width:1.0;" width="10" x="381.5" y="175.6641"/><rect fill="#FFFFFF" height="28" style="stroke:#181818;stroke-width:1.0;" width="10" x="386.5" y="239.3672"/><rect fill="#FFFFFF" height="376.8672" style="stroke:#181818;stroke-width:1.0;" width="10" x="381.5" y="516.8281"/><rect fill="#FFFFFF" height="151.4063" style="stroke:#181818;stroke-width:1.0;" width="10" x="554.5" y="304.7188"/><rect fill="#FFFFFF" height="316.1641" style="stroke:#181818;stroke-width:1.0;" width="10" x="554.5" y="547.1797"/><rect fill="#FFFFFF" height="90.7031" style="stroke:#181818;stroke-width:1.0;" width="10" x="730.5" y="335.0703"/><rect fill="#FFFFFF" height="332.1641" style="stroke:#181818;stroke-width:1.0;" width="10" x="730.5" y="577.5313"/><rect fill="#FFFFFF" height="126.4063" style="stroke:#181818;stroke-width:1.0;" width="10" x="735.5" y="736.9375"/><rect fill="#FFFFFF" height="30" style="stroke:#181818;stroke-width:1.0;" width="10" x="1018.5" y="365.4219"/><rect fill="#FFFFFF" height="30.3516" style="stroke:#181818;stroke-width:1.0;" width="10" x="1133.5" y="607.8828"/><rect fill="#FFFFFF" height="91.0547" style="stroke:#181818;stroke-width:1.0;" width="10" x="1133.5" y="772.2891"/><rect fill="#FFFFFF" height="30" style="stroke:#181818;stroke-width:1.0;" width="10" x="1326.5" y="668.5859"/><rect height="711.0313" style="stroke:#000000;stroke-width:1.5;fill:none;" width="1393" x="10" y="190.6641"/><line style="stroke:#181818;stroke-width:0.5;fill:none;stroke-dasharray:5.0,5.0;" x1="64" x2="64" y1="82.6094" y2="918.6953"/><line style="stroke:#181818;stroke-width:0.5;fill:none;stroke-dasharray:5.0,5.0;" x1="386.5" x2="386.5" y1="82.6094" y2="918.6953"/><line style="stroke:#181818;stroke-width:0.5;fill:none;stroke-dasharray:5.0,5.0;" x1="559.5" x2="559.5" y1="82.6094" y2="918.6953"/><line style="stroke:#181818;stroke-width:0.5;fill:none;stroke-dasharray:5.0,5.0;" x1="735.5" x2="735.5" y1="82.6094" y2="918.6953"/><line style="stroke:#181818;stroke-width:0.5;fill:none;stroke-dasharray:5.0,5.0;" x1="1023" x2="1023" y1="82.6094" y2="918.6953"/><line style="stroke:#181818;stroke-width:0.5;fill:none;stroke-dasharray:5.0,5.0;" x1="1138" x2="1138" y1="82.6094" y2="918.6953"/><line style="stroke:#181818;stroke-width:0.5;fill:none;stroke-dasharray:5.0,5.0;" x1="1226" x2="1226" y1="82.6094" y2="918.6953"/><line style="stroke:#181818;stroke-width:0.5;fill:none;stroke-dasharray:5.0,5.0;" x1="1331" x2="1331" y1="82.6094" y2="918.6953"/><line style="stroke:#181818;stroke-width:0.5;fill:none;stroke-dasharray:5.0,5.0;" x1="1449" x2="1449" y1="82.6094" y2="918.6953"/><line style="stroke:#181818;stroke-width:0.5;fill:none;stroke-dasharray:5.0,5.0;" x1="1564" x2="1564" y1="82.6094" y2="918.6953"/><line style="stroke:#181818;stroke-width:0.5;fill:none;stroke-dasharray:5.0,5.0;" x1="1688" x2="1688" y1="82.6094" y2="918.6953"/><text fill="#000000" font-family="sans-serif" font-size="14" lengthAdjust="spacing" textLength="83" x="20" y="79.5332">Administrator</text><ellipse cx="64.5" cy="13.5" fill="#E2E2F0" rx="8" ry="8" style="stroke:#181818;stroke-width:0.5;"/><path d="M64.5,21.5 L64.5,48.5 M51.5,29.5 L77.5,29.5 M64.5,48.5 L51.5,63.5 M64.5,48.5 L77.5,63.5 " fill="none" style="stroke:#181818;stroke-width:0.5;"/><text fill="#000000" font-family="sans-serif" font-size="14" lengthAdjust="spacing" textLength="83" x="20" y="932.2285">Administrator</text><ellipse cx="64.5" cy="943.8047" fill="#E2E2F0" rx="8" ry="8" style="stroke:#181818;stroke-width:0.5;"/><path d="M64.5,951.8047 L64.5,978.8047 M51.5,959.8047 L77.5,959.8047 M64.5,978.8047 L51.5,993.8047 M64.5,978.8047 L77.5,993.8047 " fill="none" style="stroke:#181818;stroke-width:0.5;"/><rect fill="#E2E2F0" height="31.6094" rx="2.5" ry="2.5" style="stroke:#181818;stroke-width:0.5;" width="138" x="317.5" y="50"/><text fill="#000000" font-family="sans-serif" font-size="14" lengthAdjust="spacing" textLength="124" x="324.5" y="71.5332">:AddSNSfromCSVUI</text><rect fill="#E2E2F0" height="31.6094" rx="2.5" ry="2.5" style="stroke:#181818;stroke-width:0.5;" width="138" x="317.5" y="917.6953"/><text fill="#000000" font-family="sans-serif" font-size="14" lengthAdjust="spacing" textLength="124" x="324.5" y="939.2285">:AddSNSfromCSVUI</text><rect fill="#E2E2F0" height="31.6094" rx="2.5" ry="2.5" style="stroke:#181818;stroke-width:0.5;" width="188" x="465.5" y="50"/><text fill="#000000" font-family="sans-serif" font-size="14" lengthAdjust="spacing" textLength="174" x="472.5" y="71.5332">:AddSNSfromCSVController</text><rect fill="#E2E2F0" height="31.6094" rx="2.5" ry="2.5" style="stroke:#181818;stroke-width:0.5;" width="188" x="465.5" y="917.6953"/><text fill="#000000" font-family="sans-serif" font-size="14" lengthAdjust="spacing" textLength="174" x="472.5" y="939.2285">:AddSNSfromCSVController</text><rect fill="#E2E2F0" height="31.6094" rx="2.5" ry="2.5" style="stroke:#181818;stroke-width:0.5;" width="74" x="698.5" y="50"/><text fill="#000000" font-family="sans-serif" font-size="14" lengthAdjust="spacing" textLength="60" x="705.5" y="71.5332">Company</text><rect fill="#E2E2F0" height="31.6094" rx="2.5" ry="2.5" style="stroke:#181818;stroke-width:0.5;" width="74" x="698.5" y="917.6953"/><text fill="#000000" font-family="sans-serif" font-size="14" lengthAdjust="spacing" textLength="60" x="705.5" y="939.2285">Company</text><rect fill="#E2E2F0" height="31.6094" rx="2.5" ry="2.5" style="stroke:#181818;stroke-width:0.5;" width="121" x="963" y="50"/><text fill="#000000" font-family="sans-serif" font-size="14" lengthAdjust="spacing" textLength="107" x="970" y="71.5332">:MapperSNSuser</text><rect fill="#E2E2F0" height="31.6094" rx="2.5" ry="2.5" style="stroke:#181818;stroke-width:0.5;" width="121" x="963" y="917.6953"/><text fill="#000000" font-family="sans-serif" font-size="14" lengthAdjust="spacing" textLength="107" x="970" y="939.2285">:MapperSNSuser</text><rect fill="#E2E2F0" height="31.6094" rx="2.5" ry="2.5" style="stroke:#181818;stroke-width:0.5;" width="89" x="1094" y="50"/><text fill="#000000" font-family="sans-serif" font-size="14" lengthAdjust="spacing" textLength="75" x="1101" y="71.5332">dtoSNSuser</text><rect fill="#E2E2F0" height="31.6094" rx="2.5" ry="2.5" style="stroke:#181818;stroke-width:0.5;" width="89" x="1094" y="917.6953"/><text fill="#000000" font-family="sans-serif" font-size="14" lengthAdjust="spacing" textLength="75" x="1101" y="939.2285">dtoSNSuser</text><rect fill="#E2E2F0" height="31.6094" rx="2.5" ry="2.5" style="stroke:#181818;stroke-width:0.5;" width="67" x="1193" y="50"/><text fill="#000000" font-family="sans-serif" font-size="14" lengthAdjust="spacing" textLength="53" x="1200" y="71.5332">app:App</text><rect fill="#E2E2F0" height="31.6094" rx="2.5" ry="2.5" style="stroke:#181818;stroke-width:0.5;" width="67" x="1193" y="917.6953"/><text fill="#000000" font-family="sans-serif" font-size="14" lengthAdjust="spacing" textLength="53" x="1200" y="939.2285">app:App</text><rect fill="#E2E2F0" height="31.6094" rx="2.5" ry="2.5" style="stroke:#181818;stroke-width:0.5;" width="123" x="1270" y="50"/><text fill="#000000" font-family="sans-serif" font-size="14" lengthAdjust="spacing" textLength="109" x="1277" y="71.5332">auth:AuthFacade</text><rect fill="#E2E2F0" height="31.6094" rx="2.5" ry="2.5" style="stroke:#181818;stroke-width:0.5;" width="123" x="1270" y="917.6953"/><text fill="#000000" font-family="sans-serif" font-size="14" lengthAdjust="spacing" textLength="109" x="1277" y="939.2285">auth:AuthFacade</text><rect fill="#E2E2F0" height="31.6094" rx="2.5" ry="2.5" style="stroke:#181818;stroke-width:0.5;" width="92" x="1403" y="50"/><text fill="#000000" font-family="sans-serif" font-size="14" lengthAdjust="spacing" textLength="78" x="1410" y="71.5332">em:SNSuser</text><rect fill="#E2E2F0" height="31.6094" rx="2.5" ry="2.5" style="stroke:#181818;stroke-width:0.5;" width="92" x="1403" y="917.6953"/><text fill="#000000" font-family="sans-serif" font-size="14" lengthAdjust="spacing" textLength="78" x="1410" y="939.2285">em:SNSuser</text><rect fill="#E2E2F0" height="31.6094" rx="2.5" ry="2.5" style="stroke:#181818;stroke-width:0.5;" width="118" x="1505" y="50"/><text fill="#000000" font-family="sans-serif" font-size="14" lengthAdjust="spacing" textLength="104" x="1512" y="71.5332">validate:Validate</text><rect fill="#E2E2F0" height="31.6094" rx="2.5" ry="2.5" style="stroke:#181818;stroke-width:0.5;" width="118" x="1505" y="917.6953"/><text fill="#000000" font-family="sans-serif" font-size="14" lengthAdjust="spacing" textLength="104" x="1512" y="939.2285">validate:Validate</text><rect fill="#E2E2F0" height="49.2188" rx="2.5" ry="2.5" style="stroke:#181818;stroke-width:0.5;" width="111" x="1633" y="32.3906"/><text fill="#000000" font-family="sans-serif" font-size="14" lengthAdjust="spacing" textLength="77" x="1648" y="53.9238">SNSuserList</text><text fill="#000000" font-family="sans-serif" font-size="14" lengthAdjust="spacing" textLength="97" x="1640" y="71.5332">:List&lt;SNSuser&gt;</text><rect fill="#E2E2F0" height="49.2188" rx="2.5" ry="2.5" style="stroke:#181818;stroke-width:0.5;" width="111" x="1633" y="917.6953"/><text fill="#000000" font-family="sans-serif" font-size="14" lengthAdjust="spacing" textLength="77" x="1648" y="939.2285">SNSuserList</text><text fill="#000000" font-family="sans-serif" font-size="14" lengthAdjust="spacing" textLength="97" x="1640" y="956.8379">:List&lt;SNSuser&gt;</text><rect fill="#FFFFFF" height="817.0859" style="stroke:#181818;stroke-width:1.0;" width="10" x="59.5" y="92.6094"/><rect fill="#FFFFFF" height="30.3516" style="stroke:#181818;stroke-width:1.0;" width="10" x="381.5" y="114.9609"/><rect fill="#FFFFFF" height="310.8125" style="stroke:#181818;stroke-width:1.0;" width="10" x="381.5" y="175.6641"/><rect fill="#FFFFFF" height="28" style="stroke:#181818;stroke-width:1.0;" width="10" x="386.5" y="239.3672"/><rect fill="#FFFFFF" height="376.8672" style="stroke:#181818;stroke-width:1.0;" width="10" x="381.5" y="516.8281"/><rect fill="#FFFFFF" height="151.4063" style="stroke:#181818;stroke-width:1.0;" width="10" x="554.5" y="304.7188"/><rect fill="#FFFFFF" height="316.1641" style="stroke:#181818;stroke-width:1.0;" width="10" x="554.5" y="547.1797"/><rect fill="#FFFFFF" height="90.7031" style="stroke:#181818;stroke-width:1.0;" width="10" x="730.5" y="335.0703"/><rect fill="#FFFFFF" height="332.1641" style="stroke:#181818;stroke-width:1.0;" width="10" x="730.5" y="577.5313"/><rect fill="#FFFFFF" height="126.4063" style="stroke:#181818;stroke-width:1.0;" width="10" x="735.5" y="736.9375"/><rect fill="#FFFFFF" height="30" style="stroke:#181818;stroke-width:1.0;" width="10" x="1018.5" y="365.4219"/><rect fill="#FFFFFF" height="30.3516" style="stroke:#181818;stroke-width:1.0;" width="10" x="1133.5" y="607.8828"/><rect fill="#FFFFFF" height="91.0547" style="stroke:#181818;stroke-width:1.0;" width="10" x="1133.5" y="772.2891"/><rect fill="#FFFFFF" height="30" style="stroke:#181818;stroke-width:1.0;" width="10" x="1326.5" y="668.5859"/><polygon fill="#181818" points="369.5,110.9609,379.5,114.9609,369.5,118.9609,373.5,114.9609" style="stroke:#181818;stroke-width:1.0;"/><line style="stroke:#181818;stroke-width:1.0;" x1="69.5" x2="375.5" y1="114.9609" y2="114.9609"/><text fill="#000000" font-family="sans-serif" font-size="13" font-weight="bold" lengthAdjust="spacing" textLength="7" x="76.5" y="110.1045">1</text><text fill="#000000" font-family="sans-serif" font-size="13" lengthAdjust="spacing" textLength="240" x="87.5" y="110.1045">Request register new Users from CSV file</text><polygon fill="#181818" points="80.5,141.3125,70.5,145.3125,80.5,149.3125,76.5,145.3125" style="stroke:#181818;stroke-width:1.0;"/><line style="stroke:#181818;stroke-width:1.0;stroke-dasharray:2.0,2.0;" x1="74.5" x2="385.5" y1="145.3125" y2="145.3125"/><text fill="#000000" font-family="sans-serif" font-size="13" font-weight="bold" lengthAdjust="spacing" textLength="7" x="86.5" y="140.4561">2</text><text fill="#000000" font-family="sans-serif" font-size="13" lengthAdjust="spacing" textLength="231" x="97.5" y="140.4561">request data(file name or address of file)</text><polygon fill="#181818" points="369.5,171.6641,379.5,175.6641,369.5,179.6641,373.5,175.6641" style="stroke:#181818;stroke-width:1.0;"/><line style="stroke:#181818;stroke-width:1.0;" x1="69.5" x2="375.5" y1="175.6641" y2="175.6641"/><text fill="#000000" font-family="sans-serif" font-size="13" font-weight="bold" lengthAdjust="spacing" textLength="7" x="76.5" y="170.8076">3</text><text fill="#000000" font-family="sans-serif" font-size="13" lengthAdjust="spacing" textLength="125" x="87.5" y="170.8076">Types requested data</text><path d="M10,190.6641 L91,190.6641 L91,199.0156 L81,209.0156 L10,209.0156 L10,190.6641 " fill="#EEEEEE" style="stroke:#000000;stroke-width:1.5;"/><rect fill="none" height="711.0313" style="stroke:#000000;stroke-width:1.5;" width="1393" x="10" y="190.6641"/><text fill="#000000" font-family="sans-serif" font-size="13" font-weight="bold" lengthAdjust="spacing" textLength="32" x="25" y="205.1592">loop:</text><text fill="#000000" font-family="sans-serif" font-size="11" font-weight="bold" lengthAdjust="spacing" textLength="261" x="106" y="204.083">[while CSV file has a line with valid information]</text><line style="stroke:#181818;stroke-width:1.0;" x1="396.5" x2="438.5" y1="231.3672" y2="231.3672"/><line style="stroke:#181818;stroke-width:1.0;" x1="438.5" x2="438.5" y1="231.3672" y2="244.3672"/><line style="stroke:#181818;stroke-width:1.0;" x1="397.5" x2="438.5" y1="244.3672" y2="244.3672"/><polygon fill="#181818" points="407.5,240.3672,397.5,244.3672,407.5,248.3672,403.5,244.3672" style="stroke:#181818;stroke-width:1.0;"/><text fill="#000000" font-family="sans-serif" font-size="13" font-weight="bold" lengthAdjust="spacing" textLength="7" x="403.5" y="226.5107">4</text><text fill="#000000" font-family="sans-serif" font-size="13" lengthAdjust="spacing" textLength="127" x="414.5" y="226.5107">validateContents(Line)</text><polygon fill="#181818" points="542.5,300.7188,552.5,304.7188,542.5,308.7188,546.5,304.7188" style="stroke:#181818;stroke-width:1.0;"/><line style="stroke:#181818;stroke-width:1.0;" x1="391.5" x2="548.5" y1="304.7188" y2="304.7188"/><text fill="#000000" font-family="sans-serif" font-size="13" font-weight="bold" lengthAdjust="spacing" textLength="7" x="398.5" y="299.8623">5</text><text fill="#000000" font-family="sans-serif" font-size="13" lengthAdjust="spacing" textLength="114" x="409.5" y="299.8623">createSNSuser(dto)</text><polygon fill="#181818" points="718.5,331.0703,728.5,335.0703,718.5,339.0703,722.5,335.0703" style="stroke:#181818;stroke-width:1.0;"/><line style="stroke:#181818;stroke-width:1.0;" x1="564.5" x2="724.5" y1="335.0703" y2="335.0703"/><text fill="#000000" font-family="sans-serif" font-size="13" font-weight="bold" lengthAdjust="spacing" textLength="7" x="571.5" y="330.2139">6</text><text fill="#000000" font-family="sans-serif" font-size="13" lengthAdjust="spacing" textLength="136" x="582.5" y="330.2139">us=createSNSuser(dto)</text><polygon fill="#181818" points="1006.5,361.4219,1016.5,365.4219,1006.5,369.4219,1010.5,365.4219" style="stroke:#181818;stroke-width:1.0;"/><line style="stroke:#181818;stroke-width:1.0;" x1="740.5" x2="1012.5" y1="365.4219" y2="365.4219"/><text fill="#000000" font-family="sans-serif" font-size="13" font-weight="bold" lengthAdjust="spacing" textLength="7" x="747.5" y="360.5654">7</text><text fill="#000000" font-family="sans-serif" font-size="13" lengthAdjust="spacing" textLength="111" x="758.5" y="360.5654">us=toSNSuser(dto)</text><polygon fill="#181818" points="723.5,421.7734,733.5,425.7734,723.5,429.7734,727.5,425.7734" style="stroke:#181818;stroke-width:1.0;"/><line style="stroke:#181818;stroke-width:1.0;" x1="564.5" x2="729.5" y1="425.7734" y2="425.7734"/><text fill="#000000" font-family="sans-serif" font-size="13" font-weight="bold" lengthAdjust="spacing" textLength="7" x="571.5" y="420.917">8</text><text fill="#000000" font-family="sans-serif" font-size="13" lengthAdjust="spacing" textLength="117" x="582.5" y="420.917">validateSNSuser(us)</text><polygon fill="#181818" points="402.5,452.125,392.5,456.125,402.5,460.125,398.5,456.125" style="stroke:#181818;stroke-width:1.0;"/><line style="stroke:#181818;stroke-width:1.0;stroke-dasharray:2.0,2.0;" x1="396.5" x2="558.5" y1="456.125" y2="456.125"/><text fill="#000000" font-family="sans-serif" font-size="13" font-weight="bold" lengthAdjust="spacing" textLength="7" x="408.5" y="451.2686">9</text><text fill="#000000" font-family="sans-serif" font-size="13" lengthAdjust="spacing" textLength="85" x="419.5" y="451.2686">printSNSuser()</text><polygon fill="#181818" points="80.5,482.4766,70.5,486.4766,80.5,490.4766,76.5,486.4766" style="stroke:#181818;stroke-width:1.0;"/><line style="stroke:#181818;stroke-width:1.0;stroke-dasharray:2.0,2.0;" x1="74.5" x2="385.5" y1="486.4766" y2="486.4766"/><text fill="#000000" font-family="sans-serif" font-size="13" font-weight="bold" lengthAdjust="spacing" textLength="14" x="86.5" y="481.6201">10</text><text fill="#000000" font-family="sans-serif" font-size="13" lengthAdjust="spacing" textLength="270" x="104.5" y="481.6201">shows the user data and requests confirmation</text><polygon fill="#181818" points="369.5,512.8281,379.5,516.8281,369.5,520.8281,373.5,516.8281" style="stroke:#181818;stroke-width:1.0;"/><line style="stroke:#181818;stroke-width:1.0;" x1="69.5" x2="375.5" y1="516.8281" y2="516.8281"/><text fill="#000000" font-family="sans-serif" font-size="13" font-weight="bold" lengthAdjust="spacing" textLength="14" x="76.5" y="511.9717">11</text><text fill="#000000" font-family="sans-serif" font-size="13" lengthAdjust="spacing" textLength="100" x="94.5" y="511.9717">confirms the data</text><polygon fill="#181818" points="542.5,543.1797,552.5,547.1797,542.5,551.1797,546.5,547.1797" style="stroke:#181818;stroke-width:1.0;"/><line style="stroke:#181818;stroke-width:1.0;" x1="391.5" x2="548.5" y1="547.1797" y2="547.1797"/><text fill="#000000" font-family="sans-serif" font-size="13" font-weight="bold" lengthAdjust="spacing" textLength="14" x="398.5" y="542.3232">12</text><text fill="#000000" font-family="sans-serif" font-size="13" lengthAdjust="spacing" textLength="104" x="416.5" y="542.3232">saveSNSuser(dto)</text><polygon fill="#181818" points="718.5,573.5313,728.5,577.5313,718.5,581.5313,722.5,577.5313" style="stroke:#181818;stroke-width:1.0;"/><line style="stroke:#181818;stroke-width:1.0;" x1="564.5" x2="724.5" y1="577.5313" y2="577.5313"/><text fill="#000000" font-family="sans-serif" font-size="13" font-weight="bold" lengthAdjust="spacing" textLength="14" x="571.5" y="572.6748">13</text><text fill="#000000" font-family="sans-serif" font-size="13" lengthAdjust="spacing" textLength="104" x="589.5" y="572.6748">saveSNSuser(dto)</text><polygon fill="#181818" points="1121.5,603.8828,1131.5,607.8828,1121.5,611.8828,1125.5,607.8828" style="stroke:#181818;stroke-width:1.0;"/><line style="stroke:#181818;stroke-width:1.0;" x1="740.5" x2="1127.5" y1="607.8828" y2="607.8828"/><text fill="#000000" font-family="sans-serif" font-size="13" font-weight="bold" lengthAdjust="spacing" textLength="14" x="747.5" y="603.0264">14</text><text fill="#000000" font-family="sans-serif" font-size="13" lengthAdjust="spacing" textLength="100" x="765.5" y="603.0264">name=getName()</text><polygon fill="#181818" points="1126.5,634.2344,1136.5,638.2344,1126.5,642.2344,1130.5,638.2344" style="stroke:#181818;stroke-width:1.0;"/><line style="stroke:#181818;stroke-width:1.0;" x1="740.5" x2="1132.5" y1="638.2344" y2="638.2344"/><text fill="#000000" font-family="sans-serif" font-size="13" font-weight="bold" lengthAdjust="spacing" textLength="14" x="747.5" y="633.3779">15</text><text fill="#000000" font-family="sans-serif" font-size="13" lengthAdjust="spacing" textLength="98" x="765.5" y="633.3779">email=getEmail()</text><polygon fill="#181818" points="1314.5,664.5859,1324.5,668.5859,1314.5,672.5859,1318.5,668.5859" style="stroke:#181818;stroke-width:1.0;"/><line style="stroke:#181818;stroke-width:1.0;" x1="740.5" x2="1320.5" y1="668.5859" y2="668.5859"/><text fill="#000000" font-family="sans-serif" font-size="13" font-weight="bold" lengthAdjust="spacing" textLength="14" x="747.5" y="663.7295">16</text><text fill="#000000" font-family="sans-serif" font-size="13" lengthAdjust="spacing" textLength="250" x="765.5" y="663.7295">addUserWithRole(name, email, pwd, roleId)</text><line style="stroke:#181818;stroke-width:1.0;" x1="740.5" x2="787.5" y1="723.9375" y2="723.9375"/><line style="stroke:#181818;stroke-width:1.0;" x1="787.5" x2="787.5" y1="723.9375" y2="736.9375"/><line style="stroke:#181818;stroke-width:1.0;" x1="746.5" x2="787.5" y1="736.9375" y2="736.9375"/><polygon fill="#181818" points="756.5,732.9375,746.5,736.9375,756.5,740.9375,752.5,736.9375" style="stroke:#181818;stroke-width:1.0;"/><text fill="#000000" font-family="sans-serif" font-size="13" font-weight="bold" lengthAdjust="spacing" textLength="14" x="752.5" y="719.0811">17</text><text fill="#000000" font-family="sans-serif" font-size="13" lengthAdjust="spacing" textLength="246" x="770.5" y="719.0811">validateSNSuserDTO(dtoSNSuser dto,int i)</text><polygon fill="#181818" points="1121.5,768.2891,1131.5,772.2891,1121.5,776.2891,1125.5,772.2891" style="stroke:#181818;stroke-width:1.0;"/><line style="stroke:#181818;stroke-width:1.0;" x1="745.5" x2="1127.5" y1="772.2891" y2="772.2891"/><text fill="#000000" font-family="sans-serif" font-size="13" font-weight="bold" lengthAdjust="spacing" textLength="14" x="752.5" y="767.4326">18</text><text fill="#000000" font-family="sans-serif" font-size="13" lengthAdjust="spacing" textLength="98" x="770.5" y="767.4326">email=getEmail()</text><polygon fill="#181818" points="1121.5,798.6406,1131.5,802.6406,1121.5,806.6406,1125.5,802.6406" style="stroke:#181818;stroke-width:1.0;"/><line style="stroke:#181818;stroke-width:1.0;" x1="745.5" x2="1127.5" y1="802.6406" y2="802.6406"/><text fill="#000000" font-family="sans-serif" font-size="13" font-weight="bold" lengthAdjust="spacing" textLength="14" x="752.5" y="797.7842">19</text><text fill="#000000" font-family="sans-serif" font-size="13" lengthAdjust="spacing" textLength="109" x="770.5" y="797.7842">cc=getCcNumber()</text><polygon fill="#181818" points="1121.5,828.9922,1131.5,832.9922,1121.5,836.9922,1125.5,832.9922" style="stroke:#181818;stroke-width:1.0;"/><line style="stroke:#181818;stroke-width:1.0;" x1="745.5" x2="1127.5" y1="832.9922" y2="832.9922"/><text fill="#000000" font-family="sans-serif" font-size="13" font-weight="bold" lengthAdjust="spacing" textLength="14" x="752.5" y="828.1357">20</text><text fill="#000000" font-family="sans-serif" font-size="13" lengthAdjust="spacing" textLength="151" x="770.5" y="828.1357">phone=getPhoneNumber()</text><polygon fill="#181818" points="1126.5,859.3438,1136.5,863.3438,1126.5,867.3438,1130.5,863.3438" style="stroke:#181818;stroke-width:1.0;"/><line style="stroke:#181818;stroke-width:1.0;" x1="740.5" x2="1132.5" y1="863.3438" y2="863.3438"/><text fill="#000000" font-family="sans-serif" font-size="13" font-weight="bold" lengthAdjust="spacing" textLength="14" x="747.5" y="858.4873">21</text><text fill="#000000" font-family="sans-serif" font-size="13" lengthAdjust="spacing" textLength="174" x="765.5" y="858.4873">SNSnumber=getSNSnumber()</text><polygon fill="#181818" points="80.5,889.6953,70.5,893.6953,80.5,897.6953,76.5,893.6953" style="stroke:#181818;stroke-width:1.0;"/><line style="stroke:#181818;stroke-width:1.0;stroke-dasharray:2.0,2.0;" x1="74.5" x2="385.5" y1="893.6953" y2="893.6953"/><text fill="#000000" font-family="sans-serif" font-size="13" font-weight="bold" lengthAdjust="spacing" textLength="14" x="86.5" y="888.8389">22</text><text fill="#000000" font-family="sans-serif" font-size="13" lengthAdjust="spacing" textLength="152" x="104.5" y="888.8389">informs operation success</text><!--MD5=[14391cfdbdc03606c53478dedb37b8be]
@startuml
'https://plantuml.com/class-diagram

autonumber
    actor "Administrator" as ADM

    participant ":AddSNSfromCSVUI" as UI
    participant ":AddSNSfromCSVController" as  CTRL
    participant "Company" as COMP
    participant ":MapperSNSuser" as MAPPER
    participant "dtoSNSuser" as DTO
    participant "app:App" as APP
    participant "auth:AuthFacade" as AUTH
    participant "em:SNSuser" as SNS
    participant "validate:Validate" as VALID
    participant "SNSuserList \n:List<SNSuser>"

        activate ADM
       ADM -> UI: Request register new Users from CSV file
       activate UI
       UI - -> ADM: request data(file name or address of file)
       deactivate UI
       UI <- ADM: Types requested data

       activate UI

       group loop: [while CSV file has a line with valid information]
       UI->UI:validateContents(Line)
       activate UI
       deactivate UI
       UI->CTRL: createSNSuser(dto)
       activate CTRL
       CTRL->COMP: us=createSNSuser(dto)
       activate COMP
       COMP->MAPPER: us=toSNSuser(dto)
       activate MAPPER
       deactivate MAPPER
       CTRL->COMP: validateSNSuser(us)
        deactivate COMP
       CTRL- ->UI: printSNSuser()
       deactivate CTRL
       ADM <- - UI: shows the user data and requests confirmation
       deactivate UI
       ADM -> UI: confirms the data
       activate UI
       UI->CTRL:saveSNSuser(dto)
       activate CTRL
       CTRL->COMP:saveSNSuser(dto)
       activate COMP
       COMP->DTO:name=getName()
       activate DTO
       COMP->DTO:email=getEmail()
       deactivate DTO
       COMP->AUTH:addUserWithRole(name, email, pwd, roleId)
       activate AUTH
       deactivate AUTH
       COMP->COMP:validateSNSuserDTO(dtoSNSuser dto,int i)
       activate COMP
       COMP->DTO: email=getEmail()
       activate DTO
       COMP->DTO:cc=getCcNumber()
       COMP->DTO:phone=getPhoneNumber()
       COMP->DTO:SNSnumber=getSNSnumber()
       deactivate DTO
       deactivate COMP
       deactivate CTRL


       ADM <- - UI: informs operation success
       deactivate UI
       end
       @enduml

@startuml

autonumber
    actor "Administrator" as ADM

    participant ":AddSNSfromCSVUI" as UI
    participant ":AddSNSfromCSVController" as  CTRL
    participant "Company" as COMP
    participant ":MapperSNSuser" as MAPPER
    participant "dtoSNSuser" as DTO
    participant "app:App" as APP
    participant "auth:AuthFacade" as AUTH
    participant "em:SNSuser" as SNS
    participant "validate:Validate" as VALID
    participant "SNSuserList \n:List<SNSuser>"

        activate ADM
       ADM -> UI: Request register new Users from CSV file
       activate UI
       UI - -> ADM: request data(file name or address of file)
       deactivate UI
       UI <- ADM: Types requested data

       activate UI

       group loop: [while CSV file has a line with valid information]
       UI->UI:validateContents(Line)
       activate UI
       deactivate UI
       UI->CTRL: createSNSuser(dto)
       activate CTRL
       CTRL->COMP: us=createSNSuser(dto)
       activate COMP
       COMP->MAPPER: us=toSNSuser(dto)
       activate MAPPER
       deactivate MAPPER
       CTRL->COMP: validateSNSuser(us)
        deactivate COMP
       CTRL- ->UI: printSNSuser()
       deactivate CTRL
       ADM <- - UI: shows the user data and requests confirmation
       deactivate UI
       ADM -> UI: confirms the data
       activate UI
       UI->CTRL:saveSNSuser(dto)
       activate CTRL
       CTRL->COMP:saveSNSuser(dto)
       activate COMP
       COMP->DTO:name=getName()
       activate DTO
       COMP->DTO:email=getEmail()
       deactivate DTO
       COMP->AUTH:addUserWithRole(name, email, pwd, roleId)
       activate AUTH
       deactivate AUTH
       COMP->COMP:validateSNSuserDTO(dtoSNSuser dto,int i)
       activate COMP
       COMP->DTO: email=getEmail()
       activate DTO
       COMP->DTO:cc=getCcNumber()
       COMP->DTO:phone=getPhoneNumber()
       COMP->DTO:SNSnumber=getSNSnumber()
       deactivate DTO
       deactivate COMP
       deactivate CTRL


       ADM <- - UI: informs operation success
       deactivate UI
       end
       @enduml

PlantUML version 1.2022.4(Sat Apr 09 14:29:17 BST 2022)
(GPL source distribution)
Java Runtime: OpenJDK Runtime Environment
JVM: OpenJDK 64-Bit Server VM
Default Encoding: Cp1252
Language: pt
Country: PT
--></g></svg>