<?xml version="1.0" encoding="UTF-8" standalone="no"?><svg xmlns="http://www.w3.org/2000/svg" xmlns:xlink="http://www.w3.org/1999/xlink" contentStyleType="text/css" height="427px" preserveAspectRatio="none" style="width:623px;height:427px;background:#FFFFFF;" version="1.1" viewBox="0 0 623 427" width="623px" zoomAndPan="magnify"><defs/><g><rect fill="#FFFFFF" height="205.9219" style="stroke:#181818;stroke-width:1.0;" width="10" x="141" y="69.9609"/><rect fill="#FFFFFF" height="30" style="stroke:#181818;stroke-width:1.0;" width="10" x="404" y="142.9219"/><rect fill="#FFFFFF" height="30" style="stroke:#181818;stroke-width:1.0;" width="10" x="404" y="342.5859"/><rect fill="#FFFFFF" height="30" style="stroke:#181818;stroke-width:1.0;" width="10" x="524.5" y="245.8828"/><rect fill="#FFFFFF" height="30" style="stroke:#181818;stroke-width:1.0;" width="10" x="524.5" y="342.5859"/><line style="stroke:#181818;stroke-width:0.5;stroke-dasharray:5.0,5.0;" x1="146" x2="146" y1="37.6094" y2="390.5859"/><line style="stroke:#181818;stroke-width:0.5;stroke-dasharray:5.0,5.0;" x1="409" x2="409" y1="109.2656" y2="390.5859"/><line style="stroke:#181818;stroke-width:0.5;stroke-dasharray:5.0,5.0;" x1="529" x2="529" y1="212.2266" y2="390.5859"/><rect fill="#E2E2F0" height="31.6094" rx="2.5" ry="2.5" style="stroke:#181818;stroke-width:0.5;" width="272" x="10" y="5"/><text fill="#000000" font-family="sans-serif" font-size="14" lengthAdjust="spacing" textLength="258" x="17" y="26.5332">:RegisterVaccineAdministrationController</text><rect fill="#E2E2F0" height="31.6094" rx="2.5" ry="2.5" style="stroke:#181818;stroke-width:0.5;" width="272" x="10" y="389.5859"/><text fill="#000000" font-family="sans-serif" font-size="14" lengthAdjust="spacing" textLength="258" x="17" y="411.1191">:RegisterVaccineAdministrationController</text><rect fill="#E2E2F0" height="31.6094" rx="2.5" ry="2.5" style="stroke:#181818;stroke-width:0.5;" width="136" x="341" y="389.5859"/><text fill="#000000" font-family="sans-serif" font-size="14" lengthAdjust="spacing" textLength="122" x="348" y="411.1191">sms:SendSMSTask</text><rect fill="#E2E2F0" height="31.6094" rx="2.5" ry="2.5" style="stroke:#181818;stroke-width:0.5;" width="85" x="487" y="389.5859"/><text fill="#000000" font-family="sans-serif" font-size="14" lengthAdjust="spacing" textLength="71" x="494" y="411.1191">timer:Timer</text><rect fill="#FFFFFF" height="205.9219" style="stroke:#181818;stroke-width:1.0;" width="10" x="141" y="69.9609"/><rect fill="#FFFFFF" height="30" style="stroke:#181818;stroke-width:1.0;" width="10" x="404" y="142.9219"/><rect fill="#FFFFFF" height="30" style="stroke:#181818;stroke-width:1.0;" width="10" x="404" y="342.5859"/><rect fill="#FFFFFF" height="30" style="stroke:#181818;stroke-width:1.0;" width="10" x="524.5" y="245.8828"/><rect fill="#FFFFFF" height="30" style="stroke:#181818;stroke-width:1.0;" width="10" x="524.5" y="342.5859"/><polygon fill="#181818" points="129,65.9609,139,69.9609,129,73.9609,133,69.9609" style="stroke:#181818;stroke-width:1.0;"/><line style="stroke:#181818;stroke-width:1.0;" x1="0" x2="135" y1="69.9609" y2="69.9609"/><text fill="#000000" font-family="sans-serif" font-size="13" font-weight="bold" lengthAdjust="spacing" textLength="7" x="7" y="65.1045">1</text><text fill="#000000" font-family="sans-serif" font-size="13" lengthAdjust="spacing" textLength="111" x="18" y="65.1045">sendSMS(minutes)</text><polygon fill="#181818" points="329,96.3125,339,100.3125,329,104.3125,333,100.3125" style="stroke:#181818;stroke-width:1.0;"/><line style="stroke:#181818;stroke-width:1.0;" x1="151" x2="335" y1="100.3125" y2="100.3125"/><text fill="#000000" font-family="sans-serif" font-size="13" font-weight="bold" lengthAdjust="spacing" textLength="7" x="158" y="95.4561">2</text><text fill="#000000" font-family="sans-serif" font-size="13" lengthAdjust="spacing" textLength="155" x="169" y="95.4561">sms=new SendSMSTask()</text><rect fill="#E2E2F0" height="31.6094" rx="2.5" ry="2.5" style="stroke:#181818;stroke-width:0.5;" width="136" x="341" y="77.9609"/><text fill="#000000" font-family="sans-serif" font-size="14" lengthAdjust="spacing" textLength="122" x="348" y="99.4941">sms:SendSMSTask</text><polygon fill="#181818" points="392,138.9219,402,142.9219,392,146.9219,396,142.9219" style="stroke:#181818;stroke-width:1.0;"/><line style="stroke:#181818;stroke-width:1.0;" x1="151" x2="398" y1="142.9219" y2="142.9219"/><text fill="#000000" font-family="sans-serif" font-size="13" font-weight="bold" lengthAdjust="spacing" textLength="7" x="158" y="138.0654">3</text><text fill="#000000" font-family="sans-serif" font-size="13" lengthAdjust="spacing" textLength="132" x="169" y="138.0654">setMessage(message)</text><polygon fill="#181818" points="475,199.2734,485,203.2734,475,207.2734,479,203.2734" style="stroke:#181818;stroke-width:1.0;"/><line style="stroke:#181818;stroke-width:1.0;" x1="151" x2="481" y1="203.2734" y2="203.2734"/><text fill="#000000" font-family="sans-serif" font-size="13" font-weight="bold" lengthAdjust="spacing" textLength="7" x="158" y="198.417">4</text><text fill="#000000" font-family="sans-serif" font-size="13" lengthAdjust="spacing" textLength="67" x="169" y="198.417">new Timer()</text><rect fill="#E2E2F0" height="31.6094" rx="2.5" ry="2.5" style="stroke:#181818;stroke-width:0.5;" width="85" x="487" y="180.9219"/><text fill="#000000" font-family="sans-serif" font-size="14" lengthAdjust="spacing" textLength="71" x="494" y="202.4551">timer:Timer</text><polygon fill="#181818" points="512.5,241.8828,522.5,245.8828,512.5,249.8828,516.5,245.8828" style="stroke:#181818;stroke-width:1.0;"/><line style="stroke:#181818;stroke-width:1.0;" x1="151" x2="518.5" y1="245.8828" y2="245.8828"/><text fill="#000000" font-family="sans-serif" font-size="13" font-weight="bold" lengthAdjust="spacing" textLength="7" x="158" y="241.0264">5</text><text fill="#000000" font-family="sans-serif" font-size="13" lengthAdjust="spacing" textLength="118" x="169" y="241.0264">schedule(sms,time);</text><path d="M59,288.8828 L59,314.8828 L616,314.8828 L616,298.8828 L606,288.8828 L59,288.8828 " fill="#FEFFDD" style="stroke:#181818;stroke-width:0.5;"/><path d="M606,288.8828 L606,298.8828 L616,298.8828 L606,288.8828 " fill="#FEFFDD" style="stroke:#181818;stroke-width:0.5;"/><text fill="#000000" font-family="sans-serif" font-size="13" lengthAdjust="spacing" textLength="348" x="159" y="307.3779">"After the expecified time passed, the message will be sent"</text><polygon fill="#181818" points="425,338.5859,415,342.5859,425,346.5859,421,342.5859" style="stroke:#181818;stroke-width:1.0;"/><line style="stroke:#181818;stroke-width:1.0;" x1="419" x2="523.5" y1="342.5859" y2="342.5859"/><text fill="#000000" font-family="sans-serif" font-size="13" font-weight="bold" lengthAdjust="spacing" textLength="7" x="431" y="337.7295">6</text><text fill="#000000" font-family="sans-serif" font-size="13" lengthAdjust="spacing" textLength="26" x="442" y="337.7295">run()</text><!--MD5=[a9b65668ab823692039fc74d3b420ced]
@startuml
'https://plantuml.com/sequence-diagram

participant ":RegisterVaccineAdministrationController" as  CTRL
participant "sms:SendSMSTask" as task
participant "timer:Timer" as timer

autonumber

->CTRL:sendSMS(minutes)
activate CTRL
create task
CTRL->task:sms=new SendSMSTask()
CTRL->task:setMessage(message)
activate task
deactivate task
create timer
CTRL->timer:new Timer()
CTRL->timer:schedule(sms,time);
activate timer
deactivate timer
deactivate CTRL
note across:"After the expecified time passed, the message will be sent"
timer->task:run()
activate task
activate timer
deactivate timer
deactivate task



@enduml

@startuml

participant ":RegisterVaccineAdministrationController" as  CTRL
participant "sms:SendSMSTask" as task
participant "timer:Timer" as timer

autonumber

->CTRL:sendSMS(minutes)
activate CTRL
create task
CTRL->task:sms=new SendSMSTask()
CTRL->task:setMessage(message)
activate task
deactivate task
create timer
CTRL->timer:new Timer()
CTRL->timer:schedule(sms,time);
activate timer
deactivate timer
deactivate CTRL
note across:"After the expecified time passed, the message will be sent"
timer->task:run()
activate task
activate timer
deactivate timer
deactivate task



@enduml

PlantUML version 1.2022.5(Sat Apr 30 11:55:52 BST 2022)
(GPL source distribution)
Java Runtime: OpenJDK Runtime Environment
JVM: OpenJDK 64-Bit Server VM
Default Encoding: Cp1252
Language: pt
Country: PT
--></g></svg>