<?xml version="1.0" encoding="UTF-8" standalone="no"?><svg xmlns="http://www.w3.org/2000/svg" xmlns:xlink="http://www.w3.org/1999/xlink" contentStyleType="text/css" height="1102.4px" preserveAspectRatio="none" style="width:2327px;height:1102px;background:#FFFFFF;" version="1.1" viewBox="0 0 2327 1102" width="2327.2px" zoomAndPan="magnify"><defs/><g><rect fill="#FFFFFF" height="955.7063" style="stroke:#181818;stroke-width:0.8000000000000002;" width="8" x="45.2" y="74.0875"/><rect fill="#FFFFFF" height="393.175" style="stroke:#181818;stroke-width:0.8000000000000002;" width="8" x="438.8" y="623.8188"/><rect fill="#FFFFFF" height="22.4" style="stroke:#181818;stroke-width:0.8000000000000002;" width="8" x="442.8" y="654.5"/><rect fill="#FFFFFF" height="96.5625" style="stroke:#181818;stroke-width:0.8000000000000002;" width="8" x="677.2" y="230.4563"/><rect fill="#FFFFFF" height="96.5625" style="stroke:#181818;stroke-width:0.8000000000000002;" width="8" x="677.2" y="375.5813"/><rect fill="#FFFFFF" height="24" style="stroke:#181818;stroke-width:0.8000000000000002;" width="8" x="677.2" y="502.025"/><rect fill="#FFFFFF" height="24" style="stroke:#181818;stroke-width:0.8000000000000002;" width="8" x="677.2" y="706.7813"/><rect fill="#FFFFFF" height="24" style="stroke:#181818;stroke-width:0.8000000000000002;" width="8" x="677.2" y="804.2938"/><rect fill="#FFFFFF" height="24" style="stroke:#181818;stroke-width:0.8000000000000002;" width="8" x="677.2" y="913.8813"/><rect fill="#FFFFFF" height="24" style="stroke:#181818;stroke-width:0.8000000000000002;" width="8" x="1006.8" y="303.0188"/><rect fill="#FFFFFF" height="24" style="stroke:#181818;stroke-width:0.8000000000000002;" width="8" x="1006.8" y="448.1438"/><rect fill="#FFFFFF" height="24" style="stroke:#181818;stroke-width:0.8000000000000002;" width="8" x="1486.8" y="254.7375"/><rect fill="#FFFFFF" height="24" style="stroke:#181818;stroke-width:0.8000000000000002;" width="8" x="1486.8" y="399.8625"/><rect height="914.625" style="stroke:#000000;stroke-width:1.2000000000000002;fill:none;" width="1606" x="8" y="108.7688"/><rect height="864.4625" style="stroke:#000000;stroke-width:1.2000000000000002;fill:none;" width="1590" x="16" y="129.05"/><rect height="304.9313" style="stroke:#000000;stroke-width:1.2000000000000002;fill:none;" width="1574" x="24" y="173.6125"/><line style="stroke:#181818;stroke-width:0.4000000000000001;fill:none;stroke-dasharray:5.0,5.0;" x1="48.8" x2="48.8" y1="66.0875" y2="1036.9938"/><line style="stroke:#181818;stroke-width:0.4000000000000001;fill:none;stroke-dasharray:5.0,5.0;" x1="442.8" x2="442.8" y1="66.0875" y2="1036.9938"/><line style="stroke:#181818;stroke-width:0.4000000000000001;fill:none;stroke-dasharray:5.0,5.0;" x1="681.2" x2="681.2" y1="66.0875" y2="1036.9938"/><line style="stroke:#181818;stroke-width:0.4000000000000001;fill:none;stroke-dasharray:5.0,5.0;" x1="1010.8" x2="1010.8" y1="66.0875" y2="1036.9938"/><line style="stroke:#181818;stroke-width:0.4000000000000001;fill:none;stroke-dasharray:5.0,5.0;" x1="1118" x2="1118" y1="66.0875" y2="1036.9938"/><line style="stroke:#181818;stroke-width:0.4000000000000001;fill:none;stroke-dasharray:5.0,5.0;" x1="1246.8" x2="1246.8" y1="66.0875" y2="1036.9938"/><line style="stroke:#181818;stroke-width:0.4000000000000001;fill:none;stroke-dasharray:5.0,5.0;" x1="1344.4" x2="1344.4" y1="66.0875" y2="1036.9938"/><line style="stroke:#181818;stroke-width:0.4000000000000001;fill:none;stroke-dasharray:5.0,5.0;" x1="1490.8" x2="1490.8" y1="66.0875" y2="1036.9938"/><line style="stroke:#181818;stroke-width:0.4000000000000001;fill:none;stroke-dasharray:5.0,5.0;" x1="1625.2" x2="1625.2" y1="66.0875" y2="1036.9938"/><line style="stroke:#181818;stroke-width:0.4000000000000001;fill:none;stroke-dasharray:5.0,5.0;" x1="1722.8" x2="1722.8" y1="66.0875" y2="1036.9938"/><line style="stroke:#181818;stroke-width:0.4000000000000001;fill:none;stroke-dasharray:5.0,5.0;" x1="1833.2" x2="1833.2" y1="66.0875" y2="1036.9938"/><line style="stroke:#181818;stroke-width:0.4000000000000001;fill:none;stroke-dasharray:5.0,5.0;" x1="1971.6" x2="1971.6" y1="66.0875" y2="1036.9938"/><line style="stroke:#181818;stroke-width:0.4000000000000001;fill:none;stroke-dasharray:5.0,5.0;" x1="2110" x2="2110" y1="66.0875" y2="1036.9938"/><line style="stroke:#181818;stroke-width:0.4000000000000001;fill:none;stroke-dasharray:5.0,5.0;" x1="2202" x2="2202" y1="66.0875" y2="1036.9938"/><line style="stroke:#181818;stroke-width:0.4000000000000001;fill:none;stroke-dasharray:5.0,5.0;" x1="2288.4" x2="2288.4" y1="66.0875" y2="1036.9938"/><text fill="#000000" font-family="sans-serif" font-size="11.2" lengthAdjust="spacing" textLength="29.6" x="32" y="63.6266">Nurse</text><ellipse cx="49.2" cy="10.8" fill="#E2E2F0" rx="6.4" ry="6.4" style="stroke:#181818;stroke-width:0.4000000000000001;"/><path d="M49.2,17.2 L49.2,38.8 M38.8,23.6 L59.6,23.6 M49.2,38.8 L38.8,50.8 M49.2,38.8 L59.6,50.8 " fill="none" style="stroke:#181818;stroke-width:0.4000000000000001;"/><text fill="#000000" font-family="sans-serif" font-size="11.2" lengthAdjust="spacing" textLength="29.6" x="32" y="1047.8203">Nurse</text><ellipse cx="49.2" cy="1057.0813" fill="#E2E2F0" rx="6.4" ry="6.4" style="stroke:#181818;stroke-width:0.4000000000000001;"/><path d="M49.2,1063.4813 L49.2,1085.0813 M38.8,1069.8813 L59.6,1069.8813 M49.2,1085.0813 L38.8,1097.0813 M49.2,1085.0813 L59.6,1097.0813 " fill="none" style="stroke:#181818;stroke-width:0.4000000000000001;"/><rect fill="#E2E2F0" height="25.2875" rx="2" ry="2" style="stroke:#181818;stroke-width:0.4000000000000001;" width="177.6" x="354" y="40"/><text fill="#000000" font-family="sans-serif" font-size="11.2" lengthAdjust="spacing" textLength="166.4" x="359.6" y="57.2266">:RegisterVaccineAdministrationUI</text><rect fill="#E2E2F0" height="25.2875" rx="2" ry="2" style="stroke:#181818;stroke-width:0.4000000000000001;" width="177.6" x="354" y="1036.1938"/><text fill="#000000" font-family="sans-serif" font-size="11.2" lengthAdjust="spacing" textLength="166.4" x="359.6" y="1053.4203">:RegisterVaccineAdministrationUI</text><rect fill="#E2E2F0" height="25.2875" rx="2" ry="2" style="stroke:#181818;stroke-width:0.4000000000000001;" width="217.6" x="572.4" y="40"/><text fill="#000000" font-family="sans-serif" font-size="11.2" lengthAdjust="spacing" textLength="206.4" x="578" y="57.2266">:RegisterVaccineAdministrationController</text><rect fill="#E2E2F0" height="25.2875" rx="2" ry="2" style="stroke:#181818;stroke-width:0.4000000000000001;" width="217.6" x="572.4" y="1036.1938"/><text fill="#000000" font-family="sans-serif" font-size="11.2" lengthAdjust="spacing" textLength="206.4" x="578" y="1053.4203">:RegisterVaccineAdministrationController</text><rect fill="#E2E2F0" height="25.2875" rx="2" ry="2" style="stroke:#181818;stroke-width:0.4000000000000001;" width="59.2" x="981.2" y="40"/><text fill="#000000" font-family="sans-serif" font-size="11.2" lengthAdjust="spacing" textLength="48" x="986.8" y="57.2266">Company</text><rect fill="#E2E2F0" height="25.2875" rx="2" ry="2" style="stroke:#181818;stroke-width:0.4000000000000001;" width="59.2" x="981.2" y="1036.1938"/><text fill="#000000" font-family="sans-serif" font-size="11.2" lengthAdjust="spacing" textLength="48" x="986.8" y="1053.4203">Company</text><rect fill="#E2E2F0" height="25.2875" rx="2" ry="2" style="stroke:#181818;stroke-width:0.4000000000000001;" width="139.2" x="1048.4" y="40"/><text fill="#000000" font-family="sans-serif" font-size="11.2" lengthAdjust="spacing" textLength="128" x="1054" y="57.2266">facility:VaccinationFacility</text><rect fill="#E2E2F0" height="25.2875" rx="2" ry="2" style="stroke:#181818;stroke-width:0.4000000000000001;" width="139.2" x="1048.4" y="1036.1938"/><text fill="#000000" font-family="sans-serif" font-size="11.2" lengthAdjust="spacing" textLength="128" x="1054" y="1053.4203">facility:VaccinationFacility</text><rect fill="#E2E2F0" height="25.2875" rx="2" ry="2" style="stroke:#181818;stroke-width:0.4000000000000001;" width="102.4" x="1195.6" y="40"/><text fill="#000000" font-family="sans-serif" font-size="11.2" lengthAdjust="spacing" textLength="91.2" x="1201.2" y="57.2266">snsUser:SNS user</text><rect fill="#E2E2F0" height="25.2875" rx="2" ry="2" style="stroke:#181818;stroke-width:0.4000000000000001;" width="102.4" x="1195.6" y="1036.1938"/><text fill="#000000" font-family="sans-serif" font-size="11.2" lengthAdjust="spacing" textLength="91.2" x="1201.2" y="1053.4203">snsUser:SNS user</text><rect fill="#E2E2F0" height="25.2875" rx="2" ry="2" style="stroke:#181818;stroke-width:0.4000000000000001;" width="77.6" x="1306" y="40"/><text fill="#000000" font-family="sans-serif" font-size="11.2" lengthAdjust="spacing" textLength="66.4" x="1311.6" y="57.2266">arrival:Arrival</text><rect fill="#E2E2F0" height="25.2875" rx="2" ry="2" style="stroke:#181818;stroke-width:0.4000000000000001;" width="77.6" x="1306" y="1036.1938"/><text fill="#000000" font-family="sans-serif" font-size="11.2" lengthAdjust="spacing" textLength="66.4" x="1311.6" y="1053.4203">arrival:Arrival</text><rect fill="#E2E2F0" height="25.2875" rx="2" ry="2" style="stroke:#181818;stroke-width:0.4000000000000001;" width="198.4" x="1391.6" y="40"/><text fill="#000000" font-family="sans-serif" font-size="11.2" lengthAdjust="spacing" textLength="187.2" x="1397.2" y="57.2266">appointment:VaccinationAppointment</text><rect fill="#E2E2F0" height="25.2875" rx="2" ry="2" style="stroke:#181818;stroke-width:0.4000000000000001;" width="198.4" x="1391.6" y="1036.1938"/><text fill="#000000" font-family="sans-serif" font-size="11.2" lengthAdjust="spacing" textLength="187.2" x="1397.2" y="1053.4203">appointment:VaccinationAppointment</text><rect fill="#E2E2F0" height="25.2875" rx="2" ry="2" style="stroke:#181818;stroke-width:0.4000000000000001;" width="54.4" x="1598" y="40"/><text fill="#000000" font-family="sans-serif" font-size="11.2" lengthAdjust="spacing" textLength="43.2" x="1603.6" y="57.2266">:Vaccine</text><rect fill="#E2E2F0" height="25.2875" rx="2" ry="2" style="stroke:#181818;stroke-width:0.4000000000000001;" width="54.4" x="1598" y="1036.1938"/><text fill="#000000" font-family="sans-serif" font-size="11.2" lengthAdjust="spacing" textLength="43.2" x="1603.6" y="1053.4203">:Vaccine</text><rect fill="#E2E2F0" height="25.2875" rx="2" ry="2" style="stroke:#181818;stroke-width:0.4000000000000001;" width="125.6" x="1660.4" y="40"/><text fill="#000000" font-family="sans-serif" font-size="11.2" lengthAdjust="spacing" textLength="114.4" x="1666" y="57.2266">:VaccineAdministration</text><rect fill="#E2E2F0" height="25.2875" rx="2" ry="2" style="stroke:#181818;stroke-width:0.4000000000000001;" width="125.6" x="1660.4" y="1036.1938"/><text fill="#000000" font-family="sans-serif" font-size="11.2" lengthAdjust="spacing" textLength="114.4" x="1666" y="1053.4203">:VaccineAdministration</text><rect fill="#E2E2F0" height="25.2875" rx="2" ry="2" style="stroke:#181818;stroke-width:0.4000000000000001;" width="79.2" x="1794" y="40"/><text fill="#000000" font-family="sans-serif" font-size="11.2" lengthAdjust="spacing" textLength="68" x="1799.6" y="57.2266">:VaccineCard</text><rect fill="#E2E2F0" height="25.2875" rx="2" ry="2" style="stroke:#181818;stroke-width:0.4000000000000001;" width="79.2" x="1794" y="1036.1938"/><text fill="#000000" font-family="sans-serif" font-size="11.2" lengthAdjust="spacing" textLength="68" x="1799.6" y="1053.4203">:VaccineCard</text><rect fill="#E2E2F0" height="39.375" rx="2" ry="2" style="stroke:#181818;stroke-width:0.4000000000000001;" width="180.8" x="1881.2" y="25.9125"/><text fill="#000000" font-family="sans-serif" font-size="11.2" lengthAdjust="spacing" textLength="68" x="1937.6" y="43.1391">adminstration</text><text fill="#000000" font-family="sans-serif" font-size="11.2" lengthAdjust="spacing" textLength="169.6" x="1886.8" y="57.2266">:VaccinationAdministrationRecord</text><rect fill="#E2E2F0" height="39.375" rx="2" ry="2" style="stroke:#181818;stroke-width:0.4000000000000001;" width="180.8" x="1881.2" y="1036.1938"/><text fill="#000000" font-family="sans-serif" font-size="11.2" lengthAdjust="spacing" textLength="68" x="1937.6" y="1053.4203">adminstration</text><text fill="#000000" font-family="sans-serif" font-size="11.2" lengthAdjust="spacing" textLength="169.6" x="1886.8" y="1067.5078">:VaccinationAdministrationRecord</text><rect fill="#E2E2F0" height="25.2875" rx="2" ry="2" style="stroke:#181818;stroke-width:0.4000000000000001;" width="80" x="2070" y="40"/><text fill="#000000" font-family="sans-serif" font-size="11.2" lengthAdjust="spacing" textLength="68.8" x="2075.6" y="57.2266">:TypeVaccine</text><rect fill="#E2E2F0" height="25.2875" rx="2" ry="2" style="stroke:#181818;stroke-width:0.4000000000000001;" width="80" x="2070" y="1036.1938"/><text fill="#000000" font-family="sans-serif" font-size="11.2" lengthAdjust="spacing" textLength="68.8" x="2075.6" y="1053.4203">:TypeVaccine</text><rect fill="#E2E2F0" height="25.2875" rx="2" ry="2" style="stroke:#181818;stroke-width:0.4000000000000001;" width="88.8" x="2158" y="40"/><text fill="#000000" font-family="sans-serif" font-size="11.2" lengthAdjust="spacing" textLength="77.6" x="2163.6" y="57.2266">:SendSMSTask</text><rect fill="#E2E2F0" height="25.2875" rx="2" ry="2" style="stroke:#181818;stroke-width:0.4000000000000001;" width="88.8" x="2158" y="1036.1938"/><text fill="#000000" font-family="sans-serif" font-size="11.2" lengthAdjust="spacing" textLength="77.6" x="2163.6" y="1053.4203">:SendSMSTask</text><rect fill="#E2E2F0" height="25.2875" rx="2" ry="2" style="stroke:#181818;stroke-width:0.4000000000000001;" width="68" x="2254.8" y="40"/><text fill="#000000" font-family="sans-serif" font-size="11.2" lengthAdjust="spacing" textLength="56.8" x="2260.4" y="57.2266">timer:Timer</text><rect fill="#E2E2F0" height="25.2875" rx="2" ry="2" style="stroke:#181818;stroke-width:0.4000000000000001;" width="68" x="2254.8" y="1036.1938"/><text fill="#000000" font-family="sans-serif" font-size="11.2" lengthAdjust="spacing" textLength="56.8" x="2260.4" y="1053.4203">timer:Timer</text><rect fill="#FFFFFF" height="955.7063" style="stroke:#181818;stroke-width:0.8000000000000002;" width="8" x="45.2" y="74.0875"/><rect fill="#FFFFFF" height="393.175" style="stroke:#181818;stroke-width:0.8000000000000002;" width="8" x="438.8" y="623.8188"/><rect fill="#FFFFFF" height="22.4" style="stroke:#181818;stroke-width:0.8000000000000002;" width="8" x="442.8" y="654.5"/><rect fill="#FFFFFF" height="96.5625" style="stroke:#181818;stroke-width:0.8000000000000002;" width="8" x="677.2" y="230.4563"/><rect fill="#FFFFFF" height="96.5625" style="stroke:#181818;stroke-width:0.8000000000000002;" width="8" x="677.2" y="375.5813"/><rect fill="#FFFFFF" height="24" style="stroke:#181818;stroke-width:0.8000000000000002;" width="8" x="677.2" y="502.025"/><rect fill="#FFFFFF" height="24" style="stroke:#181818;stroke-width:0.8000000000000002;" width="8" x="677.2" y="706.7813"/><rect fill="#FFFFFF" height="24" style="stroke:#181818;stroke-width:0.8000000000000002;" width="8" x="677.2" y="804.2938"/><rect fill="#FFFFFF" height="24" style="stroke:#181818;stroke-width:0.8000000000000002;" width="8" x="677.2" y="913.8813"/><rect fill="#FFFFFF" height="24" style="stroke:#181818;stroke-width:0.8000000000000002;" width="8" x="1006.8" y="303.0188"/><rect fill="#FFFFFF" height="24" style="stroke:#181818;stroke-width:0.8000000000000002;" width="8" x="1006.8" y="448.1438"/><rect fill="#FFFFFF" height="24" style="stroke:#181818;stroke-width:0.8000000000000002;" width="8" x="1486.8" y="254.7375"/><rect fill="#FFFFFF" height="24" style="stroke:#181818;stroke-width:0.8000000000000002;" width="8" x="1486.8" y="399.8625"/><path d="M25.6,78.0875 L25.6,98.8875 L2312,98.8875 L2312,86.0875 L2304,78.0875 L25.6,78.0875 " fill="#FEFFDD" style="stroke:#181818;stroke-width:0.4000000000000001;"/><path d="M2304,78.0875 L2304,86.0875 L2312,86.0875 L2304,78.0875 " fill="#FEFFDD" style="stroke:#181818;stroke-width:0.4000000000000001;"/><text fill="#000000" font-family="sans-serif" font-size="10.4" lengthAdjust="spacing" textLength="296" x="1017.4" y="92.8836">previous steps omitted, see previous diagram(US008_SD_Part1)</text><path d="M8,108.7688 L66.4,108.7688 L66.4,115.45 L58.4,123.45 L8,123.45 L8,108.7688 " fill="#EEEEEE" style="stroke:#000000;stroke-width:1.2000000000000002;"/><rect fill="none" height="914.625" style="stroke:#000000;stroke-width:1.2000000000000002;" width="1606" x="8" y="108.7688"/><text fill="#000000" font-family="sans-serif" font-size="10.4" font-weight="bold" lengthAdjust="spacing" textLength="22.4" x="20" y="120.3648">loop</text><text fill="#000000" font-family="sans-serif" font-size="8.8" font-weight="bold" lengthAdjust="spacing" textLength="282.4" x="78.4" y="119.5039">[If waiting list stil has a SNS user unless the nurse asks to stop]</text><path d="M16,129.05 L68,129.05 L68,135.7313 L60,143.7313 L16,143.7313 L16,129.05 " fill="#EEEEEE" style="stroke:#000000;stroke-width:1.2000000000000002;"/><rect fill="none" height="864.4625" style="stroke:#000000;stroke-width:1.2000000000000002;" width="1590" x="16" y="129.05"/><text fill="#000000" font-family="sans-serif" font-size="10.4" font-weight="bold" lengthAdjust="spacing" textLength="16" x="28" y="140.6461">opt</text><text fill="#000000" font-family="sans-serif" font-size="8.8" font-weight="bold" lengthAdjust="spacing" textLength="238.4" x="80" y="139.7852">[if SNS user has a scheduled vaccination appointment]</text><polygon fill="#181818" points="62,158.4125,54,161.6125,62,164.8125,58.8,161.6125" style="stroke:#181818;stroke-width:0.8000000000000002;"/><line style="stroke:#181818;stroke-width:0.8000000000000002;stroke-dasharray:2.0,2.0;" x1="57.2" x2="442" y1="161.6125" y2="161.6125"/><text fill="#000000" font-family="sans-serif" font-size="10.4" font-weight="bold" lengthAdjust="spacing" textLength="5.6" x="66.8" y="157.7273">1</text><text fill="#000000" font-family="sans-serif" font-size="10.4" lengthAdjust="spacing" textLength="296.8" x="75.6" y="157.7273">shows SNS user information(name, age and adverse reactions .)</text><path d="M24,173.6125 L76,173.6125 L76,180.2938 L68,188.2938 L24,188.2938 L24,173.6125 " fill="#EEEEEE" style="stroke:#000000;stroke-width:1.2000000000000002;"/><rect fill="none" height="304.9313" style="stroke:#000000;stroke-width:1.2000000000000002;" width="1574" x="24" y="173.6125"/><text fill="#000000" font-family="sans-serif" font-size="10.4" font-weight="bold" lengthAdjust="spacing" textLength="16" x="36" y="185.2086">opt</text><text fill="#000000" font-family="sans-serif" font-size="8.8" font-weight="bold" lengthAdjust="spacing" textLength="223.2" x="88" y="184.3477">[if it's SNS user first administration of this vaccine]</text><polygon fill="#181818" points="62,202.975,54,206.175,62,209.375,58.8,206.175" style="stroke:#181818;stroke-width:0.8000000000000002;"/><line style="stroke:#181818;stroke-width:0.8000000000000002;stroke-dasharray:2.0,2.0;" x1="57.2" x2="442" y1="206.175" y2="206.175"/><text fill="#000000" font-family="sans-serif" font-size="10.4" font-weight="bold" lengthAdjust="spacing" textLength="5.6" x="66.8" y="202.2898">2</text><text fill="#000000" font-family="sans-serif" font-size="10.4" lengthAdjust="spacing" textLength="129.6" x="75.6" y="202.2898">requests to select a vaccine</text><polygon fill="#181818" points="667.6,227.2563,675.6,230.4563,667.6,233.6563,670.8,230.4563" style="stroke:#181818;stroke-width:0.8000000000000002;"/><line style="stroke:#181818;stroke-width:0.8000000000000002;" x1="442.8" x2="672.4" y1="230.4563" y2="230.4563"/><text fill="#000000" font-family="sans-serif" font-size="10.4" font-weight="bold" lengthAdjust="spacing" textLength="5.6" x="448.4" y="226.5711">3</text><text fill="#000000" font-family="sans-serif" font-size="10.4" lengthAdjust="spacing" textLength="75.2" x="457.2" y="226.5711">getVaccineList()</text><polygon fill="#181818" points="1477.2,251.5375,1485.2,254.7375,1477.2,257.9375,1480.4,254.7375" style="stroke:#181818;stroke-width:0.8000000000000002;"/><line style="stroke:#181818;stroke-width:0.8000000000000002;" x1="685.2" x2="1482" y1="254.7375" y2="254.7375"/><text fill="#000000" font-family="sans-serif" font-size="10.4" font-weight="bold" lengthAdjust="spacing" textLength="5.6" x="690.8" y="250.8523">4</text><text fill="#000000" font-family="sans-serif" font-size="10.4" lengthAdjust="spacing" textLength="80.8" x="699.6" y="250.8523">getTypeVaccine()</text><polygon fill="#181818" points="997.2,299.8188,1005.2,303.0188,997.2,306.2188,1000.4,303.0188" style="stroke:#181818;stroke-width:0.8000000000000002;"/><line style="stroke:#181818;stroke-width:0.8000000000000002;" x1="685.2" x2="1002" y1="303.0188" y2="303.0188"/><text fill="#000000" font-family="sans-serif" font-size="10.4" font-weight="bold" lengthAdjust="spacing" textLength="5.6" x="690.8" y="299.1336">5</text><text fill="#000000" font-family="sans-serif" font-size="10.4" lengthAdjust="spacing" textLength="208" x="699.6" y="299.1336">getVaccineListByVaccineType(TypeVaccine)</text><polygon fill="#181818" points="433.2,348.1,441.2,351.3,433.2,354.5,436.4,351.3" style="stroke:#181818;stroke-width:0.8000000000000002;"/><line style="stroke:#181818;stroke-width:0.8000000000000002;" x1="53.2" x2="438" y1="351.3" y2="351.3"/><text fill="#000000" font-family="sans-serif" font-size="10.4" font-weight="bold" lengthAdjust="spacing" textLength="5.6" x="58.8" y="347.4148">6</text><text fill="#000000" font-family="sans-serif" font-size="10.4" lengthAdjust="spacing" textLength="55.2" x="67.6" y="347.4148">Selects one</text><polygon fill="#181818" points="667.6,372.3813,675.6,375.5813,667.6,378.7813,670.8,375.5813" style="stroke:#181818;stroke-width:0.8000000000000002;"/><line style="stroke:#181818;stroke-width:0.8000000000000002;" x1="442.8" x2="672.4" y1="375.5813" y2="375.5813"/><text fill="#000000" font-family="sans-serif" font-size="10.4" font-weight="bold" lengthAdjust="spacing" textLength="5.6" x="448.4" y="371.6961">7</text><text fill="#000000" font-family="sans-serif" font-size="10.4" lengthAdjust="spacing" textLength="83.2" x="457.2" y="371.6961">setVaccine(index)</text><polygon fill="#181818" points="1477.2,396.6625,1485.2,399.8625,1477.2,403.0625,1480.4,399.8625" style="stroke:#181818;stroke-width:0.8000000000000002;"/><line style="stroke:#181818;stroke-width:0.8000000000000002;" x1="685.2" x2="1482" y1="399.8625" y2="399.8625"/><text fill="#000000" font-family="sans-serif" font-size="10.4" font-weight="bold" lengthAdjust="spacing" textLength="5.6" x="690.8" y="395.9773">8</text><text fill="#000000" font-family="sans-serif" font-size="10.4" lengthAdjust="spacing" textLength="80.8" x="699.6" y="395.9773">getTypeVaccine()</text><polygon fill="#181818" points="997.2,444.9438,1005.2,448.1438,997.2,451.3438,1000.4,448.1438" style="stroke:#181818;stroke-width:0.8000000000000002;"/><line style="stroke:#181818;stroke-width:0.8000000000000002;" x1="685.2" x2="1002" y1="448.1438" y2="448.1438"/><text fill="#000000" font-family="sans-serif" font-size="10.4" font-weight="bold" lengthAdjust="spacing" textLength="5.6" x="690.8" y="444.2586">9</text><text fill="#000000" font-family="sans-serif" font-size="10.4" lengthAdjust="spacing" textLength="297.6" x="699.6" y="444.2586">vaccine=getVaccineListByVaccineType(TypeVaccine).get(index)</text><polygon fill="#181818" points="667.6,498.825,675.6,502.025,667.6,505.225,670.8,502.025" style="stroke:#181818;stroke-width:0.8000000000000002;"/><line style="stroke:#181818;stroke-width:0.8000000000000002;" x1="442.8" x2="672.4" y1="502.025" y2="502.025"/><text fill="#000000" font-family="sans-serif" font-size="10.4" font-weight="bold" lengthAdjust="spacing" textLength="11.2" x="448.4" y="498.1398">10</text><text fill="#000000" font-family="sans-serif" font-size="10.4" lengthAdjust="spacing" textLength="74.4" x="462.8" y="498.1398">getVaccineInfo()</text><rect height="45.2313" style="stroke:#000000;stroke-width:1.2000000000000002;fill:none;" width="266.4" x="570" y="532.425"/><path d="M570,532.425 L619.6,532.425 L619.6,538.825 L611.6,546.825 L570,546.825 L570,532.425 " fill="#EEEEEE" style="stroke:#000000;stroke-width:1.6000000000000003;"/><text fill="#000000" font-family="sans-serif" font-size="10.4" font-weight="bold" lengthAdjust="spacing" textLength="13.6" x="580.4" y="544.8211">ref</text><text fill="#000000" font-family="sans-serif" font-size="9.6" lengthAdjust="spacing" textLength="101.6" x="652.4" y="559.9906">US008_GetVaccineInfo</text><text fill="#000000" font-family="sans-serif" font-size="9.6" lengthAdjust="spacing" textLength="260" x="573.2" y="572.0656">(Controller gets  a string contationg the vaccine information)</text><polygon fill="#181818" points="62,596.3375,54,599.5375,62,602.7375,58.8,599.5375" style="stroke:#181818;stroke-width:0.8000000000000002;"/><line style="stroke:#181818;stroke-width:0.8000000000000002;stroke-dasharray:2.0,2.0;" x1="57.2" x2="442" y1="599.5375" y2="599.5375"/><text fill="#000000" font-family="sans-serif" font-size="10.4" font-weight="bold" lengthAdjust="spacing" textLength="11.2" x="66.8" y="595.6523">11</text><text fill="#000000" font-family="sans-serif" font-size="10.4" lengthAdjust="spacing" textLength="356" x="81.2" y="595.6523">shows vaccine information(Name and dosage) and requests data(Lot number)</text><polygon fill="#181818" points="429.2,620.6188,437.2,623.8188,429.2,627.0188,432.4,623.8188" style="stroke:#181818;stroke-width:0.8000000000000002;"/><line style="stroke:#181818;stroke-width:0.8000000000000002;" x1="53.2" x2="434" y1="623.8188" y2="623.8188"/><text fill="#000000" font-family="sans-serif" font-size="10.4" font-weight="bold" lengthAdjust="spacing" textLength="11.2" x="58.8" y="619.9336">12</text><text fill="#000000" font-family="sans-serif" font-size="10.4" lengthAdjust="spacing" textLength="100" x="73.2" y="619.9336">Types requested data</text><line style="stroke:#181818;stroke-width:0.8000000000000002;" x1="450.8" x2="484.4" y1="648.1" y2="648.1"/><line style="stroke:#181818;stroke-width:0.8000000000000002;" x1="484.4" x2="484.4" y1="648.1" y2="658.5"/><line style="stroke:#181818;stroke-width:0.8000000000000002;" x1="451.6" x2="484.4" y1="658.5" y2="658.5"/><polygon fill="#181818" points="459.6,655.3,451.6,658.5,459.6,661.7,456.4,658.5" style="stroke:#181818;stroke-width:0.8000000000000002;"/><text fill="#000000" font-family="sans-serif" font-size="10.4" font-weight="bold" lengthAdjust="spacing" textLength="11.2" x="456.4" y="644.2148">13</text><text fill="#000000" font-family="sans-serif" font-size="10.4" lengthAdjust="spacing" textLength="62.4" x="470.8" y="644.2148">validateData()</text><polygon fill="#181818" points="667.6,703.5813,675.6,706.7813,667.6,709.9813,670.8,706.7813" style="stroke:#181818;stroke-width:0.8000000000000002;"/><line style="stroke:#181818;stroke-width:0.8000000000000002;" x1="446.8" x2="672.4" y1="706.7813" y2="706.7813"/><text fill="#000000" font-family="sans-serif" font-size="10.4" font-weight="bold" lengthAdjust="spacing" textLength="11.2" x="452.4" y="702.8961">14</text><text fill="#000000" font-family="sans-serif" font-size="10.4" lengthAdjust="spacing" textLength="200.8" x="466.8" y="702.8961">createVaccinationAdminstration(lotNumber)</text><rect height="45.2313" style="stroke:#000000;stroke-width:1.2000000000000002;fill:none;" width="247.2" x="570" y="737.1813"/><path d="M570,737.1813 L619.6,737.1813 L619.6,743.5813 L611.6,751.5813 L570,751.5813 L570,737.1813 " fill="#EEEEEE" style="stroke:#000000;stroke-width:1.6000000000000003;"/><text fill="#000000" font-family="sans-serif" font-size="10.4" font-weight="bold" lengthAdjust="spacing" textLength="13.6" x="580.4" y="749.5773">ref</text><text fill="#000000" font-family="sans-serif" font-size="9.6" lengthAdjust="spacing" textLength="97.6" x="644.8" y="764.7469">US008_CreateRecord</text><text fill="#000000" font-family="sans-serif" font-size="9.6" lengthAdjust="spacing" textLength="240.8" x="573.2" y="776.8219">(Controller creates a VaccinationAdministrationRecord)</text><polygon fill="#181818" points="667.6,801.0938,675.6,804.2938,667.6,807.4938,670.8,804.2938" style="stroke:#181818;stroke-width:0.8000000000000002;"/><line style="stroke:#181818;stroke-width:0.8000000000000002;" x1="446.8" x2="672.4" y1="804.2938" y2="804.2938"/><text fill="#000000" font-family="sans-serif" font-size="10.4" font-weight="bold" lengthAdjust="spacing" textLength="11.2" x="452.4" y="800.4086">15</text><text fill="#000000" font-family="sans-serif" font-size="10.4" lengthAdjust="spacing" textLength="145.6" x="466.8" y="800.4086">saveVaccinationAdminstration()</text><rect height="57.3063" style="stroke:#000000;stroke-width:1.2000000000000002;fill:none;" width="354.4" x="570" y="834.6938"/><path d="M570,834.6938 L619.6,834.6938 L619.6,841.0938 L611.6,849.0938 L570,849.0938 L570,834.6938 " fill="#EEEEEE" style="stroke:#000000;stroke-width:1.6000000000000003;"/><text fill="#000000" font-family="sans-serif" font-size="10.4" font-weight="bold" lengthAdjust="spacing" textLength="13.6" x="580.4" y="847.0898">ref</text><text fill="#000000" font-family="sans-serif" font-size="9.6" lengthAdjust="spacing" textLength="120.8" x="686.8" y="862.2594">US008_SaveAdministration</text><text fill="#000000" font-family="sans-serif" font-size="9.6" lengthAdjust="spacing" textLength="348" x="573.2" y="874.3344">(Controller saves the VaccinationAdministrationRecord in the vaccination facility.</text><text fill="#000000" font-family="sans-serif" font-size="9.6" lengthAdjust="spacing" textLength="178.4" x="659.2" y="886.4094">May or may not create a vaccine card too)</text><polygon fill="#181818" points="667.6,910.6813,675.6,913.8813,667.6,917.0813,670.8,913.8813" style="stroke:#181818;stroke-width:0.8000000000000002;"/><line style="stroke:#181818;stroke-width:0.8000000000000002;" x1="446.8" x2="672.4" y1="913.8813" y2="913.8813"/><text fill="#000000" font-family="sans-serif" font-size="10.4" font-weight="bold" lengthAdjust="spacing" textLength="11.2" x="452.4" y="909.9961">16</text><text fill="#000000" font-family="sans-serif" font-size="10.4" lengthAdjust="spacing" textLength="88.8" x="466.8" y="909.9961">sendSMS(minutes)</text><rect height="45.2313" style="stroke:#000000;stroke-width:1.2000000000000002;fill:none;" width="222.4" x="570" y="944.2813"/><path d="M570,944.2813 L619.6,944.2813 L619.6,950.6813 L611.6,958.6813 L570,958.6813 L570,944.2813 " fill="#EEEEEE" style="stroke:#000000;stroke-width:1.6000000000000003;"/><text fill="#000000" font-family="sans-serif" font-size="10.4" font-weight="bold" lengthAdjust="spacing" textLength="13.6" x="580.4" y="956.6773">ref</text><text fill="#000000" font-family="sans-serif" font-size="9.6" lengthAdjust="spacing" textLength="125.6" x="618.4" y="971.8469">US008_CreateAndSendSMS</text><text fill="#000000" font-family="sans-serif" font-size="9.6" lengthAdjust="spacing" textLength="183.2" x="589.6" y="983.9219">(Controller creates a timer to send a SMS)</text><polygon fill="#181818" points="62,1013.7938,54,1016.9938,62,1020.1938,58.8,1016.9938" style="stroke:#181818;stroke-width:0.8000000000000002;"/><line style="stroke:#181818;stroke-width:0.8000000000000002;stroke-dasharray:2.0,2.0;" x1="57.2" x2="442" y1="1016.9938" y2="1016.9938"/><text fill="#000000" font-family="sans-serif" font-size="10.4" font-weight="bold" lengthAdjust="spacing" textLength="11.2" x="66.8" y="1013.1086">17</text><text fill="#000000" font-family="sans-serif" font-size="10.4" lengthAdjust="spacing" textLength="121.6" x="81.2" y="1013.1086">Informs operation success</text><!--MD5=[27a923651fbee080e5ca9e17e286554e]
@startuml
autonumber

actor "Nurse" as nurse

participant ":RegisterVaccineAdministrationUI" as UI
participant ":RegisterVaccineAdministrationController" as  CTRL
participant "Company" as COMP
participant "facility:VaccinationFacility" as facility
participant "snsUser:SNS user" as user
participant "arrival:Arrival" as arrival
participant "appointment:VaccinationAppointment" as appointment
participant ":Vaccine" as vaccine
participant ":VaccineAdministration" as administration
participant ":VaccineCard" as card
participant "adminstration\n:VaccinationAdministrationRecord" as record
participant ":TypeVaccine" as type
participant ":SendSMSTask" as task
participant "timer:Timer" as timer

note across: previous steps omitted, see previous diagram(US008_SD_Part1)
activate nurse
loop If waiting list stil has a SNS user unless the nurse asks to stop

opt if SNS user has a scheduled vaccination appointment

UI- -> nurse : shows SNS user information(name, age and adverse reactions .)


opt if it's SNS user first administration of this vaccine
    UI- -> nurse : requests to select a vaccine
    UI->CTRL: getVaccineList()
    activate CTRL
    CTRL->appointment:getTypeVaccine()
    activate appointment
    deactivate appointment
    CTRL->COMP:getVaccineListByVaccineType(TypeVaccine)
    activate COMP
    deactivate COMP
    deactivate CTRL

    nurse-> UI : Selects one
    UI->CTRL: setVaccine(index)
    activate CTRL
        CTRL->appointment:getTypeVaccine()
        activate appointment
        deactivate appointment
        CTRL->COMP:vaccine=getVaccineListByVaccineType(TypeVaccine).get(index)
        activate COMP
        deactivate COMP
        deactivate CTRL
    end
UI->CTRL: getVaccineInfo()
activate CTRL
deactivate CTRL
ref over CTRL: US008_GetVaccineInfo\n(Controller gets  a string contationg the vaccine information)
UI- -> nurse : shows vaccine information(Name and dosage) and requests data(Lot number)
deactivate UI
nurse-> UI : Types requested data
activate UI
UI->UI:validateData()
activate UI
deactivate UI
UI->CTRL: createVaccinationAdminstration(lotNumber)
activate CTRL
ref over CTRL: US008_CreateRecord\n(Controller creates a VaccinationAdministrationRecord)
deactivate CTRL
UI->CTRL: saveVaccinationAdminstration()
activate CTRL
ref over CTRL: US008_SaveAdministration\n(Controller saves the VaccinationAdministrationRecord in the vaccination facility.\n May or may not create a vaccine card too)
deactivate CTRL
UI->CTRL: sendSMS(minutes)
activate CTRL
ref over CTRL: US008_CreateAndSendSMS\n(Controller creates a timer to send a SMS)
deactivate CTRL
end
UI- -> nurse : Informs operation success

deactivate UI

end
@enduml

PlantUML version 1.2022.5(Sat Apr 30 11:55:52 BST 2022)
(GPL source distribution)
Java Runtime: OpenJDK Runtime Environment
JVM: OpenJDK 64-Bit Server VM
Default Encoding: Cp1252
Language: pt
Country: PT
--></g></svg>