<?xml version="1.0" encoding="UTF-8" standalone="no"?><svg xmlns="http://www.w3.org/2000/svg" xmlns:xlink="http://www.w3.org/1999/xlink" contentStyleType="text/css" height="583px" preserveAspectRatio="none" style="width:597px;height:583px;background:#FFFFFF;" version="1.1" viewBox="0 0 597 583" width="597px" zoomAndPan="magnify"><defs/><g><rect fill="#FFFFFF" height="399.5703" style="stroke:#181818;stroke-width:1.0;" width="10" x="46.5" y="92.6094"/><rect fill="#FFFFFF" height="30.3516" style="stroke:#181818;stroke-width:1.0;" width="10" x="536.5" y="114.9609"/><rect fill="#FFFFFF" height="55.7031" style="stroke:#181818;stroke-width:1.0;" width="10" x="536.5" y="175.6641"/><rect fill="#FFFFFF" height="153.7578" style="stroke:#181818;stroke-width:1.0;" width="10" x="536.5" y="261.7188"/><rect fill="#FFFFFF" height="30.3516" style="stroke:#181818;stroke-width:1.0;" width="10" x="536.5" y="445.8281"/><rect height="293.5156" style="stroke:#000000;stroke-width:1.5;fill:none;" width="581.5" x="10" y="190.6641"/><rect height="79.0547" style="stroke:#000000;stroke-width:1.5;fill:none;" width="561.5" x="20" y="307.0703"/><line style="stroke:#181818;stroke-width:0.5;fill:none;stroke-dasharray:5.0,5.0;" x1="51" x2="51" y1="82.6094" y2="501.1797"/><line style="stroke:#181818;stroke-width:0.5;fill:none;stroke-dasharray:5.0,5.0;" x1="541.5" x2="541.5" y1="82.6094" y2="501.1797"/><text fill="#000000" font-family="sans-serif" font-size="14" lengthAdjust="spacing" textLength="37" x="30" y="79.5332">Nurse</text><ellipse cx="51.5" cy="13.5" fill="#E2E2F0" rx="8" ry="8" style="stroke:#181818;stroke-width:0.5;"/><path d="M51.5,21.5 L51.5,48.5 M38.5,29.5 L64.5,29.5 M51.5,48.5 L38.5,63.5 M51.5,48.5 L64.5,63.5 " fill="none" style="stroke:#181818;stroke-width:0.5;"/><text fill="#000000" font-family="sans-serif" font-size="14" lengthAdjust="spacing" textLength="37" x="30" y="514.7129">Nurse</text><ellipse cx="51.5" cy="526.2891" fill="#E2E2F0" rx="8" ry="8" style="stroke:#181818;stroke-width:0.5;"/><path d="M51.5,534.2891 L51.5,561.2891 M38.5,542.2891 L64.5,542.2891 M51.5,561.2891 L38.5,576.2891 M51.5,561.2891 L64.5,576.2891 " fill="none" style="stroke:#181818;stroke-width:0.5;"/><rect fill="#E2E2F0" height="31.6094" rx="2.5" ry="2.5" style="stroke:#181818;stroke-width:0.5;" width="60" x="511.5" y="50"/><text fill="#000000" font-family="sans-serif" font-size="14" lengthAdjust="spacing" textLength="46" x="518.5" y="71.5332">System</text><rect fill="#E2E2F0" height="31.6094" rx="2.5" ry="2.5" style="stroke:#181818;stroke-width:0.5;" width="60" x="511.5" y="500.1797"/><text fill="#000000" font-family="sans-serif" font-size="14" lengthAdjust="spacing" textLength="46" x="518.5" y="521.7129">System</text><rect fill="#FFFFFF" height="399.5703" style="stroke:#181818;stroke-width:1.0;" width="10" x="46.5" y="92.6094"/><rect fill="#FFFFFF" height="30.3516" style="stroke:#181818;stroke-width:1.0;" width="10" x="536.5" y="114.9609"/><rect fill="#FFFFFF" height="55.7031" style="stroke:#181818;stroke-width:1.0;" width="10" x="536.5" y="175.6641"/><rect fill="#FFFFFF" height="153.7578" style="stroke:#181818;stroke-width:1.0;" width="10" x="536.5" y="261.7188"/><rect fill="#FFFFFF" height="30.3516" style="stroke:#181818;stroke-width:1.0;" width="10" x="536.5" y="445.8281"/><polygon fill="#181818" points="524.5,110.9609,534.5,114.9609,524.5,118.9609,528.5,114.9609" style="stroke:#181818;stroke-width:1.0;"/><line style="stroke:#181818;stroke-width:1.0;" x1="56.5" x2="530.5" y1="114.9609" y2="114.9609"/><text fill="#000000" font-family="sans-serif" font-size="13" font-weight="bold" lengthAdjust="spacing" textLength="7" x="63.5" y="110.1045">1</text><text fill="#000000" font-family="sans-serif" font-size="13" lengthAdjust="spacing" textLength="221" x="74.5" y="110.1045">Ask to record a vaccine administration</text><polygon fill="#181818" points="67.5,141.3125,57.5,145.3125,67.5,149.3125,63.5,145.3125" style="stroke:#181818;stroke-width:1.0;"/><line style="stroke:#181818;stroke-width:1.0;stroke-dasharray:2.0,2.0;" x1="61.5" x2="540.5" y1="145.3125" y2="145.3125"/><text fill="#000000" font-family="sans-serif" font-size="13" font-weight="bold" lengthAdjust="spacing" textLength="7" x="73.5" y="140.4561">2</text><text fill="#000000" font-family="sans-serif" font-size="13" lengthAdjust="spacing" textLength="224" x="84.5" y="140.4561">requests to select a vaccination facility</text><polygon fill="#181818" points="524.5,171.6641,534.5,175.6641,524.5,179.6641,528.5,175.6641" style="stroke:#181818;stroke-width:1.0;"/><line style="stroke:#181818;stroke-width:1.0;" x1="56.5" x2="530.5" y1="175.6641" y2="175.6641"/><text fill="#000000" font-family="sans-serif" font-size="13" font-weight="bold" lengthAdjust="spacing" textLength="7" x="63.5" y="170.8076">3</text><text fill="#000000" font-family="sans-serif" font-size="13" lengthAdjust="spacing" textLength="69" x="74.5" y="170.8076">Selects one</text><path d="M10,190.6641 L83,190.6641 L83,199.0156 L73,209.0156 L10,209.0156 L10,190.6641 " fill="#EEEEEE" style="stroke:#000000;stroke-width:1.5;"/><rect fill="none" height="293.5156" style="stroke:#000000;stroke-width:1.5;" width="581.5" x="10" y="190.6641"/><text fill="#000000" font-family="sans-serif" font-size="13" font-weight="bold" lengthAdjust="spacing" textLength="28" x="25" y="205.1592">loop</text><text fill="#000000" font-family="sans-serif" font-size="11" font-weight="bold" lengthAdjust="spacing" textLength="353" x="98" y="204.083">[If waiting list stil has a SNS user unless the nurse asks to stop]</text><polygon fill="#181818" points="67.5,227.3672,57.5,231.3672,67.5,235.3672,63.5,231.3672" style="stroke:#181818;stroke-width:1.0;"/><line style="stroke:#181818;stroke-width:1.0;stroke-dasharray:2.0,2.0;" x1="61.5" x2="540.5" y1="231.3672" y2="231.3672"/><text fill="#000000" font-family="sans-serif" font-size="13" font-weight="bold" lengthAdjust="spacing" textLength="7" x="73.5" y="226.5107">4</text><text fill="#000000" font-family="sans-serif" font-size="13" lengthAdjust="spacing" textLength="175" x="84.5" y="226.5107">requests to select a SNS user</text><polygon fill="#181818" points="524.5,257.7188,534.5,261.7188,524.5,265.7188,528.5,261.7188" style="stroke:#181818;stroke-width:1.0;"/><line style="stroke:#181818;stroke-width:1.0;" x1="56.5" x2="530.5" y1="261.7188" y2="261.7188"/><text fill="#000000" font-family="sans-serif" font-size="13" font-weight="bold" lengthAdjust="spacing" textLength="7" x="63.5" y="256.8623">5</text><text fill="#000000" font-family="sans-serif" font-size="13" lengthAdjust="spacing" textLength="69" x="74.5" y="256.8623">Selects one</text><polygon fill="#181818" points="67.5,288.0703,57.5,292.0703,67.5,296.0703,63.5,292.0703" style="stroke:#181818;stroke-width:1.0;"/><line style="stroke:#181818;stroke-width:1.0;stroke-dasharray:2.0,2.0;" x1="61.5" x2="535.5" y1="292.0703" y2="292.0703"/><text fill="#000000" font-family="sans-serif" font-size="13" font-weight="bold" lengthAdjust="spacing" textLength="7" x="73.5" y="287.2139">6</text><text fill="#000000" font-family="sans-serif" font-size="13" lengthAdjust="spacing" textLength="371" x="84.5" y="287.2139">shows SNS user information(name, age and adverse reactions .)</text><path d="M20,307.0703 L85,307.0703 L85,315.4219 L75,325.4219 L20,325.4219 L20,307.0703 " fill="#EEEEEE" style="stroke:#000000;stroke-width:1.5;"/><rect fill="none" height="79.0547" style="stroke:#000000;stroke-width:1.5;" width="561.5" x="20" y="307.0703"/><text fill="#000000" font-family="sans-serif" font-size="13" font-weight="bold" lengthAdjust="spacing" textLength="20" x="35" y="321.5654">opt</text><text fill="#000000" font-family="sans-serif" font-size="11" font-weight="bold" lengthAdjust="spacing" textLength="158" x="100" y="320.4893">[if it's SNS user first vaccine]</text><polygon fill="#181818" points="67.5,343.7734,57.5,347.7734,67.5,351.7734,63.5,347.7734" style="stroke:#181818;stroke-width:1.0;"/><line style="stroke:#181818;stroke-width:1.0;stroke-dasharray:2.0,2.0;" x1="61.5" x2="535.5" y1="347.7734" y2="347.7734"/><text fill="#000000" font-family="sans-serif" font-size="13" font-weight="bold" lengthAdjust="spacing" textLength="7" x="73.5" y="342.917">7</text><text fill="#000000" font-family="sans-serif" font-size="13" lengthAdjust="spacing" textLength="162" x="84.5" y="342.917">requests to select a vaccine</text><polygon fill="#181818" points="524.5,374.125,534.5,378.125,524.5,382.125,528.5,378.125" style="stroke:#181818;stroke-width:1.0;"/><line style="stroke:#181818;stroke-width:1.0;" x1="56.5" x2="530.5" y1="378.125" y2="378.125"/><text fill="#000000" font-family="sans-serif" font-size="13" font-weight="bold" lengthAdjust="spacing" textLength="7" x="63.5" y="373.2686">8</text><text fill="#000000" font-family="sans-serif" font-size="13" lengthAdjust="spacing" textLength="69" x="74.5" y="373.2686">Selects one</text><polygon fill="#181818" points="67.5,411.4766,57.5,415.4766,67.5,419.4766,63.5,415.4766" style="stroke:#181818;stroke-width:1.0;"/><line style="stroke:#181818;stroke-width:1.0;stroke-dasharray:2.0,2.0;" x1="61.5" x2="540.5" y1="415.4766" y2="415.4766"/><text fill="#000000" font-family="sans-serif" font-size="13" font-weight="bold" lengthAdjust="spacing" textLength="7" x="73.5" y="410.6201">9</text><text fill="#000000" font-family="sans-serif" font-size="13" lengthAdjust="spacing" textLength="445" x="84.5" y="410.6201">shows vaccine information(Name and dosage) and requests data(Lot number)</text><polygon fill="#181818" points="524.5,441.8281,534.5,445.8281,524.5,449.8281,528.5,445.8281" style="stroke:#181818;stroke-width:1.0;"/><line style="stroke:#181818;stroke-width:1.0;" x1="56.5" x2="530.5" y1="445.8281" y2="445.8281"/><text fill="#000000" font-family="sans-serif" font-size="13" font-weight="bold" lengthAdjust="spacing" textLength="14" x="63.5" y="440.9717">10</text><text fill="#000000" font-family="sans-serif" font-size="13" lengthAdjust="spacing" textLength="125" x="81.5" y="440.9717">Types requested data</text><polygon fill="#181818" points="67.5,472.1797,57.5,476.1797,67.5,480.1797,63.5,476.1797" style="stroke:#181818;stroke-width:1.0;"/><line style="stroke:#181818;stroke-width:1.0;stroke-dasharray:2.0,2.0;" x1="61.5" x2="540.5" y1="476.1797" y2="476.1797"/><text fill="#000000" font-family="sans-serif" font-size="13" font-weight="bold" lengthAdjust="spacing" textLength="14" x="73.5" y="471.3232">11</text><text fill="#000000" font-family="sans-serif" font-size="13" lengthAdjust="spacing" textLength="152" x="91.5" y="471.3232">Informs operation success</text><!--MD5=[cdf4dad6bd62b247f165af37eff737c8]
@startuml
'https://plantuml.com/sequence-diagram

autonumber

actor "Nurse" as nurse
activate nurse

nurse-> System : Ask to record a vaccine administration
activate System
System- -> nurse : requests to select a vaccination facility
deactivate System
nurse-> System : Selects one
activate System
loop If waiting list stil has a SNS user unless the nurse asks to stop
System- -> nurse : requests to select a SNS user
deactivate System
nurse-> System : Selects one
activate System
System- -> nurse : shows SNS user information(name, age and adverse reactions .)
opt if it's SNS user first vaccine
    System- -> nurse : requests to select a vaccine
    nurse-> System : Selects one
    end
System- -> nurse : shows vaccine information(Name and dosage) and requests data(Lot number)
deactivate System
nurse-> System : Types requested data
activate System
System- -> nurse : Informs operation success
deactivate System
end
@enduml

@startuml

autonumber

actor "Nurse" as nurse
activate nurse

nurse-> System : Ask to record a vaccine administration
activate System
System- -> nurse : requests to select a vaccination facility
deactivate System
nurse-> System : Selects one
activate System
loop If waiting list stil has a SNS user unless the nurse asks to stop
System- -> nurse : requests to select a SNS user
deactivate System
nurse-> System : Selects one
activate System
System- -> nurse : shows SNS user information(name, age and adverse reactions .)
opt if it's SNS user first vaccine
    System- -> nurse : requests to select a vaccine
    nurse-> System : Selects one
    end
System- -> nurse : shows vaccine information(Name and dosage) and requests data(Lot number)
deactivate System
nurse-> System : Types requested data
activate System
System- -> nurse : Informs operation success
deactivate System
end
@enduml

PlantUML version 1.2022.5(Sat Apr 30 11:55:52 BST 2022)
(GPL source distribution)
Java Runtime: OpenJDK Runtime Environment
JVM: OpenJDK 64-Bit Server VM
Default Encoding: Cp1252
Language: pt
Country: PT
--></g></svg>