<?xml version="1.0" encoding="UTF-8" standalone="no"?><svg xmlns="http://www.w3.org/2000/svg" xmlns:xlink="http://www.w3.org/1999/xlink" contentScriptType="application/ecmascript" contentStyleType="text/css" height="862.5px" preserveAspectRatio="none" style="width:863px;height:862px;background:#FFFFFF;" version="1.1" viewBox="0 0 863 862" width="863.75px" zoomAndPan="magnify"><defs><filter height="300%" id="f8y9s4mq9j8sr" width="300%" x="-1" y="-1"><feGaussianBlur result="blurOut" stdDeviation="2.5"/><feColorMatrix in="blurOut" result="blurOut2" type="matrix" values="0 0 0 0 0 0 0 0 0 0 0 0 0 0 0 0 0 0 .4 0"/><feOffset dx="5.0" dy="5.0" in="blurOut2" result="blurOut3"/><feBlend in="SourceGraphic" in2="blurOut3" mode="normal"/></filter></defs><g><!--MD5=[dbe2c98d3d239224c1c32488b69de42b]
class ScheduleVaccinationUI--><rect codeLine="6" fill="#FEFECE" filter="url(#f8y9s4mq9j8sr)" height="232.9492" id="ScheduleVaccinationUI" style="stroke:#A80036;stroke-width:1.875;" width="270" x="8.75" y="156.25"/><ellipse cx="59.5625" cy="176.25" fill="#ADD1B2" rx="13.75" ry="13.75" style="stroke:#A80036;stroke-width:1.25;"/><path d="M62.0625,171.875 Q62.3164,171.25 62.6094,170.9375 Q62.9023,170.625 63.2344,170.625 Q63.8203,170.625 64.1914,170.9766 Q64.5625,171.3281 64.5625,172.1484 L64.5625,174.1016 Q64.5625,174.9219 64.2109,175.2734 Q63.8594,175.625 63.3125,175.625 Q62.8242,175.625 62.5117,175.4102 Q62.1992,175.1953 62.0625,174.6289 Q62.0039,174.2383 61.7891,174.0234 Q61.3984,173.6133 60.6953,173.3789 Q59.9922,173.125 59.2891,173.125 Q58.4102,173.125 57.668,173.4766 Q56.9453,173.8281 56.3789,174.6094 Q55.8125,175.3906 55.8125,176.4648 L55.8125,177.6172 Q55.8125,178.9063 56.8672,179.7656 Q57.9219,180.625 59.7969,180.625 Q60.9102,180.625 61.6914,180.3711 Q62.1406,180.2344 62.6484,179.7852 Q62.9805,179.5313 63.1563,179.4531 Q63.332,179.375 63.5469,179.375 Q63.957,179.375 64.25,179.707 Q64.5625,180.0195 64.5625,180.4688 Q64.5625,180.8984 64.1328,181.4063 Q63.5078,182.1484 62.5117,182.5586 Q61.2031,183.125 59.6016,183.125 Q57.7266,183.125 56.2227,182.3828 Q55.0117,181.7969 54.1523,180.5273 Q53.3125,179.2578 53.3125,177.7539 L53.3125,176.3867 Q53.3125,174.8242 54.0547,173.457 Q54.8164,172.0898 56.125,171.3672 Q57.4531,170.625 58.9375,170.625 Q59.8359,170.625 60.6172,170.9375 Q61.3984,171.25 62.0625,171.875 Z " fill="#000000"/><text fill="#000000" font-family="sans-serif" font-size="15" lengthAdjust="spacing" textLength="158.75" x="84.1875" y="182.3877">ScheduleVaccinationUI</text><line style="stroke:#A80036;stroke-width:1.875;" x1="10" x2="277.5" y1="196.25" y2="196.25"/><line style="stroke:#A80036;stroke-width:1.875;" x1="10" x2="277.5" y1="206.25" y2="206.25"/><text fill="#000000" font-family="sans-serif" font-size="13.75" lengthAdjust="spacing" textLength="37.5" x="16.25" y="225.5237">+run()</text><text fill="#000000" font-family="sans-serif" font-size="13.75" lengthAdjust="spacing" textLength="71.25" x="16.25" y="242.8186">-Schedule()</text><text fill="#000000" font-family="sans-serif" font-size="13.75" lengthAdjust="spacing" textLength="87.5" x="16.25" y="260.1135">-setSNSuser()</text><text fill="#000000" font-family="sans-serif" font-size="13.75" lengthAdjust="spacing" textLength="146.25" x="16.25" y="277.4084">-setVaccinationFacility()</text><text fill="#000000" font-family="sans-serif" font-size="13.75" lengthAdjust="spacing" textLength="152.5" x="16.25" y="294.7034">-getDateTimeAppoiment()</text><text fill="#000000" font-family="sans-serif" font-size="13.75" lengthAdjust="spacing" textLength="151.25" x="16.25" y="311.9983">-getTime(LocalDate date)</text><text fill="#000000" font-family="sans-serif" font-size="13.75" lengthAdjust="spacing" textLength="61.25" x="16.25" y="329.2932">-getDate()</text><text fill="#000000" font-family="sans-serif" font-size="13.75" lengthAdjust="spacing" textLength="131.25" x="16.25" y="346.5881">-selectVaccineType()</text><text fill="#000000" font-family="sans-serif" font-size="13.75" lengthAdjust="spacing" textLength="255" x="16.25" y="363.8831">-getTypeVaccineFromVaccinationCenter()</text><text fill="#000000" font-family="sans-serif" font-size="13.75" lengthAdjust="spacing" textLength="250" x="16.25" y="381.178">-getTypeVaccineFromHealthCareCenter()</text><!--MD5=[7e4c6f49f20d8afd403962aca283b361]
class VaccinationScheduleController--><rect codeLine="21" fill="#FEFECE" filter="url(#f8y9s4mq9j8sr)" height="526.9629" id="VaccinationScheduleController" style="stroke:#A80036;stroke-width:1.875;" width="468.75" x="323.125" y="8.75"/><ellipse cx="446.5625" cy="28.75" fill="#ADD1B2" rx="13.75" ry="13.75" style="stroke:#A80036;stroke-width:1.25;"/><path d="M449.0625,24.375 Q449.3164,23.75 449.6094,23.4375 Q449.9023,23.125 450.2344,23.125 Q450.8203,23.125 451.1914,23.4766 Q451.5625,23.8281 451.5625,24.6484 L451.5625,26.6016 Q451.5625,27.4219 451.2109,27.7734 Q450.8594,28.125 450.3125,28.125 Q449.8242,28.125 449.5117,27.9102 Q449.1992,27.6953 449.0625,27.1289 Q449.0039,26.7383 448.7891,26.5234 Q448.3984,26.1133 447.6953,25.8789 Q446.9922,25.625 446.2891,25.625 Q445.4102,25.625 444.668,25.9766 Q443.9453,26.3281 443.3789,27.1094 Q442.8125,27.8906 442.8125,28.9648 L442.8125,30.1172 Q442.8125,31.4063 443.8672,32.2656 Q444.9219,33.125 446.7969,33.125 Q447.9102,33.125 448.6914,32.8711 Q449.1406,32.7344 449.6484,32.2852 Q449.9805,32.0313 450.1563,31.9531 Q450.332,31.875 450.5469,31.875 Q450.957,31.875 451.25,32.207 Q451.5625,32.5195 451.5625,32.9688 Q451.5625,33.3984 451.1328,33.9063 Q450.5078,34.6484 449.5117,35.0586 Q448.2031,35.625 446.6016,35.625 Q444.7266,35.625 443.2227,34.8828 Q442.0117,34.2969 441.1523,33.0273 Q440.3125,31.7578 440.3125,30.2539 L440.3125,28.8867 Q440.3125,27.3242 441.0547,25.957 Q441.8164,24.5898 443.125,23.8672 Q444.4531,23.125 445.9375,23.125 Q446.8359,23.125 447.6172,23.4375 Q448.3984,23.75 449.0625,24.375 Z " fill="#000000"/><text fill="#000000" font-family="sans-serif" font-size="15" lengthAdjust="spacing" textLength="211.25" x="472.1875" y="34.8877">VaccinationScheduleController</text><line style="stroke:#A80036;stroke-width:1.875;" x1="324.375" x2="790.625" y1="48.75" y2="48.75"/><line style="stroke:#A80036;stroke-width:1.875;" x1="324.375" x2="790.625" y1="58.75" y2="58.75"/><text fill="#000000" font-family="sans-serif" font-size="13.75" lengthAdjust="spacing" textLength="198.75" x="330.625" y="78.0237">+setVaccinationFacility(int index)</text><text fill="#000000" font-family="sans-serif" font-size="13.75" lengthAdjust="spacing" textLength="137.5" x="330.625" y="95.3186">+SNSuserExistsEmail()</text><text fill="#000000" font-family="sans-serif" font-size="13.75" lengthAdjust="spacing" textLength="112.5" x="330.625" y="112.6135">+createSchedule()</text><text fill="#000000" font-family="sans-serif" font-size="13.75" lengthAdjust="spacing" textLength="316.25" x="330.625" y="129.9084">+createScheduleFromDTO(dtoScheduleVaccine dto)</text><text fill="#000000" font-family="sans-serif" font-size="13.75" lengthAdjust="spacing" textLength="103.75" x="330.625" y="147.2034">+saveSchedule()</text><text fill="#000000" font-family="sans-serif" font-size="13.75" lengthAdjust="spacing" textLength="158.75" x="330.625" y="164.4983">+getVaccinationFacilities()</text><text fill="#000000" font-family="sans-serif" font-size="13.75" lengthAdjust="spacing" textLength="170" x="330.625" y="181.7932">+validateScheduleVaccine()</text><text fill="#000000" font-family="sans-serif" font-size="13.75" lengthAdjust="spacing" textLength="197.5" x="330.625" y="199.0881">-validateScheduleVaccineType()</text><text fill="#000000" font-family="sans-serif" font-size="13.75" lengthAdjust="spacing" textLength="170" x="330.625" y="216.3831">+validateCreationSchedule()</text><text fill="#000000" font-family="sans-serif" font-size="13.75" lengthAdjust="spacing" textLength="238.75" x="330.625" y="233.678">+checkIfVaccinationFaciltyListIsEmpty()</text><text fill="#000000" font-family="sans-serif" font-size="13.75" lengthAdjust="spacing" textLength="240" x="330.625" y="250.9729">+checkIfSNSuserExists(int SNSnumber)</text><text fill="#000000" font-family="sans-serif" font-size="13.75" lengthAdjust="spacing" textLength="176.25" x="330.625" y="268.2678">-validateVaccinationRecord()</text><text fill="#000000" font-family="sans-serif" font-size="13.75" lengthAdjust="spacing" textLength="227.5" x="330.625" y="285.5627">+validateAgeGroup(Vaccine vaccine)</text><text fill="#000000" font-family="sans-serif" font-size="13.75" lengthAdjust="spacing" textLength="223.75" x="330.625" y="302.8577">+validateDoseTime(Vaccine vaccine)</text><text fill="#000000" font-family="sans-serif" font-size="13.75" lengthAdjust="spacing" textLength="115" x="330.625" y="320.1526">+checkIfSNSuser()</text><text fill="#000000" font-family="sans-serif" font-size="13.75" lengthAdjust="spacing" textLength="301.25" x="330.625" y="337.4475">+ValidateAppoimentTime(LocalDate day,int index )</text><text fill="#000000" font-family="sans-serif" font-size="13.75" lengthAdjust="spacing" textLength="85" x="330.625" y="354.7424">+getDateList()</text><text fill="#000000" font-family="sans-serif" font-size="13.75" lengthAdjust="spacing" textLength="210" x="330.625" y="372.0374">+getTimeSlotsDTO(LocalDate date)</text><text fill="#000000" font-family="sans-serif" font-size="13.75" lengthAdjust="spacing" textLength="180" x="330.625" y="389.3323">+getTimeSlots(LocalDate day)</text><text fill="#000000" font-family="sans-serif" font-size="13.75" lengthAdjust="spacing" textLength="203.75" x="330.625" y="406.6272">+setDate(LocalDate day,int index)</text><text fill="#000000" font-family="sans-serif" font-size="13.75" lengthAdjust="spacing" textLength="178.75" x="330.625" y="423.9221">+getTypeVaccinationFacility()</text><text fill="#000000" font-family="sans-serif" font-size="13.75" lengthAdjust="spacing" textLength="290" x="330.625" y="441.217">+getTypeVaccineFromMassVaccinationCenter()</text><text fill="#000000" font-family="sans-serif" font-size="13.75" lengthAdjust="spacing" textLength="260" x="330.625" y="458.512">+setTypeVaccineMassVaccinationCenter()</text><text fill="#000000" font-family="sans-serif" font-size="13.75" lengthAdjust="spacing" textLength="252.5" x="330.625" y="475.8069">+getTypeVaccineFromHealthCareCenter()</text><text fill="#000000" font-family="sans-serif" font-size="13.75" lengthAdjust="spacing" textLength="272.5" x="330.625" y="493.1018">+setTypeVaccineHealthCareCenter(int index)</text><text fill="#000000" font-family="sans-serif" font-size="13.75" lengthAdjust="spacing" textLength="100" x="330.625" y="510.3967">+printSchedule()</text><text fill="#000000" font-family="sans-serif" font-size="13.75" lengthAdjust="spacing" textLength="453.75" x="330.625" y="527.6917">+printScheduleInfo(String VaccinationCenter, LocalDateTime dateSheducle)</text><!--MD5=[02e4b9b7573f1156f41e60aa5b4e25a4]
class Company--><rect codeLine="54" fill="#FEFECE" filter="url(#f8y9s4mq9j8sr)" height="232.9492" id="Company" style="stroke:#A80036;stroke-width:1.875;" width="465" x="35" y="612.5"/><ellipse cx="229.0625" cy="632.5" fill="#ADD1B2" rx="13.75" ry="13.75" style="stroke:#A80036;stroke-width:1.25;"/><path d="M231.5625,628.125 Q231.8164,627.5 232.1094,627.1875 Q232.4023,626.875 232.7344,626.875 Q233.3203,626.875 233.6914,627.2266 Q234.0625,627.5781 234.0625,628.3984 L234.0625,630.3516 Q234.0625,631.1719 233.7109,631.5234 Q233.3594,631.875 232.8125,631.875 Q232.3242,631.875 232.0117,631.6602 Q231.6992,631.4453 231.5625,630.8789 Q231.5039,630.4883 231.2891,630.2734 Q230.8984,629.8633 230.1953,629.6289 Q229.4922,629.375 228.7891,629.375 Q227.9102,629.375 227.168,629.7266 Q226.4453,630.0781 225.8789,630.8594 Q225.3125,631.6406 225.3125,632.7148 L225.3125,633.8672 Q225.3125,635.1563 226.3672,636.0156 Q227.4219,636.875 229.2969,636.875 Q230.4102,636.875 231.1914,636.6211 Q231.6406,636.4844 232.1484,636.0352 Q232.4805,635.7813 232.6563,635.7031 Q232.832,635.625 233.0469,635.625 Q233.457,635.625 233.75,635.957 Q234.0625,636.2695 234.0625,636.7188 Q234.0625,637.1484 233.6328,637.6563 Q233.0078,638.3984 232.0117,638.8086 Q230.7031,639.375 229.1016,639.375 Q227.2266,639.375 225.7227,638.6328 Q224.5117,638.0469 223.6523,636.7773 Q222.8125,635.5078 222.8125,634.0039 L222.8125,632.6367 Q222.8125,631.0742 223.5547,629.707 Q224.3164,628.3398 225.625,627.6172 Q226.9531,626.875 228.4375,626.875 Q229.3359,626.875 230.1172,627.1875 Q230.8984,627.5 231.5625,628.125 Z " fill="#000000"/><text fill="#000000" font-family="sans-serif" font-size="15" lengthAdjust="spacing" textLength="66.25" x="254.6875" y="638.6377">Company</text><line style="stroke:#A80036;stroke-width:1.875;" x1="36.25" x2="498.75" y1="652.5" y2="652.5"/><text fill="#000000" font-family="sans-serif" font-size="13.75" lengthAdjust="spacing" textLength="222.5" x="42.5" y="671.7737">-List&lt;TypeVaccine&gt; typeVaccineList</text><text fill="#000000" font-family="sans-serif" font-size="13.75" lengthAdjust="spacing" textLength="333.75" x="42.5" y="689.0686">-List&lt;VaccineAdministration&gt; vaccineAdministrationList</text><text fill="#000000" font-family="sans-serif" font-size="13.75" lengthAdjust="spacing" textLength="163.75" x="42.5" y="706.3635">-List&lt;Vaccine&gt; vaccineList</text><text fill="#000000" font-family="sans-serif" font-size="13.75" lengthAdjust="spacing" textLength="288.75" x="42.5" y="723.6584">-List&lt;VaccinationFacility&gt; vaccinationFacilityList</text><text fill="#000000" font-family="sans-serif" font-size="13.75" lengthAdjust="spacing" textLength="73.75" x="42.5" y="740.9534">-designation</text><line style="stroke:#A80036;stroke-width:1.875;" x1="36.25" x2="498.75" y1="748.9746" y2="748.9746"/><text fill="#000000" font-family="sans-serif" font-size="13.75" lengthAdjust="spacing" textLength="170" x="42.5" y="768.2483">+getVaccinationFacilityList()</text><text fill="#000000" font-family="sans-serif" font-size="13.75" lengthAdjust="spacing" textLength="250" x="42.5" y="785.5432">+getVaccinationFacilityFromList(int index)</text><text fill="#000000" font-family="sans-serif" font-size="13.75" lengthAdjust="spacing" textLength="242.5" x="42.5" y="802.8381">+SNSuserExistsNumber(int SNSnumber)</text><text fill="#000000" font-family="sans-serif" font-size="13.75" lengthAdjust="spacing" textLength="206.25" x="42.5" y="820.1331">+SNSuserExistsEmail(String email)</text><text fill="#000000" font-family="sans-serif" font-size="13.75" lengthAdjust="spacing" textLength="450" x="42.5" y="837.428">+checkOtherCentersForVaccination(TypeVaccine vaccine,int SNSnumber)</text><!--MD5=[8494fa8d0dee27c3c478e1c148fa8d23]
class VaccinationAppointment--><rect codeLine="68" fill="#FEFECE" filter="url(#f8y9s4mq9j8sr)" height="111.8848" id="VaccinationAppointment" style="stroke:#A80036;stroke-width:1.875;" width="211.25" x="635.625" y="672.5"/><ellipse cx="657.1875" cy="692.5" fill="#ADD1B2" rx="13.75" ry="13.75" style="stroke:#A80036;stroke-width:1.25;"/><path d="M659.6875,688.125 Q659.9414,687.5 660.2344,687.1875 Q660.5273,686.875 660.8594,686.875 Q661.4453,686.875 661.8164,687.2266 Q662.1875,687.5781 662.1875,688.3984 L662.1875,690.3516 Q662.1875,691.1719 661.8359,691.5234 Q661.4844,691.875 660.9375,691.875 Q660.4492,691.875 660.1367,691.6602 Q659.8242,691.4453 659.6875,690.8789 Q659.6289,690.4883 659.4141,690.2734 Q659.0234,689.8633 658.3203,689.6289 Q657.6172,689.375 656.9141,689.375 Q656.0352,689.375 655.293,689.7266 Q654.5703,690.0781 654.0039,690.8594 Q653.4375,691.6406 653.4375,692.7148 L653.4375,693.8672 Q653.4375,695.1563 654.4922,696.0156 Q655.5469,696.875 657.4219,696.875 Q658.5352,696.875 659.3164,696.6211 Q659.7656,696.4844 660.2734,696.0352 Q660.6055,695.7813 660.7813,695.7031 Q660.957,695.625 661.1719,695.625 Q661.582,695.625 661.875,695.957 Q662.1875,696.2695 662.1875,696.7188 Q662.1875,697.1484 661.7578,697.6563 Q661.1328,698.3984 660.1367,698.8086 Q658.8281,699.375 657.2266,699.375 Q655.3516,699.375 653.8477,698.6328 Q652.6367,698.0469 651.7773,696.7773 Q650.9375,695.5078 650.9375,694.0039 L650.9375,692.6367 Q650.9375,691.0742 651.6797,689.707 Q652.4414,688.3398 653.75,687.6172 Q655.0781,686.875 656.5625,686.875 Q657.4609,686.875 658.2422,687.1875 Q659.0234,687.5 659.6875,688.125 Z " fill="#000000"/><text fill="#000000" font-family="sans-serif" font-size="15" lengthAdjust="spacing" textLength="165" x="675.3125" y="698.6377">VaccinationAppointment</text><line style="stroke:#A80036;stroke-width:1.875;" x1="636.875" x2="845.625" y1="712.5" y2="712.5"/><text fill="#000000" font-family="sans-serif" font-size="13.75" lengthAdjust="spacing" textLength="91.25" x="643.125" y="731.7737">-int snsNumber</text><text fill="#000000" font-family="sans-serif" font-size="13.75" lengthAdjust="spacing" textLength="196.25" x="643.125" y="749.0686">-LocalDateTime appointmentTime</text><text fill="#000000" font-family="sans-serif" font-size="13.75" lengthAdjust="spacing" textLength="165" x="643.125" y="766.3635">-TypeVaccine typeVaccine</text><line style="stroke:#A80036;stroke-width:1.875;" x1="636.875" x2="845.625" y1="774.3848" y2="774.3848"/><!--MD5=[a336845e4fd6c0cf85a26ecfb51aa66e]
link ScheduleVaccinationUI to VaccinationScheduleController--><path codeLine="4" d="M279.1125,272.5 C291.45,272.5 303.8,272.5 316.15,272.5 " fill="none" id="ScheduleVaccinationUI-to-VaccinationScheduleController" style="stroke:#A80036;stroke-width:1.25;stroke-dasharray:7.0,7.0;"/><polygon fill="#A80036" points="322.6125,272.5,311.3625,267.5,316.3625,272.5,311.3625,277.5,322.6125,272.5" style="stroke:#A80036;stroke-width:1.25;"/><!--MD5=[76cd983abc1275c7a00cdb4476a6b15c]
link VaccinationScheduleController to Company--><path codeLine="19" d="M389.65,536.3875 C374.0625,560.775 358.825,584.6 344.7125,606.7 " fill="none" id="VaccinationScheduleController-to-Company" style="stroke:#A80036;stroke-width:1.25;stroke-dasharray:7.0,7.0;"/><polygon fill="#A80036" points="341.1375,612.275,351.4165,605.4997,344.5091,607.0124,342.9963,600.1051,341.1375,612.275" style="stroke:#A80036;stroke-width:1.25;"/><!--MD5=[b82c97dd4587f767a985f28dfe9a7321]
link VaccinationScheduleController to VaccinationAppointment--><path codeLine="51" d="M663.85,536.3875 C683.5875,585.1125 702.4,631.575 716.55,666.4875 " fill="none" id="VaccinationScheduleController-to-VaccinationAppointment" style="stroke:#A80036;stroke-width:1.25;stroke-dasharray:7.0,7.0;"/><polygon fill="#A80036" points="718.95,672.4375,719.3816,660.134,716.6134,666.6407,710.1067,663.8725,718.95,672.4375" style="stroke:#A80036;stroke-width:1.25;"/><!--MD5=[d51389506698585af01d0d8a29420a61]
link Company to VaccinationAppointment--><path codeLine="66" d="M500.2125,728.75 C544.9,728.75 589.775,728.75 628.4875,728.75 " fill="none" id="Company-to-VaccinationAppointment" style="stroke:#A80036;stroke-width:1.25;"/><polygon fill="#A80036" points="635.15,728.75,623.9,723.75,628.9,728.75,623.9,733.75,635.15,728.75" style="stroke:#A80036;stroke-width:1.25;"/><polygon fill="#000000" points="534.0625,713.9697,522.7561,710.2961,522.7561,717.6434,534.0625,713.9697" style="stroke:#000000;stroke-width:1.25;"/><text fill="#000000" font-family="sans-serif" font-size="16.25" lengthAdjust="spacing" textLength="73.75" x="539.0625" y="720.6189">schedules</text><!--MD5=[a6c4e22ad74f832a76cca0bc02b2cd1a]
@startuml
'https://plantuml.com/class-diagram
skinparam classAttributeIconSize 0

ScheduleVaccinationUI .> VaccinationScheduleController

Class ScheduleVaccinationUI {
+run()
-Schedule()
-setSNSuser()
-setVaccinationFacility()
-getDateTimeAppoiment()
-getTime(LocalDate date)
-getDate()
-selectVaccineType()
-getTypeVaccineFromVaccinationCenter()
-getTypeVaccineFromHealthCareCenter()
}

VaccinationScheduleController..>Company

Class VaccinationScheduleController {
+setVaccinationFacility(int index)
+SNSuserExistsEmail()
+createSchedule()
+createScheduleFromDTO(dtoScheduleVaccine dto)
+saveSchedule()
+getVaccinationFacilities()
+validateScheduleVaccine()
-validateScheduleVaccineType()
+validateCreationSchedule()
+checkIfVaccinationFaciltyListIsEmpty()
+checkIfSNSuserExists(int SNSnumber)
-validateVaccinationRecord()
+validateAgeGroup(Vaccine vaccine)
+validateDoseTime(Vaccine vaccine)
+checkIfSNSuser()
+ValidateAppoimentTime(LocalDate day,int index )
+getDateList()
+getTimeSlotsDTO(LocalDate date)
+getTimeSlots(LocalDate day)
+setDate(LocalDate day,int index)
+getTypeVaccinationFacility()
+getTypeVaccineFromMassVaccinationCenter()
+setTypeVaccineMassVaccinationCenter()
+getTypeVaccineFromHealthCareCenter()
+setTypeVaccineHealthCareCenter(int index)
+printSchedule()
+printScheduleInfo(String VaccinationCenter, LocalDateTime dateSheducle)
}

VaccinationScheduleController..>VaccinationAppointment


Class Company{
-List<TypeVaccine> typeVaccineList
-List<VaccineAdministration> vaccineAdministrationList
-List<Vaccine> vaccineList
-List<VaccinationFacility> vaccinationFacilityList
-designation
    +getVaccinationFacilityList()
    +getVaccinationFacilityFromList(int index)
    +SNSuserExistsNumber(int SNSnumber)
    +SNSuserExistsEmail(String email)
    +checkOtherCentersForVaccination(TypeVaccine vaccine,int SNSnumber)
}
Company  ->  VaccinationAppointment : > schedules

Class VaccinationAppointment{
-int snsNumber
-LocalDateTime appointmentTime
-TypeVaccine typeVaccine
}


@enduml

@startuml
skinparam classAttributeIconSize 0

ScheduleVaccinationUI .> VaccinationScheduleController

Class ScheduleVaccinationUI {
+run()
-Schedule()
-setSNSuser()
-setVaccinationFacility()
-getDateTimeAppoiment()
-getTime(LocalDate date)
-getDate()
-selectVaccineType()
-getTypeVaccineFromVaccinationCenter()
-getTypeVaccineFromHealthCareCenter()
}

VaccinationScheduleController..>Company

Class VaccinationScheduleController {
+setVaccinationFacility(int index)
+SNSuserExistsEmail()
+createSchedule()
+createScheduleFromDTO(dtoScheduleVaccine dto)
+saveSchedule()
+getVaccinationFacilities()
+validateScheduleVaccine()
-validateScheduleVaccineType()
+validateCreationSchedule()
+checkIfVaccinationFaciltyListIsEmpty()
+checkIfSNSuserExists(int SNSnumber)
-validateVaccinationRecord()
+validateAgeGroup(Vaccine vaccine)
+validateDoseTime(Vaccine vaccine)
+checkIfSNSuser()
+ValidateAppoimentTime(LocalDate day,int index )
+getDateList()
+getTimeSlotsDTO(LocalDate date)
+getTimeSlots(LocalDate day)
+setDate(LocalDate day,int index)
+getTypeVaccinationFacility()
+getTypeVaccineFromMassVaccinationCenter()
+setTypeVaccineMassVaccinationCenter()
+getTypeVaccineFromHealthCareCenter()
+setTypeVaccineHealthCareCenter(int index)
+printSchedule()
+printScheduleInfo(String VaccinationCenter, LocalDateTime dateSheducle)
}

VaccinationScheduleController..>VaccinationAppointment


Class Company{
-List<TypeVaccine> typeVaccineList
-List<VaccineAdministration> vaccineAdministrationList
-List<Vaccine> vaccineList
-List<VaccinationFacility> vaccinationFacilityList
-designation
    +getVaccinationFacilityList()
    +getVaccinationFacilityFromList(int index)
    +SNSuserExistsNumber(int SNSnumber)
    +SNSuserExistsEmail(String email)
    +checkOtherCentersForVaccination(TypeVaccine vaccine,int SNSnumber)
}
Company  ->  VaccinationAppointment : > schedules

Class VaccinationAppointment{
-int snsNumber
-LocalDateTime appointmentTime
-TypeVaccine typeVaccine
}


@enduml

PlantUML version 1.2021.7(Sun May 23 13:40:07 BST 2021)
(GPL source distribution)
Java Runtime: OpenJDK Runtime Environment
JVM: Dynamic Code Evolution 64-Bit Server VM
Default Encoding: Cp1252
Language: pt
Country: PT
--></g></svg>