<?xml version="1.0" encoding="UTF-8" standalone="no"?><svg xmlns="http://www.w3.org/2000/svg" xmlns:xlink="http://www.w3.org/1999/xlink" contentStyleType="text/css" height="523px" preserveAspectRatio="none" style="width:459px;height:523px;background:#FFFFFF;" version="1.1" viewBox="0 0 459 523" width="459px" zoomAndPan="magnify"><defs/><g><!--MD5=[9b9f2c889cb27cd24441112ff9aee93e]
class login--><g id="elem_login"><rect codeLine="3" fill="#F1F1F1" height="83.2188" id="login" rx="2.5" ry="2.5" style="stroke:#181818;stroke-width:0.5;" width="87" x="24" y="7"/><ellipse cx="50.25" cy="23" fill="#B4A7E5" rx="11" ry="11" style="stroke:#181818;stroke-width:1.0;"/><path d="M51.25,20 L51.25,26 L53.25,26 L53.7344,26 L54.25,26.625 L54.25,27 L54.25,27.375 L53.7344,28 L53.25,28 L47.25,28 L46.7656,28 L46.25,27.375 L46.25,27 L46.25,26.625 L46.7656,26 L47.25,26 L49.25,26 L49.25,20 L47.25,20 L46.7656,20 L46.25,19.375 L46.25,19 L46.25,18.625 L46.7656,18 L47.25,18 L53.25,18 L53.7344,18 L54.25,18.625 L54.25,19 L54.25,19.375 L53.7344,20 L53.25,20 L51.25,20 Z " fill="#000000"/><text fill="#000000" font-family="sans-serif" font-size="14" font-style="italic" lengthAdjust="spacing" textLength="30" x="66.75" y="28.7285">login</text><line style="stroke:#181818;stroke-width:0.5;" x1="25" x2="110" y1="39" y2="39"/><rect fill="none" height="6" style="stroke:#C82930;stroke-width:1.0;" width="6" x="32" y="47"/><text fill="#000000" font-family="sans-serif" font-size="14" lengthAdjust="spacing" textLength="11" x="44" y="57.5332">id</text><rect fill="none" height="6" style="stroke:#C82930;stroke-width:1.0;" width="6" x="32" y="64.6094"/><text fill="#000000" font-family="sans-serif" font-size="14" lengthAdjust="spacing" textLength="61" x="44" y="75.1426">Password</text><line style="stroke:#181818;stroke-width:0.5;" x1="25" x2="110" y1="82.2188" y2="82.2188"/></g><g id="elem_Administrator"><rect fill="#F1F1F1" height="37.6094" style="stroke:#181818;stroke-width:0.5;" width="97" x="7" y="480"/><text fill="#000000" font-family="sans-serif" font-size="14" lengthAdjust="spacing" textLength="83" x="14" y="496.5332">Administrator</text><line style="stroke:#181818;stroke-width:0.5;" x1="8" x2="103" y1="501.6094" y2="501.6094"/></g><g id="elem_Coordinator"><rect fill="#F1F1F1" height="37.6094" style="stroke:#181818;stroke-width:0.5;" width="89" x="155" y="480"/><text fill="#000000" font-family="sans-serif" font-size="14" lengthAdjust="spacing" textLength="75" x="162" y="496.5332">Coordinator</text><line style="stroke:#181818;stroke-width:0.5;" x1="156" x2="243" y1="501.6094" y2="501.6094"/></g><g id="elem_Nurse"><rect fill="#F1F1F1" height="37.6094" style="stroke:#181818;stroke-width:0.5;" width="51" x="279" y="480"/><text fill="#000000" font-family="sans-serif" font-size="14" lengthAdjust="spacing" textLength="37" x="286" y="496.5332">Nurse</text><line style="stroke:#181818;stroke-width:0.5;" x1="280" x2="329" y1="501.6094" y2="501.6094"/></g><g id="elem_Recepionist"><rect fill="#F1F1F1" height="37.6094" style="stroke:#181818;stroke-width:0.5;" width="88" x="365.5" y="480"/><text fill="#000000" font-family="sans-serif" font-size="14" lengthAdjust="spacing" textLength="74" x="372.5" y="496.5332">Recepionist</text><line style="stroke:#181818;stroke-width:0.5;" x1="366.5" x2="452.5" y1="501.6094" y2="501.6094"/></g><g id="elem_Employees"><rect fill="#F1F1F1" height="135.2656" style="stroke:#181818;stroke-width:0.5;" width="115" x="196" y="267"/><text fill="#000000" font-family="sans-serif" font-size="14" lengthAdjust="spacing" textLength="69" x="219" y="283.5332">Employees</text><line style="stroke:#181818;stroke-width:0.5;" x1="197" x2="310" y1="288.6094" y2="288.6094"/><rect fill="none" height="6" style="stroke:#C82930;stroke-width:1.0;" width="6" x="204" y="296.6094"/><text fill="#000000" font-family="sans-serif" font-size="14" lengthAdjust="spacing" textLength="11" x="216" y="307.1426">id</text><rect fill="none" height="6" style="stroke:#C82930;stroke-width:1.0;" width="6" x="204" y="314.2188"/><text fill="#000000" font-family="sans-serif" font-size="14" lengthAdjust="spacing" textLength="35" x="216" y="324.752">name</text><rect fill="none" height="6" style="stroke:#C82930;stroke-width:1.0;" width="6" x="204" y="331.8281"/><text fill="#000000" font-family="sans-serif" font-size="14" lengthAdjust="spacing" textLength="51" x="216" y="342.3613">address</text><rect fill="none" height="6" style="stroke:#C82930;stroke-width:1.0;" width="6" x="204" y="349.4375"/><text fill="#000000" font-family="sans-serif" font-size="14" lengthAdjust="spacing" textLength="89" x="216" y="359.9707">phoneNumber</text><rect fill="none" height="6" style="stroke:#C82930;stroke-width:1.0;" width="6" x="204" y="367.0469"/><text fill="#000000" font-family="sans-serif" font-size="14" lengthAdjust="spacing" textLength="33" x="216" y="377.5801">email</text><rect fill="none" height="6" style="stroke:#C82930;stroke-width:1.0;" width="6" x="204" y="384.6563"/><text fill="#000000" font-family="sans-serif" font-size="14" lengthAdjust="spacing" textLength="63" x="216" y="395.1895">ccNumber</text></g><g id="elem_ApplicationUser"><rect fill="#F1F1F1" height="37.6094" style="stroke:#181818;stroke-width:0.5;" width="112" x="11.5" y="151"/><text fill="#000000" font-family="sans-serif" font-size="14" lengthAdjust="spacing" textLength="98" x="18.5" y="167.5332">ApplicationUser</text><line style="stroke:#181818;stroke-width:0.5;" x1="12.5" x2="122.5" y1="172.6094" y2="172.6094"/></g><!--MD5=[cd532d098f31e9947f0997ea17f2e47b]
link ApplicationUser to Employees--><g id="link_ApplicationUser_Employees"><path codeLine="21" d="M88.12,189.01 C113.94,211.57 159.24,251.15 195.91,283.19 " fill="none" id="ApplicationUser-Employees" style="stroke:#181818;stroke-width:1.0;"/><polygon fill="#000000" points="147.2652,231.4656,142.3876,223.3011,138.5201,227.7274,147.2652,231.4656" style="stroke:#000000;stroke-width:1.0;"/><text fill="#000000" font-family="sans-serif" font-size="13" lengthAdjust="spacing" textLength="10" x="152.5" y="233.4951">is</text><text fill="#000000" font-family="sans-serif" font-size="13" lengthAdjust="spacing" textLength="5" x="88.2163" y="210.206">*</text><text fill="#000000" font-family="sans-serif" font-size="13" lengthAdjust="spacing" textLength="5" x="182.8354" y="272.7211">*</text></g><!--MD5=[516a0024172af5fcd82e965eedf072c8]
link Administrator to ApplicationUser--><g id="link_Administrator_ApplicationUser"><path codeLine="22" d="M54.9,479.71 C53.76,440.62 51.81,346.07 56.5,267 C58.11,239.87 62.09,208.63 64.79,189.35 " fill="none" id="Administrator-ApplicationUser" style="stroke:#181818;stroke-width:1.0;"/><polygon fill="#000000" points="61.6702,329.6787,58.4251,338.6185,64.2995,338.8186,61.6702,329.6787" style="stroke:#000000;stroke-width:1.0;"/><text fill="#000000" font-family="sans-serif" font-size="13" lengthAdjust="spacing" textLength="107" x="70.5" y="339.9951">manages/registers</text><text fill="#000000" font-family="sans-serif" font-size="13" lengthAdjust="spacing" textLength="5" x="48.9894" y="469.2977">*</text><text fill="#000000" font-family="sans-serif" font-size="13" lengthAdjust="spacing" textLength="5" x="58.4549" y="209.9486">*</text></g><!--MD5=[bae56525a069936f0be416cffd5fe940]
link login to ApplicationUser--><g id="link_login_ApplicationUser"><path codeLine="23" d="M67.5,90.29 C67.5,110.85 67.5,134.74 67.5,150.76 " fill="none" id="login-ApplicationUser" style="stroke:#181818;stroke-width:1.0;"/><text fill="#000000" font-family="sans-serif" font-size="13" lengthAdjust="spacing" textLength="7" x="59.9422" y="111.731">1</text><text fill="#000000" font-family="sans-serif" font-size="13" lengthAdjust="spacing" textLength="7" x="59.4281" y="140.0265">1</text></g><!--MD5=[95d242db15432c303f87bf0b56d0e1fa]
link Employees to Recepionist--><g id="link_Employees_Recepionist"><path codeLine="24" d="M311.14,382.94 C328.07,397.93 346.15,415.03 361.5,432 C375.18,447.13 388.66,466.12 397.83,479.84 " fill="none" id="Employees-Recepionist" style="stroke:#181818;stroke-width:1.0;"/><polygon fill="#000000" points="384.8338,444.9022,380.9933,436.2015,376.6126,440.1206,384.8338,444.9022" style="stroke:#000000;stroke-width:1.0;"/><text fill="#000000" font-family="sans-serif" font-size="13" lengthAdjust="spacing" textLength="49" x="390.5" y="446.4951">plays as</text><text fill="#000000" font-family="sans-serif" font-size="13" lengthAdjust="spacing" textLength="7" x="318.9736" y="385.622">1</text><text fill="#000000" font-family="sans-serif" font-size="13" lengthAdjust="spacing" textLength="7" x="386.1842" y="469.131">1</text></g><!--MD5=[14e23f15f14c14ff45705b0c7bbda20b]
link Employees to Nurse--><g id="link_Employees_Nurse"><path codeLine="25" d="M274.39,402.06 C283.25,430.29 292.87,460.96 298.8,479.83 " fill="none" id="Employees-Nurse" style="stroke:#181818;stroke-width:1.0;"/><polygon fill="#000000" points="295.9973,445.9463,296.0927,436.4362,290.4846,438.1965,295.9973,445.9463" style="stroke:#000000;stroke-width:1.0;"/><text fill="#000000" font-family="sans-serif" font-size="13" lengthAdjust="spacing" textLength="49" x="303.5" y="446.4951">plays as</text><text fill="#000000" font-family="sans-serif" font-size="13" lengthAdjust="spacing" textLength="7" x="269.292" y="423.8242">1</text><text fill="#000000" font-family="sans-serif" font-size="13" lengthAdjust="spacing" textLength="7" x="288.9825" y="469.118">1</text></g><!--MD5=[11d34ca153820ce4e25c75f2bc09aa2d]
link Employees to Coordinator--><g id="link_Employees_Coordinator"><path codeLine="26" d="M224.02,402.14 C220.18,412.05 216.54,422.21 213.5,432 C208.57,447.89 204.8,466.45 202.42,479.84 " fill="none" id="Employees-Coordinator" style="stroke:#181818;stroke-width:1.0;"/><polygon fill="#000000" points="217.1608,445.9931,222.415,438.0656,216.7519,436.4913,217.1608,445.9931" style="stroke:#000000;stroke-width:1.0;"/><text fill="#000000" font-family="sans-serif" font-size="13" lengthAdjust="spacing" textLength="49" x="227.5" y="446.4951">plays as</text><text fill="#000000" font-family="sans-serif" font-size="13" lengthAdjust="spacing" textLength="7" x="213.4128" y="423.9129">1</text><text fill="#000000" font-family="sans-serif" font-size="13" lengthAdjust="spacing" textLength="7" x="195.2424" y="469.131">1</text></g><!--MD5=[d18d90509c5f958fc9e50bd1264545f0]
link Employees to Administrator--><g id="link_Employees_Administrator"><path codeLine="27" d="M195.96,382.72 C156.46,415.14 106.2,456.39 77.76,479.73 " fill="none" id="Employees-Administrator" style="stroke:#181818;stroke-width:1.0;"/><polygon fill="#000000" points="132.635,444.3479,141.4913,440.8813,137.7623,436.3377,132.635,444.3479" style="stroke:#000000;stroke-width:1.0;"/><text fill="#000000" font-family="sans-serif" font-size="13" lengthAdjust="spacing" textLength="49" x="145.5" y="446.4951">plays as</text><text fill="#000000" font-family="sans-serif" font-size="13" lengthAdjust="spacing" textLength="7" x="181.1393" y="385.3738">1</text><text fill="#000000" font-family="sans-serif" font-size="13" lengthAdjust="spacing" textLength="7" x="76.5052" y="468.9873">1</text></g><!--MD5=[ee1e9f418f9f236215138631b6fcb3b6]
@startuml
'https://plantuml.com/class-diagram

interface login{
-id
-Password
}
object Administrator
object Coordinator
object Nurse
object Recepionist
object Employees{
-id
-name
-address
-phoneNumber
-email
-ccNumber
}
object ApplicationUser

ApplicationUser"*" - - "*"Employees: > is
Administrator"*" - - "*" ApplicationUser: > manages/registers
login"1"- -"1"ApplicationUser
Employees"1"- -"1" Recepionist: > plays as
Employees"1"- -"1" Nurse: > plays as
Employees"1"- -"1" Coordinator: > plays as
Employees"1"- -"1" Administrator: > plays as
@enduml

@startuml

interface login{
-id
-Password
}
object Administrator
object Coordinator
object Nurse
object Recepionist
object Employees{
-id
-name
-address
-phoneNumber
-email
-ccNumber
}
object ApplicationUser

ApplicationUser"*" - - "*"Employees: > is
Administrator"*" - - "*" ApplicationUser: > manages/registers
login"1"- -"1"ApplicationUser
Employees"1"- -"1" Recepionist: > plays as
Employees"1"- -"1" Nurse: > plays as
Employees"1"- -"1" Coordinator: > plays as
Employees"1"- -"1" Administrator: > plays as
@enduml

PlantUML version 1.2022.4(Sat Apr 09 14:29:17 BST 2022)
(GPL source distribution)
Java Runtime: OpenJDK Runtime Environment
JVM: OpenJDK 64-Bit Server VM
Default Encoding: Cp1252
Language: pt
Country: PT
--></g></svg>