<?xml version="1.0" encoding="UTF-8" standalone="no"?><svg xmlns="http://www.w3.org/2000/svg" xmlns:xlink="http://www.w3.org/1999/xlink" contentStyleType="text/css" height="473px" preserveAspectRatio="none" style="width:333px;height:473px;background:#FFFFFF;" version="1.1" viewBox="0 0 333 473" width="333px" zoomAndPan="magnify"><defs/><g><!--MD5=[02e4b9b7573f1156f41e60aa5b4e25a4]
class Company--><g id="elem_Company"><rect codeLine="4" fill="#F1F1F1" height="65.6094" id="Company" rx="2.5" ry="2.5" style="stroke:#181818;stroke-width:0.5;" width="92" x="161.5" y="7"/><ellipse cx="176.5" cy="23" fill="#ADD1B2" rx="11" ry="11" style="stroke:#181818;stroke-width:1.0;"/><path d="M178.5,19.5 Q178.7031,19 178.9375,18.75 Q179.1719,18.5 179.4375,18.5 Q179.9063,18.5 180.2031,18.7813 Q180.5,19.0625 180.5,19.7188 L180.5,21.2813 Q180.5,21.9375 180.2188,22.2188 Q179.9375,22.5 179.5,22.5 Q179.1094,22.5 178.8594,22.3281 Q178.6094,22.1563 178.5,21.7031 Q178.4531,21.3906 178.2813,21.2188 Q177.9688,20.8906 177.4063,20.7031 Q176.8438,20.5 176.2813,20.5 Q175.5781,20.5 174.9844,20.7813 Q174.4063,21.0625 173.9531,21.6875 Q173.5,22.3125 173.5,23.1719 L173.5,24.0938 Q173.5,25.125 174.3438,25.8125 Q175.1875,26.5 176.6875,26.5 Q177.5781,26.5 178.2031,26.2969 Q178.5625,26.1875 178.9688,25.8281 Q179.2344,25.625 179.375,25.5625 Q179.5156,25.5 179.6875,25.5 Q180.0156,25.5 180.25,25.7656 Q180.5,26.0156 180.5,26.375 Q180.5,26.7188 180.1563,27.125 Q179.6563,27.7188 178.8594,28.0469 Q177.8125,28.5 176.5313,28.5 Q175.0313,28.5 173.8281,27.9063 Q172.8594,27.4375 172.1719,26.4219 Q171.5,25.4063 171.5,24.2031 L171.5,23.1094 Q171.5,21.8594 172.0938,20.7656 Q172.7031,19.6719 173.75,19.0938 Q174.8125,18.5 176,18.5 Q176.7188,18.5 177.3438,18.75 Q177.9688,19 178.5,19.5 Z " fill="#000000"/><text fill="#000000" font-family="sans-serif" font-size="14" lengthAdjust="spacing" textLength="60" x="190.5" y="28.7285">Company</text><line style="stroke:#181818;stroke-width:0.5;" x1="162.5" x2="252.5" y1="39" y2="39"/><text fill="#000000" font-family="sans-serif" font-size="14" lengthAdjust="spacing" textLength="78" x="167.5" y="57.5332">-designation</text><line style="stroke:#181818;stroke-width:0.5;" x1="162.5" x2="252.5" y1="64.6094" y2="64.6094"/></g><!--MD5=[7421f545a0d8420c5bec41e74b387d9c]
class Employee--><g id="elem_Employee"><rect codeLine="7" fill="#F1F1F1" height="153.6563" id="Employee" rx="2.5" ry="2.5" style="stroke:#181818;stroke-width:0.5;" width="106" x="72.5" y="151"/><ellipse cx="92.9" cy="167" fill="#ADD1B2" rx="11" ry="11" style="stroke:#181818;stroke-width:1.0;"/><path d="M94.9,163.5 Q95.1031,163 95.3375,162.75 Q95.5719,162.5 95.8375,162.5 Q96.3063,162.5 96.6031,162.7813 Q96.9,163.0625 96.9,163.7188 L96.9,165.2813 Q96.9,165.9375 96.6188,166.2188 Q96.3375,166.5 95.9,166.5 Q95.5094,166.5 95.2594,166.3281 Q95.0094,166.1563 94.9,165.7031 Q94.8531,165.3906 94.6813,165.2188 Q94.3688,164.8906 93.8063,164.7031 Q93.2438,164.5 92.6813,164.5 Q91.9781,164.5 91.3844,164.7813 Q90.8063,165.0625 90.3531,165.6875 Q89.9,166.3125 89.9,167.1719 L89.9,168.0938 Q89.9,169.125 90.7438,169.8125 Q91.5875,170.5 93.0875,170.5 Q93.9781,170.5 94.6031,170.2969 Q94.9625,170.1875 95.3688,169.8281 Q95.6344,169.625 95.775,169.5625 Q95.9156,169.5 96.0875,169.5 Q96.4156,169.5 96.65,169.7656 Q96.9,170.0156 96.9,170.375 Q96.9,170.7188 96.5563,171.125 Q96.0563,171.7188 95.2594,172.0469 Q94.2125,172.5 92.9313,172.5 Q91.4313,172.5 90.2281,171.9063 Q89.2594,171.4375 88.5719,170.4219 Q87.9,169.4063 87.9,168.2031 L87.9,167.1094 Q87.9,165.8594 88.4938,164.7656 Q89.1031,163.6719 90.15,163.0938 Q91.2125,162.5 92.4,162.5 Q93.1188,162.5 93.7438,162.75 Q94.3688,163 94.9,163.5 Z " fill="#000000"/><text fill="#000000" font-family="sans-serif" font-size="14" lengthAdjust="spacing" textLength="62" x="108.1" y="172.7285">Employee</text><line style="stroke:#181818;stroke-width:0.5;" x1="73.5" x2="177.5" y1="183" y2="183"/><text fill="#000000" font-family="sans-serif" font-size="14" lengthAdjust="spacing" textLength="16" x="78.5" y="201.5332">-id</text><text fill="#000000" font-family="sans-serif" font-size="14" lengthAdjust="spacing" textLength="40" x="78.5" y="219.1426">-name</text><text fill="#000000" font-family="sans-serif" font-size="14" lengthAdjust="spacing" textLength="56" x="78.5" y="236.752">-address</text><text fill="#000000" font-family="sans-serif" font-size="14" lengthAdjust="spacing" textLength="94" x="78.5" y="254.3613">-phoneNumber</text><text fill="#000000" font-family="sans-serif" font-size="14" lengthAdjust="spacing" textLength="38" x="78.5" y="271.9707">-email</text><text fill="#000000" font-family="sans-serif" font-size="14" lengthAdjust="spacing" textLength="68" x="78.5" y="289.5801">-ccNumber</text><line style="stroke:#181818;stroke-width:0.5;" x1="73.5" x2="177.5" y1="296.6563" y2="296.6563"/></g><!--MD5=[3fd616f346a44cd59a91eb10b19e157c]
class User--><g id="elem_User"><rect codeLine="15" fill="#F1F1F1" height="83.2188" id="User" rx="2.5" ry="2.5" style="stroke:#181818;stroke-width:0.5;" width="77" x="7" y="383"/><ellipse cx="29.2" cy="399" fill="#ADD1B2" rx="11" ry="11" style="stroke:#181818;stroke-width:1.0;"/><path d="M31.2,395.5 Q31.4031,395 31.6375,394.75 Q31.8719,394.5 32.1375,394.5 Q32.6063,394.5 32.9031,394.7813 Q33.2,395.0625 33.2,395.7188 L33.2,397.2813 Q33.2,397.9375 32.9188,398.2188 Q32.6375,398.5 32.2,398.5 Q31.8094,398.5 31.5594,398.3281 Q31.3094,398.1563 31.2,397.7031 Q31.1531,397.3906 30.9813,397.2188 Q30.6688,396.8906 30.1063,396.7031 Q29.5438,396.5 28.9813,396.5 Q28.2781,396.5 27.6844,396.7813 Q27.1063,397.0625 26.6531,397.6875 Q26.2,398.3125 26.2,399.1719 L26.2,400.0938 Q26.2,401.125 27.0438,401.8125 Q27.8875,402.5 29.3875,402.5 Q30.2781,402.5 30.9031,402.2969 Q31.2625,402.1875 31.6688,401.8281 Q31.9344,401.625 32.075,401.5625 Q32.2156,401.5 32.3875,401.5 Q32.7156,401.5 32.95,401.7656 Q33.2,402.0156 33.2,402.375 Q33.2,402.7188 32.8563,403.125 Q32.3563,403.7188 31.5594,404.0469 Q30.5125,404.5 29.2313,404.5 Q27.7313,404.5 26.5281,403.9063 Q25.5594,403.4375 24.8719,402.4219 Q24.2,401.4063 24.2,400.2031 L24.2,399.1094 Q24.2,397.8594 24.7938,396.7656 Q25.4031,395.6719 26.45,395.0938 Q27.5125,394.5 28.7,394.5 Q29.4188,394.5 30.0438,394.75 Q30.6688,395 31.2,395.5 Z " fill="#000000"/><text fill="#000000" font-family="sans-serif" font-size="14" lengthAdjust="spacing" textLength="29" x="44.8" y="404.7285">User</text><line style="stroke:#181818;stroke-width:0.5;" x1="8" x2="83" y1="415" y2="415"/><text fill="#000000" font-family="sans-serif" font-size="14" lengthAdjust="spacing" textLength="16" x="13" y="433.5332">-id</text><text fill="#000000" font-family="sans-serif" font-size="14" lengthAdjust="spacing" textLength="65" x="13" y="451.1426">-password</text><line style="stroke:#181818;stroke-width:0.5;" x1="8" x2="83" y1="458.2188" y2="458.2188"/></g><!--MD5=[12e90e92236ca84f203192a07d84ec5e]
class OrganizationRole--><g id="elem_OrganizationRole"><rect codeLine="19" fill="#F1F1F1" height="65.6094" id="OrganizationRole" rx="2.5" ry="2.5" style="stroke:#181818;stroke-width:0.5;" width="141" x="148" y="391.5"/><ellipse cx="163" cy="407.5" fill="#ADD1B2" rx="11" ry="11" style="stroke:#181818;stroke-width:1.0;"/><path d="M165,404 Q165.2031,403.5 165.4375,403.25 Q165.6719,403 165.9375,403 Q166.4063,403 166.7031,403.2813 Q167,403.5625 167,404.2188 L167,405.7813 Q167,406.4375 166.7188,406.7188 Q166.4375,407 166,407 Q165.6094,407 165.3594,406.8281 Q165.1094,406.6563 165,406.2031 Q164.9531,405.8906 164.7813,405.7188 Q164.4688,405.3906 163.9063,405.2031 Q163.3438,405 162.7813,405 Q162.0781,405 161.4844,405.2813 Q160.9063,405.5625 160.4531,406.1875 Q160,406.8125 160,407.6719 L160,408.5938 Q160,409.625 160.8438,410.3125 Q161.6875,411 163.1875,411 Q164.0781,411 164.7031,410.7969 Q165.0625,410.6875 165.4688,410.3281 Q165.7344,410.125 165.875,410.0625 Q166.0156,410 166.1875,410 Q166.5156,410 166.75,410.2656 Q167,410.5156 167,410.875 Q167,411.2188 166.6563,411.625 Q166.1563,412.2188 165.3594,412.5469 Q164.3125,413 163.0313,413 Q161.5313,413 160.3281,412.4063 Q159.3594,411.9375 158.6719,410.9219 Q158,409.9063 158,408.7031 L158,407.6094 Q158,406.3594 158.5938,405.2656 Q159.2031,404.1719 160.25,403.5938 Q161.3125,403 162.5,403 Q163.2188,403 163.8438,403.25 Q164.4688,403.5 165,404 Z " fill="#000000"/><text fill="#000000" font-family="sans-serif" font-size="14" lengthAdjust="spacing" textLength="109" x="177" y="413.2285">OrganizationRole</text><line style="stroke:#181818;stroke-width:0.5;" x1="149" x2="288" y1="423.5" y2="423.5"/><text fill="#000000" font-family="sans-serif" font-size="14" lengthAdjust="spacing" textLength="74" x="154" y="442.0332">-description</text><line style="stroke:#181818;stroke-width:0.5;" x1="149" x2="288" y1="449.1094" y2="449.1094"/></g><!--MD5=[09366576ee87d48d594df10cacc83f45]
link Company to Employee--><g id="link_Company_Employee"><path codeLine="23" d="M183.24,73.09 C176.9,82.42 170.46,92.83 165.5,103 C158.16,118.05 151.73,134.75 146.28,150.91 " fill="none" id="Company-Employee" style="stroke:#181818;stroke-width:1.0;"/><polygon fill="#000000" points="168.3549,116.6923,174.8901,109.7827,169.5807,107.261,168.3549,116.6923" style="stroke:#000000;stroke-width:1.0;"/><text fill="#000000" font-family="sans-serif" font-size="13" lengthAdjust="spacing" textLength="42" x="179.5" y="117.4951">employ</text><text fill="#000000" font-family="sans-serif" font-size="13" lengthAdjust="spacing" textLength="7" x="171.1218" y="94.2295">1</text><text fill="#000000" font-family="sans-serif" font-size="13" lengthAdjust="spacing" textLength="5" x="143.0794" y="140.0633">*</text></g><!--MD5=[22fb9506fac029fc1d2ae00f0eb8d606]
link Employee to User--><g id="link_Employee_User"><path codeLine="24" d="M72.33,282.84 C60.17,298.44 48.94,316.33 42.5,335 C37.29,350.11 36.8,367.55 38.07,382.94 " fill="none" id="Employee-User" style="stroke:#181818;stroke-width:1.0;"/><polygon fill="#000000" points="45.8809,348.9064,51.5904,341.3003,46.0293,339.397,45.8809,348.9064" style="stroke:#000000;stroke-width:1.0;"/><text fill="#000000" font-family="sans-serif" font-size="13" lengthAdjust="spacing" textLength="54" x="56.5" y="349.4951">relates to</text><text fill="#000000" font-family="sans-serif" font-size="13" lengthAdjust="spacing" textLength="18" x="46.3645" y="286.381">0.1</text><text fill="#000000" font-family="sans-serif" font-size="13" lengthAdjust="spacing" textLength="7" x="29.2597" y="372.2377">1</text></g><!--MD5=[9abf40ff36e4aa94ac761b2803c1dce8]
link Company to OrganizationRole--><g id="link_Company_OrganizationRole"><path codeLine="25" d="M219.31,73.08 C222.27,82.58 225.02,93.09 226.5,103 C242.17,207.59 230.17,333.47 222.94,391.43 " fill="none" id="Company-OrganizationRole" style="stroke:#181818;stroke-width:1.0;"/><polygon fill="#000000" points="238.557,233.1755,241.3926,224.0975,235.5151,224.1645,238.557,233.1755" style="stroke:#000000;stroke-width:1.0;"/><text fill="#000000" font-family="sans-serif" font-size="13" lengthAdjust="spacing" textLength="78" x="247.5" y="233.4951">comprehends</text><text fill="#000000" font-family="sans-serif" font-size="13" lengthAdjust="spacing" textLength="7" x="213.8422" y="94.2177">1</text><text fill="#000000" font-family="sans-serif" font-size="13" lengthAdjust="spacing" textLength="5" x="218.3401" y="380.531">*</text></g><!--MD5=[241b49406f7a05442b1e788ffaf3787c]
link Employee to OrganizationRole--><g id="link_Employee_OrganizationRole"><path codeLine="26" d="M134.54,305.07 C138.36,321.48 143.78,338.3 151.5,353 C158.88,367.05 169.87,380.29 180.83,391.42 " fill="none" id="Employee-OrganizationRole" style="stroke:#181818;stroke-width:1.0;"/><polygon fill="#000000" points="158.8623,348.5825,157.179,339.2221,151.9986,341.9992,158.8623,348.5825" style="stroke:#000000;stroke-width:1.0;"/><text fill="#000000" font-family="sans-serif" font-size="13" lengthAdjust="spacing" textLength="56" x="165.5" y="349.4951">has/plays</text><text fill="#000000" font-family="sans-serif" font-size="13" lengthAdjust="spacing" textLength="5" x="130.1225" y="326.1726">*</text><text fill="#000000" font-family="sans-serif" font-size="13" lengthAdjust="spacing" textLength="7" x="165.3387" y="380.5189">1</text></g><!--MD5=[678aeb70a7d4b1b80b057caf30199c44]
@startuml
'https://plantuml.com/class-diagram
skinparam classAttributeIconSize 0

Class Company{
-designation
}
Class Employee{
-id
-name
-address
-phoneNumber
-email
-ccNumber
}
Class User{
-id
-password
}
Class OrganizationRole{
-description
}

Company"1"- -"*"Employee:employ >
Employee"0.1"- -"1"User:relates to >
Company"1"- -"*"OrganizationRole: comprehends >
Employee"*"- -"1"OrganizationRole:has/plays >


@enduml

@startuml
skinparam classAttributeIconSize 0

Class Company{
-designation
}
Class Employee{
-id
-name
-address
-phoneNumber
-email
-ccNumber
}
Class User{
-id
-password
}
Class OrganizationRole{
-description
}

Company"1"- -"*"Employee:employ >
Employee"0.1"- -"1"User:relates to >
Company"1"- -"*"OrganizationRole: comprehends >
Employee"*"- -"1"OrganizationRole:has/plays >


@enduml

PlantUML version 1.2022.4(Sat Apr 09 14:29:17 BST 2022)
(GPL source distribution)
Java Runtime: OpenJDK Runtime Environment
JVM: OpenJDK 64-Bit Server VM
Default Encoding: Cp1252
Language: pt
Country: PT
--></g></svg>