<?xml version="1.0" encoding="UTF-8" standalone="no"?><svg xmlns="http://www.w3.org/2000/svg" xmlns:xlink="http://www.w3.org/1999/xlink" contentStyleType="text/css" height="778px" preserveAspectRatio="none" style="width:450px;height:778px;background:#FFFFFF;" version="1.1" viewBox="0 0 450 778" width="450px" zoomAndPan="magnify"><defs/><g><!--MD5=[02e4b9b7573f1156f41e60aa5b4e25a4]
class Company--><g id="elem_Company"><rect codeLine="4" fill="#F1F1F1" height="136.0469" id="Company" rx="2.5" ry="2.5" style="stroke:#181818;stroke-width:0.5;" width="436" x="7" y="260"/><ellipse cx="190.75" cy="276" fill="#ADD1B2" rx="11" ry="11" style="stroke:#181818;stroke-width:1.0;"/><path d="M192.75,272.5 Q192.9531,272 193.1875,271.75 Q193.4219,271.5 193.6875,271.5 Q194.1563,271.5 194.4531,271.7813 Q194.75,272.0625 194.75,272.7188 L194.75,274.2813 Q194.75,274.9375 194.4688,275.2188 Q194.1875,275.5 193.75,275.5 Q193.3594,275.5 193.1094,275.3281 Q192.8594,275.1563 192.75,274.7031 Q192.7031,274.3906 192.5313,274.2188 Q192.2188,273.8906 191.6563,273.7031 Q191.0938,273.5 190.5313,273.5 Q189.8281,273.5 189.2344,273.7813 Q188.6563,274.0625 188.2031,274.6875 Q187.75,275.3125 187.75,276.1719 L187.75,277.0938 Q187.75,278.125 188.5938,278.8125 Q189.4375,279.5 190.9375,279.5 Q191.8281,279.5 192.4531,279.2969 Q192.8125,279.1875 193.2188,278.8281 Q193.4844,278.625 193.625,278.5625 Q193.7656,278.5 193.9375,278.5 Q194.2656,278.5 194.5,278.7656 Q194.75,279.0156 194.75,279.375 Q194.75,279.7188 194.4063,280.125 Q193.9063,280.7188 193.1094,281.0469 Q192.0625,281.5 190.7813,281.5 Q189.2813,281.5 188.0781,280.9063 Q187.1094,280.4375 186.4219,279.4219 Q185.75,278.4063 185.75,277.2031 L185.75,276.1094 Q185.75,274.8594 186.3438,273.7656 Q186.9531,272.6719 188,272.0938 Q189.0625,271.5 190.25,271.5 Q190.9688,271.5 191.5938,271.75 Q192.2188,272 192.75,272.5 Z " fill="#000000"/><text fill="#000000" font-family="sans-serif" font-size="14" lengthAdjust="spacing" textLength="60" x="211.25" y="281.7285">Company</text><line style="stroke:#181818;stroke-width:0.5;" x1="8" x2="442" y1="292" y2="292"/><text fill="#000000" font-family="sans-serif" font-size="14" lengthAdjust="spacing" textLength="70" x="13" y="310.5332">-String role</text><text fill="#000000" font-family="sans-serif" font-size="14" lengthAdjust="spacing" textLength="379" x="13" y="328.1426">-List&lt;Employee&gt; EmployeesList = new ArrayList&lt;Employee&gt;</text><line style="stroke:#181818;stroke-width:0.5;" x1="8" x2="442" y1="335.2188" y2="335.2188"/><text fill="#000000" font-family="sans-serif" font-size="14" lengthAdjust="spacing" textLength="164" x="13" y="353.752">+FillRoleArray(String role)</text><text fill="#000000" font-family="sans-serif" font-size="14" lengthAdjust="spacing" textLength="388" x="13" y="371.3613">+validateRoleArray(ArrayList&lt;Employee&gt; EmployeesRoleList)</text><text fill="#000000" font-family="sans-serif" font-size="14" lengthAdjust="spacing" textLength="424" x="13" y="388.9707">+PrintListEmployeesFromRole(List&lt;Employee&gt; EmployeesRoleList)</text></g><!--MD5=[81e7060b7a6ebeb46a23ac2aa289991a]
class RoleMenuController--><g id="elem_RoleMenuController"><rect codeLine="14" fill="#F1F1F1" height="83.2188" id="RoleMenuController" rx="2.5" ry="2.5" style="stroke:#181818;stroke-width:0.5;" width="336" x="57" y="116"/><ellipse cx="157.75" cy="132" fill="#ADD1B2" rx="11" ry="11" style="stroke:#181818;stroke-width:1.0;"/><path d="M159.75,128.5 Q159.9531,128 160.1875,127.75 Q160.4219,127.5 160.6875,127.5 Q161.1563,127.5 161.4531,127.7813 Q161.75,128.0625 161.75,128.7188 L161.75,130.2813 Q161.75,130.9375 161.4688,131.2188 Q161.1875,131.5 160.75,131.5 Q160.3594,131.5 160.1094,131.3281 Q159.8594,131.1563 159.75,130.7031 Q159.7031,130.3906 159.5313,130.2188 Q159.2188,129.8906 158.6563,129.7031 Q158.0938,129.5 157.5313,129.5 Q156.8281,129.5 156.2344,129.7813 Q155.6563,130.0625 155.2031,130.6875 Q154.75,131.3125 154.75,132.1719 L154.75,133.0938 Q154.75,134.125 155.5938,134.8125 Q156.4375,135.5 157.9375,135.5 Q158.8281,135.5 159.4531,135.2969 Q159.8125,135.1875 160.2188,134.8281 Q160.4844,134.625 160.625,134.5625 Q160.7656,134.5 160.9375,134.5 Q161.2656,134.5 161.5,134.7656 Q161.75,135.0156 161.75,135.375 Q161.75,135.7188 161.4063,136.125 Q160.9063,136.7188 160.1094,137.0469 Q159.0625,137.5 157.7813,137.5 Q156.2813,137.5 155.0781,136.9063 Q154.1094,136.4375 153.4219,135.4219 Q152.75,134.4063 152.75,133.2031 L152.75,132.1094 Q152.75,130.8594 153.3438,129.7656 Q153.9531,128.6719 155,128.0938 Q156.0625,127.5 157.25,127.5 Q157.9688,127.5 158.5938,127.75 Q159.2188,128 159.75,128.5 Z " fill="#000000"/><text fill="#000000" font-family="sans-serif" font-size="14" lengthAdjust="spacing" textLength="126" x="178.25" y="137.7285">RoleMenuController</text><line style="stroke:#181818;stroke-width:0.5;" x1="58" x2="392" y1="148" y2="148"/><line style="stroke:#181818;stroke-width:0.5;" x1="58" x2="392" y1="156" y2="156"/><text fill="#000000" font-family="sans-serif" font-size="14" lengthAdjust="spacing" textLength="123" x="63" y="174.5332">+FillRoleArray(role)</text><text fill="#000000" font-family="sans-serif" font-size="14" lengthAdjust="spacing" textLength="324" x="63" y="192.1426">+PrintListEmployeesFromRole(EmployeesRoleList);</text></g><!--MD5=[161a658e5a9b97a7036eb3617b74dca3]
class RoleMenuUI--><g id="elem_RoleMenuUI"><rect codeLine="19" fill="#F1F1F1" height="48" id="RoleMenuUI" rx="2.5" ry="2.5" style="stroke:#181818;stroke-width:0.5;" width="108" x="171" y="7"/><ellipse cx="186" cy="23" fill="#ADD1B2" rx="11" ry="11" style="stroke:#181818;stroke-width:1.0;"/><path d="M188,19.5 Q188.2031,19 188.4375,18.75 Q188.6719,18.5 188.9375,18.5 Q189.4063,18.5 189.7031,18.7813 Q190,19.0625 190,19.7188 L190,21.2813 Q190,21.9375 189.7188,22.2188 Q189.4375,22.5 189,22.5 Q188.6094,22.5 188.3594,22.3281 Q188.1094,22.1563 188,21.7031 Q187.9531,21.3906 187.7813,21.2188 Q187.4688,20.8906 186.9063,20.7031 Q186.3438,20.5 185.7813,20.5 Q185.0781,20.5 184.4844,20.7813 Q183.9063,21.0625 183.4531,21.6875 Q183,22.3125 183,23.1719 L183,24.0938 Q183,25.125 183.8438,25.8125 Q184.6875,26.5 186.1875,26.5 Q187.0781,26.5 187.7031,26.2969 Q188.0625,26.1875 188.4688,25.8281 Q188.7344,25.625 188.875,25.5625 Q189.0156,25.5 189.1875,25.5 Q189.5156,25.5 189.75,25.7656 Q190,26.0156 190,26.375 Q190,26.7188 189.6563,27.125 Q189.1563,27.7188 188.3594,28.0469 Q187.3125,28.5 186.0313,28.5 Q184.5313,28.5 183.3281,27.9063 Q182.3594,27.4375 181.6719,26.4219 Q181,25.4063 181,24.2031 L181,23.1094 Q181,21.8594 181.5938,20.7656 Q182.2031,19.6719 183.25,19.0938 Q184.3125,18.5 185.5,18.5 Q186.2188,18.5 186.8438,18.75 Q187.4688,19 188,19.5 Z " fill="#000000"/><text fill="#000000" font-family="sans-serif" font-size="14" lengthAdjust="spacing" textLength="76" x="200" y="28.7285">RoleMenuUI</text><line style="stroke:#181818;stroke-width:0.5;" x1="172" x2="278" y1="39" y2="39"/><line style="stroke:#181818;stroke-width:0.5;" x1="172" x2="278" y1="47" y2="47"/></g><!--MD5=[7421f545a0d8420c5bec41e74b387d9c]
class Employee--><g id="elem_Employee"><rect codeLine="22" fill="#F1F1F1" height="153.6563" id="Employee" rx="2.5" ry="2.5" style="stroke:#181818;stroke-width:0.5;" width="106" x="111" y="474"/><ellipse cx="131.4" cy="490" fill="#ADD1B2" rx="11" ry="11" style="stroke:#181818;stroke-width:1.0;"/><path d="M133.4,486.5 Q133.6031,486 133.8375,485.75 Q134.0719,485.5 134.3375,485.5 Q134.8063,485.5 135.1031,485.7813 Q135.4,486.0625 135.4,486.7188 L135.4,488.2813 Q135.4,488.9375 135.1188,489.2188 Q134.8375,489.5 134.4,489.5 Q134.0094,489.5 133.7594,489.3281 Q133.5094,489.1563 133.4,488.7031 Q133.3531,488.3906 133.1813,488.2188 Q132.8688,487.8906 132.3063,487.7031 Q131.7438,487.5 131.1813,487.5 Q130.4781,487.5 129.8844,487.7813 Q129.3063,488.0625 128.8531,488.6875 Q128.4,489.3125 128.4,490.1719 L128.4,491.0938 Q128.4,492.125 129.2438,492.8125 Q130.0875,493.5 131.5875,493.5 Q132.4781,493.5 133.1031,493.2969 Q133.4625,493.1875 133.8688,492.8281 Q134.1344,492.625 134.275,492.5625 Q134.4156,492.5 134.5875,492.5 Q134.9156,492.5 135.15,492.7656 Q135.4,493.0156 135.4,493.375 Q135.4,493.7188 135.0563,494.125 Q134.5563,494.7188 133.7594,495.0469 Q132.7125,495.5 131.4313,495.5 Q129.9313,495.5 128.7281,494.9063 Q127.7594,494.4375 127.0719,493.4219 Q126.4,492.4063 126.4,491.2031 L126.4,490.1094 Q126.4,488.8594 126.9938,487.7656 Q127.6031,486.6719 128.65,486.0938 Q129.7125,485.5 130.9,485.5 Q131.6188,485.5 132.2438,485.75 Q132.8688,486 133.4,486.5 Z " fill="#000000"/><text fill="#000000" font-family="sans-serif" font-size="14" lengthAdjust="spacing" textLength="62" x="146.6" y="495.7285">Employee</text><line style="stroke:#181818;stroke-width:0.5;" x1="112" x2="216" y1="506" y2="506"/><text fill="#000000" font-family="sans-serif" font-size="14" lengthAdjust="spacing" textLength="16" x="117" y="524.5332">-id</text><text fill="#000000" font-family="sans-serif" font-size="14" lengthAdjust="spacing" textLength="40" x="117" y="542.1426">-name</text><text fill="#000000" font-family="sans-serif" font-size="14" lengthAdjust="spacing" textLength="56" x="117" y="559.752">-address</text><text fill="#000000" font-family="sans-serif" font-size="14" lengthAdjust="spacing" textLength="94" x="117" y="577.3613">-phoneNumber</text><text fill="#000000" font-family="sans-serif" font-size="14" lengthAdjust="spacing" textLength="38" x="117" y="594.9707">-email</text><text fill="#000000" font-family="sans-serif" font-size="14" lengthAdjust="spacing" textLength="68" x="117" y="612.5801">-ccNumber</text><line style="stroke:#181818;stroke-width:0.5;" x1="112" x2="216" y1="619.6563" y2="619.6563"/></g><!--MD5=[12e90e92236ca84f203192a07d84ec5e]
class OrganizationRole--><g id="elem_OrganizationRole"><rect codeLine="31" fill="#F1F1F1" height="65.6094" id="OrganizationRole" rx="2.5" ry="2.5" style="stroke:#181818;stroke-width:0.5;" width="141" x="155.5" y="706"/><ellipse cx="170.5" cy="722" fill="#ADD1B2" rx="11" ry="11" style="stroke:#181818;stroke-width:1.0;"/><path d="M172.5,718.5 Q172.7031,718 172.9375,717.75 Q173.1719,717.5 173.4375,717.5 Q173.9063,717.5 174.2031,717.7813 Q174.5,718.0625 174.5,718.7188 L174.5,720.2813 Q174.5,720.9375 174.2188,721.2188 Q173.9375,721.5 173.5,721.5 Q173.1094,721.5 172.8594,721.3281 Q172.6094,721.1563 172.5,720.7031 Q172.4531,720.3906 172.2813,720.2188 Q171.9688,719.8906 171.4063,719.7031 Q170.8438,719.5 170.2813,719.5 Q169.5781,719.5 168.9844,719.7813 Q168.4063,720.0625 167.9531,720.6875 Q167.5,721.3125 167.5,722.1719 L167.5,723.0938 Q167.5,724.125 168.3438,724.8125 Q169.1875,725.5 170.6875,725.5 Q171.5781,725.5 172.2031,725.2969 Q172.5625,725.1875 172.9688,724.8281 Q173.2344,724.625 173.375,724.5625 Q173.5156,724.5 173.6875,724.5 Q174.0156,724.5 174.25,724.7656 Q174.5,725.0156 174.5,725.375 Q174.5,725.7188 174.1563,726.125 Q173.6563,726.7188 172.8594,727.0469 Q171.8125,727.5 170.5313,727.5 Q169.0313,727.5 167.8281,726.9063 Q166.8594,726.4375 166.1719,725.4219 Q165.5,724.4063 165.5,723.2031 L165.5,722.1094 Q165.5,720.8594 166.0938,719.7656 Q166.7031,718.6719 167.75,718.0938 Q168.8125,717.5 170,717.5 Q170.7188,717.5 171.3438,717.75 Q171.9688,718 172.5,718.5 Z " fill="#000000"/><text fill="#000000" font-family="sans-serif" font-size="14" lengthAdjust="spacing" textLength="109" x="184.5" y="727.7285">OrganizationRole</text><line style="stroke:#181818;stroke-width:0.5;" x1="156.5" x2="295.5" y1="738" y2="738"/><text fill="#000000" font-family="sans-serif" font-size="14" lengthAdjust="spacing" textLength="74" x="161.5" y="756.5332">-description</text><line style="stroke:#181818;stroke-width:0.5;" x1="156.5" x2="295.5" y1="763.6094" y2="763.6094"/></g><!--MD5=[f7c67c2b00f8bdcbbfee48206941bb9a]
link RoleMenuUI to RoleMenuController--><g id="link_RoleMenuUI_RoleMenuController"><path codeLine="35" d="M225,55.13 C225,70.68 225,91.72 225,110.6 " fill="none" id="RoleMenuUI-to-RoleMenuController" style="stroke:#181818;stroke-width:1.0;stroke-dasharray:7.0,7.0;"/><polygon fill="#181818" points="225,115.86,229,106.86,225,110.86,221,106.86,225,115.86" style="stroke:#181818;stroke-width:1.0;"/></g><!--MD5=[8dcf441f26e349c92b520671eafb3452]
link RoleMenuController to Company--><g id="link_RoleMenuController_Company"><path codeLine="36" d="M225,199.29 C225,215.94 225,235.7 225,254.65 " fill="none" id="RoleMenuController-to-Company" style="stroke:#181818;stroke-width:1.0;stroke-dasharray:7.0,7.0;"/><polygon fill="#181818" points="225,259.97,229,250.97,225,254.97,221,250.97,225,259.97" style="stroke:#181818;stroke-width:1.0;"/></g><!--MD5=[09366576ee87d48d594df10cacc83f45]
link Company to Employee--><g id="link_Company_Employee"><path codeLine="37" d="M205.46,396 C202.59,406.05 199.69,416.29 197,426 C193.15,439.89 189.14,454.67 185.29,469.02 " fill="none" id="Company-to-Employee" style="stroke:#181818;stroke-width:1.0;"/><polygon fill="#181818" points="183.99,473.86,190.1711,466.1923,185.2765,469.0284,182.4404,464.1338,183.99,473.86" style="stroke:#181818;stroke-width:1.0;"/><polygon fill="#000000" points="200.6687,439.9953,205.9099,432.0592,200.2442,430.4942,200.6687,439.9953" style="stroke:#000000;stroke-width:1.0;"/><text fill="#000000" font-family="sans-serif" font-size="13" lengthAdjust="spacing" textLength="49" x="211" y="440.4951">employs</text><text fill="#000000" font-family="sans-serif" font-size="13" lengthAdjust="spacing" textLength="7" x="196.084" y="417.3483">1</text><text fill="#000000" font-family="sans-serif" font-size="13" lengthAdjust="spacing" textLength="5" x="180.657" y="463.2733">*</text></g><!--MD5=[241b49406f7a05442b1e788ffaf3787c]
link Employee to OrganizationRole--><g id="link_Employee_OrganizationRole"><path codeLine="38" d="M175.97,628.19 C179.6,644.26 184.21,660.91 190,676 C193.88,686.11 199.28,696.51 204.72,705.83 " fill="none" id="Employee-OrganizationRole" style="stroke:#181818;stroke-width:1.0;"/><polygon fill="#000000" points="196.7363,671.8646,196.3514,662.3619,190.8393,664.403,196.7363,671.8646" style="stroke:#000000;stroke-width:1.0;"/><text fill="#000000" font-family="sans-serif" font-size="13" lengthAdjust="spacing" textLength="56" x="204" y="672.4951">has/plays</text><text fill="#000000" font-family="sans-serif" font-size="13" lengthAdjust="spacing" textLength="5" x="171.7838" y="649.036">*</text><text fill="#000000" font-family="sans-serif" font-size="13" lengthAdjust="spacing" textLength="7" x="192.6091" y="694.9103">1</text></g><!--MD5=[9abf40ff36e4aa94ac761b2803c1dce8]
link Company to OrganizationRole--><g id="link_Company_OrganizationRole"><path codeLine="39" d="M256.56,396.05 C260.04,405.91 263.04,416.08 265,426 C286.59,534.99 295.79,569.24 265,676 C262.01,686.39 256.7,696.71 250.95,705.87 " fill="none" id="Company-OrganizationRole" style="stroke:#181818;stroke-width:1.0;"/><polygon fill="#000000" points="288.9095,556.175,292.0117,547.1846,286.1348,547.0782,288.9095,556.175" style="stroke:#000000;stroke-width:1.0;"/><text fill="#000000" font-family="sans-serif" font-size="13" lengthAdjust="spacing" textLength="78" x="298" y="556.4951">comprehends</text><text fill="#000000" font-family="sans-serif" font-size="13" lengthAdjust="spacing" textLength="7" x="252.4537" y="417.4035">1</text><text fill="#000000" font-family="sans-serif" font-size="13" lengthAdjust="spacing" textLength="5" x="250.5803" y="694.9586">*</text></g><!--MD5=[b240a13dd4cef2376491ce96129bfbd1]
@startuml
skinparam classAttributeIconSize 0


class Company {
-String role
-List<Employee> EmployeesList = new ArrayList<Employee>
  +FillRoleArray(String role)
  +validateRoleArray(ArrayList<Employee> EmployeesRoleList)
  +PrintListEmployeesFromRole(List<Employee> EmployeesRoleList)
}



class RoleMenuController {
  +FillRoleArray(role)
  +PrintListEmployeesFromRole(EmployeesRoleList);
}

class RoleMenuUI {

}
class Employee{
-id
-name
-address
-phoneNumber
-email
-ccNumber
}

class OrganizationRole{
-description
}

RoleMenuUI ..> RoleMenuController
RoleMenuController ..> Company
Company "1" - -> "*" Employee : employs >
Employee"*"- -"1"OrganizationRole:has/plays >
Company"1"- -"*"OrganizationRole: comprehends >
@enduml

PlantUML version 1.2022.4(Sat Apr 09 14:29:17 BST 2022)
(GPL source distribution)
Java Runtime: OpenJDK Runtime Environment
JVM: OpenJDK 64-Bit Server VM
Default Encoding: Cp1252
Language: pt
Country: PT
--></g></svg>