<?xml version="1.0" encoding="UTF-8" standalone="no"?><svg xmlns="http://www.w3.org/2000/svg" xmlns:xlink="http://www.w3.org/1999/xlink" contentStyleType="text/css" height="365px" preserveAspectRatio="none" style="width:634px;height:365px;background:#FFFFFF;" version="1.1" viewBox="0 0 634 365" width="634px" zoomAndPan="magnify"><defs/><g><!--MD5=[c25cce3a38659e471e6ad667acd901bd]
class CheckVaccinationAppointmentUI--><g id="elem_CheckVaccinationAppointmentUI"><rect codeLine="10" fill="#F1F1F1" height="65.6094" id="CheckVaccinationAppointmentUI" rx="2.5" ry="2.5" style="stroke:#181818;stroke-width:0.5;" width="253" x="7" y="51"/><ellipse cx="29.65" cy="67" fill="#ADD1B2" rx="11" ry="11" style="stroke:#181818;stroke-width:1.0;"/><path d="M31.65,63.5 Q31.8531,63 32.0875,62.75 Q32.3219,62.5 32.5875,62.5 Q33.0563,62.5 33.3531,62.7813 Q33.65,63.0625 33.65,63.7188 L33.65,65.2813 Q33.65,65.9375 33.3688,66.2188 Q33.0875,66.5 32.65,66.5 Q32.2594,66.5 32.0094,66.3281 Q31.7594,66.1563 31.65,65.7031 Q31.6031,65.3906 31.4313,65.2188 Q31.1188,64.8906 30.5563,64.7031 Q29.9938,64.5 29.4313,64.5 Q28.7281,64.5 28.1344,64.7813 Q27.5563,65.0625 27.1031,65.6875 Q26.65,66.3125 26.65,67.1719 L26.65,68.0938 Q26.65,69.125 27.4938,69.8125 Q28.3375,70.5 29.8375,70.5 Q30.7281,70.5 31.3531,70.2969 Q31.7125,70.1875 32.1188,69.8281 Q32.3844,69.625 32.525,69.5625 Q32.6656,69.5 32.8375,69.5 Q33.1656,69.5 33.4,69.7656 Q33.65,70.0156 33.65,70.375 Q33.65,70.7188 33.3063,71.125 Q32.8063,71.7188 32.0094,72.0469 Q30.9625,72.5 29.6813,72.5 Q28.1813,72.5 26.9781,71.9063 Q26.0094,71.4375 25.3219,70.4219 Q24.65,69.4063 24.65,68.2031 L24.65,67.1094 Q24.65,65.8594 25.2438,64.7656 Q25.8531,63.6719 26.9,63.0938 Q27.9625,62.5 29.15,62.5 Q29.8688,62.5 30.4938,62.75 Q31.1188,63 31.65,63.5 Z " fill="#000000"/><text fill="#000000" font-family="sans-serif" font-size="14" lengthAdjust="spacing" textLength="204" x="45.35" y="72.7285">CheckVaccinationAppointmentUI</text><line style="stroke:#181818;stroke-width:0.5;" x1="8" x2="259" y1="83" y2="83"/><line style="stroke:#181818;stroke-width:0.5;" x1="8" x2="259" y1="91" y2="91"/><rect fill="#F24D5C" height="6" style="stroke:#C82930;stroke-width:1.0;" width="6" x="15" y="99"/><text fill="#000000" font-family="sans-serif" font-size="14" lengthAdjust="spacing" textLength="227" x="27" y="109.5332">checkSnsUserAppointment(number)</text></g><!--MD5=[57441867b5bd7d62b95c633d829ff00b]
class CheckVaccinationAppointmentController--><g id="elem_CheckVaccinationAppointmentController"><rect codeLine="14" fill="#F1F1F1" height="153.6563" id="CheckVaccinationAppointmentController" rx="2.5" ry="2.5" style="stroke:#181818;stroke-width:0.5;" width="286" x="295.5" y="7"/><ellipse cx="310.5" cy="23" fill="#ADD1B2" rx="11" ry="11" style="stroke:#181818;stroke-width:1.0;"/><path d="M312.5,19.5 Q312.7031,19 312.9375,18.75 Q313.1719,18.5 313.4375,18.5 Q313.9063,18.5 314.2031,18.7813 Q314.5,19.0625 314.5,19.7188 L314.5,21.2813 Q314.5,21.9375 314.2188,22.2188 Q313.9375,22.5 313.5,22.5 Q313.1094,22.5 312.8594,22.3281 Q312.6094,22.1563 312.5,21.7031 Q312.4531,21.3906 312.2813,21.2188 Q311.9688,20.8906 311.4063,20.7031 Q310.8438,20.5 310.2813,20.5 Q309.5781,20.5 308.9844,20.7813 Q308.4063,21.0625 307.9531,21.6875 Q307.5,22.3125 307.5,23.1719 L307.5,24.0938 Q307.5,25.125 308.3438,25.8125 Q309.1875,26.5 310.6875,26.5 Q311.5781,26.5 312.2031,26.2969 Q312.5625,26.1875 312.9688,25.8281 Q313.2344,25.625 313.375,25.5625 Q313.5156,25.5 313.6875,25.5 Q314.0156,25.5 314.25,25.7656 Q314.5,26.0156 314.5,26.375 Q314.5,26.7188 314.1563,27.125 Q313.6563,27.7188 312.8594,28.0469 Q311.8125,28.5 310.5313,28.5 Q309.0313,28.5 307.8281,27.9063 Q306.8594,27.4375 306.1719,26.4219 Q305.5,25.4063 305.5,24.2031 L305.5,23.1094 Q305.5,21.8594 306.0938,20.7656 Q306.7031,19.6719 307.75,19.0938 Q308.8125,18.5 310,18.5 Q310.7188,18.5 311.3438,18.75 Q311.9688,19 312.5,19.5 Z " fill="#000000"/><text fill="#000000" font-family="sans-serif" font-size="14" lengthAdjust="spacing" textLength="254" x="324.5" y="28.7285">CheckVaccinationAppointmentController</text><line style="stroke:#181818;stroke-width:0.5;" x1="296.5" x2="580.5" y1="39" y2="39"/><line style="stroke:#181818;stroke-width:0.5;" x1="296.5" x2="580.5" y1="47" y2="47"/><ellipse cx="306.5" cy="58" fill="#84BE84" rx="3" ry="3" style="stroke:#038048;stroke-width:1.0;"/><text fill="#000000" font-family="sans-serif" font-size="14" lengthAdjust="spacing" textLength="145" x="315.5" y="65.5332">snsUserExists(number)</text><ellipse cx="306.5" cy="75.6094" fill="#84BE84" rx="3" ry="3" style="stroke:#038048;stroke-width:1.0;"/><text fill="#000000" font-family="sans-serif" font-size="14" lengthAdjust="spacing" textLength="126" x="315.5" y="83.1426">checkAppointment()</text><ellipse cx="306.5" cy="93.2188" fill="#84BE84" rx="3" ry="3" style="stroke:#038048;stroke-width:1.0;"/><text fill="#000000" font-family="sans-serif" font-size="14" lengthAdjust="spacing" textLength="151" x="315.5" y="100.752">checkAppointmentDay()</text><ellipse cx="306.5" cy="110.8281" fill="#84BE84" rx="3" ry="3" style="stroke:#038048;stroke-width:1.0;"/><text fill="#000000" font-family="sans-serif" font-size="14" lengthAdjust="spacing" textLength="227" x="315.5" y="118.3613">requestSnsUserArrivalRegistration()</text><ellipse cx="306.5" cy="128.4375" fill="#84BE84" rx="3" ry="3" style="stroke:#038048;stroke-width:1.0;"/><text fill="#000000" font-family="sans-serif" font-size="14" lengthAdjust="spacing" textLength="200" x="315.5" y="135.9707">requestToSaveSnsUserArrival()</text><ellipse cx="306.5" cy="146.0469" fill="#84BE84" rx="3" ry="3" style="stroke:#038048;stroke-width:1.0;"/><text fill="#000000" font-family="sans-serif" font-size="14" lengthAdjust="spacing" textLength="158" x="315.5" y="153.5801">getVaccinationFacilities()</text></g><!--MD5=[02e4b9b7573f1156f41e60aa5b4e25a4]
class Company--><g id="elem_Company"><rect codeLine="26" fill="#F1F1F1" height="136.0469" id="Company" rx="2.5" ry="2.5" style="stroke:#181818;stroke-width:0.5;" width="279" x="104" y="222"/><ellipse cx="209.25" cy="238" fill="#ADD1B2" rx="11" ry="11" style="stroke:#181818;stroke-width:1.0;"/><path d="M211.25,234.5 Q211.4531,234 211.6875,233.75 Q211.9219,233.5 212.1875,233.5 Q212.6563,233.5 212.9531,233.7813 Q213.25,234.0625 213.25,234.7188 L213.25,236.2813 Q213.25,236.9375 212.9688,237.2188 Q212.6875,237.5 212.25,237.5 Q211.8594,237.5 211.6094,237.3281 Q211.3594,237.1563 211.25,236.7031 Q211.2031,236.3906 211.0313,236.2188 Q210.7188,235.8906 210.1563,235.7031 Q209.5938,235.5 209.0313,235.5 Q208.3281,235.5 207.7344,235.7813 Q207.1563,236.0625 206.7031,236.6875 Q206.25,237.3125 206.25,238.1719 L206.25,239.0938 Q206.25,240.125 207.0938,240.8125 Q207.9375,241.5 209.4375,241.5 Q210.3281,241.5 210.9531,241.2969 Q211.3125,241.1875 211.7188,240.8281 Q211.9844,240.625 212.125,240.5625 Q212.2656,240.5 212.4375,240.5 Q212.7656,240.5 213,240.7656 Q213.25,241.0156 213.25,241.375 Q213.25,241.7188 212.9063,242.125 Q212.4063,242.7188 211.6094,243.0469 Q210.5625,243.5 209.2813,243.5 Q207.7813,243.5 206.5781,242.9063 Q205.6094,242.4375 204.9219,241.4219 Q204.25,240.4063 204.25,239.2031 L204.25,238.1094 Q204.25,236.8594 204.8438,235.7656 Q205.4531,234.6719 206.5,234.0938 Q207.5625,233.5 208.75,233.5 Q209.4688,233.5 210.0938,233.75 Q210.7188,234 211.25,234.5 Z " fill="#000000"/><text fill="#000000" font-family="sans-serif" font-size="14" lengthAdjust="spacing" textLength="60" x="229.75" y="243.7285">Company</text><line style="stroke:#181818;stroke-width:0.5;" x1="105" x2="382" y1="254" y2="254"/><rect fill="none" height="6" style="stroke:#C82930;stroke-width:1.0;" width="6" x="112" y="262"/><text fill="#000000" font-family="sans-serif" font-size="14" lengthAdjust="spacing" textLength="137" x="124" y="272.5332">vaccinationFacilityList</text><line style="stroke:#181818;stroke-width:0.5;" x1="105" x2="382" y1="279.6094" y2="279.6094"/><ellipse cx="115" cy="290.6094" fill="#84BE84" rx="3" ry="3" style="stroke:#038048;stroke-width:1.0;"/><text fill="#000000" font-family="sans-serif" font-size="14" lengthAdjust="spacing" textLength="141" x="124" y="298.1426">createArrival(snsUser)</text><ellipse cx="115" cy="308.2188" fill="#84BE84" rx="3" ry="3" style="stroke:#038048;stroke-width:1.0;"/><text fill="#000000" font-family="sans-serif" font-size="14" lengthAdjust="spacing" textLength="138" x="124" y="315.752">validateArrival(arrival)</text><ellipse cx="115" cy="325.8281" fill="#84BE84" rx="3" ry="3" style="stroke:#038048;stroke-width:1.0;"/><text fill="#000000" font-family="sans-serif" font-size="14" lengthAdjust="spacing" textLength="213" x="124" y="333.3613">saveSnsUserArrival(index, arrival)</text><ellipse cx="115" cy="343.4375" fill="#84BE84" rx="3" ry="3" style="stroke:#038048;stroke-width:1.0;"/><text fill="#000000" font-family="sans-serif" font-size="14" lengthAdjust="spacing" textLength="253" x="124" y="350.9707">addSnsUserToWaitingList(index, arrival)</text></g><!--MD5=[950bab46f39ba9ae59885963abb53c18]
class Arrival--><g id="elem_Arrival"><rect codeLine="38" fill="#F1F1F1" height="100.8281" id="Arrival" rx="2.5" ry="2.5" style="stroke:#181818;stroke-width:0.5;" width="127" x="500" y="239.5"/><ellipse cx="539.75" cy="255.5" fill="#ADD1B2" rx="11" ry="11" style="stroke:#181818;stroke-width:1.0;"/><path d="M541.75,252 Q541.9531,251.5 542.1875,251.25 Q542.4219,251 542.6875,251 Q543.1563,251 543.4531,251.2813 Q543.75,251.5625 543.75,252.2188 L543.75,253.7813 Q543.75,254.4375 543.4688,254.7188 Q543.1875,255 542.75,255 Q542.3594,255 542.1094,254.8281 Q541.8594,254.6563 541.75,254.2031 Q541.7031,253.8906 541.5313,253.7188 Q541.2188,253.3906 540.6563,253.2031 Q540.0938,253 539.5313,253 Q538.8281,253 538.2344,253.2813 Q537.6563,253.5625 537.2031,254.1875 Q536.75,254.8125 536.75,255.6719 L536.75,256.5938 Q536.75,257.625 537.5938,258.3125 Q538.4375,259 539.9375,259 Q540.8281,259 541.4531,258.7969 Q541.8125,258.6875 542.2188,258.3281 Q542.4844,258.125 542.625,258.0625 Q542.7656,258 542.9375,258 Q543.2656,258 543.5,258.2656 Q543.75,258.5156 543.75,258.875 Q543.75,259.2188 543.4063,259.625 Q542.9063,260.2188 542.1094,260.5469 Q541.0625,261 539.7813,261 Q538.2813,261 537.0781,260.4063 Q536.1094,259.9375 535.4219,258.9219 Q534.75,257.9063 534.75,256.7031 L534.75,255.6094 Q534.75,254.3594 535.3438,253.2656 Q535.9531,252.1719 537,251.5938 Q538.0625,251 539.25,251 Q539.9688,251 540.5938,251.25 Q541.2188,251.5 541.75,252 Z " fill="#000000"/><text fill="#000000" font-family="sans-serif" font-size="14" lengthAdjust="spacing" textLength="40" x="559.25" y="261.2285">Arrival</text><line style="stroke:#181818;stroke-width:0.5;" x1="501" x2="626" y1="271.5" y2="271.5"/><rect fill="none" height="6" style="stroke:#C82930;stroke-width:1.0;" width="6" x="508" y="279.5"/><text fill="#000000" font-family="sans-serif" font-size="14" lengthAdjust="spacing" textLength="51" x="520" y="290.0332">snsUser</text><rect fill="none" height="6" style="stroke:#C82930;stroke-width:1.0;" width="6" x="508" y="297.1094"/><text fill="#000000" font-family="sans-serif" font-size="14" lengthAdjust="spacing" textLength="81" x="520" y="307.6426">timeOfArrival</text><line style="stroke:#181818;stroke-width:0.5;" x1="501" x2="626" y1="314.7188" y2="314.7188"/><ellipse cx="511" cy="325.7188" fill="#84BE84" rx="3" ry="3" style="stroke:#038048;stroke-width:1.0;"/><text fill="#000000" font-family="sans-serif" font-size="14" lengthAdjust="spacing" textLength="101" x="520" y="333.252">Arrival(snsUser)</text></g><!--MD5=[0d60130d92ba2111654ff334178df089]
link CheckVaccinationAppointmentUI to CheckVaccinationAppointmentController--><g id="link_CheckVaccinationAppointmentUI_CheckVaccinationAppointmentController"><path codeLine="8" d="M260.09,84 C270.08,84 280.07,84 290.06,84 " fill="none" id="CheckVaccinationAppointmentUI-to-CheckVaccinationAppointmentController" style="stroke:#181818;stroke-width:1.0;stroke-dasharray:7.0,7.0;"/><polygon fill="#181818" points="295.28,84,286.28,80,290.28,84,286.28,88,295.28,84" style="stroke:#181818;stroke-width:1.0;"/></g><!--MD5=[fbf057680785afec1809a78e6677184e]
link CheckVaccinationAppointmentController to Company--><g id="link_CheckVaccinationAppointmentController_Company"><path codeLine="24" d="M365.61,161.25 C347.76,179.93 328.74,199.83 311.14,218.23 " fill="none" id="CheckVaccinationAppointmentController-to-Company" style="stroke:#181818;stroke-width:1.0;stroke-dasharray:7.0,7.0;"/><polygon fill="#181818" points="307.65,221.89,316.7616,218.1511,311.1061,218.2768,310.9804,212.6213,307.65,221.89" style="stroke:#181818;stroke-width:1.0;"/></g><!--MD5=[6039d9765901b257cadc0a375ad76835]
link Company to Arrival--><g id="link_Company_Arrival"><path codeLine="35" d="M383.39,290 C421.86,290 461.91,290 494.45,290 " fill="none" id="Company-to-Arrival" style="stroke:#181818;stroke-width:1.0;"/><polygon fill="#181818" points="499.6,290,490.6,286,494.6,290,490.6,294,499.6,290" style="stroke:#181818;stroke-width:1.0;"/><polygon fill="#000000" points="410.5,278.1758,401.4549,275.2369,401.4549,281.1147,410.5,278.1758" style="stroke:#000000;stroke-width:1.0;"/><text fill="#000000" font-family="sans-serif" font-size="13" lengthAdjust="spacing" textLength="67" x="414.5" y="283.4951">administers</text></g><!--MD5=[4bfe5fd348ffe30bfc451803afbdc298]
link CheckVaccinationAppointmentController to Arrival--><g id="link_CheckVaccinationAppointmentController_Arrival"><path codeLine="36" d="M485.22,161.25 C500.24,185.76 516.56,212.39 530.39,234.96 " fill="none" id="CheckVaccinationAppointmentController-to-Arrival" style="stroke:#181818;stroke-width:1.0;stroke-dasharray:7.0,7.0;"/><polygon fill="#181818" points="533.12,239.42,531.8189,229.6575,530.5035,235.1593,525.0017,233.8439,533.12,239.42" style="stroke:#181818;stroke-width:1.0;"/></g><!--MD5=[78fe00e6f67288458bd5153ad9b4cb77]
@startuml
'https://plantuml.com/class-diagram

class CheckVaccinationAppointmentUI
class CheckVaccinationAppointmentController
class Company
class Arrival

CheckVaccinationAppointmentUI .> CheckVaccinationAppointmentController

class CheckVaccinationAppointmentUI {
    -checkSnsUserAppointment(number)
}

class CheckVaccinationAppointmentController {
    +snsUserExists(number)
    +checkAppointment()
    +checkAppointmentDay()
    +requestSnsUserArrivalRegistration()
    +requestToSaveSnsUserArrival()
    +getVaccinationFacilities()

}

CheckVaccinationAppointmentController ..> Company

class Company {
    -vaccinationFacilityList
    +createArrival(snsUser)
    +validateArrival(arrival)
    +saveSnsUserArrival(index, arrival)
    +addSnsUserToWaitingList(index, arrival)

}

Company  ->  Arrival : > administers
CheckVaccinationAppointmentController .> Arrival

class Arrival {
    -snsUser
    -timeOfArrival
    +Arrival(snsUser)
}

@enduml

@startuml

class CheckVaccinationAppointmentUI
class CheckVaccinationAppointmentController
class Company
class Arrival

CheckVaccinationAppointmentUI .> CheckVaccinationAppointmentController

class CheckVaccinationAppointmentUI {
    -checkSnsUserAppointment(number)
}

class CheckVaccinationAppointmentController {
    +snsUserExists(number)
    +checkAppointment()
    +checkAppointmentDay()
    +requestSnsUserArrivalRegistration()
    +requestToSaveSnsUserArrival()
    +getVaccinationFacilities()

}

CheckVaccinationAppointmentController ..> Company

class Company {
    -vaccinationFacilityList
    +createArrival(snsUser)
    +validateArrival(arrival)
    +saveSnsUserArrival(index, arrival)
    +addSnsUserToWaitingList(index, arrival)

}

Company  ->  Arrival : > administers
CheckVaccinationAppointmentController .> Arrival

class Arrival {
    -snsUser
    -timeOfArrival
    +Arrival(snsUser)
}

@enduml

PlantUML version 1.2022.5(Sat Apr 30 11:55:52 BST 2022)
(GPL source distribution)
Java Runtime: OpenJDK Runtime Environment
JVM: OpenJDK 64-Bit Server VM
Default Encoding: Cp1252
Language: pt
Country: BR
--></g></svg>