<?xml version="1.0" encoding="UTF-8" standalone="no"?><svg xmlns="http://www.w3.org/2000/svg" xmlns:xlink="http://www.w3.org/1999/xlink" contentScriptType="application/ecmascript" contentStyleType="text/css" height="1642px" preserveAspectRatio="none" style="width:983px;height:1642px;background:#FFFFFF;" version="1.1" viewBox="0 0 983 1642" width="983px" zoomAndPan="magnify"><defs><filter height="300%" id="f47p1b5xbil6s" width="300%" x="-1" y="-1"><feGaussianBlur result="blurOut" stdDeviation="2.0"/><feColorMatrix in="blurOut" result="blurOut2" type="matrix" values="0 0 0 0 0 0 0 0 0 0 0 0 0 0 0 0 0 0 .4 0"/><feOffset dx="4.0" dy="4.0" in="blurOut2" result="blurOut3"/><feBlend in="SourceGraphic" in2="blurOut3" mode="normal"/></filter></defs><g><!--MD5=[f97502fb109e45a91828d3c6f7665ec1]
cluster DGSStaff--><polygon fill="#FFFFFF" filter="url(#f47p1b5xbil6s)" points="16,487,84,487,91,510.6094,166,510.6094,166,977,16,977,16,487" style="stroke:#000000;stroke-width:1.5;"/><line style="stroke:#000000;stroke-width:1.5;" x1="16" x2="91" y1="510.6094" y2="510.6094"/><text fill="#000000" font-family="sans-serif" font-size="14" font-weight="bold" lengthAdjust="spacing" textLength="62" x="20" y="503.5332">DGSStaff</text><!--MD5=[03acc2bd09302c025b81510236da02b7]
cluster Other--><polygon fill="#FFFFFF" filter="url(#f47p1b5xbil6s)" points="47,1292,93,1292,100,1315.6094,135,1315.6094,135,1428,47,1428,47,1292" style="stroke:#000000;stroke-width:1.5;"/><line style="stroke:#000000;stroke-width:1.5;" x1="47" x2="100" y1="1315.6094" y2="1315.6094"/><text fill="#000000" font-family="sans-serif" font-size="14" font-weight="bold" lengthAdjust="spacing" textLength="40" x="51" y="1308.5332">Other</text><!--MD5=[99b31deea5d7419a569cd5090bf83263]
cluster System--><rect fill="#FFFFFF" filter="url(#f47p1b5xbil6s)" height="1623" style="stroke:#000000;stroke-width:1.5;" width="777" x="194" y="7"/><text fill="#000000" font-family="sans-serif" font-size="14" font-weight="bold" lengthAdjust="spacing" textLength="50" x="557.5" y="23.5332">System</text><!--MD5=[87a04b683345c3cce94ac9a6e159ab2f]
entity Receptionist--><ellipse cx="91" cy="533" fill="#FEFECE" filter="url(#f47p1b5xbil6s)" rx="8" ry="8" style="stroke:#A80036;stroke-width:1.5;"/><path d="M91,541 L91,568 M78,549 L104,549 M91,568 L78,583 M91,568 L104,583 " fill="none" filter="url(#f47p1b5xbil6s)" style="stroke:#A80036;stroke-width:1.5;"/><text fill="#000000" font-family="sans-serif" font-size="14" lengthAdjust="spacing" textLength="78" x="52" y="603.0332">Receptionist</text><!--MD5=[c8b2cb7ab209025f476c1467c68b906a]
entity Nurse--><ellipse cx="91" cy="651" fill="#FEFECE" filter="url(#f47p1b5xbil6s)" rx="8" ry="8" style="stroke:#A80036;stroke-width:1.5;"/><path d="M91,659 L91,686 M78,667 L104,667 M91,686 L78,701 M91,686 L104,701 " fill="none" filter="url(#f47p1b5xbil6s)" style="stroke:#A80036;stroke-width:1.5;"/><text fill="#000000" font-family="sans-serif" font-size="14" lengthAdjust="spacing" textLength="37" x="72.5" y="721.0332">Nurse</text><!--MD5=[4d1814f35f4753d93d3360c42dea82f5]
entity CenterCoordinator--><ellipse cx="91" cy="769" fill="#FEFECE" filter="url(#f47p1b5xbil6s)" rx="8" ry="8" style="stroke:#A80036;stroke-width:1.5;"/><path d="M91,777 L91,804 M78,785 L104,785 M91,804 L78,819 M91,804 L104,819 " fill="none" filter="url(#f47p1b5xbil6s)" style="stroke:#A80036;stroke-width:1.5;"/><text fill="#000000" font-family="sans-serif" font-size="14" lengthAdjust="spacing" textLength="118" x="32" y="839.0332">CenterCoordinator</text><!--MD5=[62529e7d5259bf274c3bf3e446350d88]
entity Administrator--><ellipse cx="91" cy="887" fill="#FEFECE" filter="url(#f47p1b5xbil6s)" rx="8" ry="8" style="stroke:#A80036;stroke-width:1.5;"/><path d="M91,895 L91,922 M78,903 L104,903 M91,922 L78,937 M91,922 L104,937 " fill="none" filter="url(#f47p1b5xbil6s)" style="stroke:#A80036;stroke-width:1.5;"/><text fill="#000000" font-family="sans-serif" font-size="14" lengthAdjust="spacing" textLength="83" x="49.5" y="957.0332">Administrator</text><!--MD5=[704bc45fe0741045fc82ff5c80e9326f]
entity SNSUser--><ellipse cx="91" cy="1338" fill="#FEFECE" filter="url(#f47p1b5xbil6s)" rx="8" ry="8" style="stroke:#A80036;stroke-width:1.5;"/><path d="M91,1346 L91,1373 M78,1354 L104,1354 M91,1373 L78,1388 M91,1373 L104,1388 " fill="none" filter="url(#f47p1b5xbil6s)" style="stroke:#A80036;stroke-width:1.5;"/><text fill="#000000" font-family="sans-serif" font-size="14" lengthAdjust="spacing" textLength="56" x="63" y="1408.0332">SNSUser</text><ellipse cx="582.4524" cy="201.0905" fill="#FEFECE" filter="url(#f47p1b5xbil6s)" rx="183.4524" ry="39.0905" style="stroke:#A80036;stroke-width:1.5;"/><text fill="#000000" font-family="sans-serif" font-size="14" lengthAdjust="spacing" textLength="338" x="413.4524" y="204.819">UC03:Register the arrival of the patient on the system</text><ellipse cx="582.5856" cy="85.1171" fill="#FEFECE" filter="url(#f47p1b5xbil6s)" rx="196.0856" ry="41.6171" style="stroke:#A80036;stroke-width:1.5;"/><text fill="#000000" font-family="sans-serif" font-size="14" lengthAdjust="spacing" textLength="364" x="400.5856" y="88.8456">UC04: Check if the SNS user has a scheduled vaccination</text><ellipse cx="582.5702" cy="1073.114" fill="#FEFECE" filter="url(#f47p1b5xbil6s)" rx="96.0702" ry="21.614" style="stroke:#A80036;stroke-width:1.5;"/><text fill="#000000" font-family="sans-serif" font-size="14" lengthAdjust="spacing" textLength="152" x="506.5702" y="1076.8426">UC01:Schedule Vaccine</text><ellipse cx="582.4206" cy="1428.7841" fill="#FEFECE" filter="url(#f47p1b5xbil6s)" rx="224.4206" ry="47.2841" style="stroke:#A80036;stroke-width:1.5;"/><text fill="#000000" font-family="sans-serif" font-size="14" lengthAdjust="spacing" textLength="422" x="371.4206" y="1432.5126">US02: Receive an SMS confirming SNS user scheduled vaccination</text><ellipse cx="582.6932" cy="456.8386" fill="#FEFECE" filter="url(#f47p1b5xbil6s)" rx="192.1932" ry="40.8386" style="stroke:#A80036;stroke-width:1.5;"/><text fill="#000000" font-family="sans-serif" font-size="14" lengthAdjust="spacing" textLength="356" x="404.6932" y="460.5672">UC05:Check the list of the SNS users in the waiting room</text><ellipse cx="582.4717" cy="879.1943" fill="#FEFECE" filter="url(#f47p1b5xbil6s)" rx="248.9717" ry="52.1943" style="stroke:#A80036;stroke-width:1.5;"/><text fill="#000000" font-family="sans-serif" font-size="14" lengthAdjust="spacing" textLength="472" x="346.4717" y="882.9228">UC11:Generate reports and analyze reports from other vaccination centers</text><ellipse cx="582.729" cy="1184.8458" fill="#FEFECE" filter="url(#f47p1b5xbil6s)" rx="264.729" ry="55.3458" style="stroke:#A80036;stroke-width:1.5;"/><text fill="#000000" font-family="sans-serif" font-size="14" lengthAdjust="spacing" textLength="504" x="330.729" y="1188.5743">UC12:Register centers, SNS user, center coordinators, receptionists and nurses</text><ellipse cx="582.6359" cy="991.1272" fill="#FEFECE" filter="url(#f47p1b5xbil6s)" rx="113.6359" ry="25.1272" style="stroke:#A80036;stroke-width:1.5;"/><text fill="#000000" font-family="sans-serif" font-size="14" lengthAdjust="spacing" textLength="191" x="487.1359" y="994.8557">UC14:Register type of vaccine</text><ellipse cx="582.631" cy="609.9262" fill="#FEFECE" filter="url(#f47p1b5xbil6s)" rx="372.631" ry="76.9262" style="stroke:#A80036;stroke-width:1.5;"/><text fill="#000000" font-family="sans-serif" font-size="14" lengthAdjust="spacing" textLength="718" x="221.631" y="613.6547">UC06 -- receive informations about SNS user and instructions about the vaccination, dosage and brand of vaccine</text><ellipse cx="582.6497" cy="757.1299" fill="#FEFECE" filter="url(#f47p1b5xbil6s)" rx="163.6497" ry="35.1299" style="stroke:#A80036;stroke-width:1.5;"/><text fill="#000000" font-family="sans-serif" font-size="14" lengthAdjust="spacing" textLength="297" x="434.1497" y="760.8584">UC07 -- Register the vaccination on the system</text><ellipse cx="582.5795" cy="1562.9159" fill="#FEFECE" filter="url(#f47p1b5xbil6s)" rx="242.5795" ry="50.9159" style="stroke:#A80036;stroke-width:1.5;"/><text fill="#000000" font-family="sans-serif" font-size="14" lengthAdjust="spacing" textLength="459" x="353.0795" y="1566.6444">UC08: receive an SMS/EMAIL notification that the recovery period is over</text><ellipse cx="582.4476" cy="327.9895" fill="#FEFECE" filter="url(#f47p1b5xbil6s)" rx="250.4476" ry="52.4895" style="stroke:#A80036;stroke-width:1.5;"/><text fill="#000000" font-family="sans-serif" font-size="14" lengthAdjust="spacing" textLength="475" x="344.9476" y="331.718">UC09: Register an adverse reaction of the vaccine during the recovery time</text><ellipse cx="582.7076" cy="1310.8415" fill="#FEFECE" filter="url(#f47p1b5xbil6s)" rx="162.2076" ry="34.8415" style="stroke:#A80036;stroke-width:1.5;"/><text fill="#000000" font-family="sans-serif" font-size="14" lengthAdjust="spacing" textLength="294" x="435.7076" y="1314.57">UC10: Receive an EU COVID Digital Certificate</text><!--MD5=[9806064cfb50ca8d16d97dd10f65d50c]
link Receptionist to UC03:Register the arrival of the patient on the system--><path d="M104,523.24 C104,427.63 104,201 104,201 C104,201 263.93,201 398.87,201 " fill="none" id="Receptionist-UC03:Register the arrival of the patient on the system" style="stroke:#A80036;stroke-width:1.0;"/><!--MD5=[66eaf219db32638ebf3f0c100139c795]
link Receptionist to UC04: Check if the SNS user has a scheduled vaccination--><path d="M78,523.24 C78,406.46 78,85 78,85 C78,85 244.63,85 386.36,85 " fill="none" id="Receptionist-UC04: Check if the SNS user has a scheduled vaccination" style="stroke:#A80036;stroke-width:1.0;"/><!--MD5=[7884d8cdc07e142efb5eae6953588861]
link SNSUser to UC01:Schedule Vaccine--><path d="M91,1328.47 C91,1248.33 91,1080.17 91,1080.17 C91,1080.17 349.76,1080.17 491.78,1080.17 " fill="none" id="SNSUser-UC01:Schedule Vaccine" style="stroke:#A80036;stroke-width:1.0;"/><!--MD5=[ff655befb8e8563e618d9d0905422773]
link SNSUser to US02: Receive an SMS confirming SNS user scheduled vaccination--><path d="M119.19,1391.5 C180.95,1391.5 331.66,1391.5 444.54,1391.5 " fill="none" id="SNSUser-US02: Receive an SMS confirming SNS user scheduled vaccination" style="stroke:#A80036;stroke-width:1.0;"/><!--MD5=[e11cef32941ba631f4492142d0f72ba6]
link Nurse to UC05:Check the list of the SNS users in the waiting room--><path d="M109.54,664.25 C124.82,664.25 144,664.25 144,664.25 C144,664.25 144,457 144,457 C144,457 272.58,457 390.49,457 " fill="none" id="Nurse-UC05:Check the list of the SNS users in the waiting room" style="stroke:#A80036;stroke-width:1.0;"/><!--MD5=[3eb27dc6d5d502ae67243105891b5649]
link CenterCoordinator to UC11:Generate reports and analyze reports from other vaccination centers--><path d="M150.29,834.75 C224.52,834.75 353.82,834.75 451.71,834.75 " fill="none" id="CenterCoordinator-UC11:Generate reports and analyze reports from other vaccination centers" style="stroke:#A80036;stroke-width:1.0;"/><!--MD5=[5ad6678ab4cf8a0fce286f1200110078]
link Administrator to UC12:Register centers, SNS user, center coordinators, receptionists and nurses--><path d="M132.74,945.75 C200.27,945.75 326,945.75 326,945.75 C326,945.75 326,1120.84 326,1171.45 " fill="none" id="Administrator-UC12:Register centers, SNS user, center coordinators, receptionists and nurses" style="stroke:#A80036;stroke-width:1.0;"/><!--MD5=[735c98164df5c6c324c1eb8452a7a263]
link Administrator to UC14:Register type of vaccine--><path d="M126,960.88 C126,976.72 126,991 126,991 C126,991 333.57,991 468.78,991 " fill="none" id="Administrator-UC14:Register type of vaccine" style="stroke:#A80036;stroke-width:1.0;"/><!--MD5=[cdbf4f29ef168e00143da7894a229a88]
link Nurse to UC06 - - receive informations about SNS user and instructions about the vaccination, dosage and brand of vaccine --><path d="M109.67,675.62 C155.65,675.62 278.58,675.62 387.57,675.62 " fill="none" id="Nurse-UC06 -- receive informations about SNS user and instructions about the vaccination, dosage and brand of vaccine " style="stroke:#A80036;stroke-width:1.0;"/><!--MD5=[286a75a163c561a464693f28ee232e00]
link Nurse to UC07 - - Register the vaccination on the system--><path d="M91,724.62 C91,734.38 91,742 91,742 C91,742 289.95,742 434.7,742 " fill="none" id="Nurse-UC07 -- Register the vaccination on the system" style="stroke:#A80036;stroke-width:1.0;"/><!--MD5=[5aad2a05366d8a9a4b0e6ba38525191b]
link SNSUser to UC08: receive an SMS/EMAIL notification that the recovery period is over--><path d="M119.1,1401.5 C185.97,1401.5 349,1401.5 349,1401.5 C349,1401.5 349,1510.18 349,1549.23 " fill="none" id="SNSUser-UC08: receive an SMS/EMAIL notification that the recovery period is over" style="stroke:#A80036;stroke-width:1.0;"/><!--MD5=[7f5c82fef3f70076f27533154727f126]
link Nurse to UC09: Register an adverse reaction of the vaccine during the recovery time--><path d="M109.71,652.88 C122.45,652.88 137,652.88 137,652.88 C137,652.88 137,328 137,328 C137,328 230.45,328 331.75,328 " fill="none" id="Nurse-UC09: Register an adverse reaction of the vaccine during the recovery time" style="stroke:#A80036;stroke-width:1.0;"/><!--MD5=[6f3931e3ad325e775b3e6ec2cb45c85a]
link SNSUser to UC10: Receive an EU COVID Digital Certificate--><path d="M119.19,1337.25 C186.76,1337.25 360.83,1337.25 475.31,1337.25 " fill="none" id="SNSUser-UC10: Receive an EU COVID Digital Certificate" style="stroke:#A80036;stroke-width:1.0;"/><!--MD5=[a0b5d7d7df4ef0c5168054fc4281118d]
link Receptionist to UC01:Schedule Vaccine--><path d="M130.04,569.75 C153.95,569.75 180,569.75 180,569.75 C180,569.75 180,1065.83 180,1065.83 C180,1065.83 373.23,1065.83 491.92,1065.83 " fill="none" id="Receptionist-UC01:Schedule Vaccine" style="stroke:#A80036;stroke-width:1.0;"/><!--MD5=[fa5092a9926fe0729b157d65a326305a]
@startuml
skinparam linetype ortho
left to right direction

package DGSStaff {
  actor Receptionist
  actor Nurse
  actor CenterCoordinator
  actor Administrator

}
package Other {
actor SNSUser
}

rectangle System {
    Receptionist - - (UC03:Register the arrival of the patient on the system)
    Receptionist - - (UC04: Check if the SNS user has a scheduled vaccination)
    SNSUser - - (UC01:Schedule Vaccine)
    SNSUser - - (US02: Receive an SMS confirming SNS user scheduled vaccination)
    Nurse - - (UC05:Check the list of the SNS users in the waiting room)
    CenterCoordinator  - - (UC11:Generate reports and analyze reports from other vaccination centers)
    Administrator - - (UC12:Register centers, SNS user, center coordinators, receptionists and nurses)
    Administrator - - (UC14:Register type of vaccine)
    Nurse - - (UC06 - - receive informations about SNS user and instructions about the vaccination, dosage and brand of vaccine )
    Nurse - - (UC07 - - Register the vaccination on the system)
    SNSUser- - (UC08: receive an SMS/EMAIL notification that the recovery period is over)
    Nurse - - (UC09: Register an adverse reaction of the vaccine during the recovery time)
    SNSUser- - (UC10: Receive an EU COVID Digital Certificate)
    Receptionist - - (UC01:Schedule Vaccine)




   }
@enduml

PlantUML version 1.2022.1(Tue Feb 01 18:19:58 GMT 2022)
(GPL source distribution)
Java Runtime: OpenJDK Runtime Environment
JVM: OpenJDK 64-Bit Server VM
Default Encoding: Cp1252
Language: pt
Country: PT
--></g></svg>